<svg width="1173" height="202" viewBox="0 0 1173 202" fill="none" xmlns="http://www.w3.org/2000/svg">
<path fill-rule="evenodd" clip-rule="evenodd" d="M56.1687 63.9261C65.8366 73.5831 59.4593 86.0998 45.7946 86.0998H0.000488281L0.000489574 115.69H45.7942C59.4589 115.69 65.8399 128.207 56.1719 137.864L16.0055 177.972L36.9539 198.895L87.9403 147.97C113.97 121.971 113.97 79.8193 87.9402 53.8206L36.9538 2.89539L16.0056 23.8194L56.1687 63.9261Z" fill="#FFFEF7"/>
<path fill-rule="evenodd" clip-rule="evenodd" d="M176.12 63.9261C166.453 73.5831 172.83 86.0998 186.494 86.0998H232.289V115.69H186.495C172.83 115.69 166.449 128.207 176.117 137.864L216.284 177.972L195.335 198.895L144.349 147.97C118.319 121.971 118.319 79.8193 144.349 53.8206L195.335 2.89539L216.283 23.8194L176.12 63.9261Z" fill="#FFFEF7"/>
<mask id="mask0_1173_1116" style="mask-type:luminance" maskUnits="userSpaceOnUse" x="275" y="0" width="898" height="202">
<path d="M1172.29 0.602661H275.288V201.188H1172.29V0.602661Z" fill="white"/>
</mask>
<g mask="url(#mask0_1173_1116)">
<path d="M367.14 200.613C310.967 200.613 275.754 160.929 275.754 101.123C275.754 41.8761 312.364 1.63281 369.096 1.63281C412.414 1.63281 443.993 26.7849 451.26 67.3076H425.549C418.003 40.1993 397.322 23.9902 367.978 23.9902C326.897 23.9902 300.627 55.8495 300.627 101.123C300.627 146.117 325.779 178.256 366.86 178.256C397.043 178.256 418.003 162.326 425.269 134.939H450.98C443.714 175.461 411.296 200.613 367.14 200.613ZM538.469 54.7316C570.328 54.7316 596.319 72.338 596.319 119.568V198.937H573.403V120.965C573.403 91.3417 559.15 75.6916 534.557 75.6916C508.007 75.6916 491.518 95.5337 491.518 127.672V198.937H468.602V3.30961H491.518V79.8836C499.902 66.4692 514.435 54.7316 538.469 54.7316ZM743.186 177.977H750.452V198.937H737.876C718.872 198.937 712.444 190.832 712.165 176.859C703.222 189.714 688.969 200.613 664.376 200.613C633.076 200.613 611.836 184.963 611.836 158.973C611.836 130.467 631.678 114.537 669.127 114.537H711.047V104.756C711.047 86.3113 697.912 75.1327 675.555 75.1327C655.433 75.1327 642.019 84.6346 639.224 99.1669H616.308C619.661 71.2202 642.298 54.7316 676.672 54.7316C713.003 54.7316 733.963 72.897 733.963 106.153V168.475C733.963 176.02 736.758 177.977 743.186 177.977ZM711.047 140.807V133.821H666.891C646.49 133.821 635.032 141.366 635.032 157.575C635.032 171.549 647.049 181.051 666.053 181.051C694.558 181.051 711.047 164.562 711.047 140.807ZM759.686 198.937V3.30961H782.602V132.144L854.145 56.4084H882.372L826.758 115.376L886.284 198.937H858.617L811.387 131.864L782.602 161.488V198.937H759.686ZM959.991 56.4084H966.419V78.7658H954.961C925.058 78.7658 916.954 103.638 916.954 126.275V198.937H894.037V56.4084H913.879L916.954 77.9274C923.661 67.0281 934.56 56.4084 959.991 56.4084ZM1099.03 177.977H1106.29V198.937H1093.72C1074.71 198.937 1068.29 190.832 1068.01 176.859C1059.06 189.714 1044.81 200.613 1020.22 200.613C988.916 200.613 967.677 184.963 967.677 158.973C967.677 130.467 987.519 114.537 1024.97 114.537H1066.89V104.756C1066.89 86.3113 1053.75 75.1327 1031.4 75.1327C1011.27 75.1327 997.859 84.6346 995.065 99.1669H972.148C975.502 71.2202 998.139 54.7316 1032.51 54.7316C1068.84 54.7316 1089.8 72.897 1089.8 106.153V168.475C1089.8 176.02 1092.6 177.977 1099.03 177.977ZM1066.89 140.807V133.821H1022.73C1002.33 133.821 990.873 141.366 990.873 157.575C990.873 171.549 1002.89 181.051 1021.89 181.051C1050.4 181.051 1066.89 164.562 1066.89 140.807Z" fill="#FFFEF7"/>
<path d="M1145.64 200.983C1131.27 200.983 1120.45 189.97 1120.45 176.329C1120.45 162.618 1131.27 151.605 1145.64 151.605C1160.09 151.605 1170.9 162.618 1170.9 176.329C1170.9 189.97 1160.09 200.983 1145.64 200.983ZM1145.64 195.868C1157.17 195.868 1165.07 187.2 1165.07 176.329C1165.07 165.388 1157.17 156.792 1145.64 156.792C1134.26 156.792 1126.29 165.388 1126.29 176.329C1126.29 187.2 1134.26 195.868 1145.64 195.868ZM1152.12 178.318H1158.45C1157.6 184.926 1152.41 189.331 1145.64 189.331C1138.6 189.331 1132.98 183.647 1132.98 176.329C1132.98 169.012 1138.6 163.328 1145.64 163.328C1152.41 163.328 1157.6 167.804 1158.45 174.34H1152.12C1151.55 170.93 1149.06 168.656 1145.72 168.656C1141.73 168.656 1139.17 171.782 1139.17 176.329C1139.17 180.876 1141.73 184.073 1145.72 184.073C1148.98 184.073 1151.62 181.729 1152.12 178.318Z" fill="#FFFEF7"/>
</g>
</svg>
