<svg width="134" height="34" viewBox="0 0 134 34" fill="none" xmlns="http://www.w3.org/2000/svg">
<path fill-rule="evenodd" clip-rule="evenodd" d="M6.21607 8.81995C2.42892 12.1173 1.85861 18.6489 5.11265 24.2391C8.30005 29.7149 14.0849 32.4463 18.7731 30.9916C18.3828 31.3314 17.9583 31.6369 17.5004 31.9035C12.5987 34.7564 5.7153 32.0704 2.12591 25.904C-1.46348 19.7376 -0.399653 12.426 4.50204 9.57297C5.051 9.25346 5.62481 9.00341 6.21607 8.81995Z" fill="url(#paint0_linear_2602_29380)"/>
<path fill-rule="evenodd" clip-rule="evenodd" d="M11.082 5.9577C7.29487 9.25508 6.72456 15.7866 9.9786 21.3769C13.166 26.8527 18.9509 29.584 23.639 28.1294C23.2487 28.4692 22.8243 28.7747 22.3663 29.0412C17.4646 31.8942 10.5813 29.2081 6.99186 23.0418C3.40247 16.8754 4.4663 9.5637 9.368 6.71072C9.91695 6.3912 10.4908 6.14116 11.082 5.9577Z" fill="url(#paint1_linear_2602_29380)"/>
<path fill-rule="evenodd" clip-rule="evenodd" d="M15.9979 3.12608C12.2732 6.44251 11.7297 12.9283 14.9638 18.4843C18.5532 24.6506 25.1237 26.0699 30.0254 23.2169C30.9362 22.6867 31.8228 21.9896 32.6396 21.1663C31.2862 23.2538 29.6093 24.9703 27.9501 25.936C23.0484 28.789 15.5691 26.3776 11.9797 20.2112C8.39027 14.0448 9.4541 6.73317 14.3558 3.88018C14.843 3.59662 15.3951 3.34438 15.9979 3.12608Z" fill="url(#paint2_linear_2602_29380)"/>
<path fill-rule="evenodd" clip-rule="evenodd" d="M16.5313 2.93486C17.4569 2.54601 18.4582 2.32451 19.5039 2.2793C20.9076 2.21861 22.3638 2.47671 23.7895 3.03884C25.2152 3.60098 26.5824 4.45614 27.813 5.55552C29.0268 6.63979 30.0843 7.94066 30.9269 9.38571L33.0983 8.13211C32.25 6.66287 31.18 5.34082 29.9493 4.24144C28.7187 3.14207 27.3514 2.2869 25.9258 1.72476C24.5001 1.16263 23.0439 0.904536 21.6402 0.96522C20.2366 1.0259 18.913 1.40418 17.7451 2.07844C17.3154 2.32654 16.9098 2.61291 16.5313 2.93486Z" fill="url(#paint3_linear_2602_29380)"/>
<path fill-rule="evenodd" clip-rule="evenodd" d="M15.2534 5.58163C16.161 5.08992 17.1908 4.83464 18.29 4.82963C19.4468 4.82436 20.6578 5.09642 21.8538 5.63028C23.0498 6.16415 24.2073 6.94936 25.2604 7.94109C26.251 8.87405 27.1309 9.97258 27.8559 11.1807L29.5447 10.2057C28.795 8.90707 27.867 7.72825 26.814 6.73653C25.761 5.7448 24.6034 4.95959 23.4074 4.42572C22.2114 3.89186 21.0004 3.6198 19.8436 3.62507C18.6867 3.63034 17.6067 3.91285 16.6651 4.45646C16.1439 4.75735 15.6708 5.13497 15.2534 5.58163Z" fill="url(#paint4_linear_2602_29380)"/>
<path fill-rule="evenodd" clip-rule="evenodd" d="M14.4915 8.24091C15.1336 7.98229 15.8255 7.83543 16.5472 7.80602C17.5545 7.76496 18.6002 7.95348 19.6245 8.36082C20.6488 8.76816 21.6317 9.38634 22.517 10.1801C23.3952 10.9674 24.1604 11.9122 24.7696 12.9612L26.3492 12.0493C25.7376 10.99 24.9672 10.0363 24.0818 9.24253C23.1965 8.44881 22.2136 7.83063 21.1893 7.42329C20.165 7.01595 19.1194 6.82742 18.1121 6.86848C17.1048 6.90954 16.1555 7.17938 15.3185 7.66259C15.0266 7.83112 14.7504 8.02444 14.4915 8.24091Z" fill="url(#paint5_linear_2602_29380)"/>
<path d="M51.9594 28.1708C49.844 28.1708 48.0681 27.7011 46.6316 26.7617C45.1951 25.8124 44.1128 24.5021 43.3847 22.831C42.6566 21.1598 42.2926 19.2315 42.2926 17.0461C42.2926 14.8607 42.6566 12.9324 43.3847 11.2613C44.1128 9.59007 45.1951 8.28477 46.6316 7.34535C48.0681 6.39604 49.844 5.92139 51.9594 5.92139C54.4289 5.92139 56.4312 6.56415 57.966 7.84967C59.5107 9.13519 60.5586 10.8558 61.1096 13.0115L59.3533 13.4417C58.9007 11.6519 58.0546 10.2328 56.8149 9.18464C55.585 8.12655 53.9665 7.59751 51.9594 7.59751C50.2179 7.59751 48.7666 7.998 47.6056 8.79898C46.4545 9.59996 45.5837 10.7124 44.9934 12.1364C44.4129 13.5604 44.1177 15.1969 44.1079 17.0461C44.0882 18.8953 44.3686 20.5318 44.9491 21.9558C45.5395 23.3699 46.42 24.4824 47.5909 25.2932C48.7617 26.0942 50.2179 26.4947 51.9594 26.4947C53.9665 26.4947 55.585 25.9657 56.8149 24.9076C58.0546 23.8495 58.9007 22.4305 59.3533 20.6505L61.1096 21.0807C60.5586 23.2364 59.5107 24.957 57.966 26.2425C56.4312 27.5281 54.4289 28.1708 51.9594 28.1708Z" fill="white"/>
<path d="M76.0165 27.7258V19.3897C76.0165 18.3811 75.9132 17.4812 75.7066 16.6901C75.5098 15.899 75.2048 15.2266 74.7915 14.6728C74.3881 14.1191 73.8765 13.6988 73.2567 13.412C72.6466 13.1253 71.9235 12.9819 71.0872 12.9819C70.2213 12.9819 69.4687 13.1351 68.8291 13.4417C68.1994 13.7384 67.678 14.1586 67.2647 14.7025C66.8613 15.2464 66.5563 15.8941 66.3497 16.6456C66.1529 17.3873 66.0546 18.1981 66.0546 19.0782L64.7115 18.9151C64.7115 17.1845 65.0018 15.7606 65.5823 14.6432C66.1726 13.5159 66.9647 12.6852 67.9584 12.1512C68.9521 11.6074 70.0688 11.3354 71.3085 11.3354C72.1842 11.3354 72.9664 11.464 73.6551 11.7211C74.3537 11.9782 74.9588 12.3441 75.4704 12.8187C75.982 13.2835 76.4051 13.8372 76.7396 14.48C77.0742 15.1129 77.3201 15.81 77.4776 16.5714C77.6448 17.3329 77.7285 18.1289 77.7285 18.9596V27.7258H76.0165ZM64.3426 27.7258V6.36637H65.8922V18.7074H66.0546V27.7258H64.3426Z" fill="white"/>
<path d="M86.1557 28.1708C84.9259 28.1708 83.9026 27.9533 83.086 27.5182C82.2792 27.0831 81.6741 26.5095 81.2707 25.7975C80.8673 25.0757 80.6656 24.2945 80.6656 23.4539C80.6656 22.5442 80.8525 21.7828 81.2264 21.1697C81.6101 20.5566 82.1168 20.0621 82.7465 19.6864C83.3861 19.3106 84.0896 19.0288 84.857 18.8409C85.7327 18.6431 86.6772 18.475 87.6906 18.3366C88.704 18.1882 89.6682 18.0597 90.5833 17.9509C91.5081 17.8421 92.2608 17.7482 92.8413 17.6691L92.2214 18.0399C92.2608 16.3094 91.9361 15.0239 91.2474 14.1833C90.5685 13.3329 89.3681 12.9077 87.6463 12.9077C86.4361 12.9077 85.4375 13.1846 84.6504 13.7384C83.8731 14.2822 83.327 15.1277 83.0122 16.2748L81.2707 15.7853C81.6347 14.3317 82.3677 13.2143 83.4697 12.4331C84.5717 11.6519 85.9836 11.2613 87.7054 11.2613C89.1714 11.2613 90.4012 11.548 91.395 12.1216C92.3985 12.6951 93.0971 13.501 93.4907 14.5393C93.6579 14.9645 93.7711 15.4639 93.8301 16.0375C93.8891 16.6011 93.9187 17.1697 93.9187 17.7433V27.7258H92.369V23.5133L92.9446 23.6616C92.4625 25.1053 91.6213 26.2178 90.4209 26.999C89.2206 27.7802 87.7988 28.1708 86.1557 28.1708ZM86.2443 26.5985C87.3266 26.5985 88.276 26.4057 89.0927 26.02C89.9093 25.6245 90.5685 25.0757 91.0703 24.3736C91.5819 23.6616 91.9066 22.826 92.0443 21.8668C92.1427 21.3328 92.1968 20.7543 92.2067 20.1314C92.2165 19.5084 92.2214 19.0486 92.2214 18.7519L92.9594 19.2265C92.3198 19.3057 91.5524 19.3897 90.657 19.4787C89.7715 19.5677 88.8664 19.6765 87.9415 19.805C87.0166 19.9336 86.1803 20.0967 85.4326 20.2945C84.9701 20.4231 84.5028 20.611 84.0305 20.8582C83.5681 21.0955 83.1795 21.4268 82.8646 21.852C82.5596 22.2772 82.4071 22.8161 82.4071 23.4688C82.4071 23.9533 82.5252 24.4379 82.7613 24.9224C83.0073 25.4069 83.4107 25.8074 83.9715 26.1239C84.5323 26.4403 85.2899 26.5985 86.2443 26.5985Z" fill="white"/>
<path d="M97.7508 27.7258V6.36637H99.4627V19.4194L107.004 11.7062H109.38L101.485 19.716L110.502 27.7258H107.86L99.4627 20.0127V27.7258H97.7508Z" fill="white"/>
<path d="M111.99 27.7258V11.7062H113.54V15.548L113.156 15.0437C113.333 14.5888 113.555 14.1685 113.82 13.7829C114.096 13.3873 114.376 13.0659 114.662 12.8187C115.085 12.4232 115.582 12.1265 116.152 11.9287C116.723 11.7211 117.298 11.6024 117.879 11.5727C118.459 11.5332 118.986 11.5777 119.458 11.7062V13.323C118.828 13.1747 118.159 13.145 117.451 13.234C116.743 13.323 116.078 13.6296 115.459 14.1537C114.917 14.6283 114.524 15.1821 114.278 15.815C114.032 16.438 113.874 17.0955 113.806 17.7878C113.737 18.4701 113.702 19.1375 113.702 19.7902V27.7258H111.99Z" fill="white"/>
<path d="M126.194 28.1708C124.964 28.1708 123.941 27.9533 123.124 27.5182C122.317 27.0831 121.712 26.5095 121.309 25.7975C120.905 25.0757 120.704 24.2945 120.704 23.4539C120.704 22.5442 120.89 21.7828 121.264 21.1697C121.648 20.5566 122.155 20.0621 122.784 19.6864C123.424 19.3106 124.127 19.0288 124.895 18.8409C125.771 18.6431 126.715 18.475 127.729 18.3366C128.742 18.1882 129.706 18.0597 130.621 17.9509C131.546 17.8421 132.299 17.7482 132.879 17.6691L132.259 18.0399C132.299 16.3094 131.974 15.0239 131.285 14.1833C130.606 13.3329 129.406 12.9077 127.684 12.9077C126.474 12.9077 125.475 13.1846 124.688 13.7384C123.911 14.2822 123.365 15.1277 123.05 16.2748L121.309 15.7853C121.673 14.3317 122.406 13.2143 123.508 12.4331C124.61 11.6519 126.021 11.2613 127.743 11.2613C129.209 11.2613 130.439 11.548 131.433 12.1216C132.436 12.6951 133.135 13.501 133.529 14.5393C133.696 14.9645 133.809 15.4639 133.868 16.0375C133.927 16.6011 133.957 17.1697 133.957 17.7433V27.7258H132.407V23.5133L132.983 23.6616C132.5 25.1053 131.659 26.2178 130.459 26.999C129.258 27.7802 127.837 28.1708 126.194 28.1708ZM126.282 26.5985C127.365 26.5985 128.314 26.4057 129.131 26.02C129.947 25.6245 130.606 25.0757 131.108 24.3736C131.62 23.6616 131.945 22.826 132.082 21.8668C132.181 21.3328 132.235 20.7543 132.245 20.1314C132.254 19.5084 132.259 19.0486 132.259 18.7519L132.997 19.2265C132.358 19.3057 131.59 19.3897 130.695 19.4787C129.809 19.5677 128.904 19.6765 127.979 19.805C127.055 19.9336 126.218 20.0967 125.471 20.2945C125.008 20.4231 124.541 20.611 124.068 20.8582C123.606 21.0955 123.217 21.4268 122.903 21.852C122.598 22.2772 122.445 22.8161 122.445 23.4688C122.445 23.9533 122.563 24.4379 122.799 24.9224C123.045 25.4069 123.449 25.8074 124.009 26.1239C124.57 26.4403 125.328 26.5985 126.282 26.5985Z" fill="white"/>
<defs>
<linearGradient id="paint0_linear_2602_29380" x1="4.45704" y1="21.6198" x2="14.9878" y2="42.2679" gradientUnits="userSpaceOnUse">
<stop stop-color="white"/>
<stop offset="1" stop-color="white" stop-opacity="0"/>
</linearGradient>
<linearGradient id="paint1_linear_2602_29380" x1="4.63837" y1="20.9481" x2="14.33" y2="41.1172" gradientUnits="userSpaceOnUse">
<stop stop-color="white"/>
<stop offset="1" stop-color="white" stop-opacity="0"/>
</linearGradient>
<linearGradient id="paint2_linear_2602_29380" x1="5.05641" y1="20.7474" x2="16.6867" y2="41.1247" gradientUnits="userSpaceOnUse">
<stop stop-color="white"/>
<stop offset="1" stop-color="white" stop-opacity="0"/>
</linearGradient>
<linearGradient id="paint3_linear_2602_29380" x1="0.0557771" y1="1.4101" x2="25.4469" y2="36.3103" gradientUnits="userSpaceOnUse">
<stop stop-color="white" stop-opacity="0"/>
<stop offset="0.6" stop-color="white"/>
</linearGradient>
<linearGradient id="paint4_linear_2602_29380" x1="-0.168976" y1="1.73289" x2="24.3626" y2="36.7963" gradientUnits="userSpaceOnUse">
<stop stop-color="white" stop-opacity="0"/>
<stop offset="0.6" stop-color="white"/>
</linearGradient>
<linearGradient id="paint5_linear_2602_29380" x1="14.4971" y1="8.26163" x2="25.5171" y2="12.4838" gradientUnits="userSpaceOnUse">
<stop stop-color="white" stop-opacity="0"/>
<stop offset="0.6" stop-color="white"/>
</linearGradient>
</defs>
</svg>
