<svg width="152" height="36" viewBox="0 0 152 36" fill="none" xmlns="http://www.w3.org/2000/svg">
<path fill-rule="evenodd" clip-rule="evenodd" d="M7.93054 8.82235C3.68155 12.5219 3.04168 19.8499 6.69255 26.1219C10.2687 32.2655 16.759 35.3299 22.0189 33.6979C21.581 34.0791 21.1048 34.4218 20.591 34.7209C15.0915 37.9218 7.3687 34.9082 3.34158 27.9898C-0.685535 21.0714 0.508031 12.8681 6.00749 9.6672C6.62339 9.30872 7.26718 9.02819 7.93054 8.82235Z" fill="url(#paint0_linear_2602_29384)"/>
<path fill-rule="evenodd" clip-rule="evenodd" d="M13.3899 5.61104C9.1409 9.31055 8.50104 16.6386 12.1519 22.9106C15.728 29.0542 22.2184 32.1186 27.4782 30.4865C27.0404 30.8678 26.5641 31.2105 26.0503 31.5096C20.5509 34.7105 12.8281 31.6969 8.80094 24.7785C4.77382 17.8601 5.96739 9.65681 11.4668 6.45589C12.0827 6.09741 12.7265 5.81688 13.3899 5.61104Z" fill="url(#paint1_linear_2602_29384)"/>
<path fill-rule="evenodd" clip-rule="evenodd" d="M18.9053 2.43411C14.7263 6.15498 14.1165 13.4317 17.745 19.6652C21.7721 26.5836 29.1439 28.1759 34.6434 24.975C35.6653 24.3802 36.66 23.598 37.5764 22.6743C36.058 25.0164 34.1766 26.9423 32.3151 28.0257C26.8156 31.2267 18.4241 28.5212 14.397 21.6028C10.3699 14.6844 11.5635 6.48109 17.0629 3.28018C17.6095 2.96204 18.2289 2.67903 18.9053 2.43411Z" fill="url(#paint2_linear_2602_29384)"/>
<path fill-rule="evenodd" clip-rule="evenodd" d="M19.5037 2.21957C20.5422 1.7833 21.6656 1.53479 22.8389 1.48406C24.4137 1.41598 26.0475 1.70555 27.647 2.33623C29.2466 2.96692 30.7805 3.92638 32.1612 5.15982C33.523 6.37632 34.7095 7.83583 35.6549 9.4571L38.0911 8.05063C37.1393 6.40221 35.9388 4.91894 34.5581 3.68549C33.1773 2.45205 31.6434 1.49259 30.0438 0.861906C28.4443 0.231219 26.8105 -0.0583494 25.2357 0.00973493C23.6609 0.077819 22.1759 0.502222 20.8656 1.25871C20.3834 1.53706 19.9284 1.85837 19.5037 2.21957Z" fill="url(#paint3_linear_2602_29384)"/>
<path fill-rule="evenodd" clip-rule="evenodd" d="M18.0699 5.18912C19.0882 4.63744 20.2436 4.35103 21.4768 4.34541C22.7748 4.33949 24.1334 4.64473 25.4753 5.2437C26.8171 5.84267 28.1158 6.72364 29.2973 7.83631C30.4088 8.88304 31.3959 10.1155 32.2094 11.471L34.1041 10.3771C33.2629 8.9201 32.2219 7.59752 31.0404 6.48485C29.8589 5.37219 28.5602 4.49122 27.2184 3.89225C25.8765 3.29328 24.5179 2.98804 23.2199 2.99395C21.922 2.99987 20.7102 3.31683 19.6538 3.92673C19.0691 4.26431 18.5383 4.68798 18.0699 5.18912Z" fill="url(#paint4_linear_2602_29384)"/>
<path fill-rule="evenodd" clip-rule="evenodd" d="M17.2151 8.1727C17.9356 7.88253 18.7119 7.71777 19.5216 7.68477C20.6517 7.6387 21.8249 7.85021 22.9741 8.30723C24.1233 8.76424 25.2261 9.45781 26.2194 10.3483C27.2047 11.2317 28.0632 12.2917 28.7467 13.4687L30.519 12.4455C29.8328 11.257 28.9683 10.187 27.975 9.29646C26.9817 8.40594 25.879 7.71238 24.7298 7.25536C23.5806 6.79835 22.4074 6.58684 21.2773 6.6329C20.1471 6.67897 19.0821 6.98171 18.1431 7.52385C17.8155 7.71293 17.5056 7.92983 17.2151 8.1727Z" fill="url(#paint5_linear_2602_29384)"/>
<path d="M59.2521 30.5331C56.8788 30.5331 54.8863 30.0061 53.2746 28.9521C51.6629 27.887 50.4487 26.417 49.6318 24.542C48.8149 22.667 48.4065 20.5036 48.4065 18.0517C48.4065 15.5998 48.8149 13.4364 49.6318 11.5614C50.4487 9.68639 51.6629 8.22191 53.2746 7.16793C54.8863 6.10285 56.8788 5.57031 59.2521 5.57031C62.0228 5.57031 64.2692 6.29146 65.9913 7.73375C67.7244 9.17604 68.9 11.1065 69.5182 13.5251L67.5478 14.0077C67.04 11.9996 66.0906 10.4075 64.6998 9.23152C63.3199 8.0444 61.504 7.45084 59.2521 7.45084C57.2982 7.45084 55.67 7.90017 54.3674 8.79883C53.0759 9.69749 52.099 10.9456 51.4366 12.5432C50.7854 14.1409 50.4542 15.977 50.4432 18.0517C50.4211 20.1264 50.7357 21.9625 51.387 23.5601C52.0493 25.1467 53.0373 26.3948 54.3509 27.3045C55.6645 28.2032 57.2982 28.6525 59.2521 28.6525C61.504 28.6525 63.3199 28.059 64.6998 26.8719C66.0906 25.6847 67.04 24.0927 67.5478 22.0957L69.5182 22.5783C68.9 24.9969 67.7244 26.9273 65.9913 28.3696C64.2692 29.8119 62.0228 30.5331 59.2521 30.5331Z" fill="#18181A"/>
<path d="M86.243 30.0338V20.6811C86.243 19.5495 86.1271 18.5398 85.8953 17.6523C85.6745 16.7647 85.3323 16.0103 84.8687 15.389C84.4161 14.7677 83.8421 14.2962 83.1466 13.9744C82.4622 13.6527 81.6509 13.4918 80.7126 13.4918C79.7411 13.4918 78.8967 13.6638 78.1792 14.0077C77.4727 14.3406 76.8876 14.8121 76.424 15.4223C75.9714 16.0325 75.6292 16.7592 75.3974 17.6024C75.1766 18.4344 75.0662 19.3442 75.0662 20.3316L73.5594 20.1486C73.5594 18.207 73.8851 16.6094 74.5364 15.3557C75.1987 14.0909 76.0873 13.159 77.2022 12.5599C78.3171 11.9497 79.57 11.6446 80.9609 11.6446C81.9434 11.6446 82.821 11.7888 83.5937 12.0773C84.3774 12.3657 85.0563 12.7762 85.6303 13.3088C86.2044 13.8302 86.679 14.4515 87.0543 15.1726C87.4297 15.8827 87.7056 16.6649 87.8823 17.5191C88.0699 18.3734 88.1637 19.2665 88.1637 20.1985V30.0338H86.243ZM73.1455 30.0338V6.06957H74.8841V19.9156H75.0662V30.0338H73.1455Z" fill="#18181A"/>
<path d="M97.6187 30.5331C96.2389 30.5331 95.0908 30.289 94.1746 29.8008C93.2694 29.3127 92.5906 28.6692 92.138 27.8704C91.6854 27.0605 91.4591 26.184 91.4591 25.241C91.4591 24.2203 91.6688 23.366 92.0883 22.6781C92.5188 21.9903 93.0873 21.4355 93.7938 21.0139C94.5113 20.5923 95.3006 20.2761 96.1616 20.0653C97.1441 19.8435 98.2038 19.6549 99.3408 19.4995C100.478 19.3331 101.56 19.1889 102.586 19.0668C103.624 18.9448 104.468 18.8394 105.12 18.7506L104.424 19.1667C104.468 17.2251 104.104 15.7828 103.331 14.8398C102.57 13.8857 101.223 13.4086 99.2911 13.4086C97.9333 13.4086 96.8129 13.7193 95.9298 14.3406C95.0577 14.9508 94.4451 15.8993 94.0918 17.1863L92.138 16.6371C92.5464 15.0062 93.3688 13.7525 94.6051 12.8761C95.8415 11.9996 97.4256 11.5614 99.3573 11.5614C101.002 11.5614 102.382 11.8831 103.497 12.5266C104.623 13.1701 105.407 14.0743 105.848 15.2392C106.036 15.7163 106.163 16.2766 106.229 16.92C106.295 17.5524 106.328 18.1904 106.328 18.8339V30.0338H104.59V25.3075L105.236 25.4739C104.695 27.0937 103.751 28.3419 102.404 29.2184C101.057 30.0948 99.4622 30.5331 97.6187 30.5331ZM97.7181 28.769C98.9324 28.769 99.9976 28.5527 100.914 28.12C101.83 27.6762 102.57 27.0605 103.133 26.2728C103.707 25.4739 104.071 24.5365 104.225 23.4603C104.336 22.8612 104.397 22.2121 104.408 21.5132C104.419 20.8142 104.424 20.2983 104.424 19.9655L105.252 20.498C104.535 20.5868 103.674 20.6811 102.669 20.7809C101.675 20.8808 100.66 21.0028 99.6223 21.1471C98.5846 21.2913 97.6463 21.4744 96.8074 21.6962C96.2886 21.8405 95.7642 22.0513 95.2344 22.3286C94.7155 22.5949 94.2795 22.9666 93.9263 23.4436C93.5841 23.9207 93.413 24.5254 93.413 25.2576C93.413 25.8012 93.5454 26.3449 93.8103 26.8885C94.0863 27.4321 94.5389 27.8815 95.1681 28.2365C95.7973 28.5915 96.6473 28.769 97.7181 28.769Z" fill="#18181A"/>
<path d="M110.628 30.0338V6.06957H112.549V20.7144L121.01 12.0606H123.676L114.817 21.0472L124.934 30.0338H121.97L112.549 21.3801V30.0338H110.628Z" fill="#18181A"/>
<path d="M126.604 30.0338V12.0606H128.342V16.3709L127.912 15.805C128.111 15.2947 128.359 14.8232 128.657 14.3905C128.966 13.9467 129.281 13.5861 129.601 13.3088C130.076 12.865 130.633 12.5321 131.273 12.3103C131.914 12.0773 132.559 11.9441 133.211 11.9108C133.862 11.8665 134.452 11.9164 134.982 12.0606V13.8746C134.276 13.7082 133.525 13.6749 132.73 13.7747C131.936 13.8746 131.19 14.2185 130.495 14.8065C129.888 15.3391 129.446 15.9604 129.17 16.6704C128.894 17.3694 128.718 18.1072 128.641 18.8838C128.563 19.6493 128.525 20.3982 128.525 21.1304V30.0338H126.604Z" fill="#18181A"/>
<path d="M142.539 30.5331C141.159 30.5331 140.011 30.289 139.095 29.8008C138.19 29.3127 137.511 28.6692 137.059 27.8704C136.606 27.0605 136.38 26.184 136.38 25.241C136.38 24.2203 136.589 23.366 137.009 22.6781C137.439 21.9903 138.008 21.4355 138.714 21.0139C139.432 20.5923 140.221 20.2761 141.082 20.0653C142.065 19.8435 143.124 19.6549 144.261 19.4995C145.398 19.3331 146.48 19.1889 147.507 19.0668C148.544 18.9448 149.389 18.8394 150.04 18.7506L149.345 19.1667C149.389 17.2251 149.025 15.7828 148.252 14.8398C147.49 13.8857 146.143 13.4086 144.212 13.4086C142.854 13.4086 141.733 13.7193 140.85 14.3406C139.978 14.9508 139.366 15.8993 139.012 17.1863L137.059 16.6371C137.467 15.0062 138.289 13.7525 139.526 12.8761C140.762 11.9996 142.346 11.5614 144.278 11.5614C145.923 11.5614 147.303 11.8831 148.417 12.5266C149.543 13.1701 150.327 14.0743 150.769 15.2392C150.956 15.7163 151.083 16.2766 151.15 16.92C151.216 17.5524 151.249 18.1904 151.249 18.8339V30.0338H149.51V25.3075L150.156 25.4739C149.615 27.0937 148.671 28.3419 147.325 29.2184C145.978 30.0948 144.383 30.5331 142.539 30.5331ZM142.639 28.769C143.853 28.769 144.918 28.5527 145.834 28.12C146.751 27.6762 147.49 27.0605 148.053 26.2728C148.627 25.4739 148.991 24.5365 149.146 23.4603C149.256 22.8612 149.317 22.2121 149.328 21.5132C149.339 20.8142 149.345 20.2983 149.345 19.9655L150.173 20.498C149.455 20.5868 148.594 20.6811 147.59 20.7809C146.596 20.8808 145.58 21.0028 144.543 21.1471C143.505 21.2913 142.567 21.4744 141.728 21.6962C141.209 21.8405 140.685 22.0513 140.155 22.3286C139.636 22.5949 139.2 22.9666 138.847 23.4436C138.505 23.9207 138.334 24.5254 138.334 25.2576C138.334 25.8012 138.466 26.3449 138.731 26.8885C139.007 27.4321 139.459 27.8815 140.089 28.2365C140.718 28.5915 141.568 28.769 142.639 28.769Z" fill="#18181A"/>
<defs>
<linearGradient id="paint0_linear_2602_29384" x1="5.95699" y1="23.1831" x2="17.772" y2="46.3493" gradientUnits="userSpaceOnUse">
<stop/>
<stop offset="1" stop-opacity="0"/>
</linearGradient>
<linearGradient id="paint1_linear_2602_29384" x1="6.16044" y1="22.4295" x2="17.034" y2="45.0583" gradientUnits="userSpaceOnUse">
<stop/>
<stop offset="1" stop-opacity="0"/>
</linearGradient>
<linearGradient id="paint2_linear_2602_29384" x1="6.62946" y1="22.2043" x2="19.6781" y2="45.0667" gradientUnits="userSpaceOnUse">
<stop/>
<stop offset="1" stop-opacity="0"/>
</linearGradient>
<linearGradient id="paint3_linear_2602_29384" x1="1.019" y1="0.508874" x2="29.5066" y2="39.6652" gradientUnits="userSpaceOnUse">
<stop stop-opacity="0"/>
<stop offset="0.6"/>
</linearGradient>
<linearGradient id="paint4_linear_2602_29384" x1="0.766839" y1="0.871017" x2="28.29" y2="40.2105" gradientUnits="userSpaceOnUse">
<stop stop-opacity="0"/>
<stop offset="0.6"/>
</linearGradient>
<linearGradient id="paint5_linear_2602_29384" x1="17.2214" y1="8.19594" x2="29.5854" y2="12.933" gradientUnits="userSpaceOnUse">
<stop stop-opacity="0"/>
<stop offset="0.6"/>
</linearGradient>
</defs>
</svg>
