<svg width="4116" height="1365" viewBox="0 0 4116 1365" fill="none" xmlns="http://www.w3.org/2000/svg">
<path d="M1775.2 1198.64C1775.2 1200.3 1773.92 1202.01 1771.28 1203.66C1768.67 1205.29 1764.85 1206.78 1760.09 1208.04C1750.58 1210.56 1737.42 1212.12 1722.85 1212.12C1708.29 1212.12 1695.12 1210.56 1685.61 1208.04C1680.85 1206.78 1677.04 1205.29 1674.42 1203.66C1671.78 1202.01 1670.5 1200.3 1670.5 1198.64C1670.5 1196.97 1671.78 1195.27 1674.42 1193.61C1677.04 1191.98 1680.85 1190.49 1685.61 1189.23C1695.12 1186.72 1708.29 1185.15 1722.85 1185.15C1737.42 1185.15 1750.58 1186.72 1760.09 1189.23C1764.85 1190.49 1768.67 1191.98 1771.28 1193.61C1773.92 1195.27 1775.2 1196.97 1775.2 1198.64Z" fill="#052C26" stroke="#0F4531" stroke-width="0.987752"/>
<path d="M1784.41 1186.81C1784.41 1188.76 1782.9 1190.77 1779.8 1192.71C1776.73 1194.64 1772.24 1196.39 1766.64 1197.87C1755.46 1200.83 1739.98 1202.66 1722.85 1202.66C1705.73 1202.66 1690.25 1200.83 1679.07 1197.87C1673.47 1196.39 1668.98 1194.64 1665.91 1192.71C1662.8 1190.77 1661.3 1188.76 1661.3 1186.81C1661.3 1184.86 1662.8 1182.85 1665.91 1180.91C1668.98 1178.98 1673.47 1177.23 1679.07 1175.75C1690.25 1172.79 1705.73 1170.96 1722.85 1170.96C1739.98 1170.96 1755.46 1172.79 1766.64 1175.75C1772.24 1177.23 1776.73 1178.98 1779.8 1180.91C1782.9 1182.85 1784.41 1184.86 1784.41 1186.81Z" fill="#052C26" stroke="#0F4531" stroke-width="1.16142"/>
<path d="M1792.54 1170.38C1792.54 1172.63 1790.81 1174.92 1787.29 1177.12C1783.8 1179.3 1778.72 1181.28 1772.39 1182.96C1759.74 1186.3 1742.22 1188.38 1722.85 1188.38C1703.49 1188.38 1685.97 1186.3 1673.32 1182.96C1666.99 1181.28 1661.9 1179.3 1658.42 1177.12C1654.9 1174.92 1653.17 1172.63 1653.17 1170.38C1653.17 1168.13 1654.9 1165.84 1658.42 1163.64C1661.9 1161.46 1666.99 1159.47 1673.32 1157.8C1685.97 1154.45 1703.49 1152.38 1722.85 1152.38C1742.22 1152.38 1759.74 1154.45 1772.39 1157.8C1778.72 1159.47 1783.8 1161.46 1787.29 1163.64C1790.81 1165.84 1792.54 1168.13 1792.54 1170.38Z" fill="#052C26" stroke="#0F4531" stroke-width="1.16142"/>
<path d="M868.133 1239.29C868.133 1240.95 866.852 1242.66 864.212 1244.31C861.598 1245.94 857.782 1247.43 853.023 1248.69C843.512 1251.21 830.345 1252.77 815.782 1252.77C801.219 1252.77 788.053 1251.21 778.542 1248.69C773.782 1247.43 769.967 1245.94 767.352 1244.31C764.712 1242.66 763.431 1240.95 763.431 1239.29C763.431 1237.63 764.712 1235.92 767.352 1234.26C769.967 1232.63 773.782 1231.14 778.542 1229.88C788.053 1227.37 801.219 1225.8 815.782 1225.8C830.345 1225.8 843.512 1227.37 853.023 1229.88C857.782 1231.14 861.598 1232.63 864.212 1234.26C866.852 1235.92 868.133 1237.63 868.133 1239.29Z" fill="#052C26" stroke="#0F4531" stroke-width="0.987752"/>
<path d="M877.338 1227.46C877.338 1229.41 875.832 1231.42 872.728 1233.36C869.654 1235.29 865.167 1237.04 859.571 1238.52C848.388 1241.48 832.906 1243.31 815.783 1243.31C798.659 1243.31 783.178 1241.48 771.994 1238.52C766.398 1237.04 761.911 1235.29 758.837 1233.36C755.733 1231.42 754.227 1229.41 754.227 1227.46C754.227 1225.51 755.733 1223.5 758.837 1221.56C761.911 1219.63 766.398 1217.88 771.994 1216.4C783.178 1213.44 798.659 1211.61 815.783 1211.61C832.906 1211.61 848.388 1213.44 859.571 1216.4C865.167 1217.88 869.654 1219.63 872.728 1221.56C875.832 1223.5 877.338 1225.51 877.338 1227.46Z" fill="#052C26" stroke="#0F4531" stroke-width="1.16142"/>
<path d="M885.468 1211.03C885.468 1213.28 883.735 1215.57 880.219 1217.77C876.734 1219.95 871.651 1221.93 865.32 1223.61C852.665 1226.95 835.151 1229.03 815.783 1229.03C796.414 1229.03 778.9 1226.95 766.246 1223.61C759.914 1221.93 754.832 1219.95 751.346 1217.77C747.831 1215.57 746.097 1213.28 746.097 1211.03C746.097 1208.78 747.831 1206.49 751.346 1204.29C754.832 1202.11 759.914 1200.12 766.246 1198.45C778.9 1195.1 796.414 1193.03 815.783 1193.03C835.151 1193.03 852.665 1195.1 865.32 1198.45C871.651 1200.12 876.734 1202.11 880.219 1204.29C883.735 1206.49 885.468 1208.78 885.468 1211.03Z" fill="#052C26" stroke="#0F4531" stroke-width="1.16142"/>
<path d="M383.82 1198.64C383.82 1200.3 382.539 1202.01 379.899 1203.66C377.284 1205.29 373.469 1206.78 368.709 1208.04C359.198 1210.56 346.031 1212.12 331.469 1212.12C316.906 1212.12 303.739 1210.56 294.228 1208.04C289.469 1206.78 285.653 1205.29 283.039 1203.66C280.399 1202.01 279.118 1200.3 279.118 1198.64C279.118 1196.97 280.399 1195.27 283.039 1193.61C285.653 1191.98 289.469 1190.49 294.228 1189.23C303.739 1186.72 316.906 1185.15 331.469 1185.15C346.031 1185.15 359.198 1186.72 368.709 1189.23C373.469 1190.49 377.284 1191.98 379.899 1193.61C382.539 1195.27 383.82 1196.97 383.82 1198.64Z" fill="#052C26" stroke="#0F4531" stroke-width="0.987752"/>
<path d="M393.024 1186.81C393.024 1188.76 391.519 1190.77 388.414 1192.71C385.34 1194.64 380.853 1196.39 375.257 1197.87C364.074 1200.83 348.592 1202.66 331.469 1202.66C314.346 1202.66 298.864 1200.83 287.681 1197.87C282.085 1196.39 277.598 1194.64 274.524 1192.71C271.42 1190.77 269.914 1188.76 269.914 1186.81C269.914 1184.86 271.42 1182.85 274.524 1180.91C277.598 1178.98 282.085 1177.23 287.681 1175.75C298.864 1172.79 314.346 1170.96 331.469 1170.96C348.592 1170.96 364.074 1172.79 375.257 1175.75C380.853 1177.23 385.34 1178.98 388.414 1180.91C391.519 1182.85 393.024 1184.86 393.024 1186.81Z" fill="#052C26" stroke="#0F4531" stroke-width="1.16142"/>
<path d="M401.155 1170.38C401.155 1172.63 399.421 1174.92 395.906 1177.12C392.42 1179.3 387.338 1181.28 381.006 1182.96C368.352 1186.3 350.837 1188.38 331.469 1188.38C312.101 1188.38 294.587 1186.3 281.932 1182.96C275.6 1181.28 270.518 1179.3 267.033 1177.12C263.517 1174.92 261.784 1172.63 261.784 1170.38C261.784 1168.13 263.517 1165.84 267.033 1163.64C270.518 1161.46 275.6 1159.47 281.932 1157.8C294.587 1154.45 312.101 1152.38 331.469 1152.38C350.837 1152.38 368.352 1154.45 381.006 1157.8C387.338 1159.47 392.42 1161.46 395.906 1163.64C399.421 1165.84 401.155 1168.13 401.155 1170.38Z" fill="#052C26" stroke="#0F4531" stroke-width="1.16142"/>
<path d="M179.323 1147.73V333.574L264.688 314.535L501.908 261.628L739.129 208.721L1858.16 279.567V1161.09L899.405 1200.89L739.129 1207.54L459.226 1177.64L179.323 1147.73Z" fill="#12413A"/>
<path d="M739.129 1207.54L899.405 1200.89L1858.16 1161.09V279.567L739.129 208.721M739.129 1207.54L459.226 1177.64M739.129 1207.54V423.003M739.129 208.721L501.908 261.628M739.129 208.721V423.003M459.226 1177.64L179.323 1147.73V333.574L264.688 314.535M459.226 1177.64V874.216H344.826V731.941H264.688V314.535M264.688 314.535L501.908 261.628M501.908 261.628V462.491L739.129 423.003" stroke="#052C26" stroke-width="5.80711"/>
<ellipse cx="1754.79" cy="374.803" rx="17.4213" ry="23.2284" fill="#052C26"/>
<ellipse cx="1625.87" cy="367.834" rx="17.4213" ry="23.2284" fill="#052C26"/>
<ellipse cx="1496.96" cy="362.029" rx="17.4213" ry="23.2284" fill="#052C26"/>
<ellipse cx="1368.04" cy="355.059" rx="17.4213" ry="23.2284" fill="#4BBF94"/>
<ellipse cx="1239.12" cy="349.254" rx="17.4213" ry="23.2284" fill="#4BBF94"/>
<ellipse cx="1110.2" cy="343.445" rx="17.4213" ry="23.2284" fill="#4BBF94"/>
<ellipse cx="981.285" cy="337.639" rx="17.4213" ry="23.2284" fill="#4BBF94"/>
<ellipse cx="852.368" cy="331.832" rx="17.4213" ry="23.2284" fill="#4BBF94"/>
<path d="M1303.58 406.317V1133.53M1303.58 406.317L1432.35 412.744M1303.58 406.317L1174.81 399.891M1303.58 1133.53L1432.35 1128.96M1303.58 1133.53L1174.81 1138.1M1046.03 393.464V1142.66M1046.03 393.464L1174.81 399.891M1046.03 393.464L917.261 387.038M1046.03 1142.66L1174.81 1138.1M1046.03 1142.66L917.261 1147.23M1561.12 419.171V1124.4M1561.12 419.171L1689.9 425.597M1561.12 419.171L1432.35 412.744M1561.12 1124.4L1689.9 1119.83M1561.12 1124.4L1432.35 1128.96M1689.9 1119.83L1814.19 1115.42C1816.69 1115.34 1818.67 1113.28 1818.67 1110.78V436.443C1818.67 433.968 1816.73 431.927 1814.26 431.803L1689.9 425.597M1689.9 1119.83V425.597M1432.35 412.744V1128.96M1174.81 1138.1V399.891M917.261 387.038L793.366 380.855C790.712 380.722 788.488 382.838 788.488 385.495V1135.56V1146.98C788.488 1149.61 790.67 1151.72 793.299 1151.63L917.261 1147.23M917.261 387.038V1147.23" stroke="#052C26" stroke-width="5.80711"/>
<path d="M793.713 388.263C793.714 386.941 794.816 385.886 796.137 385.944L910.539 390.967C911.781 391.021 912.76 392.044 912.76 393.287V1141.41C912.76 1142.67 911.761 1143.7 910.505 1143.73L795.526 1147.08C794.217 1147.12 793.135 1146.07 793.136 1144.76L793.713 388.263Z" fill="#2C443A"/>
<path d="M922.631 394.648C922.632 393.327 923.734 392.272 925.054 392.329L1039.46 397.279C1040.7 397.333 1041.68 398.356 1041.68 399.6V1136.81C1041.68 1138.07 1040.68 1139.1 1039.42 1139.13L924.443 1142.43C923.134 1142.47 922.053 1141.42 922.054 1140.11L922.631 394.648Z" fill="#2C443A"/>
<path d="M1051.55 401.615C1051.55 400.294 1052.65 399.24 1053.97 399.296L1168.37 404.17C1169.62 404.223 1170.6 405.246 1170.6 406.49V1132.22C1170.6 1133.48 1169.6 1134.51 1168.34 1134.54L1053.36 1137.79C1052.05 1137.83 1050.97 1136.78 1050.97 1135.47L1051.55 401.615Z" fill="#2C443A"/>
<path d="M1180.47 407.421C1180.47 406.1 1181.57 405.046 1182.89 405.102L1297.29 409.906C1298.53 409.958 1299.51 410.982 1299.51 412.227V1127.62C1299.51 1128.88 1298.51 1129.91 1297.26 1129.94L1182.28 1133.15C1180.97 1133.18 1179.89 1132.13 1179.89 1130.82L1180.47 407.421Z" fill="#2C443A"/>
<path d="M1309.38 414.388C1309.39 413.068 1310.48 412.014 1311.8 412.069L1426.21 416.796C1427.45 416.848 1428.43 417.871 1428.43 419.117V1123.03C1428.43 1124.28 1427.43 1125.31 1426.17 1125.35L1311.19 1128.5C1309.89 1128.54 1308.81 1127.49 1308.81 1126.18L1309.38 414.388Z" fill="#2C443A"/>
<path d="M1438.3 420.195C1438.3 418.876 1439.4 417.822 1440.72 417.876L1555.12 422.534C1556.37 422.585 1557.35 423.609 1557.35 424.855V1118.43C1557.35 1119.69 1556.35 1120.72 1555.09 1120.75L1440.11 1123.86C1438.8 1123.89 1437.73 1122.84 1437.73 1121.53L1438.3 420.195Z" fill="#2C443A"/>
<path d="M1567.22 427.16C1567.22 425.841 1568.32 424.788 1569.64 424.841L1684.04 429.423C1685.28 429.473 1686.27 430.497 1686.27 431.744V1113.83C1686.27 1115.09 1685.27 1116.12 1684.01 1116.16L1569.03 1119.21C1567.72 1119.25 1566.64 1118.2 1566.64 1116.89L1567.22 427.16Z" fill="#2C443A"/>
<path d="M1696.14 434.129C1696.14 432.811 1697.24 431.758 1698.55 431.81L1812.95 436.315C1814.2 436.364 1815.19 437.389 1815.19 438.636V1109.24C1815.19 1110.5 1814.18 1111.53 1812.92 1111.56L1697.95 1114.57C1696.64 1114.6 1695.56 1113.55 1695.56 1112.24L1696.14 434.129Z" fill="#2C443A"/>
<path d="M739.128 187.815L177 317.895V263.308L739.128 110L1859.32 187.815V263.308L739.128 187.815Z" fill="#40E796"/>
<path d="M739.128 187.815L177 317.895V263.308L739.128 110M739.128 187.815L1859.32 263.308V187.815L739.128 110M739.128 187.815V110" stroke="#0F4531" stroke-width="5.80711"/>
<path d="M849.913 513.59H848.197L853.159 500.075H854.849L859.811 513.59H858.095L854.057 502.213H853.951L849.913 513.59ZM850.546 508.311H857.462V509.762H850.546V508.311Z" fill="white"/>
<path d="M978.276 518.24V504.726H983.001C983.943 504.726 984.719 504.888 985.331 505.214C985.942 505.535 986.397 505.968 986.697 506.514C986.996 507.055 987.145 507.655 987.145 508.315C987.145 508.896 987.042 509.376 986.835 509.754C986.633 510.132 986.364 510.431 986.03 510.651C985.7 510.871 985.342 511.034 984.954 511.14V511.272C985.368 511.298 985.784 511.443 986.202 511.707C986.62 511.971 986.969 512.35 987.251 512.842C987.532 513.335 987.673 513.938 987.673 514.65C987.673 515.328 987.519 515.937 987.211 516.478C986.903 517.019 986.417 517.448 985.753 517.765C985.089 518.082 984.224 518.24 983.159 518.24H978.276ZM979.913 516.788H983.159C984.228 516.788 984.987 516.582 985.436 516.168C985.889 515.75 986.116 515.244 986.116 514.65C986.116 514.193 985.999 513.771 985.766 513.383C985.533 512.992 985.201 512.679 984.77 512.446C984.338 512.209 983.828 512.09 983.239 512.09H979.913V516.788ZM979.913 510.665H982.948C983.441 510.665 983.885 510.568 984.281 510.374C984.682 510.181 984.998 509.908 985.232 509.556C985.469 509.204 985.588 508.79 985.588 508.315C985.588 507.721 985.381 507.218 984.968 506.804C984.554 506.386 983.899 506.177 983.001 506.177H979.913V510.665Z" fill="white"/>
<path d="M1113.42 514.754H1111.79C1111.69 514.283 1111.52 513.869 1111.28 513.513C1111.04 513.157 1110.75 512.857 1110.41 512.615C1110.07 512.369 1109.69 512.184 1109.28 512.061C1108.87 511.938 1108.43 511.876 1107.99 511.876C1107.17 511.876 1106.43 512.083 1105.76 512.497C1105.1 512.91 1104.58 513.52 1104.18 514.325C1103.8 515.13 1103.6 516.117 1103.6 517.288C1103.6 518.458 1103.8 519.445 1104.18 520.251C1104.58 521.056 1105.1 521.665 1105.76 522.078C1106.43 522.492 1107.17 522.699 1107.99 522.699C1108.43 522.699 1108.87 522.637 1109.28 522.514C1109.69 522.391 1110.07 522.208 1110.41 521.966C1110.75 521.72 1111.04 521.419 1111.28 521.062C1111.52 520.701 1111.69 520.288 1111.79 519.822H1113.42C1113.3 520.512 1113.08 521.13 1112.75 521.676C1112.42 522.221 1112.02 522.686 1111.54 523.068C1111.05 523.447 1110.51 523.735 1109.91 523.933C1109.31 524.131 1108.67 524.23 1107.99 524.23C1106.83 524.23 1105.81 523.948 1104.91 523.385C1104.01 522.822 1103.31 522.021 1102.79 520.983C1102.28 519.945 1102.02 518.713 1102.02 517.288C1102.02 515.862 1102.28 514.63 1102.79 513.592C1103.31 512.554 1104.01 511.753 1104.91 511.19C1105.81 510.627 1106.83 510.345 1107.99 510.345C1108.67 510.345 1109.31 510.444 1109.91 510.642C1110.51 510.84 1111.05 511.131 1111.54 511.513C1112.02 511.892 1112.42 512.354 1112.75 512.899C1113.08 513.44 1113.3 514.058 1113.42 514.754Z" fill="white"/>
<path d="M1240.28 531.014H1236.11V517.499H1240.47C1241.78 517.499 1242.9 517.769 1243.83 518.311C1244.77 518.847 1245.48 519.619 1245.98 520.627C1246.47 521.63 1246.72 522.831 1246.72 524.23C1246.72 525.638 1246.47 526.85 1245.97 527.866C1245.47 528.878 1244.74 529.656 1243.78 530.202C1242.82 530.743 1241.66 531.014 1240.28 531.014ZM1237.75 529.562H1240.18C1241.29 529.562 1242.22 529.346 1242.96 528.915C1243.69 528.484 1244.24 527.87 1244.6 527.074C1244.96 526.278 1245.14 525.33 1245.14 524.23C1245.14 523.139 1244.96 522.2 1244.61 521.412C1244.25 520.62 1243.72 520.013 1243.01 519.591C1242.3 519.164 1241.42 518.951 1240.36 518.951H1237.75V529.562Z" fill="white"/>
<path d="M1365.03 537.982V524.468H1373.19V525.919H1366.67V530.486H1372.76V531.938H1366.67V536.531H1373.29V537.982H1365.03Z" fill="white"/>
<path d="M1493.95 543.789V530.274H1502.05V531.726H1495.58V536.293H1501.44V537.744H1495.58V543.789H1493.95Z" fill="white"/>
<path d="M1630.94 541.466C1630.8 541.022 1630.61 540.624 1630.37 540.272C1630.14 539.916 1629.86 539.612 1629.53 539.361C1629.21 539.111 1628.84 538.919 1628.43 538.787C1628.03 538.655 1627.58 538.589 1627.09 538.589C1626.29 538.589 1625.56 538.796 1624.9 539.21C1624.25 539.623 1623.73 540.232 1623.34 541.038C1622.95 541.843 1622.76 542.83 1622.76 544C1622.76 545.171 1622.96 546.158 1623.35 546.963C1623.74 547.768 1624.27 548.378 1624.94 548.791C1625.61 549.205 1626.36 549.412 1627.19 549.412C1627.97 549.412 1628.65 549.247 1629.24 548.917C1629.83 548.582 1630.3 548.112 1630.63 547.505C1630.96 546.893 1631.13 546.174 1631.13 545.347L1631.63 545.452H1627.56V544H1632.71V545.452C1632.71 546.565 1632.47 547.533 1632 548.356C1631.53 549.178 1630.88 549.816 1630.05 550.269C1629.22 550.718 1628.27 550.943 1627.19 550.943C1626 550.943 1624.95 550.661 1624.04 550.098C1623.14 549.535 1622.43 548.734 1621.93 547.696C1621.43 546.658 1621.18 545.426 1621.18 544C1621.18 542.931 1621.32 541.97 1621.6 541.117C1621.9 540.259 1622.3 539.529 1622.83 538.926C1623.36 538.323 1623.98 537.861 1624.71 537.54C1625.43 537.219 1626.22 537.058 1627.09 537.058C1627.8 537.058 1628.47 537.166 1629.08 537.382C1629.7 537.593 1630.25 537.894 1630.74 538.286C1631.23 538.673 1631.63 539.137 1631.96 539.678C1632.28 540.215 1632.51 540.811 1632.63 541.466H1630.94Z" fill="white"/>
<path d="M1751.78 556.564V543.05H1753.42V549.068H1760.62V543.05H1762.26V556.564H1760.62V550.52H1753.42V556.564H1751.78Z" fill="white"/>
<path d="M2200.54 664H2182.14C2182.14 625.334 2182.14 586.668 2184.69 545.446C2168 548.001 2153.69 548.001 2139.38 548.001V531.138H2243.29V548.001C2229.15 548.001 2214.84 548.001 2197.98 545.446C2200.54 586.668 2200.54 625.334 2200.54 664ZM2275.79 664H2258.41V527.731H2275.79C2275.79 547.49 2275.28 567.42 2272.89 588.882H2275.28C2282.94 572.53 2294.52 566.738 2307.13 566.738C2324.16 566.738 2341.03 577.299 2341.03 604.553V664H2323.65V612.218C2323.65 593.822 2315.82 583.09 2301.68 583.09C2286.01 583.09 2275.79 595.866 2275.79 613.24V664ZM2407.92 666.896C2380.5 666.896 2360.06 646.966 2360.06 617.158C2360.06 587.86 2379.65 566.738 2406.9 566.738C2427.51 566.738 2451.19 579.173 2451.19 615.454V621.246H2377.6C2378.8 640.494 2391.57 651.395 2407.92 651.395C2421.38 651.395 2431.26 643.219 2436.03 631.466L2452.04 637.768C2445.4 655.313 2428.88 666.896 2407.92 666.896ZM2378.46 606.937H2433.47C2432.45 588.712 2419.34 581.728 2406.73 581.728C2391.4 581.728 2381.01 592.629 2378.46 606.937ZM2536.03 664H2517.81V531.138H2534.67C2560.22 564.694 2583.56 597.739 2607.23 638.109H2609.79C2606.72 598.932 2607.06 565.035 2607.06 531.138H2625.29V664H2608.43C2583.22 631.125 2559.37 598.932 2535.86 559.414H2533.48C2536.37 597.739 2536.03 630.785 2536.03 664ZM2694.53 666.896C2667.11 666.896 2646.67 646.966 2646.67 617.158C2646.67 587.86 2666.26 566.738 2693.51 566.738C2714.12 566.738 2737.8 579.173 2737.8 615.454V621.246H2664.21C2665.41 640.494 2678.18 651.395 2694.53 651.395C2707.99 651.395 2717.87 643.219 2722.64 631.466L2738.65 637.768C2732.01 655.313 2715.49 666.896 2694.53 666.896ZM2665.07 606.937H2720.08C2719.06 588.712 2705.95 581.728 2693.34 581.728C2678.01 581.728 2667.62 592.629 2665.07 606.937ZM2763.62 664H2743.69C2754.42 648.159 2765.66 632.147 2777.08 617.328V614.943C2765.49 600.465 2754.59 584.964 2743.86 569.464H2763.79C2771.8 581.387 2779.63 592.97 2786.45 606.937H2789C2795.64 592.97 2803.65 581.387 2811.83 569.464H2831.24C2820.68 584.964 2809.95 600.465 2798.2 614.943V617.328C2809.95 632.147 2820.85 648.159 2831.41 664H2812C2803.99 652.076 2796.32 640.153 2789 626.185H2786.45C2779.63 640.153 2771.63 652.076 2763.62 664ZM2881.18 666.896C2853.93 666.896 2853.93 645.263 2853.93 634.873C2853.93 618.35 2853.93 601.657 2856.48 582.92C2847.63 585.134 2841.49 585.134 2835.19 585.134V569.464C2841.49 569.464 2847.63 569.464 2856.48 571.678C2853.93 560.436 2853.93 551.238 2853.93 542.04H2871.3C2871.3 551.238 2871.3 560.436 2868.75 571.678C2880.33 569.464 2889.53 569.464 2898.56 569.464V585.134C2889.53 585.134 2880.33 585.134 2868.75 582.92C2871.3 599.783 2871.3 614.432 2871.3 629.081C2871.3 638.961 2871.3 651.225 2884.42 651.225C2888.85 651.225 2893.79 649.862 2898.56 646.966V662.808C2893.79 665.533 2887.49 666.896 2881.18 666.896ZM3019.51 666.896C2981.19 666.896 2953.93 638.279 2953.93 597.91C2953.93 555.326 2984.25 528.413 3020.71 528.413C3047.79 528.413 3071.81 543.232 3080.49 568.612L3063.63 575.425C3056.14 557.199 3040.64 545.617 3020.88 545.617C2994.99 545.617 2973.18 565.205 2973.18 598.25C2973.18 634.873 2999.76 649.692 3022.75 649.692C3046.09 649.692 3063.29 634.702 3071.64 609.663L3069.59 607.448C3053.24 611.877 3037.74 612.559 3024.62 612.559V597.228H3083.9V664H3069.59C3069.25 655.654 3068.23 647.477 3070.96 636.065L3067.89 635.384C3058.69 656.505 3042.51 666.896 3019.51 666.896ZM3149.48 666.896C3122.06 666.896 3101.62 646.966 3101.62 617.158C3101.62 587.86 3121.21 566.738 3148.46 566.738C3169.07 566.738 3192.75 579.173 3192.75 615.454V621.246H3119.16C3120.36 640.494 3133.13 651.395 3149.48 651.395C3162.94 651.395 3172.82 643.219 3177.59 631.466L3193.6 637.768C3186.96 655.313 3170.44 666.896 3149.48 666.896ZM3120.02 606.937H3175.03C3174.01 588.712 3160.9 581.728 3148.29 581.728C3132.96 581.728 3122.57 592.629 3120.02 606.937ZM3231.1 664H3213.72V569.464H3230.76C3230.76 574.914 3230.76 580.365 3228.2 588.882H3230.59C3238.25 572.53 3249.84 566.738 3262.61 566.738C3279.64 566.738 3296.34 577.299 3296.34 604.553V664H3278.96V612.218C3278.96 593.822 3271.13 583.09 3256.99 583.09C3241.32 583.09 3231.1 595.866 3231.1 613.24V664ZM2203.6 882H2153.18V749.138H2202.07C2246.36 749.138 2265.09 778.776 2265.09 814.717C2265.09 854.235 2242.27 882 2203.6 882ZM2168.85 865.818L2171.24 868.203C2182.48 865.137 2192.7 865.137 2202.58 865.137C2227.11 865.137 2245.84 849.466 2245.84 815.91C2245.84 779.117 2223.36 766.001 2197.64 766.001C2189.29 766.001 2180.95 766.001 2171.24 763.106L2168.68 764.639C2172.6 798.706 2172.77 832.092 2168.85 865.818ZM2310.05 884.896C2294.04 884.896 2279.22 876.379 2279.22 858.834C2279.22 841.119 2294.38 833.795 2311.75 830.218C2331 826.3 2340.88 825.619 2340.88 815.739C2340.88 806.882 2333.04 799.046 2320.95 799.046C2310.39 799.046 2302.04 805.349 2298.81 816.591L2282.45 811.14C2288.07 792.233 2304.94 784.738 2321.8 784.738C2341.9 784.738 2358.42 794.958 2358.42 817.272V852.532C2358.42 868.032 2359.62 874.676 2361.49 882H2344.29C2342.58 876.549 2341.73 871.78 2344.29 862.411H2341.73C2336.28 876.89 2325.04 884.896 2310.05 884.896ZM2314.31 871.269C2330.83 871.269 2340.88 856.45 2340.88 845.207V833.965C2335.77 837.883 2329.64 839.757 2320.27 841.63C2311.07 843.504 2298.12 847.251 2298.12 858.323C2298.12 866.67 2304.94 871.269 2314.31 871.269ZM2417.92 884.896C2390.66 884.896 2390.66 863.263 2390.66 852.873C2390.66 836.35 2390.66 819.657 2393.22 800.92C2384.36 803.134 2378.23 803.134 2371.93 803.134V787.464C2378.23 787.464 2384.36 787.464 2393.22 789.678C2390.66 778.436 2390.66 769.238 2390.66 760.04H2408.04C2408.04 769.238 2408.04 778.436 2405.48 789.678C2417.06 787.464 2426.26 787.464 2435.29 787.464V803.134C2426.26 803.134 2417.06 803.134 2405.48 800.92C2408.04 817.783 2408.04 832.432 2408.04 847.081C2408.04 856.961 2408.04 869.225 2421.15 869.225C2425.58 869.225 2430.52 867.862 2435.29 864.966V880.808C2430.52 883.533 2424.22 884.896 2417.92 884.896ZM2477.39 884.896C2461.38 884.896 2446.56 876.379 2446.56 858.834C2446.56 841.119 2461.72 833.795 2479.09 830.218C2498.34 826.3 2508.22 825.619 2508.22 815.739C2508.22 806.882 2500.38 799.046 2488.29 799.046C2477.73 799.046 2469.38 805.349 2466.15 816.591L2449.8 811.14C2455.42 792.233 2472.28 784.738 2489.14 784.738C2509.24 784.738 2525.76 794.958 2525.76 817.272V852.532C2525.76 868.032 2526.96 874.676 2528.83 882H2511.63C2509.92 876.549 2509.07 871.78 2511.63 862.411H2509.07C2503.62 876.89 2492.38 884.896 2477.39 884.896ZM2481.65 871.269C2498.17 871.269 2508.22 856.45 2508.22 845.207V833.965C2503.11 837.883 2496.98 839.757 2487.61 841.63C2478.41 843.504 2465.47 847.251 2465.47 858.323C2465.47 866.67 2472.28 871.269 2481.65 871.269ZM2642.89 882H2620.07L2579.53 749.138H2600.14C2611.38 786.101 2621.26 819.827 2630.46 861.56H2633.01C2642.72 820.849 2653.62 785.079 2664.52 749.138H2685.3C2696.38 785.079 2707.28 820.849 2717.16 862.241H2719.71C2728.91 820.168 2738.96 784.398 2749.86 749.138H2770.3L2729.76 882H2707.28C2695.35 845.037 2685.3 812.162 2676.62 772.474H2673.38C2664.01 814.377 2654.13 847.251 2642.89 882ZM2802.42 884.896C2786.41 884.896 2771.59 876.379 2771.59 858.834C2771.59 841.119 2786.75 833.795 2804.13 830.218C2823.38 826.3 2833.26 825.619 2833.26 815.739C2833.26 806.882 2825.42 799.046 2813.33 799.046C2802.77 799.046 2794.42 805.349 2791.18 816.591L2774.83 811.14C2780.45 792.233 2797.31 784.738 2814.18 784.738C2834.28 784.738 2850.8 794.958 2850.8 817.272V852.532C2850.8 868.032 2851.99 874.676 2853.87 882H2836.66C2834.96 876.549 2834.11 871.78 2836.66 862.411H2834.11C2828.66 876.89 2817.41 884.896 2802.42 884.896ZM2806.68 871.269C2823.21 871.269 2833.26 856.45 2833.26 845.207V833.965C2828.15 837.883 2822.01 839.757 2812.65 841.63C2803.45 843.504 2790.5 847.251 2790.5 858.323C2790.5 866.67 2797.31 871.269 2806.68 871.269ZM2894.25 882H2876.88V787.464H2893.91C2893.91 793.255 2894.59 799.046 2892.04 809.778H2894.59C2899.36 793.425 2909.92 784.738 2923.21 784.738C2926.45 784.738 2929.85 785.249 2933.26 786.612V805.69C2929.68 804.327 2924.57 803.646 2921.68 803.646C2900.73 803.646 2894.25 823.915 2894.25 840.438V882ZM2986.63 884.896C2959.21 884.896 2938.77 864.966 2938.77 835.158C2938.77 805.86 2958.36 784.738 2985.61 784.738C3006.22 784.738 3029.9 797.173 3029.9 833.454V839.246H2956.31C2957.51 858.494 2970.28 869.395 2986.63 869.395C3000.09 869.395 3009.97 861.219 3014.74 849.466L3030.75 855.768C3024.11 873.313 3007.59 884.896 2986.63 884.896ZM2957.17 824.937H3012.18C3011.16 806.712 2998.05 799.728 2985.44 799.728C2970.11 799.728 2959.72 810.629 2957.17 824.937ZM3068.25 882H3050.87V745.731H3068.25C3068.25 765.49 3067.74 785.42 3065.35 806.882H3067.74C3075.4 790.53 3086.99 784.738 3099.59 784.738C3116.62 784.738 3133.49 795.299 3133.49 822.553V882H3116.11V830.218C3116.11 811.822 3108.28 801.09 3094.14 801.09C3078.47 801.09 3068.25 813.866 3068.25 831.24V882ZM3200.73 884.896C3172.28 884.896 3152.52 864.455 3152.52 834.987C3152.52 805.519 3172.28 784.738 3200.73 784.738C3228.83 784.738 3248.59 805.519 3248.59 834.987C3248.59 864.455 3228.83 884.896 3200.73 884.896ZM3200.73 868.714C3218.27 868.714 3230.36 854.746 3230.36 834.987C3230.36 815.058 3218.27 801.09 3200.73 801.09C3182.84 801.09 3170.75 815.058 3170.75 834.987C3170.75 854.746 3182.84 868.714 3200.73 868.714ZM3301.66 884.896C3282.92 884.896 3267.59 873.824 3267.59 846.74V787.464H3284.97V840.608C3284.97 860.197 3294.51 868.714 3306.43 868.714C3322.27 868.714 3331.13 854.235 3331.13 839.586V787.464H3348.5V852.532C3348.5 868.203 3349.69 874.676 3351.57 882H3334.19C3332.66 875.868 3331.64 871.269 3334.19 862.241H3331.81C3325.68 878.934 3315.46 884.896 3301.66 884.896ZM3406.92 884.896C3386.82 884.896 3371.66 874.335 3366.89 858.323L3382.9 853.213C3387.5 864.455 3397.38 870.587 3406.75 870.587C3413.56 870.587 3423.95 867.351 3423.95 857.131C3423.95 848.274 3415.44 845.548 3407.09 843.163L3397.55 840.438C3387.33 837.372 3371.32 831.07 3371.32 812.673C3371.32 794.618 3387.16 784.738 3404.53 784.738C3422.08 784.738 3435.19 794.958 3439.28 808.245L3423.1 813.695C3420.38 806.03 3414.07 799.046 3403.68 799.046C3395 799.046 3388.69 803.816 3388.69 811.481C3388.69 821.02 3399.76 824.597 3408.11 826.982L3416.12 829.366C3425.83 832.092 3442.18 836.861 3442.18 855.257C3442.18 872.632 3428.04 884.896 3406.92 884.896ZM3502.8 884.896C3475.37 884.896 3454.93 864.966 3454.93 835.158C3454.93 805.86 3474.52 784.738 3501.78 784.738C3522.39 784.738 3546.06 797.173 3546.06 833.454V839.246H3472.48C3473.67 858.494 3486.45 869.395 3502.8 869.395C3516.25 869.395 3526.13 861.219 3530.9 849.466L3546.92 855.768C3540.27 873.313 3523.75 884.896 3502.8 884.896ZM3473.33 824.937H3528.35C3527.33 806.712 3514.21 799.728 3501.61 799.728C3486.28 799.728 3475.88 810.629 3473.33 824.937Z" fill="#D6F6EB"/>
</svg>
