<svg width="4116" height="1365" viewBox="0 0 4116 1365" fill="none" xmlns="http://www.w3.org/2000/svg">
<g clip-path="url(#clip0_452_9354)">
<rect width="4116" height="1365" fill="#010E0C"/>
<path d="M1775.2 1198.64C1775.2 1200.3 1773.92 1202.01 1771.28 1203.66C1768.67 1205.29 1764.85 1206.78 1760.09 1208.04C1750.58 1210.56 1737.42 1212.12 1722.85 1212.12C1708.29 1212.12 1695.12 1210.56 1685.61 1208.04C1680.85 1206.78 1677.04 1205.29 1674.42 1203.66C1671.78 1202.01 1670.5 1200.3 1670.5 1198.64C1670.5 1196.97 1671.78 1195.27 1674.42 1193.61C1677.04 1191.98 1680.85 1190.49 1685.61 1189.23C1695.12 1186.72 1708.29 1185.15 1722.85 1185.15C1737.42 1185.15 1750.58 1186.72 1760.09 1189.23C1764.85 1190.49 1768.67 1191.98 1771.28 1193.61C1773.92 1195.27 1775.2 1196.97 1775.2 1198.64Z" fill="#052C26" stroke="#0F4531" stroke-width="0.987752"/>
<path d="M1784.41 1186.81C1784.41 1188.76 1782.9 1190.77 1779.8 1192.71C1776.73 1194.64 1772.24 1196.39 1766.64 1197.87C1755.46 1200.83 1739.98 1202.66 1722.85 1202.66C1705.73 1202.66 1690.25 1200.83 1679.07 1197.87C1673.47 1196.39 1668.98 1194.64 1665.91 1192.71C1662.8 1190.77 1661.3 1188.76 1661.3 1186.81C1661.3 1184.86 1662.8 1182.85 1665.91 1180.91C1668.98 1178.98 1673.47 1177.23 1679.07 1175.75C1690.25 1172.79 1705.73 1170.96 1722.85 1170.96C1739.98 1170.96 1755.46 1172.79 1766.64 1175.75C1772.24 1177.23 1776.73 1178.98 1779.8 1180.91C1782.9 1182.85 1784.41 1184.86 1784.41 1186.81Z" fill="#052C26" stroke="#0F4531" stroke-width="1.16142"/>
<path d="M1792.54 1170.38C1792.54 1172.63 1790.81 1174.92 1787.29 1177.12C1783.8 1179.3 1778.72 1181.28 1772.39 1182.96C1759.74 1186.3 1742.22 1188.38 1722.85 1188.38C1703.49 1188.38 1685.97 1186.3 1673.32 1182.96C1666.99 1181.28 1661.9 1179.3 1658.42 1177.12C1654.9 1174.92 1653.17 1172.63 1653.17 1170.38C1653.17 1168.13 1654.9 1165.84 1658.42 1163.64C1661.9 1161.46 1666.99 1159.47 1673.32 1157.8C1685.97 1154.45 1703.49 1152.38 1722.85 1152.38C1742.22 1152.38 1759.74 1154.45 1772.39 1157.8C1778.72 1159.47 1783.8 1161.46 1787.29 1163.64C1790.81 1165.84 1792.54 1168.13 1792.54 1170.38Z" fill="#052C26" stroke="#0F4531" stroke-width="1.16142"/>
<path d="M868.133 1239.29C868.133 1240.95 866.852 1242.66 864.212 1244.31C861.598 1245.94 857.782 1247.43 853.023 1248.69C843.512 1251.21 830.345 1252.77 815.782 1252.77C801.219 1252.77 788.053 1251.21 778.542 1248.69C773.782 1247.43 769.967 1245.94 767.352 1244.31C764.712 1242.66 763.431 1240.95 763.431 1239.29C763.431 1237.63 764.712 1235.92 767.352 1234.26C769.967 1232.63 773.782 1231.14 778.542 1229.88C788.053 1227.37 801.219 1225.8 815.782 1225.8C830.345 1225.8 843.512 1227.37 853.023 1229.88C857.782 1231.14 861.598 1232.63 864.212 1234.26C866.852 1235.92 868.133 1237.63 868.133 1239.29Z" fill="#052C26" stroke="#0F4531" stroke-width="0.987752"/>
<path d="M877.338 1227.46C877.338 1229.41 875.832 1231.42 872.728 1233.36C869.654 1235.29 865.167 1237.04 859.571 1238.52C848.388 1241.48 832.906 1243.31 815.783 1243.31C798.659 1243.31 783.178 1241.48 771.994 1238.52C766.398 1237.04 761.911 1235.29 758.837 1233.36C755.733 1231.42 754.227 1229.41 754.227 1227.46C754.227 1225.51 755.733 1223.5 758.837 1221.56C761.911 1219.63 766.398 1217.88 771.994 1216.4C783.178 1213.44 798.659 1211.61 815.783 1211.61C832.906 1211.61 848.388 1213.44 859.571 1216.4C865.167 1217.88 869.654 1219.63 872.728 1221.56C875.832 1223.5 877.338 1225.51 877.338 1227.46Z" fill="#052C26" stroke="#0F4531" stroke-width="1.16142"/>
<path d="M885.468 1211.03C885.468 1213.28 883.735 1215.57 880.219 1217.77C876.734 1219.95 871.651 1221.93 865.32 1223.61C852.665 1226.95 835.151 1229.03 815.783 1229.03C796.414 1229.03 778.9 1226.95 766.246 1223.61C759.914 1221.93 754.832 1219.95 751.346 1217.77C747.831 1215.57 746.097 1213.28 746.097 1211.03C746.097 1208.78 747.831 1206.49 751.346 1204.29C754.832 1202.11 759.914 1200.12 766.246 1198.45C778.9 1195.1 796.414 1193.03 815.783 1193.03C835.151 1193.03 852.665 1195.1 865.32 1198.45C871.651 1200.12 876.734 1202.11 880.219 1204.29C883.735 1206.49 885.468 1208.78 885.468 1211.03Z" fill="#052C26" stroke="#0F4531" stroke-width="1.16142"/>
<path d="M383.82 1198.64C383.82 1200.3 382.539 1202.01 379.899 1203.66C377.284 1205.29 373.469 1206.78 368.709 1208.04C359.198 1210.56 346.031 1212.12 331.469 1212.12C316.906 1212.12 303.739 1210.56 294.228 1208.04C289.469 1206.78 285.653 1205.29 283.039 1203.66C280.399 1202.01 279.118 1200.3 279.118 1198.64C279.118 1196.97 280.399 1195.27 283.039 1193.61C285.653 1191.98 289.469 1190.49 294.228 1189.23C303.739 1186.72 316.906 1185.15 331.469 1185.15C346.031 1185.15 359.198 1186.72 368.709 1189.23C373.469 1190.49 377.284 1191.98 379.899 1193.61C382.539 1195.27 383.82 1196.97 383.82 1198.64Z" fill="#052C26" stroke="#0F4531" stroke-width="0.987752"/>
<path d="M393.024 1186.81C393.024 1188.76 391.519 1190.77 388.414 1192.71C385.34 1194.64 380.853 1196.39 375.257 1197.87C364.074 1200.83 348.592 1202.66 331.469 1202.66C314.346 1202.66 298.864 1200.83 287.681 1197.87C282.085 1196.39 277.598 1194.64 274.524 1192.71C271.42 1190.77 269.914 1188.76 269.914 1186.81C269.914 1184.86 271.42 1182.85 274.524 1180.91C277.598 1178.98 282.085 1177.23 287.681 1175.75C298.864 1172.79 314.346 1170.96 331.469 1170.96C348.592 1170.96 364.074 1172.79 375.257 1175.75C380.853 1177.23 385.34 1178.98 388.414 1180.91C391.519 1182.85 393.024 1184.86 393.024 1186.81Z" fill="#052C26" stroke="#0F4531" stroke-width="1.16142"/>
<path d="M401.155 1170.38C401.155 1172.63 399.421 1174.92 395.906 1177.12C392.42 1179.3 387.338 1181.28 381.006 1182.96C368.352 1186.3 350.837 1188.38 331.469 1188.38C312.101 1188.38 294.587 1186.3 281.932 1182.96C275.6 1181.28 270.518 1179.3 267.033 1177.12C263.517 1174.92 261.784 1172.63 261.784 1170.38C261.784 1168.13 263.517 1165.84 267.033 1163.64C270.518 1161.46 275.6 1159.47 281.932 1157.8C294.587 1154.45 312.101 1152.38 331.469 1152.38C350.837 1152.38 368.352 1154.45 381.006 1157.8C387.338 1159.47 392.42 1161.46 395.906 1163.64C399.421 1165.84 401.155 1168.13 401.155 1170.38Z" fill="#052C26" stroke="#0F4531" stroke-width="1.16142"/>
<path d="M179.323 1147.73V333.574L264.688 314.535L501.908 261.628L739.129 208.721L1858.16 279.567V1161.09L899.405 1200.89L739.129 1207.54L459.226 1177.64L179.323 1147.73Z" fill="#12413A"/>
<path d="M739.129 1207.54L899.405 1200.89L1858.16 1161.09V279.567L739.129 208.721M739.129 1207.54L459.226 1177.64M739.129 1207.54V423.003M739.129 208.721L501.908 261.628M739.129 208.721V423.003M459.226 1177.64L179.323 1147.73V333.574L264.688 314.535M459.226 1177.64V874.216H344.826V731.941H264.688V314.535M264.688 314.535L501.908 261.628M501.908 261.628V462.491L739.129 423.003" stroke="#052C26" stroke-width="5.80711"/>
<ellipse cx="1754.79" cy="374.803" rx="17.4213" ry="23.2284" fill="#052C26"/>
<ellipse cx="1625.87" cy="367.834" rx="17.4213" ry="23.2284" fill="#052C26"/>
<ellipse cx="1496.96" cy="362.029" rx="17.4213" ry="23.2284" fill="#052C26"/>
<ellipse cx="1368.04" cy="355.059" rx="17.4213" ry="23.2284" fill="#4BBF94"/>
<ellipse cx="1239.12" cy="349.254" rx="17.4213" ry="23.2284" fill="#4BBF94"/>
<ellipse cx="1110.2" cy="343.445" rx="17.4213" ry="23.2284" fill="#4BBF94"/>
<ellipse cx="981.285" cy="337.639" rx="17.4213" ry="23.2284" fill="#4BBF94"/>
<ellipse cx="852.368" cy="331.832" rx="17.4213" ry="23.2284" fill="#4BBF94"/>
<path d="M1303.58 406.317V1133.53M1303.58 406.317L1432.35 412.744M1303.58 406.317L1174.81 399.891M1303.58 1133.53L1432.35 1128.96M1303.58 1133.53L1174.81 1138.1M1046.03 393.464V1142.66M1046.03 393.464L1174.81 399.891M1046.03 393.464L917.261 387.038M1046.03 1142.66L1174.81 1138.1M1046.03 1142.66L917.261 1147.23M1561.12 419.171V1124.4M1561.12 419.171L1689.9 425.597M1561.12 419.171L1432.35 412.744M1561.12 1124.4L1689.9 1119.83M1561.12 1124.4L1432.35 1128.96M1689.9 1119.83L1814.19 1115.42C1816.69 1115.34 1818.67 1113.28 1818.67 1110.78V436.443C1818.67 433.968 1816.73 431.927 1814.26 431.803L1689.9 425.597M1689.9 1119.83V425.597M1432.35 412.744V1128.96M1174.81 1138.1V399.891M917.261 387.038L793.366 380.855C790.712 380.722 788.488 382.838 788.488 385.495V1135.56V1146.98C788.488 1149.61 790.67 1151.72 793.299 1151.63L917.261 1147.23M917.261 387.038V1147.23" stroke="#052C26" stroke-width="5.80711"/>
<path d="M793.713 388.263C793.714 386.941 794.816 385.886 796.137 385.944L910.539 390.967C911.781 391.021 912.76 392.044 912.76 393.287V1141.41C912.76 1142.67 911.761 1143.7 910.505 1143.73L795.526 1147.08C794.217 1147.12 793.135 1146.07 793.136 1144.76L793.713 388.263Z" fill="#2C443A"/>
<path d="M922.631 394.648C922.632 393.327 923.734 392.272 925.054 392.329L1039.46 397.279C1040.7 397.333 1041.68 398.356 1041.68 399.6V1136.81C1041.68 1138.07 1040.68 1139.1 1039.42 1139.13L924.443 1142.43C923.134 1142.47 922.053 1141.42 922.054 1140.11L922.631 394.648Z" fill="#2C443A"/>
<path d="M1051.55 401.615C1051.55 400.294 1052.65 399.24 1053.97 399.296L1168.37 404.17C1169.62 404.223 1170.6 405.246 1170.6 406.49V1132.22C1170.6 1133.48 1169.6 1134.51 1168.34 1134.54L1053.36 1137.79C1052.05 1137.83 1050.97 1136.78 1050.97 1135.47L1051.55 401.615Z" fill="#2C443A"/>
<path d="M1180.47 407.421C1180.47 406.1 1181.57 405.046 1182.89 405.102L1297.29 409.906C1298.53 409.958 1299.51 410.982 1299.51 412.227V1127.62C1299.51 1128.88 1298.51 1129.91 1297.26 1129.94L1182.28 1133.15C1180.97 1133.18 1179.89 1132.13 1179.89 1130.82L1180.47 407.421Z" fill="#2C443A"/>
<path d="M1309.38 414.388C1309.39 413.068 1310.48 412.014 1311.8 412.069L1426.21 416.796C1427.45 416.848 1428.43 417.871 1428.43 419.117V1123.03C1428.43 1124.28 1427.43 1125.31 1426.17 1125.35L1311.19 1128.5C1309.89 1128.54 1308.81 1127.49 1308.81 1126.18L1309.38 414.388Z" fill="#2C443A"/>
<path d="M1438.3 420.195C1438.3 418.876 1439.4 417.822 1440.72 417.876L1555.12 422.534C1556.37 422.585 1557.35 423.609 1557.35 424.855V1118.43C1557.35 1119.69 1556.35 1120.72 1555.09 1120.75L1440.11 1123.86C1438.8 1123.89 1437.73 1122.84 1437.73 1121.53L1438.3 420.195Z" fill="#2C443A"/>
<path d="M1567.22 427.16C1567.22 425.841 1568.32 424.788 1569.64 424.841L1684.04 429.423C1685.28 429.473 1686.27 430.497 1686.27 431.744V1113.83C1686.27 1115.09 1685.27 1116.12 1684.01 1116.16L1569.03 1119.21C1567.72 1119.25 1566.64 1118.2 1566.64 1116.89L1567.22 427.16Z" fill="#2C443A"/>
<path d="M1696.14 434.129C1696.14 432.811 1697.24 431.758 1698.55 431.81L1812.95 436.315C1814.2 436.364 1815.19 437.389 1815.19 438.636V1109.24C1815.19 1110.5 1814.18 1111.53 1812.92 1111.56L1697.95 1114.57C1696.64 1114.6 1695.56 1113.55 1695.56 1112.24L1696.14 434.129Z" fill="#2C443A"/>
<path d="M739.128 187.815L177 317.895V263.308L739.128 110L1859.32 187.815V263.308L739.128 187.815Z" fill="#40E796"/>
<path d="M739.128 187.815L177 317.895V263.308L739.128 110M739.128 187.815L1859.32 263.308V187.815L739.128 110M739.128 187.815V110" stroke="#0F4531" stroke-width="5.80711"/>
<path d="M849.913 513.59H848.197L853.159 500.075H854.849L859.811 513.59H858.095L854.057 502.213H853.951L849.913 513.59ZM850.546 508.311H857.462V509.762H850.546V508.311Z" fill="white"/>
<path d="M978.276 518.24V504.726H983.001C983.943 504.726 984.719 504.888 985.331 505.214C985.942 505.535 986.397 505.968 986.697 506.514C986.996 507.055 987.145 507.655 987.145 508.315C987.145 508.896 987.042 509.376 986.835 509.754C986.633 510.132 986.364 510.431 986.03 510.651C985.7 510.871 985.342 511.034 984.954 511.14V511.272C985.368 511.298 985.784 511.443 986.202 511.707C986.62 511.971 986.969 512.35 987.251 512.842C987.532 513.335 987.673 513.938 987.673 514.65C987.673 515.328 987.519 515.937 987.211 516.478C986.903 517.019 986.417 517.448 985.753 517.765C985.089 518.082 984.224 518.24 983.159 518.24H978.276ZM979.913 516.788H983.159C984.228 516.788 984.987 516.582 985.436 516.168C985.889 515.75 986.116 515.244 986.116 514.65C986.116 514.193 985.999 513.771 985.766 513.383C985.533 512.992 985.201 512.679 984.77 512.446C984.338 512.209 983.828 512.09 983.239 512.09H979.913V516.788ZM979.913 510.665H982.948C983.441 510.665 983.885 510.568 984.281 510.374C984.682 510.181 984.998 509.908 985.232 509.556C985.469 509.204 985.588 508.79 985.588 508.315C985.588 507.721 985.381 507.218 984.968 506.804C984.554 506.386 983.899 506.177 983.001 506.177H979.913V510.665Z" fill="white"/>
<path d="M1113.42 514.754H1111.79C1111.69 514.283 1111.52 513.869 1111.28 513.513C1111.04 513.157 1110.75 512.857 1110.41 512.615C1110.07 512.369 1109.69 512.184 1109.28 512.061C1108.87 511.938 1108.43 511.876 1107.99 511.876C1107.17 511.876 1106.43 512.083 1105.76 512.497C1105.1 512.91 1104.58 513.52 1104.18 514.325C1103.8 515.13 1103.6 516.117 1103.6 517.288C1103.6 518.458 1103.8 519.445 1104.18 520.251C1104.58 521.056 1105.1 521.665 1105.76 522.078C1106.43 522.492 1107.17 522.699 1107.99 522.699C1108.43 522.699 1108.87 522.637 1109.28 522.514C1109.69 522.391 1110.07 522.208 1110.41 521.966C1110.75 521.72 1111.04 521.419 1111.28 521.062C1111.52 520.701 1111.69 520.288 1111.79 519.822H1113.42C1113.3 520.512 1113.08 521.13 1112.75 521.676C1112.42 522.221 1112.02 522.686 1111.54 523.068C1111.05 523.447 1110.51 523.735 1109.91 523.933C1109.31 524.131 1108.67 524.23 1107.99 524.23C1106.83 524.23 1105.81 523.948 1104.91 523.385C1104.01 522.822 1103.31 522.021 1102.79 520.983C1102.28 519.945 1102.02 518.713 1102.02 517.288C1102.02 515.862 1102.28 514.63 1102.79 513.592C1103.31 512.554 1104.01 511.753 1104.91 511.19C1105.81 510.627 1106.83 510.345 1107.99 510.345C1108.67 510.345 1109.31 510.444 1109.91 510.642C1110.51 510.84 1111.05 511.131 1111.54 511.513C1112.02 511.892 1112.42 512.354 1112.75 512.899C1113.08 513.44 1113.3 514.058 1113.42 514.754Z" fill="white"/>
<path d="M1240.28 531.014H1236.11V517.499H1240.47C1241.78 517.499 1242.9 517.769 1243.83 518.311C1244.77 518.847 1245.48 519.619 1245.98 520.627C1246.47 521.63 1246.72 522.831 1246.72 524.23C1246.72 525.638 1246.47 526.85 1245.97 527.866C1245.47 528.878 1244.74 529.656 1243.78 530.202C1242.82 530.743 1241.66 531.014 1240.28 531.014ZM1237.75 529.562H1240.18C1241.29 529.562 1242.22 529.346 1242.96 528.915C1243.69 528.484 1244.24 527.87 1244.6 527.074C1244.96 526.278 1245.14 525.33 1245.14 524.23C1245.14 523.139 1244.96 522.2 1244.61 521.412C1244.25 520.62 1243.72 520.013 1243.01 519.591C1242.3 519.164 1241.42 518.951 1240.36 518.951H1237.75V529.562Z" fill="white"/>
<path d="M1365.03 537.982V524.468H1373.19V525.919H1366.67V530.486H1372.76V531.938H1366.67V536.531H1373.29V537.982H1365.03Z" fill="white"/>
<path d="M1493.95 543.789V530.274H1502.05V531.726H1495.58V536.293H1501.44V537.744H1495.58V543.789H1493.95Z" fill="white"/>
<path d="M1630.94 541.466C1630.8 541.022 1630.61 540.624 1630.37 540.272C1630.14 539.916 1629.86 539.612 1629.53 539.361C1629.21 539.111 1628.84 538.919 1628.43 538.787C1628.03 538.655 1627.58 538.589 1627.09 538.589C1626.29 538.589 1625.56 538.796 1624.9 539.21C1624.25 539.623 1623.73 540.232 1623.34 541.038C1622.95 541.843 1622.76 542.83 1622.76 544C1622.76 545.171 1622.96 546.158 1623.35 546.963C1623.74 547.768 1624.27 548.378 1624.94 548.791C1625.61 549.205 1626.36 549.412 1627.19 549.412C1627.97 549.412 1628.65 549.247 1629.24 548.917C1629.83 548.582 1630.3 548.112 1630.63 547.505C1630.96 546.893 1631.13 546.174 1631.13 545.347L1631.63 545.452H1627.56V544H1632.71V545.452C1632.71 546.565 1632.47 547.533 1632 548.356C1631.53 549.178 1630.88 549.816 1630.05 550.269C1629.22 550.718 1628.27 550.943 1627.19 550.943C1626 550.943 1624.95 550.661 1624.04 550.098C1623.14 549.535 1622.43 548.734 1621.93 547.696C1621.43 546.658 1621.18 545.426 1621.18 544C1621.18 542.931 1621.32 541.97 1621.6 541.117C1621.9 540.259 1622.3 539.529 1622.83 538.926C1623.36 538.323 1623.98 537.861 1624.71 537.54C1625.43 537.219 1626.22 537.058 1627.09 537.058C1627.8 537.058 1628.47 537.166 1629.08 537.382C1629.7 537.593 1630.25 537.894 1630.74 538.286C1631.23 538.673 1631.63 539.137 1631.96 539.678C1632.28 540.215 1632.51 540.811 1632.63 541.466H1630.94Z" fill="white"/>
<path d="M1751.78 556.564V543.05H1753.42V549.068H1760.62V543.05H1762.26V556.564H1760.62V550.52H1753.42V556.564H1751.78Z" fill="white"/>
<path d="M2180.78 532.829C2180.78 518.747 2181 504.723 2181.46 490.756C2181.91 476.674 2182.59 462.48 2183.5 448.172C2176.12 449.421 2169.19 450.216 2162.72 450.556C2156.36 450.783 2148.58 450.897 2139.38 450.897V431.138H2243.8V450.897C2234.49 450.897 2226.6 450.783 2220.12 450.556C2213.76 450.216 2206.89 449.421 2199.51 448.172C2200.42 462.593 2201.1 476.845 2201.56 490.926C2202.01 504.893 2202.24 518.861 2202.24 532.829V564H2180.78V532.829ZM2258.4 427.731H2278.5C2278.5 429.321 2278.5 430.968 2278.5 432.671C2278.5 442.778 2278.27 452.26 2277.82 461.117C2277.36 469.861 2276.57 478.832 2275.43 488.03H2278.16C2281.68 480.422 2286.11 474.971 2291.44 471.678C2296.78 468.271 2302.68 466.568 2309.16 466.568C2315.18 466.568 2320.68 467.931 2325.68 470.656C2330.79 473.268 2334.88 477.413 2337.94 483.09C2341.12 488.768 2342.71 495.866 2342.71 504.382V564H2322.44V513.24C2322.44 507.448 2321.76 502.566 2320.4 498.591C2319.04 494.617 2316.82 491.494 2313.76 489.223C2310.8 486.838 2306.94 485.646 2302.17 485.646C2297.63 485.646 2293.54 486.781 2289.91 489.052C2286.39 491.323 2283.61 494.617 2281.56 498.932C2279.52 503.133 2278.5 508.13 2278.5 513.921V564H2258.4V427.731ZM2409.09 566.896C2399.78 566.896 2391.43 564.852 2384.05 560.764C2376.79 556.562 2371.05 550.714 2366.85 543.219C2362.65 535.611 2360.55 526.867 2360.55 516.987C2360.55 507.335 2362.53 498.705 2366.51 491.096C2370.6 483.374 2376.22 477.356 2383.37 473.041C2390.53 468.725 2398.65 466.568 2407.73 466.568C2415.57 466.568 2422.89 468.328 2429.7 471.848C2436.52 475.255 2442.02 480.706 2446.23 488.201C2450.54 495.582 2452.7 504.893 2452.7 516.136V521.927H2381.16C2381.73 527.605 2383.26 532.431 2385.76 536.406C2388.26 540.38 2391.55 543.389 2395.64 545.433C2399.72 547.477 2404.21 548.499 2409.09 548.499C2414.77 548.499 2419.82 546.966 2424.25 543.9C2428.68 540.721 2432.03 536.406 2434.3 530.955L2453.38 538.45C2450.09 546.966 2444.47 553.837 2436.52 559.06C2428.68 564.284 2419.54 566.896 2409.09 566.896ZM2431.92 506.597C2431.46 501.487 2430.04 497.285 2427.66 493.992C2425.39 490.699 2422.49 488.314 2418.97 486.838C2415.57 485.248 2411.76 484.453 2407.56 484.453C2403.02 484.453 2398.99 485.418 2395.47 487.349C2391.95 489.166 2389.05 491.778 2386.78 495.184C2384.62 498.477 2383.09 502.282 2382.18 506.597H2431.92ZM2516.62 431.138H2540.47C2549.55 448.285 2557.84 465.489 2565.33 482.75C2572.94 499.897 2579.81 517.669 2585.95 536.065H2589.69C2596.17 517.555 2603.15 499.727 2610.64 482.579C2618.25 465.319 2626.49 448.172 2635.34 431.138H2659.19V564H2637.39C2637.39 560.139 2637.39 556.278 2637.39 552.417C2637.39 534.362 2637.61 519.031 2638.07 506.426C2638.52 493.708 2639.83 480.081 2641.99 465.546H2639.26C2634.38 477.129 2629.49 488.314 2624.61 499.102C2619.73 509.89 2614.45 521.473 2608.77 533.851C2606.05 539.869 2603.72 544.979 2601.79 549.181C2599.86 553.382 2597.59 558.322 2594.97 564H2580.67C2578.05 558.095 2575.73 553.042 2573.68 548.84C2571.75 544.638 2569.42 539.528 2566.7 533.51C2561.13 521.132 2555.91 509.606 2551.03 498.932C2546.26 488.257 2541.43 477.129 2536.55 465.546H2533.82C2535.98 479.627 2537.29 492.97 2537.74 505.575C2538.19 518.18 2538.42 533.737 2538.42 552.247C2538.42 556.108 2538.42 560.025 2538.42 564H2516.62V431.138ZM2729.14 566.896C2719.71 566.896 2711.31 564.795 2703.93 560.593C2696.55 556.278 2690.81 550.373 2686.72 542.878C2682.64 535.27 2680.59 526.583 2680.59 516.817C2680.59 507.051 2682.64 498.364 2686.72 490.756C2690.81 483.147 2696.55 477.242 2703.93 473.041C2711.31 468.725 2719.71 466.568 2729.14 466.568C2738.56 466.568 2746.91 468.725 2754.18 473.041C2761.56 477.242 2767.29 483.147 2771.38 490.756C2775.47 498.364 2777.51 507.051 2777.51 516.817C2777.51 526.583 2775.47 535.27 2771.38 542.878C2767.29 550.373 2761.56 556.278 2754.18 560.593C2746.91 564.795 2738.56 566.896 2729.14 566.896ZM2729.14 547.818C2734.48 547.818 2739.19 546.512 2743.28 543.9C2747.48 541.175 2750.71 537.484 2752.98 532.829C2755.37 528.173 2756.56 522.836 2756.56 516.817C2756.56 510.798 2755.37 505.461 2752.98 500.805C2750.71 496.036 2747.48 492.345 2743.28 489.734C2739.19 487.008 2734.48 485.646 2729.14 485.646C2723.8 485.646 2719.03 487.008 2714.83 489.734C2710.74 492.345 2707.51 496.036 2705.12 500.805C2702.85 505.461 2701.71 510.798 2701.71 516.817C2701.71 522.836 2702.85 528.173 2705.12 532.829C2707.51 537.484 2710.74 541.175 2714.83 543.9C2719.03 546.512 2723.8 547.818 2729.14 547.818ZM2833.82 566.896C2825.3 566.896 2817.75 564.738 2811.16 560.423C2804.58 556.108 2799.47 550.146 2795.83 542.538C2792.31 534.929 2790.55 526.299 2790.55 516.647C2790.55 506.54 2792.43 497.739 2796.17 490.245C2800.04 482.636 2805.26 476.788 2811.85 472.7C2818.43 468.612 2825.7 466.568 2833.65 466.568C2840.92 466.568 2847.1 468.442 2852.21 472.189C2857.44 475.936 2861.47 481.671 2864.31 489.393H2867.03C2865.9 478.605 2865.16 468.669 2864.82 459.584C2864.59 450.386 2864.54 439.995 2864.65 428.413V427.731H2884.92V534.362C2884.92 541.629 2885.15 547.307 2885.6 551.395C2886.17 555.483 2886.96 559.685 2887.99 564H2867.89C2867.89 563.886 2867.83 563.773 2867.72 563.659C2867.72 563.432 2867.72 563.262 2867.72 563.148C2867.03 560.196 2866.64 557.527 2866.52 555.143C2866.41 552.644 2866.69 549.635 2867.37 546.115H2864.65C2861.7 553.382 2857.55 558.663 2852.21 561.956C2846.88 565.249 2840.75 566.896 2833.82 566.896ZM2838.08 547.648C2843.19 547.648 2847.79 546.342 2851.87 543.73C2855.96 541.005 2859.2 537.314 2861.58 532.658C2863.97 527.889 2865.16 522.495 2865.16 516.476C2865.16 510.458 2863.97 505.121 2861.58 500.465C2859.2 495.809 2855.91 492.175 2851.7 489.563C2847.62 486.951 2843.07 485.646 2838.08 485.646C2832.97 485.646 2828.37 487.008 2824.28 489.734C2820.31 492.345 2817.18 495.979 2814.91 500.635C2812.64 505.291 2811.5 510.628 2811.5 516.647C2811.5 522.552 2812.64 527.832 2814.91 532.488C2817.18 537.144 2820.31 540.834 2824.28 543.56C2828.37 546.285 2832.97 547.648 2838.08 547.648ZM2943.51 566.896C2936.69 566.896 2930.73 565.533 2925.62 562.808C2920.62 559.969 2916.65 555.71 2913.7 550.032C2910.86 544.355 2909.44 537.257 2909.44 528.74V469.293H2929.71V521.586C2929.71 530.217 2931.41 536.746 2934.82 541.175C2938.34 545.604 2943.16 547.818 2949.3 547.818C2953.84 547.818 2957.81 546.569 2961.22 544.071C2964.63 541.572 2967.24 538.279 2969.06 534.191C2970.87 530.103 2971.78 525.674 2971.78 520.905V469.293H2992.05V534.362C2992.05 541.629 2992.28 547.307 2992.73 551.395C2993.3 555.483 2994.1 559.685 2995.12 564H2975.02C2974.9 563.659 2974.79 563.319 2974.68 562.978C2973.88 560.025 2973.48 557.3 2973.48 554.802C2973.48 552.19 2974.11 549.01 2975.36 545.263H2972.63C2969.91 552.871 2966.16 558.379 2961.39 561.786C2956.62 565.192 2950.66 566.896 2943.51 566.896ZM3017.76 427.731H3037.86V564H3017.76V427.731ZM3088.2 566.896C3082.64 566.896 3077.47 565.93 3072.7 564C3067.93 561.956 3064.07 558.947 3061.12 554.972C3058.28 550.884 3056.86 545.944 3056.86 540.153C3056.86 534.475 3058.22 529.762 3060.95 526.015C3063.79 522.154 3067.54 519.145 3072.19 516.987C3076.85 514.716 3082.3 512.899 3088.54 511.537C3090.93 510.969 3093.54 510.458 3096.38 510.004C3101.94 508.868 3106.09 507.903 3108.81 507.108C3111.65 506.199 3113.75 505.064 3115.12 503.701C3116.48 502.225 3117.16 500.238 3117.16 497.739C3117.16 495.128 3116.42 492.686 3114.95 490.415C3113.58 488.144 3111.54 486.384 3108.81 485.134C3106.09 483.772 3102.97 483.09 3099.45 483.09C3094.56 483.09 3090.3 484.51 3086.67 487.349C3083.04 490.188 3080.42 494.276 3078.83 499.613L3059.93 493.14C3062.65 484.056 3067.65 477.356 3074.92 473.041C3082.3 468.725 3090.82 466.568 3100.47 466.568C3107.74 466.568 3114.15 467.817 3119.72 470.315C3125.39 472.7 3129.82 476.391 3133 481.387C3136.18 486.27 3137.77 492.345 3137.77 499.613V534.362C3137.77 535.156 3137.77 536.008 3137.77 536.917C3137.88 543.276 3138.17 548.386 3138.62 552.247C3139.08 556.108 3139.82 560.025 3140.84 564H3120.57C3119.77 561.275 3119.32 558.606 3119.2 555.994C3119.2 553.269 3119.83 549.805 3121.08 545.604H3118.35C3115.74 552.644 3111.82 557.981 3106.6 561.615C3101.38 565.136 3095.24 566.896 3088.2 566.896ZM3093.48 551.225C3098.14 551.225 3102.28 550.032 3105.92 547.648C3109.55 545.263 3112.33 542.254 3114.26 538.62C3116.31 534.986 3117.33 531.352 3117.33 527.718V517.839C3114.95 519.202 3113.02 520.224 3111.54 520.905C3110.18 521.473 3108.13 522.097 3105.41 522.779C3103.82 523.233 3101.26 523.858 3097.74 524.652C3094.11 525.447 3090.99 526.413 3088.37 527.548C3085.76 528.57 3083.55 530.103 3081.73 532.147C3079.91 534.191 3079.01 536.633 3079.01 539.472C3079.01 543.219 3080.31 546.115 3082.92 548.159C3085.65 550.203 3089.17 551.225 3093.48 551.225ZM3162.31 469.293H3182.07C3182.07 470.202 3182.07 471.167 3182.07 472.189C3182.18 475.141 3182.12 477.98 3181.9 480.706C3181.67 483.431 3181.05 486.781 3180.02 490.756H3182.75C3185.13 482.92 3188.71 476.958 3193.48 472.87C3198.36 468.669 3204.1 466.568 3210.68 466.568C3214.09 466.568 3217.27 467.136 3220.22 468.271V490.756C3218.52 490.188 3216.59 489.734 3214.43 489.393C3212.39 489.052 3210.46 488.882 3208.64 488.882C3202.05 488.882 3196.77 490.642 3192.8 494.162C3188.94 497.569 3186.27 501.827 3184.79 506.937C3183.32 511.934 3182.52 517.555 3182.41 523.801V524.652V564H3162.31V469.293ZM2138.87 649.138H2163.06C2163.52 650.387 2163.91 651.636 2164.25 652.885C2170.16 673.099 2175.1 691.154 2179.07 707.052C2183.16 722.837 2186.97 739.757 2190.49 757.812H2193.21C2197.41 739.189 2202.75 718.465 2209.22 695.64C2211.38 687.804 2213.59 680.026 2215.87 672.304C2218.25 664.468 2220.58 656.746 2222.85 649.138H2247.21C2249.48 656.519 2251.3 662.424 2252.66 666.853C2257.2 682.183 2261.52 697.457 2265.6 712.673C2269.81 727.776 2273.61 743.163 2277.02 758.834H2279.74C2280.76 754.292 2281.5 750.885 2281.96 748.614C2282.41 746.343 2283.09 742.936 2284 738.394C2287.29 723.177 2290.81 708.358 2294.56 693.936C2298.42 679.515 2302.57 664.582 2307 649.138H2331.35L2292.01 782H2265.43C2259.19 762.468 2253.79 744.696 2249.25 728.685C2244.82 712.56 2240.73 695.299 2236.99 676.903H2233.24C2232.56 680.537 2231.65 684.681 2230.51 689.337C2226.88 705.917 2223.02 721.474 2218.93 736.009C2214.84 750.545 2210.19 765.875 2204.96 782H2178.22L2138.87 649.138ZM2380.48 784.896C2371.06 784.896 2362.65 782.795 2355.27 778.593C2347.89 774.278 2342.16 768.373 2338.07 760.878C2333.98 753.27 2331.94 744.583 2331.94 734.817C2331.94 725.051 2333.98 716.364 2338.07 708.756C2342.16 701.147 2347.89 695.242 2355.27 691.041C2362.65 686.725 2371.06 684.568 2380.48 684.568C2389.91 684.568 2398.25 686.725 2405.52 691.041C2412.9 695.242 2418.64 701.147 2422.73 708.756C2426.81 716.364 2428.86 725.051 2428.86 734.817C2428.86 744.583 2426.81 753.27 2422.73 760.878C2418.64 768.373 2412.9 774.278 2405.52 778.593C2398.25 782.795 2389.91 784.896 2380.48 784.896ZM2380.48 765.818C2385.82 765.818 2390.53 764.512 2394.62 761.9C2398.82 759.175 2402.06 755.484 2404.33 750.829C2406.71 746.173 2407.91 740.836 2407.91 734.817C2407.91 728.798 2406.71 723.461 2404.33 718.805C2402.06 714.036 2398.82 710.345 2394.62 707.734C2390.53 705.008 2385.82 703.646 2380.48 703.646C2375.14 703.646 2370.38 705.008 2366.17 707.734C2362.09 710.345 2358.85 714.036 2356.46 718.805C2354.19 723.461 2353.06 728.798 2353.06 734.817C2353.06 740.836 2354.19 746.173 2356.46 750.829C2358.85 755.484 2362.09 759.175 2366.17 761.9C2370.38 764.512 2375.14 765.818 2380.48 765.818ZM2448.03 687.293H2467.79C2467.79 688.202 2467.79 689.167 2467.79 690.189C2467.9 693.141 2467.84 695.98 2467.62 698.706C2467.39 701.431 2466.77 704.781 2465.74 708.756H2468.47C2470.85 700.92 2474.43 694.958 2479.2 690.87C2484.08 686.669 2489.82 684.568 2496.4 684.568C2499.81 684.568 2502.99 685.136 2505.94 686.271V708.756C2504.24 708.188 2502.31 707.734 2500.15 707.393C2498.11 707.052 2496.18 706.882 2494.36 706.882C2487.77 706.882 2482.49 708.642 2478.52 712.162C2474.66 715.569 2471.99 719.827 2470.51 724.937C2469.04 729.934 2468.24 735.555 2468.13 741.801V742.652V782H2448.03V687.293ZM2520.89 645.731H2540.99V782H2520.89V645.731ZM2603.6 784.896C2595.08 784.896 2587.53 782.738 2580.94 778.423C2574.36 774.108 2569.25 768.146 2565.61 760.538C2562.09 752.929 2560.33 744.299 2560.33 734.647C2560.33 724.54 2562.21 715.739 2565.95 708.245C2569.82 700.636 2575.04 694.788 2581.63 690.7C2588.21 686.612 2595.48 684.568 2603.43 684.568C2610.7 684.568 2616.89 686.442 2622 690.189C2627.22 693.936 2631.25 699.671 2634.09 707.393H2636.81C2635.68 696.605 2634.94 686.669 2634.6 677.584C2634.37 668.386 2634.32 657.995 2634.43 646.413V645.731H2654.7V752.362C2654.7 759.629 2654.93 765.307 2655.38 769.395C2655.95 773.483 2656.74 777.685 2657.77 782H2637.67C2637.67 781.886 2637.61 781.773 2637.5 781.659C2637.5 781.432 2637.5 781.262 2637.5 781.148C2636.81 778.196 2636.42 775.527 2636.3 773.143C2636.19 770.644 2636.47 767.635 2637.16 764.115H2634.43C2631.48 771.382 2627.33 776.663 2622 779.956C2616.66 783.249 2610.53 784.896 2603.6 784.896ZM2607.86 765.648C2612.97 765.648 2617.57 764.342 2621.65 761.73C2625.74 759.005 2628.98 755.314 2631.36 750.658C2633.75 745.889 2634.94 740.495 2634.94 734.476C2634.94 728.458 2633.75 723.121 2631.36 718.465C2628.98 713.809 2625.69 710.175 2621.48 707.563C2617.4 704.951 2612.85 703.646 2607.86 703.646C2602.75 703.646 2598.15 705.008 2594.06 707.734C2590.09 710.345 2586.96 713.979 2584.69 718.635C2582.42 723.291 2581.29 728.628 2581.29 734.647C2581.29 740.552 2582.42 745.832 2584.69 750.488C2586.96 755.144 2590.09 758.834 2594.06 761.56C2598.15 764.285 2602.75 765.648 2607.86 765.648ZM2785.35 784.896C2772.18 784.896 2760.37 782 2749.92 776.209C2739.59 770.417 2731.53 762.241 2725.74 751.68C2719.95 741.119 2717.05 729.026 2717.05 715.399C2717.05 701.318 2720.12 689.053 2726.25 678.606C2732.38 668.159 2740.56 660.21 2750.78 654.759C2761.11 649.195 2772.3 646.413 2784.33 646.413C2793.42 646.413 2801.99 648.059 2810.05 651.352C2818.12 654.532 2825.1 659.188 2831 665.32C2837.02 671.452 2841.51 678.776 2844.46 687.293L2824.7 695.299C2821.07 686.442 2815.73 679.458 2808.69 674.348C2801.76 669.238 2793.53 666.683 2783.99 666.683C2775.7 666.683 2768.15 668.727 2761.34 672.815C2754.64 676.789 2749.3 682.524 2745.33 690.019C2741.46 697.513 2739.53 706.314 2739.53 716.421C2739.53 727.209 2741.75 736.236 2746.18 743.504C2750.72 750.772 2756.51 756.109 2763.55 759.516C2770.59 762.922 2778.03 764.626 2785.87 764.626C2792.91 764.626 2799.32 763.263 2805.11 760.538C2810.9 757.812 2815.84 753.838 2819.93 748.614C2824.13 743.391 2827.31 737.258 2829.47 730.218L2849.23 737.031C2844.23 752.589 2836.17 764.455 2825.04 772.632C2814.03 780.808 2800.8 784.896 2785.35 784.896ZM2906.46 784.896C2897.04 784.896 2888.63 782.795 2881.25 778.593C2873.87 774.278 2868.13 768.373 2864.05 760.878C2859.96 753.27 2857.91 744.583 2857.91 734.817C2857.91 725.051 2859.96 716.364 2864.05 708.756C2868.13 701.147 2873.87 695.242 2881.25 691.041C2888.63 686.725 2897.04 684.568 2906.46 684.568C2915.89 684.568 2924.23 686.725 2931.5 691.041C2938.88 695.242 2944.62 701.147 2948.7 708.756C2952.79 716.364 2954.84 725.051 2954.84 734.817C2954.84 744.583 2952.79 753.27 2948.7 760.878C2944.62 768.373 2938.88 774.278 2931.5 778.593C2924.23 782.795 2915.89 784.896 2906.46 784.896ZM2906.46 765.818C2911.8 765.818 2916.51 764.512 2920.6 761.9C2924.8 759.175 2928.04 755.484 2930.31 750.829C2932.69 746.173 2933.88 740.836 2933.88 734.817C2933.88 728.798 2932.69 723.461 2930.31 718.805C2928.04 714.036 2924.8 710.345 2920.6 707.734C2916.51 705.008 2911.8 703.646 2906.46 703.646C2901.12 703.646 2896.35 705.008 2892.15 707.734C2888.06 710.345 2884.83 714.036 2882.44 718.805C2880.17 723.461 2879.04 728.798 2879.04 734.817C2879.04 740.836 2880.17 746.173 2882.44 750.829C2884.83 755.484 2888.06 759.175 2892.15 761.9C2896.35 764.512 2901.12 765.818 2906.46 765.818ZM2974.01 687.293H2993.77C2993.77 687.634 2993.77 687.975 2993.77 688.315C2993.77 691.381 2993.6 694.22 2993.26 696.832C2993.03 699.444 2992.29 702.51 2991.04 706.03H2993.77C2997.17 698.649 3001.55 693.255 3006.88 689.848C3012.22 686.328 3018.01 684.568 3024.26 684.568C3030.96 684.568 3036.8 686.442 3041.8 690.189C3046.8 693.936 3050.15 700.012 3051.85 708.415H3054.58C3058.21 699.671 3062.7 693.539 3068.03 690.019C3073.37 686.385 3079.16 684.568 3085.41 684.568C3091.31 684.568 3096.76 685.987 3101.76 688.826C3106.87 691.552 3111.01 695.753 3114.19 701.431C3117.37 707.109 3118.96 714.093 3118.96 722.382V782H3098.69V731.24V730.218C3098.69 724.54 3097.96 719.827 3096.48 716.08C3095.12 712.219 3093.02 709.21 3090.18 707.052C3087.45 704.781 3083.93 703.646 3079.62 703.646C3075.19 703.646 3071.27 704.781 3067.86 707.052C3064.46 709.323 3061.73 712.617 3059.69 716.932C3057.64 721.247 3056.62 726.243 3056.62 731.921V782H3036.35V731.24C3036.35 725.221 3035.67 720.282 3034.31 716.421C3033.06 712.446 3030.96 709.323 3028 707.052C3025.17 704.781 3021.53 703.646 3017.1 703.646C3012.79 703.646 3008.87 704.781 3005.35 707.052C3001.94 709.323 2999.22 712.617 2997.17 716.932C2995.13 721.247 2994.11 726.243 2994.11 731.921V782H2974.01V687.293ZM3143.35 687.293H3163.1C3163.1 687.861 3163.1 688.429 3163.1 688.997C3163.1 691.949 3162.93 694.788 3162.59 697.513C3162.37 700.239 3161.74 703.702 3160.72 707.904H3163.45C3167.42 699.501 3172.08 693.539 3177.41 690.019C3182.86 686.385 3189 684.568 3195.81 684.568C3204.1 684.568 3211.42 686.782 3217.78 691.211C3224.14 695.526 3229.02 701.488 3232.43 709.096C3235.95 716.705 3237.71 725.108 3237.71 734.306C3237.71 744.413 3235.72 753.327 3231.75 761.049C3227.89 768.657 3222.61 774.562 3215.91 778.764C3209.32 782.852 3202.17 784.896 3194.45 784.896C3189.68 784.896 3185.36 784.101 3181.5 782.511C3177.64 780.921 3174.23 778.537 3171.28 775.357C3168.44 772.177 3166 768.203 3163.96 763.433H3161.23C3162.25 771.723 3162.88 779.331 3163.1 786.258C3163.45 793.299 3163.56 801.929 3163.45 812.149C3163.45 814.648 3163.45 817.089 3163.45 819.474H3143.35V687.293ZM3190.19 765.818C3195.3 765.818 3199.84 764.512 3203.81 761.9C3207.9 759.175 3211.08 755.428 3213.35 750.658C3215.62 745.889 3216.76 740.608 3216.76 734.817C3216.76 728.798 3215.62 723.461 3213.35 718.805C3211.08 714.036 3207.9 710.345 3203.81 707.734C3199.84 705.008 3195.3 703.646 3190.19 703.646C3185.08 703.646 3180.42 705.008 3176.22 707.734C3172.13 710.345 3168.9 714.036 3166.51 718.805C3164.24 723.461 3163.1 728.798 3163.1 734.817C3163.1 740.836 3164.24 746.173 3166.51 750.829C3168.9 755.484 3172.13 759.175 3176.22 761.9C3180.42 764.512 3185.08 765.818 3190.19 765.818ZM3289.83 784.896C3283.02 784.896 3277.06 783.533 3271.95 780.808C3266.95 777.969 3262.98 773.71 3260.02 768.032C3257.19 762.355 3255.77 755.257 3255.77 746.74V687.293H3276.04V739.586C3276.04 748.217 3277.74 754.746 3281.15 759.175C3284.67 763.604 3289.49 765.818 3295.62 765.818C3300.17 765.818 3304.14 764.569 3307.55 762.071C3310.95 759.572 3313.57 756.279 3315.38 752.191C3317.2 748.103 3318.11 743.674 3318.11 738.905V687.293H3338.38V752.362C3338.38 759.629 3338.61 765.307 3339.06 769.395C3339.63 773.483 3340.42 777.685 3341.44 782H3321.35C3321.23 781.659 3321.12 781.319 3321 780.978C3320.21 778.025 3319.81 775.3 3319.81 772.802C3319.81 770.19 3320.44 767.01 3321.69 763.263H3318.96C3316.24 770.871 3312.49 776.379 3307.72 779.786C3302.95 783.192 3296.99 784.896 3289.83 784.896ZM3401.39 784.896C3392.53 784.896 3385.94 783.079 3381.63 779.445C3377.43 775.698 3374.81 771.61 3373.79 767.181C3372.77 762.752 3372.26 757.812 3372.26 752.362C3372.26 742.028 3372.37 733.284 3372.6 726.13C3372.94 718.862 3373.74 711.254 3374.98 703.305C3370.9 704.327 3367.32 704.951 3364.25 705.179C3361.3 705.406 3357.72 705.519 3353.52 705.519V687.293C3357.72 687.293 3361.3 687.407 3364.25 687.634C3367.32 687.861 3370.9 688.486 3374.98 689.508C3373.85 684.852 3373.11 680.48 3372.77 676.392C3372.43 672.19 3372.26 667.534 3372.26 662.424C3372.26 661.629 3372.26 660.834 3372.26 660.04H3392.36C3392.36 661.289 3392.36 662.538 3392.36 663.787C3392.36 668.443 3392.19 672.815 3391.85 676.903C3391.51 680.877 3390.77 685.079 3389.63 689.508C3394.74 688.486 3399.4 687.861 3403.6 687.634C3407.92 687.407 3413.03 687.293 3418.93 687.293V705.519C3413.03 705.519 3407.92 705.406 3403.6 705.179C3399.4 704.951 3394.74 704.327 3389.63 703.305C3390.43 707.506 3391 711.765 3391.34 716.08C3391.79 720.282 3392.08 724.483 3392.19 728.685C3392.3 731.524 3392.36 734.363 3392.36 737.202C3392.36 739.927 3392.36 742.652 3392.36 745.378V745.718C3392.36 749.92 3392.59 753.44 3393.04 756.279C3393.49 759.005 3394.69 761.389 3396.62 763.433C3398.55 765.477 3401.5 766.499 3405.48 766.499C3409.45 766.499 3413.71 765.364 3418.25 763.093L3418.93 762.752V780.978C3416.66 782.341 3413.99 783.306 3410.93 783.874C3407.97 784.555 3404.79 784.896 3401.39 784.896ZM3477.35 784.896C3468.04 784.896 3459.69 782.852 3452.31 778.764C3445.04 774.562 3439.31 768.714 3435.11 761.219C3430.91 753.611 3428.81 744.867 3428.81 734.987C3428.81 725.335 3430.79 716.705 3434.77 709.096C3438.86 701.374 3444.48 695.356 3451.63 691.041C3458.78 686.725 3466.9 684.568 3475.99 684.568C3483.82 684.568 3491.15 686.328 3497.96 689.848C3504.78 693.255 3510.28 698.706 3514.48 706.201C3518.8 713.582 3520.96 722.893 3520.96 734.136V739.927H3449.42C3449.98 745.605 3451.52 750.431 3454.02 754.406C3456.51 758.38 3459.81 761.389 3463.89 763.433C3467.98 765.477 3472.47 766.499 3477.35 766.499C3483.03 766.499 3488.08 764.966 3492.51 761.9C3496.94 758.721 3500.29 754.406 3502.56 748.955L3521.64 756.45C3518.35 764.966 3512.72 771.837 3504.78 777.06C3496.94 782.284 3487.8 784.896 3477.35 784.896ZM3500.18 724.597C3499.72 719.487 3498.3 715.285 3495.92 711.992C3493.65 708.699 3490.75 706.314 3487.23 704.838C3483.82 703.248 3480.02 702.453 3475.82 702.453C3471.28 702.453 3467.24 703.418 3463.72 705.349C3460.2 707.166 3457.31 709.778 3455.04 713.184C3452.88 716.477 3451.35 720.282 3450.44 724.597H3500.18ZM3540.57 687.293H3560.33C3560.33 688.202 3560.33 689.167 3560.33 690.189C3560.45 693.141 3560.39 695.98 3560.16 698.706C3559.94 701.431 3559.31 704.781 3558.29 708.756H3561.01C3563.4 700.92 3566.98 694.958 3571.75 690.87C3576.63 686.669 3582.36 684.568 3588.95 684.568C3592.36 684.568 3595.54 685.136 3598.49 686.271V708.756C3596.78 708.188 3594.85 707.734 3592.7 707.393C3590.65 707.052 3588.72 706.882 3586.91 706.882C3580.32 706.882 3575.04 708.642 3571.06 712.162C3567.2 715.569 3564.53 719.827 3563.06 724.937C3561.58 729.934 3560.79 735.555 3560.67 741.801V742.652V782H3540.57V687.293ZM2152.16 866.138H2202.07C2208.88 866.138 2215.58 867.274 2222.17 869.545C2228.75 871.816 2234.6 876.074 2239.71 882.32C2244.82 888.452 2247.38 896.855 2247.38 907.53C2247.38 918.09 2244.82 926.55 2239.71 932.91C2234.6 939.155 2228.75 943.471 2222.17 945.855C2215.58 948.24 2209.28 949.432 2203.26 949.432C2196.11 949.432 2190.26 949.148 2185.72 948.581C2181.17 948.013 2176.23 946.593 2170.9 944.322C2171.92 952.271 2172.6 959.88 2172.94 967.147C2173.28 974.415 2173.51 982.023 2173.62 989.972V999H2152.16V866.138ZM2173.28 934.272C2177.37 932.228 2181.29 930.979 2185.03 930.525C2188.78 929.957 2193.27 929.673 2198.49 929.673C2203.37 929.673 2207.69 928.992 2211.44 927.629C2215.3 926.267 2218.48 923.995 2220.98 920.816C2223.59 917.523 2224.89 913.151 2224.89 907.7C2224.89 902.363 2223.59 898.104 2220.98 894.925C2218.48 891.632 2215.3 889.304 2211.44 887.941C2207.58 886.578 2203.2 885.897 2198.32 885.897C2192.87 885.897 2188.33 885.727 2184.69 885.386C2181.06 884.932 2177.26 883.967 2173.28 882.49L2170.56 884.194C2171.58 889.758 2172.26 895.095 2172.6 900.205C2172.94 905.202 2173 910.198 2172.77 915.195C2172.43 920.759 2171.81 926.607 2170.9 932.739L2173.28 934.272ZM2303.8 1001.9C2294.37 1001.9 2285.97 999.795 2278.59 995.593C2271.21 991.278 2265.47 985.373 2261.38 977.878C2257.3 970.27 2255.25 961.583 2255.25 951.817C2255.25 942.051 2257.3 933.364 2261.38 925.756C2265.47 918.147 2271.21 912.242 2278.59 908.041C2285.97 903.725 2294.37 901.568 2303.8 901.568C2313.22 901.568 2321.57 903.725 2328.84 908.041C2336.22 912.242 2341.95 918.147 2346.04 925.756C2350.13 933.364 2352.17 942.051 2352.17 951.817C2352.17 961.583 2350.13 970.27 2346.04 977.878C2341.95 985.373 2336.22 991.278 2328.84 995.593C2321.57 999.795 2313.22 1001.9 2303.8 1001.9ZM2303.8 982.818C2309.13 982.818 2313.85 981.512 2317.94 978.9C2322.14 976.175 2325.37 972.484 2327.64 967.829C2330.03 963.173 2331.22 957.836 2331.22 951.817C2331.22 945.798 2330.03 940.461 2327.64 935.805C2325.37 931.036 2322.14 927.345 2317.94 924.734C2313.85 922.008 2309.13 920.646 2303.8 920.646C2298.46 920.646 2293.69 922.008 2289.49 924.734C2285.4 927.345 2282.16 931.036 2279.78 935.805C2277.51 940.461 2276.37 945.798 2276.37 951.817C2276.37 957.836 2277.51 963.173 2279.78 967.829C2282.16 972.484 2285.4 976.175 2289.49 978.9C2293.69 981.512 2298.46 982.818 2303.8 982.818ZM2359.1 904.293H2382.1C2382.78 906.224 2383.41 908.211 2383.97 910.255C2388.18 923.314 2391.64 934.954 2394.36 945.174C2397.2 955.28 2399.7 965.955 2401.86 977.197H2405.61C2408.33 965.501 2411.23 954.769 2414.29 945.004C2417.36 935.238 2421.5 922.462 2426.73 906.678L2427.58 904.293H2445.81C2446.26 905.542 2446.6 906.678 2446.83 907.7C2451.37 920.986 2455.29 932.966 2458.58 943.641C2461.87 954.315 2464.94 965.501 2467.78 977.197H2471.36C2473.63 965.841 2476.13 955.224 2478.85 945.344C2481.58 935.465 2485.27 923.201 2489.92 908.552C2490.38 907.075 2490.83 905.656 2491.29 904.293H2514.11L2481.92 999H2457.9C2457.1 996.275 2456.31 993.89 2455.51 991.846C2451.77 980.604 2448.47 970.213 2445.64 960.674C2442.91 951.022 2440.47 941.37 2438.31 931.717H2435.24C2434.11 936.373 2432.86 941.086 2431.5 945.855C2430.25 950.625 2428.94 955.337 2427.58 959.993C2425.54 966.352 2423.38 972.825 2421.11 979.411C2418.95 985.998 2416.79 992.527 2414.63 999H2391.3L2359.1 904.293ZM2569.45 1001.9C2560.14 1001.9 2551.79 999.852 2544.41 995.764C2537.14 991.562 2531.41 985.714 2527.2 978.219C2523 970.611 2520.9 961.867 2520.9 951.987C2520.9 942.335 2522.89 933.705 2526.86 926.096C2530.95 918.374 2536.57 912.356 2543.73 908.041C2550.88 903.725 2559 901.568 2568.09 901.568C2575.92 901.568 2583.25 903.328 2590.06 906.848C2596.87 910.255 2602.38 915.706 2606.58 923.201C2610.9 930.582 2613.05 939.893 2613.05 951.136V956.927H2541.51C2542.08 962.605 2543.61 967.431 2546.11 971.406C2548.61 975.38 2551.9 978.389 2555.99 980.433C2560.08 982.477 2564.57 983.499 2569.45 983.499C2575.13 983.499 2580.18 981.966 2584.61 978.9C2589.04 975.721 2592.39 971.406 2594.66 965.955L2613.74 973.45C2610.44 981.966 2604.82 988.837 2596.87 994.06C2589.04 999.284 2579.9 1001.9 2569.45 1001.9ZM2592.27 941.597C2591.82 936.487 2590.4 932.285 2588.01 928.992C2585.74 925.699 2582.85 923.314 2579.33 921.838C2575.92 920.248 2572.12 919.453 2567.92 919.453C2563.37 919.453 2559.34 920.418 2555.82 922.349C2552.3 924.166 2549.41 926.778 2547.13 930.184C2544.98 933.477 2543.44 937.282 2542.54 941.597H2592.27ZM2632.67 904.293H2652.43C2652.43 905.202 2652.43 906.167 2652.43 907.189C2652.54 910.141 2652.49 912.98 2652.26 915.706C2652.03 918.431 2651.41 921.781 2650.39 925.756H2653.11C2655.5 917.92 2659.07 911.958 2663.84 907.87C2668.73 903.669 2674.46 901.568 2681.05 901.568C2684.45 901.568 2687.63 902.136 2690.58 903.271V925.756C2688.88 925.188 2686.95 924.734 2684.79 924.393C2682.75 924.052 2680.82 923.882 2679 923.882C2672.42 923.882 2667.14 925.642 2663.16 929.162C2659.3 932.569 2656.63 936.827 2655.15 941.937C2653.68 946.934 2652.88 952.555 2652.77 958.801V959.652V999H2632.67V904.293ZM2705.53 904.293H2725.63V999H2705.53V904.293ZM2715.75 887.089C2712 887.089 2708.82 885.783 2706.21 883.172C2703.71 880.56 2702.46 877.38 2702.46 873.633C2702.46 871.362 2703.03 869.204 2704.17 867.16C2705.3 865.116 2706.89 863.526 2708.94 862.391C2710.98 861.255 2713.25 860.687 2715.75 860.687C2719.38 860.687 2722.45 861.993 2724.95 864.605C2727.45 867.103 2728.69 870.113 2728.69 873.633C2728.69 876.131 2728.13 878.402 2726.99 880.446C2725.86 882.49 2724.27 884.137 2722.22 885.386C2720.29 886.522 2718.13 887.089 2715.75 887.089ZM2751.11 904.293H2770.87C2770.87 904.407 2770.87 904.464 2770.87 904.464C2770.87 904.464 2770.87 904.52 2770.87 904.634C2770.87 907.927 2770.7 910.936 2770.36 913.662C2770.01 916.274 2769.28 919.396 2768.14 923.03H2770.87C2774.39 915.422 2778.82 909.971 2784.15 906.678C2789.49 903.271 2795.39 901.568 2801.87 901.568C2808 901.568 2813.56 902.931 2818.56 905.656C2823.67 908.268 2827.76 912.413 2830.82 918.09C2833.89 923.768 2835.42 930.866 2835.42 939.382V999H2815.15V948.24C2815.15 942.448 2814.47 937.566 2813.11 933.591C2811.75 929.617 2809.53 926.494 2806.47 924.223C2803.51 921.838 2799.65 920.646 2794.88 920.646C2790.34 920.646 2786.25 921.781 2782.62 924.052C2779.1 926.323 2776.32 929.617 2774.27 933.932C2772.23 938.133 2771.21 943.13 2771.21 948.921V999H2751.11V904.293ZM2901.63 1039.2C2891.41 1039.2 2882.33 1037.1 2874.38 1032.9C2866.54 1028.81 2860.81 1021.83 2857.17 1011.95L2875.57 1005.3C2877.84 1010.87 2881.02 1015.01 2885.11 1017.74C2889.31 1020.58 2894.59 1022 2900.95 1022C2906.29 1022 2910.89 1020.97 2914.75 1018.93C2918.72 1016.89 2921.79 1013.71 2923.95 1009.39C2926.22 1005.19 2927.41 999.852 2927.52 993.379C2927.52 992.811 2927.52 992.3 2927.52 991.846V989.802C2927.64 987.304 2927.92 985.089 2928.38 983.159C2928.83 981.115 2929.34 979.411 2929.91 978.049H2927.18C2924 985.43 2919.8 990.71 2914.58 993.89C2909.35 997.07 2903.51 998.659 2897.03 998.659C2888.06 998.659 2880.28 996.502 2873.7 992.187C2867.11 987.758 2862.06 981.853 2858.54 974.472C2855.13 967.09 2853.43 958.971 2853.43 950.114C2853.43 940.802 2855.3 932.455 2859.05 925.074C2862.8 917.693 2867.91 911.958 2874.38 907.87C2880.96 903.669 2888.29 901.568 2896.35 901.568C2903.62 901.568 2909.87 903.555 2915.09 907.53C2920.43 911.504 2924.29 917.125 2926.67 924.393H2929.4C2928.83 920.305 2928.43 916.785 2928.2 913.832C2927.98 910.766 2927.86 907.927 2927.86 905.315C2927.86 904.975 2927.86 904.634 2927.86 904.293H2947.79V988.78C2947.79 1006.72 2943.53 1019.61 2935.02 1027.45C2926.5 1035.28 2915.37 1039.2 2901.63 1039.2ZM2900.95 979.411C2906.06 979.411 2910.66 978.105 2914.75 975.494C2918.84 972.882 2922.07 969.305 2924.46 964.762C2926.84 960.22 2928.03 955.224 2928.03 949.773C2928.03 944.322 2926.84 939.382 2924.46 934.954C2922.07 930.525 2918.78 927.061 2914.58 924.563C2910.49 921.951 2905.95 920.646 2900.95 920.646C2895.84 920.646 2891.24 921.951 2887.15 924.563C2883.18 927.061 2880.06 930.582 2877.79 935.124C2875.51 939.553 2874.38 944.436 2874.38 949.773C2874.38 955.337 2875.51 960.391 2877.79 964.933C2880.06 969.362 2883.24 972.882 2887.32 975.494C2891.41 978.105 2895.95 979.411 2900.95 979.411ZM3045.72 999C3045.72 996.275 3045.72 993.549 3045.72 990.824C3045.72 984.01 3045.77 977.424 3045.89 971.065C3046.11 964.592 3046.51 958.403 3047.08 952.498C3043.1 946.026 3039.24 939.496 3035.5 932.91C3031.75 926.323 3028.06 919.794 3024.42 913.321C3020 905.372 3015.62 897.537 3011.31 889.815C3006.99 881.979 3002.68 874.087 2998.36 866.138H3021.36C3022.49 868.069 3023.57 870.056 3024.59 872.1C3031.07 884.25 3036.69 895.265 3041.46 905.145C3046.23 914.911 3050.77 925.245 3055.08 936.146H3057.81C3061.78 925.812 3066.04 916.046 3070.59 906.848C3075.13 897.537 3080.58 886.976 3086.94 875.166C3088.53 872.1 3090.06 869.091 3091.54 866.138H3114.53C3112.49 869.772 3110.44 873.406 3108.4 877.04C3101.47 889.531 3094.26 902.42 3086.77 915.706C3079.39 928.878 3072.4 941.086 3065.82 952.328C3066.38 959.255 3066.72 966.466 3066.84 973.961C3067.07 981.342 3067.18 989.688 3067.18 999H3045.72ZM3153.31 1001.9C3143.89 1001.9 3135.49 999.795 3128.1 995.593C3120.72 991.278 3114.99 985.373 3110.9 977.878C3106.81 970.27 3104.77 961.583 3104.77 951.817C3104.77 942.051 3106.81 933.364 3110.9 925.756C3114.99 918.147 3120.72 912.242 3128.1 908.041C3135.49 903.725 3143.89 901.568 3153.31 901.568C3162.74 901.568 3171.09 903.725 3178.35 908.041C3185.73 912.242 3191.47 918.147 3195.56 925.756C3199.65 933.364 3201.69 942.051 3201.69 951.817C3201.69 961.583 3199.65 970.27 3195.56 977.878C3191.47 985.373 3185.73 991.278 3178.35 995.593C3171.09 999.795 3162.74 1001.9 3153.31 1001.9ZM3153.31 982.818C3158.65 982.818 3163.36 981.512 3167.45 978.9C3171.65 976.175 3174.89 972.484 3177.16 967.829C3179.55 963.173 3180.74 957.836 3180.74 951.817C3180.74 945.798 3179.55 940.461 3177.16 935.805C3174.89 931.036 3171.65 927.345 3167.45 924.734C3163.36 922.008 3158.65 920.646 3153.31 920.646C3147.98 920.646 3143.21 922.008 3139.01 924.734C3134.92 927.345 3131.68 931.036 3129.3 935.805C3127.03 940.461 3125.89 945.798 3125.89 951.817C3125.89 957.836 3127.03 963.173 3129.3 967.829C3131.68 972.484 3134.92 976.175 3139.01 978.9C3143.21 981.512 3147.98 982.818 3153.31 982.818ZM3253.74 1001.9C3246.92 1001.9 3240.96 1000.53 3235.85 997.808C3230.85 994.969 3226.88 990.71 3223.93 985.032C3221.09 979.355 3219.67 972.257 3219.67 963.74V904.293H3239.94V956.586C3239.94 965.217 3241.64 971.746 3245.05 976.175C3248.57 980.604 3253.4 982.818 3259.53 982.818C3264.07 982.818 3268.04 981.569 3271.45 979.071C3274.86 976.572 3277.47 973.279 3279.29 969.191C3281.1 965.103 3282.01 960.674 3282.01 955.905V904.293H3302.28V969.362C3302.28 976.629 3302.51 982.307 3302.96 986.395C3303.53 990.483 3304.33 994.685 3305.35 999H3285.25C3285.14 998.659 3285.02 998.319 3284.91 997.978C3284.11 995.025 3283.72 992.3 3283.72 989.802C3283.72 987.19 3284.34 984.01 3285.59 980.263H3282.86C3280.14 987.871 3276.39 993.379 3271.62 996.786C3266.85 1000.19 3260.89 1001.9 3253.74 1001.9ZM3327.99 904.293H3347.75C3347.75 905.202 3347.75 906.167 3347.75 907.189C3347.86 910.141 3347.8 912.98 3347.58 915.706C3347.35 918.431 3346.72 921.781 3345.7 925.756H3348.43C3350.81 917.92 3354.39 911.958 3359.16 907.87C3364.04 903.669 3369.78 901.568 3376.36 901.568C3379.77 901.568 3382.95 902.136 3385.9 903.271V925.756C3384.2 925.188 3382.27 924.734 3380.11 924.393C3378.07 924.052 3376.14 923.882 3374.32 923.882C3367.73 923.882 3362.45 925.642 3358.48 929.162C3354.62 932.569 3351.95 936.827 3350.47 941.937C3348.99 946.934 3348.2 952.555 3348.09 958.801V959.652V999H3327.99V904.293ZM3440.99 866.138H3491.07C3505.26 866.138 3517.07 869.034 3526.5 874.825C3535.92 880.617 3542.85 888.452 3547.28 898.332C3551.82 908.097 3554.09 919.226 3554.09 931.717C3554.09 944.89 3551.65 956.586 3546.77 966.807C3541.89 976.913 3534.79 984.805 3525.48 990.483C3516.16 996.161 3505.21 999 3492.6 999H3440.99V866.138ZM3462.11 982.648C3462.68 982.534 3463.19 982.421 3463.64 982.307C3467.96 980.944 3472.1 980.093 3476.08 979.752C3480.05 979.411 3484.94 979.241 3490.73 979.241C3498.56 979.241 3505.49 977.651 3511.51 974.472C3517.64 971.292 3522.52 966.239 3526.16 959.312C3529.79 952.385 3531.61 943.584 3531.61 932.91C3531.61 921.213 3529.39 911.845 3524.97 904.804C3520.65 897.764 3515.2 892.881 3508.61 890.155C3502.14 887.316 3494.53 885.897 3485.79 885.897C3480.79 885.897 3476.59 885.727 3473.18 885.386C3469.78 884.932 3466.09 883.967 3462.11 882.49L3459.39 884.194C3464.16 916.557 3464.21 948.524 3459.56 980.093L3462.11 982.648ZM3598.38 1001.9C3592.81 1001.9 3587.65 1000.93 3582.88 999C3578.11 996.956 3574.25 993.947 3571.3 989.972C3568.46 985.884 3567.04 980.944 3567.04 975.153C3567.04 969.475 3568.4 964.762 3571.13 961.015C3573.96 957.154 3577.71 954.145 3582.37 951.987C3587.02 949.716 3592.47 947.899 3598.72 946.537C3601.1 945.969 3603.72 945.458 3606.56 945.004C3612.12 943.868 3616.26 942.903 3618.99 942.108C3621.83 941.199 3623.93 940.064 3625.29 938.701C3626.65 937.225 3627.34 935.238 3627.34 932.739C3627.34 930.128 3626.6 927.686 3625.12 925.415C3623.76 923.144 3621.72 921.384 3618.99 920.134C3616.26 918.772 3613.14 918.09 3609.62 918.09C3604.74 918.09 3600.48 919.51 3596.85 922.349C3593.21 925.188 3590.6 929.276 3589.01 934.613L3570.1 928.14C3572.83 919.056 3577.83 912.356 3585.09 908.041C3592.47 903.725 3600.99 901.568 3610.64 901.568C3617.91 901.568 3624.33 902.817 3629.89 905.315C3635.57 907.7 3640 911.391 3643.18 916.387C3646.36 921.27 3647.95 927.345 3647.95 934.613V969.362C3647.95 970.156 3647.95 971.008 3647.95 971.917C3648.06 978.276 3648.34 983.386 3648.8 987.247C3649.25 991.108 3649.99 995.025 3651.01 999H3630.74C3629.95 996.275 3629.49 993.606 3629.38 990.994C3629.38 988.269 3630 984.805 3631.25 980.604H3628.53C3625.92 987.644 3622 992.981 3616.78 996.615C3611.55 1000.14 3605.42 1001.9 3598.38 1001.9ZM3603.66 986.225C3608.32 986.225 3612.46 985.032 3616.09 982.648C3619.73 980.263 3622.51 977.254 3624.44 973.62C3626.48 969.986 3627.51 966.352 3627.51 962.718V952.839C3625.12 954.202 3623.19 955.224 3621.72 955.905C3620.35 956.473 3618.31 957.097 3615.58 957.779C3613.99 958.233 3611.44 958.858 3607.92 959.652C3604.28 960.447 3601.16 961.413 3598.55 962.548C3595.94 963.57 3593.72 965.103 3591.91 967.147C3590.09 969.191 3589.18 971.633 3589.18 974.472C3589.18 978.219 3590.49 981.115 3593.1 983.159C3595.82 985.203 3599.34 986.225 3603.66 986.225ZM3708.79 1001.9C3699.93 1001.9 3693.35 1000.08 3689.03 996.445C3684.83 992.698 3682.22 988.61 3681.2 984.181C3680.17 979.752 3679.66 974.812 3679.66 969.362C3679.66 959.028 3679.78 950.284 3680 943.13C3680.34 935.862 3681.14 928.254 3682.39 920.305C3678.3 921.327 3674.72 921.951 3671.66 922.179C3668.7 922.406 3665.13 922.519 3660.93 922.519V904.293C3665.13 904.293 3668.7 904.407 3671.66 904.634C3674.72 904.861 3678.3 905.486 3682.39 906.508C3681.25 901.852 3680.51 897.48 3680.17 893.392C3679.83 889.19 3679.66 884.534 3679.66 879.424C3679.66 878.629 3679.66 877.834 3679.66 877.04H3699.76C3699.76 878.289 3699.76 879.538 3699.76 880.787C3699.76 885.443 3699.59 889.815 3699.25 893.903C3698.91 897.877 3698.17 902.079 3697.04 906.508C3702.15 905.486 3706.8 904.861 3711 904.634C3715.32 904.407 3720.43 904.293 3726.33 904.293V922.519C3720.43 922.519 3715.32 922.406 3711 922.179C3706.8 921.951 3702.15 921.327 3697.04 920.305C3697.83 924.506 3698.4 928.765 3698.74 933.08C3699.19 937.282 3699.48 941.483 3699.59 945.685C3699.71 948.524 3699.76 951.363 3699.76 954.202C3699.76 956.927 3699.76 959.652 3699.76 962.378V962.718C3699.76 966.92 3699.99 970.44 3700.44 973.279C3700.9 976.005 3702.09 978.389 3704.02 980.433C3705.95 982.477 3708.9 983.499 3712.88 983.499C3716.85 983.499 3721.11 982.364 3725.65 980.093L3726.33 979.752V997.978C3724.06 999.341 3721.39 1000.31 3718.33 1000.87C3715.38 1001.56 3712.2 1001.9 3708.79 1001.9ZM3768.71 1001.9C3763.15 1001.9 3757.98 1000.93 3753.21 999C3748.44 996.956 3744.58 993.947 3741.63 989.972C3738.79 985.884 3737.37 980.944 3737.37 975.153C3737.37 969.475 3738.74 964.762 3741.46 961.015C3744.3 957.154 3748.05 954.145 3752.7 951.987C3757.36 949.716 3762.81 947.899 3769.06 946.537C3771.44 945.969 3774.05 945.458 3776.89 945.004C3782.46 943.868 3786.6 942.903 3789.33 942.108C3792.16 941.199 3794.27 940.064 3795.63 938.701C3796.99 937.225 3797.67 935.238 3797.67 932.739C3797.67 930.128 3796.93 927.686 3795.46 925.415C3794.09 923.144 3792.05 921.384 3789.33 920.134C3786.6 918.772 3783.48 918.09 3779.96 918.09C3775.07 918.09 3770.82 919.51 3767.18 922.349C3763.55 925.188 3760.94 929.276 3759.35 934.613L3740.44 928.14C3743.16 919.056 3748.16 912.356 3755.43 908.041C3762.81 903.725 3771.33 901.568 3780.98 901.568C3788.25 901.568 3794.66 902.817 3800.23 905.315C3805.9 907.7 3810.33 911.391 3813.51 916.387C3816.69 921.27 3818.28 927.345 3818.28 934.613V969.362C3818.28 970.156 3818.28 971.008 3818.28 971.917C3818.4 978.276 3818.68 983.386 3819.13 987.247C3819.59 991.108 3820.33 995.025 3821.35 999H3801.08C3800.28 996.275 3799.83 993.606 3799.72 990.994C3799.72 988.269 3800.34 984.805 3801.59 980.604H3798.86C3796.25 987.644 3792.33 992.981 3787.11 996.615C3781.89 1000.14 3775.76 1001.9 3768.71 1001.9ZM3774 986.225C3778.65 986.225 3782.8 985.032 3786.43 982.648C3790.06 980.263 3792.85 977.254 3794.78 973.62C3796.82 969.986 3797.84 966.352 3797.84 962.718V952.839C3795.46 954.202 3793.53 955.224 3792.05 955.905C3790.69 956.473 3788.64 957.097 3785.92 957.779C3784.33 958.233 3781.77 958.858 3778.25 959.652C3774.62 960.447 3771.5 961.413 3768.89 962.548C3766.27 963.57 3764.06 965.103 3762.24 967.147C3760.43 969.191 3759.52 971.633 3759.52 974.472C3759.52 978.219 3760.82 981.115 3763.43 983.159C3766.16 985.203 3769.68 986.225 3774 986.225Z" fill="#D6F6EB"/>
</g>
<defs>
<clipPath id="clip0_452_9354">
<rect width="4116" height="1365" fill="white"/>
</clipPath>
</defs>
</svg>
