<svg width="4116" height="1365" viewBox="0 0 4116 1365" fill="none" xmlns="http://www.w3.org/2000/svg">
<g clip-path="url(#clip0_467_24961)">
<rect width="4116" height="1365" fill="#010E0C"/>
<path d="M1775.2 1198.64C1775.2 1200.3 1773.92 1202.01 1771.28 1203.66C1768.67 1205.29 1764.85 1206.78 1760.09 1208.04C1750.58 1210.56 1737.42 1212.12 1722.85 1212.12C1708.29 1212.12 1695.12 1210.56 1685.61 1208.04C1680.85 1206.78 1677.04 1205.29 1674.42 1203.66C1671.78 1202.01 1670.5 1200.3 1670.5 1198.64C1670.5 1196.97 1671.78 1195.27 1674.42 1193.61C1677.04 1191.98 1680.85 1190.49 1685.61 1189.23C1695.12 1186.72 1708.29 1185.15 1722.85 1185.15C1737.42 1185.15 1750.58 1186.72 1760.09 1189.23C1764.85 1190.49 1768.67 1191.98 1771.28 1193.61C1773.92 1195.27 1775.2 1196.97 1775.2 1198.64Z" fill="#052C26" stroke="#0F4531" stroke-width="0.987752"/>
<path d="M1784.41 1186.81C1784.41 1188.76 1782.9 1190.77 1779.8 1192.71C1776.73 1194.64 1772.24 1196.39 1766.64 1197.87C1755.46 1200.83 1739.98 1202.66 1722.85 1202.66C1705.73 1202.66 1690.25 1200.83 1679.07 1197.87C1673.47 1196.39 1668.98 1194.64 1665.91 1192.71C1662.8 1190.77 1661.3 1188.76 1661.3 1186.81C1661.3 1184.86 1662.8 1182.85 1665.91 1180.91C1668.98 1178.98 1673.47 1177.23 1679.07 1175.75C1690.25 1172.79 1705.73 1170.96 1722.85 1170.96C1739.98 1170.96 1755.46 1172.79 1766.64 1175.75C1772.24 1177.23 1776.73 1178.98 1779.8 1180.91C1782.9 1182.85 1784.41 1184.86 1784.41 1186.81Z" fill="#052C26" stroke="#0F4531" stroke-width="1.16142"/>
<path d="M1792.54 1170.38C1792.54 1172.63 1790.81 1174.92 1787.29 1177.12C1783.8 1179.3 1778.72 1181.28 1772.39 1182.96C1759.74 1186.3 1742.22 1188.38 1722.85 1188.38C1703.49 1188.38 1685.97 1186.3 1673.32 1182.96C1666.99 1181.28 1661.9 1179.3 1658.42 1177.12C1654.9 1174.92 1653.17 1172.63 1653.17 1170.38C1653.17 1168.13 1654.9 1165.84 1658.42 1163.64C1661.9 1161.46 1666.99 1159.47 1673.32 1157.8C1685.97 1154.45 1703.49 1152.38 1722.85 1152.38C1742.22 1152.38 1759.74 1154.45 1772.39 1157.8C1778.72 1159.47 1783.8 1161.46 1787.29 1163.64C1790.81 1165.84 1792.54 1168.13 1792.54 1170.38Z" fill="#052C26" stroke="#0F4531" stroke-width="1.16142"/>
<path d="M868.133 1239.29C868.133 1240.95 866.852 1242.66 864.212 1244.31C861.598 1245.94 857.782 1247.43 853.023 1248.69C843.512 1251.21 830.345 1252.77 815.782 1252.77C801.219 1252.77 788.053 1251.21 778.542 1248.69C773.782 1247.43 769.967 1245.94 767.352 1244.31C764.712 1242.66 763.431 1240.95 763.431 1239.29C763.431 1237.63 764.712 1235.92 767.352 1234.26C769.967 1232.63 773.782 1231.14 778.542 1229.88C788.053 1227.37 801.219 1225.8 815.782 1225.8C830.345 1225.8 843.512 1227.37 853.023 1229.88C857.782 1231.14 861.598 1232.63 864.212 1234.26C866.852 1235.92 868.133 1237.63 868.133 1239.29Z" fill="#052C26" stroke="#0F4531" stroke-width="0.987752"/>
<path d="M877.338 1227.46C877.338 1229.41 875.832 1231.42 872.728 1233.36C869.654 1235.29 865.167 1237.04 859.571 1238.52C848.388 1241.48 832.906 1243.31 815.783 1243.31C798.659 1243.31 783.178 1241.48 771.994 1238.52C766.398 1237.04 761.911 1235.29 758.837 1233.36C755.733 1231.42 754.227 1229.41 754.227 1227.46C754.227 1225.51 755.733 1223.5 758.837 1221.56C761.911 1219.63 766.398 1217.88 771.994 1216.4C783.178 1213.44 798.659 1211.61 815.783 1211.61C832.906 1211.61 848.388 1213.44 859.571 1216.4C865.167 1217.88 869.654 1219.63 872.728 1221.56C875.832 1223.5 877.338 1225.51 877.338 1227.46Z" fill="#052C26" stroke="#0F4531" stroke-width="1.16142"/>
<path d="M885.468 1211.03C885.468 1213.28 883.735 1215.57 880.219 1217.77C876.734 1219.95 871.651 1221.93 865.32 1223.61C852.665 1226.95 835.151 1229.03 815.783 1229.03C796.414 1229.03 778.9 1226.95 766.246 1223.61C759.914 1221.93 754.832 1219.95 751.346 1217.77C747.831 1215.57 746.097 1213.28 746.097 1211.03C746.097 1208.78 747.831 1206.49 751.346 1204.29C754.832 1202.11 759.914 1200.12 766.246 1198.45C778.9 1195.1 796.414 1193.03 815.783 1193.03C835.151 1193.03 852.665 1195.1 865.32 1198.45C871.651 1200.12 876.734 1202.11 880.219 1204.29C883.735 1206.49 885.468 1208.78 885.468 1211.03Z" fill="#052C26" stroke="#0F4531" stroke-width="1.16142"/>
<path d="M383.82 1198.64C383.82 1200.3 382.539 1202.01 379.899 1203.66C377.284 1205.29 373.469 1206.78 368.709 1208.04C359.198 1210.56 346.031 1212.12 331.469 1212.12C316.906 1212.12 303.739 1210.56 294.228 1208.04C289.469 1206.78 285.653 1205.29 283.039 1203.66C280.399 1202.01 279.118 1200.3 279.118 1198.64C279.118 1196.97 280.399 1195.27 283.039 1193.61C285.653 1191.98 289.469 1190.49 294.228 1189.23C303.739 1186.72 316.906 1185.15 331.469 1185.15C346.031 1185.15 359.198 1186.72 368.709 1189.23C373.469 1190.49 377.284 1191.98 379.899 1193.61C382.539 1195.27 383.82 1196.97 383.82 1198.64Z" fill="#052C26" stroke="#0F4531" stroke-width="0.987752"/>
<path d="M393.024 1186.81C393.024 1188.76 391.519 1190.77 388.414 1192.71C385.34 1194.64 380.853 1196.39 375.257 1197.87C364.074 1200.83 348.592 1202.66 331.469 1202.66C314.346 1202.66 298.864 1200.83 287.681 1197.87C282.085 1196.39 277.598 1194.64 274.524 1192.71C271.42 1190.77 269.914 1188.76 269.914 1186.81C269.914 1184.86 271.42 1182.85 274.524 1180.91C277.598 1178.98 282.085 1177.23 287.681 1175.75C298.864 1172.79 314.346 1170.96 331.469 1170.96C348.592 1170.96 364.074 1172.79 375.257 1175.75C380.853 1177.23 385.34 1178.98 388.414 1180.91C391.519 1182.85 393.024 1184.86 393.024 1186.81Z" fill="#052C26" stroke="#0F4531" stroke-width="1.16142"/>
<path d="M401.155 1170.38C401.155 1172.63 399.421 1174.92 395.906 1177.12C392.42 1179.3 387.338 1181.28 381.006 1182.96C368.352 1186.3 350.837 1188.38 331.469 1188.38C312.101 1188.38 294.587 1186.3 281.932 1182.96C275.6 1181.28 270.518 1179.3 267.033 1177.12C263.517 1174.92 261.784 1172.63 261.784 1170.38C261.784 1168.13 263.517 1165.84 267.033 1163.64C270.518 1161.46 275.6 1159.47 281.932 1157.8C294.587 1154.45 312.101 1152.38 331.469 1152.38C350.837 1152.38 368.352 1154.45 381.006 1157.8C387.338 1159.47 392.42 1161.46 395.906 1163.64C399.421 1165.84 401.155 1168.13 401.155 1170.38Z" fill="#052C26" stroke="#0F4531" stroke-width="1.16142"/>
<path d="M179.323 1147.73V333.574L264.688 314.535L501.908 261.628L739.129 208.721L1858.16 279.567V1161.09L899.405 1200.89L739.129 1207.54L459.226 1177.64L179.323 1147.73Z" fill="#12413A"/>
<path d="M739.129 1207.54L899.405 1200.89L1858.16 1161.09V279.567L739.129 208.721M739.129 1207.54L459.226 1177.64M739.129 1207.54V423.003M739.129 208.721L501.908 261.628M739.129 208.721V423.003M459.226 1177.64L179.323 1147.73V333.574L264.688 314.535M459.226 1177.64V874.216H344.826V731.941H264.688V314.535M264.688 314.535L501.908 261.628M501.908 261.628V462.491L739.129 423.003" stroke="#052C26" stroke-width="5.80711"/>
<ellipse cx="1754.79" cy="374.803" rx="17.4213" ry="23.2284" fill="#052C26"/>
<ellipse cx="1625.87" cy="367.834" rx="17.4213" ry="23.2284" fill="#052C26"/>
<ellipse cx="1496.96" cy="362.029" rx="17.4213" ry="23.2284" fill="#052C26"/>
<ellipse cx="1368.04" cy="355.059" rx="17.4213" ry="23.2284" fill="#4BBF94"/>
<ellipse cx="1239.12" cy="349.254" rx="17.4213" ry="23.2284" fill="#4BBF94"/>
<ellipse cx="1110.2" cy="343.445" rx="17.4213" ry="23.2284" fill="#4BBF94"/>
<ellipse cx="981.285" cy="337.639" rx="17.4213" ry="23.2284" fill="#4BBF94"/>
<ellipse cx="852.368" cy="331.832" rx="17.4213" ry="23.2284" fill="#4BBF94"/>
<path d="M1303.58 406.317V1133.53M1303.58 406.317L1432.35 412.744M1303.58 406.317L1174.81 399.891M1303.58 1133.53L1432.35 1128.96M1303.58 1133.53L1174.81 1138.1M1046.03 393.464V1142.66M1046.03 393.464L1174.81 399.891M1046.03 393.464L917.261 387.038M1046.03 1142.66L1174.81 1138.1M1046.03 1142.66L917.261 1147.23M1561.12 419.171V1124.4M1561.12 419.171L1689.9 425.597M1561.12 419.171L1432.35 412.744M1561.12 1124.4L1689.9 1119.83M1561.12 1124.4L1432.35 1128.96M1689.9 1119.83L1814.19 1115.42C1816.69 1115.34 1818.67 1113.28 1818.67 1110.78V436.443C1818.67 433.968 1816.73 431.927 1814.26 431.803L1689.9 425.597M1689.9 1119.83V425.597M1432.35 412.744V1128.96M1174.81 1138.1V399.891M917.261 387.038L793.366 380.855C790.712 380.722 788.488 382.838 788.488 385.495V1135.56V1146.98C788.488 1149.61 790.67 1151.72 793.299 1151.63L917.261 1147.23M917.261 387.038V1147.23" stroke="#052C26" stroke-width="5.80711"/>
<path d="M793.713 388.263C793.714 386.941 794.816 385.886 796.137 385.944L910.539 390.967C911.781 391.021 912.76 392.044 912.76 393.287V1141.41C912.76 1142.67 911.761 1143.7 910.505 1143.73L795.526 1147.08C794.217 1147.12 793.135 1146.07 793.136 1144.76L793.713 388.263Z" fill="#2C443A"/>
<path d="M922.631 394.648C922.632 393.327 923.734 392.272 925.054 392.329L1039.46 397.279C1040.7 397.333 1041.68 398.356 1041.68 399.6V1136.81C1041.68 1138.07 1040.68 1139.1 1039.42 1139.13L924.443 1142.43C923.134 1142.47 922.053 1141.42 922.054 1140.11L922.631 394.648Z" fill="#2C443A"/>
<path d="M1051.55 401.615C1051.55 400.294 1052.65 399.24 1053.97 399.296L1168.37 404.17C1169.62 404.223 1170.6 405.246 1170.6 406.49V1132.22C1170.6 1133.48 1169.6 1134.51 1168.34 1134.54L1053.36 1137.79C1052.05 1137.83 1050.97 1136.78 1050.97 1135.47L1051.55 401.615Z" fill="#2C443A"/>
<path d="M1180.47 407.421C1180.47 406.1 1181.57 405.046 1182.89 405.102L1297.29 409.906C1298.53 409.958 1299.51 410.982 1299.51 412.227V1127.62C1299.51 1128.88 1298.51 1129.91 1297.26 1129.94L1182.28 1133.15C1180.97 1133.18 1179.89 1132.13 1179.89 1130.82L1180.47 407.421Z" fill="#2C443A"/>
<path d="M1309.38 414.388C1309.39 413.068 1310.48 412.014 1311.8 412.069L1426.21 416.796C1427.45 416.848 1428.43 417.871 1428.43 419.117V1123.03C1428.43 1124.28 1427.43 1125.31 1426.17 1125.35L1311.19 1128.5C1309.89 1128.54 1308.81 1127.49 1308.81 1126.18L1309.38 414.388Z" fill="#2C443A"/>
<path d="M1438.3 420.195C1438.3 418.876 1439.4 417.822 1440.72 417.876L1555.12 422.534C1556.37 422.585 1557.35 423.609 1557.35 424.855V1118.43C1557.35 1119.69 1556.35 1120.72 1555.09 1120.75L1440.11 1123.86C1438.8 1123.89 1437.73 1122.84 1437.73 1121.53L1438.3 420.195Z" fill="#2C443A"/>
<path d="M1567.22 427.16C1567.22 425.841 1568.32 424.788 1569.64 424.841L1684.04 429.423C1685.28 429.473 1686.27 430.497 1686.27 431.744V1113.83C1686.27 1115.09 1685.27 1116.12 1684.01 1116.16L1569.03 1119.21C1567.72 1119.25 1566.64 1118.2 1566.64 1116.89L1567.22 427.16Z" fill="#2C443A"/>
<path d="M1696.14 434.129C1696.14 432.811 1697.24 431.758 1698.55 431.81L1812.95 436.315C1814.2 436.364 1815.19 437.389 1815.19 438.636V1109.24C1815.19 1110.5 1814.18 1111.53 1812.92 1111.56L1697.95 1114.57C1696.64 1114.6 1695.56 1113.55 1695.56 1112.24L1696.14 434.129Z" fill="#2C443A"/>
<path d="M739.128 187.815L177 317.895V263.308L739.128 110L1859.32 187.815V263.308L739.128 187.815Z" fill="#40E796"/>
<path d="M739.128 187.815L177 317.895V263.308L739.128 110M739.128 187.815L1859.32 263.308V187.815L739.128 110M739.128 187.815V110" stroke="#0F4531" stroke-width="5.80711"/>
<path d="M849.913 513.59H848.197L853.159 500.075H854.849L859.811 513.59H858.095L854.057 502.213H853.951L849.913 513.59ZM850.546 508.311H857.462V509.762H850.546V508.311Z" fill="white"/>
<path d="M978.276 518.24V504.726H983.001C983.943 504.726 984.719 504.888 985.331 505.214C985.942 505.535 986.397 505.968 986.697 506.514C986.996 507.055 987.145 507.655 987.145 508.315C987.145 508.896 987.042 509.376 986.835 509.754C986.633 510.132 986.364 510.431 986.03 510.651C985.7 510.871 985.342 511.034 984.954 511.14V511.272C985.368 511.298 985.784 511.443 986.202 511.707C986.62 511.971 986.969 512.35 987.251 512.842C987.532 513.335 987.673 513.938 987.673 514.65C987.673 515.328 987.519 515.937 987.211 516.478C986.903 517.019 986.417 517.448 985.753 517.765C985.089 518.082 984.224 518.24 983.159 518.24H978.276ZM979.913 516.788H983.159C984.228 516.788 984.987 516.582 985.436 516.168C985.889 515.75 986.116 515.244 986.116 514.65C986.116 514.193 985.999 513.771 985.766 513.383C985.533 512.992 985.201 512.679 984.77 512.446C984.338 512.209 983.828 512.09 983.239 512.09H979.913V516.788ZM979.913 510.665H982.948C983.441 510.665 983.885 510.568 984.281 510.374C984.682 510.181 984.998 509.908 985.232 509.556C985.469 509.204 985.588 508.79 985.588 508.315C985.588 507.721 985.381 507.218 984.968 506.804C984.554 506.386 983.899 506.177 983.001 506.177H979.913V510.665Z" fill="white"/>
<path d="M1113.42 514.754H1111.79C1111.69 514.283 1111.52 513.869 1111.28 513.513C1111.04 513.157 1110.75 512.857 1110.41 512.615C1110.07 512.369 1109.69 512.184 1109.28 512.061C1108.87 511.938 1108.43 511.876 1107.99 511.876C1107.17 511.876 1106.43 512.083 1105.76 512.497C1105.1 512.91 1104.58 513.52 1104.18 514.325C1103.8 515.13 1103.6 516.117 1103.6 517.288C1103.6 518.458 1103.8 519.445 1104.18 520.251C1104.58 521.056 1105.1 521.665 1105.76 522.078C1106.43 522.492 1107.17 522.699 1107.99 522.699C1108.43 522.699 1108.87 522.637 1109.28 522.514C1109.69 522.391 1110.07 522.208 1110.41 521.966C1110.75 521.72 1111.04 521.419 1111.28 521.062C1111.52 520.701 1111.69 520.288 1111.79 519.822H1113.42C1113.3 520.512 1113.08 521.13 1112.75 521.676C1112.42 522.221 1112.02 522.686 1111.54 523.068C1111.05 523.447 1110.51 523.735 1109.91 523.933C1109.31 524.131 1108.67 524.23 1107.99 524.23C1106.83 524.23 1105.81 523.948 1104.91 523.385C1104.01 522.822 1103.31 522.021 1102.79 520.983C1102.28 519.945 1102.02 518.713 1102.02 517.288C1102.02 515.862 1102.28 514.63 1102.79 513.592C1103.31 512.554 1104.01 511.753 1104.91 511.19C1105.81 510.627 1106.83 510.345 1107.99 510.345C1108.67 510.345 1109.31 510.444 1109.91 510.642C1110.51 510.84 1111.05 511.131 1111.54 511.513C1112.02 511.892 1112.42 512.354 1112.75 512.899C1113.08 513.44 1113.3 514.058 1113.42 514.754Z" fill="white"/>
<path d="M1240.28 531.014H1236.11V517.499H1240.47C1241.78 517.499 1242.9 517.769 1243.83 518.311C1244.77 518.847 1245.48 519.619 1245.98 520.627C1246.47 521.63 1246.72 522.831 1246.72 524.23C1246.72 525.638 1246.47 526.85 1245.97 527.866C1245.47 528.878 1244.74 529.656 1243.78 530.202C1242.82 530.743 1241.66 531.014 1240.28 531.014ZM1237.75 529.562H1240.18C1241.29 529.562 1242.22 529.346 1242.96 528.915C1243.69 528.484 1244.24 527.87 1244.6 527.074C1244.96 526.278 1245.14 525.33 1245.14 524.23C1245.14 523.139 1244.96 522.2 1244.61 521.412C1244.25 520.62 1243.72 520.013 1243.01 519.591C1242.3 519.164 1241.42 518.951 1240.36 518.951H1237.75V529.562Z" fill="white"/>
<path d="M1365.03 537.982V524.468H1373.19V525.919H1366.67V530.486H1372.76V531.938H1366.67V536.531H1373.29V537.982H1365.03Z" fill="white"/>
<path d="M1493.95 543.789V530.274H1502.05V531.726H1495.58V536.293H1501.44V537.744H1495.58V543.789H1493.95Z" fill="white"/>
<path d="M1630.94 541.466C1630.8 541.022 1630.61 540.624 1630.37 540.272C1630.14 539.916 1629.86 539.612 1629.53 539.361C1629.21 539.111 1628.84 538.919 1628.43 538.787C1628.03 538.655 1627.58 538.589 1627.09 538.589C1626.29 538.589 1625.56 538.796 1624.9 539.21C1624.25 539.623 1623.73 540.232 1623.34 541.038C1622.95 541.843 1622.76 542.83 1622.76 544C1622.76 545.171 1622.96 546.158 1623.35 546.963C1623.74 547.768 1624.27 548.378 1624.94 548.791C1625.61 549.205 1626.36 549.412 1627.19 549.412C1627.97 549.412 1628.65 549.247 1629.24 548.917C1629.83 548.582 1630.3 548.112 1630.63 547.505C1630.96 546.893 1631.13 546.174 1631.13 545.347L1631.63 545.452H1627.56V544H1632.71V545.452C1632.71 546.565 1632.47 547.533 1632 548.356C1631.53 549.178 1630.88 549.816 1630.05 550.269C1629.22 550.718 1628.27 550.943 1627.19 550.943C1626 550.943 1624.95 550.661 1624.04 550.098C1623.14 549.535 1622.43 548.734 1621.93 547.696C1621.43 546.658 1621.18 545.426 1621.18 544C1621.18 542.931 1621.32 541.97 1621.6 541.117C1621.9 540.259 1622.3 539.529 1622.83 538.926C1623.36 538.323 1623.98 537.861 1624.71 537.54C1625.43 537.219 1626.22 537.058 1627.09 537.058C1627.8 537.058 1628.47 537.166 1629.08 537.382C1629.7 537.593 1630.25 537.894 1630.74 538.286C1631.23 538.673 1631.63 539.137 1631.96 539.678C1632.28 540.215 1632.51 540.811 1632.63 541.466H1630.94Z" fill="white"/>
<path d="M1751.78 556.564V543.05H1753.42V549.068H1760.62V543.05H1762.26V556.564H1760.62V550.52H1753.42V556.564H1751.78Z" fill="white"/>
<path d="M2180.78 532.829C2180.78 518.747 2181 504.723 2181.46 490.756C2181.91 476.674 2182.59 462.48 2183.5 448.172C2176.12 449.421 2169.19 450.216 2162.72 450.556C2156.36 450.783 2148.58 450.897 2139.38 450.897V431.138H2243.8V450.897C2234.49 450.897 2226.6 450.783 2220.12 450.556C2213.76 450.216 2206.89 449.421 2199.51 448.172C2200.42 462.593 2201.1 476.845 2201.56 490.926C2202.01 504.893 2202.24 518.861 2202.24 532.829V564H2180.78V532.829ZM2258.4 427.731H2278.5C2278.5 429.321 2278.5 430.968 2278.5 432.671C2278.5 442.778 2278.27 452.26 2277.82 461.117C2277.36 469.861 2276.57 478.832 2275.43 488.03H2278.16C2281.68 480.422 2286.11 474.971 2291.44 471.678C2296.78 468.271 2302.68 466.568 2309.16 466.568C2315.18 466.568 2320.68 467.931 2325.68 470.656C2330.79 473.268 2334.88 477.413 2337.94 483.09C2341.12 488.768 2342.71 495.866 2342.71 504.382V564H2322.44V513.24C2322.44 507.448 2321.76 502.566 2320.4 498.591C2319.04 494.617 2316.82 491.494 2313.76 489.223C2310.8 486.838 2306.94 485.646 2302.17 485.646C2297.63 485.646 2293.54 486.781 2289.91 489.052C2286.39 491.323 2283.61 494.617 2281.56 498.932C2279.52 503.133 2278.5 508.13 2278.5 513.921V564H2258.4V427.731ZM2409.09 566.896C2399.78 566.896 2391.43 564.852 2384.05 560.764C2376.79 556.562 2371.05 550.714 2366.85 543.219C2362.65 535.611 2360.55 526.867 2360.55 516.987C2360.55 507.335 2362.53 498.705 2366.51 491.096C2370.6 483.374 2376.22 477.356 2383.37 473.041C2390.53 468.725 2398.65 466.568 2407.73 466.568C2415.57 466.568 2422.89 468.328 2429.7 471.848C2436.52 475.255 2442.02 480.706 2446.23 488.201C2450.54 495.582 2452.7 504.893 2452.7 516.136V521.927H2381.16C2381.73 527.605 2383.26 532.431 2385.76 536.406C2388.26 540.38 2391.55 543.389 2395.64 545.433C2399.72 547.477 2404.21 548.499 2409.09 548.499C2414.77 548.499 2419.82 546.966 2424.25 543.9C2428.68 540.721 2432.03 536.406 2434.3 530.955L2453.38 538.45C2450.09 546.966 2444.47 553.837 2436.52 559.06C2428.68 564.284 2419.54 566.896 2409.09 566.896ZM2431.92 506.597C2431.46 501.487 2430.04 497.285 2427.66 493.992C2425.39 490.699 2422.49 488.314 2418.97 486.838C2415.57 485.248 2411.76 484.453 2407.56 484.453C2403.02 484.453 2398.99 485.418 2395.47 487.349C2391.95 489.166 2389.05 491.778 2386.78 495.184C2384.62 498.477 2383.09 502.282 2382.18 506.597H2431.92ZM2499.67 431.138H2523.86C2524.31 432.387 2524.71 433.636 2525.05 434.885C2530.96 455.099 2535.9 473.154 2539.87 489.052C2543.96 504.837 2547.76 521.757 2551.28 539.812H2554.01C2558.21 521.189 2563.55 500.465 2570.02 477.64C2572.18 469.804 2574.39 462.026 2576.66 454.304C2579.05 446.468 2581.38 438.746 2583.65 431.138H2608.01C2610.28 438.519 2612.09 444.424 2613.46 448.853C2618 464.183 2622.31 479.457 2626.4 494.673C2630.6 509.776 2634.41 525.163 2637.82 540.834H2640.54C2641.56 536.292 2642.3 532.885 2642.76 530.614C2643.21 528.343 2643.89 524.936 2644.8 520.394C2648.09 505.177 2651.61 490.358 2655.36 475.936C2659.22 461.515 2663.37 446.582 2667.79 431.138H2692.15L2652.8 564H2626.23C2619.99 544.468 2614.59 526.696 2610.05 510.685C2605.62 494.56 2601.53 477.299 2597.79 458.903H2594.04C2593.36 462.537 2592.45 466.681 2591.31 471.337C2587.68 487.917 2583.82 503.474 2579.73 518.009C2575.64 532.545 2570.99 547.875 2565.76 564H2539.02L2499.67 431.138ZM2741.28 566.896C2731.86 566.896 2723.45 564.795 2716.07 560.593C2708.69 556.278 2702.96 550.373 2698.87 542.878C2694.78 535.27 2692.74 526.583 2692.74 516.817C2692.74 507.051 2694.78 498.364 2698.87 490.756C2702.96 483.147 2708.69 477.242 2716.07 473.041C2723.45 468.725 2731.86 466.568 2741.28 466.568C2750.71 466.568 2759.05 468.725 2766.32 473.041C2773.7 477.242 2779.44 483.147 2783.52 490.756C2787.61 498.364 2789.66 507.051 2789.66 516.817C2789.66 526.583 2787.61 535.27 2783.52 542.878C2779.44 550.373 2773.7 556.278 2766.32 560.593C2759.05 564.795 2750.71 566.896 2741.28 566.896ZM2741.28 547.818C2746.62 547.818 2751.33 546.512 2755.42 543.9C2759.62 541.175 2762.86 537.484 2765.13 532.829C2767.51 528.173 2768.71 522.836 2768.71 516.817C2768.71 510.798 2767.51 505.461 2765.13 500.805C2762.86 496.036 2759.62 492.345 2755.42 489.734C2751.33 487.008 2746.62 485.646 2741.28 485.646C2735.94 485.646 2731.17 487.008 2726.97 489.734C2722.88 492.345 2719.65 496.036 2717.26 500.805C2714.99 505.461 2713.86 510.798 2713.86 516.817C2713.86 522.836 2714.99 528.173 2717.26 532.829C2719.65 537.484 2722.88 541.175 2726.97 543.9C2731.17 546.512 2735.94 547.818 2741.28 547.818ZM2808.83 469.293H2828.59C2828.59 470.202 2828.59 471.167 2828.59 472.189C2828.7 475.141 2828.64 477.98 2828.42 480.706C2828.19 483.431 2827.57 486.781 2826.54 490.756H2829.27C2831.65 482.92 2835.23 476.958 2840 472.87C2844.88 468.669 2850.62 466.568 2857.2 466.568C2860.61 466.568 2863.79 467.136 2866.74 468.271V490.756C2865.04 490.188 2863.11 489.734 2860.95 489.393C2858.91 489.052 2856.98 488.882 2855.16 488.882C2848.57 488.882 2843.29 490.642 2839.32 494.162C2835.46 497.569 2832.79 501.827 2831.31 506.937C2829.84 511.934 2829.04 517.555 2828.93 523.801V524.652V564H2808.83V469.293ZM2881.69 427.731H2901.79V564H2881.69V427.731ZM2964.4 566.896C2955.88 566.896 2948.33 564.738 2941.74 560.423C2935.16 556.108 2930.05 550.146 2926.41 542.538C2922.89 534.929 2921.13 526.299 2921.13 516.647C2921.13 506.54 2923.01 497.739 2926.75 490.245C2930.62 482.636 2935.84 476.788 2942.43 472.7C2949.01 468.612 2956.28 466.568 2964.23 466.568C2971.5 466.568 2977.68 468.442 2982.79 472.189C2988.02 475.936 2992.05 481.671 2994.89 489.393H2997.61C2996.48 478.605 2995.74 468.669 2995.4 459.584C2995.17 450.386 2995.12 439.995 2995.23 428.413V427.731H3015.5V534.362C3015.5 541.629 3015.73 547.307 3016.18 551.395C3016.75 555.483 3017.54 559.685 3018.57 564H2998.47C2998.47 563.886 2998.41 563.773 2998.3 563.659C2998.3 563.432 2998.3 563.262 2998.3 563.148C2997.61 560.196 2997.22 557.527 2997.1 555.143C2996.99 552.644 2997.27 549.635 2997.95 546.115H2995.23C2992.28 553.382 2988.13 558.663 2982.79 561.956C2977.46 565.249 2971.33 566.896 2964.4 566.896ZM2968.66 547.648C2973.77 547.648 2978.37 546.342 2982.45 543.73C2986.54 541.005 2989.78 537.314 2992.16 532.658C2994.55 527.889 2995.74 522.495 2995.74 516.476C2995.74 510.458 2994.55 505.121 2992.16 500.465C2989.78 495.809 2986.49 492.175 2982.28 489.563C2978.2 486.951 2973.65 485.646 2968.66 485.646C2963.55 485.646 2958.95 487.008 2954.86 489.734C2950.89 492.345 2947.76 495.979 2945.49 500.635C2943.22 505.291 2942.08 510.628 2942.08 516.647C2942.08 522.552 2943.22 527.832 2945.49 532.488C2947.76 537.144 2950.89 540.834 2954.86 543.56C2958.95 546.285 2963.55 547.648 2968.66 547.648ZM2212.8 784.896C2199.63 784.896 2187.82 782 2177.37 776.209C2167.04 770.417 2158.97 762.241 2153.18 751.68C2147.39 741.119 2144.49 729.026 2144.49 715.399C2144.49 701.318 2147.56 689.053 2153.69 678.606C2159.83 668.159 2168 660.21 2178.22 654.759C2188.55 649.195 2199.74 646.413 2211.78 646.413C2220.86 646.413 2229.44 648.059 2237.5 651.352C2245.56 654.532 2252.54 659.188 2258.45 665.32C2264.47 671.452 2268.95 678.776 2271.91 687.293L2252.15 695.299C2248.51 686.442 2243.18 679.458 2236.14 674.348C2229.21 669.238 2220.98 666.683 2211.44 666.683C2203.15 666.683 2195.6 668.727 2188.78 672.815C2182.08 676.789 2176.75 682.524 2172.77 690.019C2168.91 697.513 2166.98 706.314 2166.98 716.421C2166.98 727.209 2169.19 736.236 2173.62 743.504C2178.16 750.772 2183.96 756.109 2191 759.516C2198.04 762.922 2205.48 764.626 2213.31 764.626C2220.35 764.626 2226.77 763.263 2232.56 760.538C2238.35 757.812 2243.29 753.838 2247.38 748.614C2251.58 743.391 2254.76 737.258 2256.92 730.218L2276.68 737.031C2271.68 752.589 2263.62 764.455 2252.49 772.632C2241.47 780.808 2228.24 784.896 2212.8 784.896ZM2333.91 784.896C2324.48 784.896 2316.08 782.795 2308.7 778.593C2301.31 774.278 2295.58 768.373 2291.49 760.878C2287.4 753.27 2285.36 744.583 2285.36 734.817C2285.36 725.051 2287.4 716.364 2291.49 708.756C2295.58 701.147 2301.31 695.242 2308.7 691.041C2316.08 686.725 2324.48 684.568 2333.91 684.568C2343.33 684.568 2351.68 686.725 2358.94 691.041C2366.33 695.242 2372.06 701.147 2376.15 708.756C2380.24 716.364 2382.28 725.051 2382.28 734.817C2382.28 744.583 2380.24 753.27 2376.15 760.878C2372.06 768.373 2366.33 774.278 2358.94 778.593C2351.68 782.795 2343.33 784.896 2333.91 784.896ZM2333.91 765.818C2339.24 765.818 2343.96 764.512 2348.04 761.9C2352.25 759.175 2355.48 755.484 2357.75 750.829C2360.14 746.173 2361.33 740.836 2361.33 734.817C2361.33 728.798 2360.14 723.461 2357.75 718.805C2355.48 714.036 2352.25 710.345 2348.04 707.734C2343.96 705.008 2339.24 703.646 2333.91 703.646C2328.57 703.646 2323.8 705.008 2319.6 707.734C2315.51 710.345 2312.27 714.036 2309.89 718.805C2307.62 723.461 2306.48 728.798 2306.48 734.817C2306.48 740.836 2307.62 746.173 2309.89 750.829C2312.27 755.484 2315.51 759.175 2319.6 761.9C2323.8 764.512 2328.57 765.818 2333.91 765.818ZM2401.45 687.293H2421.21C2421.21 687.634 2421.21 687.975 2421.21 688.315C2421.21 691.381 2421.04 694.22 2420.7 696.832C2420.47 699.444 2419.74 702.51 2418.49 706.03H2421.21C2424.62 698.649 2428.99 693.255 2434.33 689.848C2439.67 686.328 2445.46 684.568 2451.7 684.568C2458.4 684.568 2464.25 686.442 2469.25 690.189C2474.24 693.936 2477.59 700.012 2479.3 708.415H2482.02C2485.66 699.671 2490.14 693.539 2495.48 690.019C2500.82 686.385 2506.61 684.568 2512.85 684.568C2518.76 684.568 2524.21 685.987 2529.2 688.826C2534.32 691.552 2538.46 695.753 2541.64 701.431C2544.82 707.109 2546.41 714.093 2546.41 722.382V782H2526.14V731.24V730.218C2526.14 724.54 2525.4 719.827 2523.92 716.08C2522.56 712.219 2520.46 709.21 2517.62 707.052C2514.9 704.781 2511.38 703.646 2507.06 703.646C2502.63 703.646 2498.71 704.781 2495.31 707.052C2491.9 709.323 2489.18 712.617 2487.13 716.932C2485.09 721.247 2484.07 726.243 2484.07 731.921V782H2463.8V731.24C2463.8 725.221 2463.11 720.282 2461.75 716.421C2460.5 712.446 2458.4 709.323 2455.45 707.052C2452.61 704.781 2448.98 703.646 2444.55 703.646C2440.23 703.646 2436.32 704.781 2432.79 707.052C2429.39 709.323 2426.66 712.617 2424.62 716.932C2422.57 721.247 2421.55 726.243 2421.55 731.921V782H2401.45V687.293ZM2570.79 687.293H2590.55C2590.55 687.861 2590.55 688.429 2590.55 688.997C2590.55 691.949 2590.38 694.788 2590.04 697.513C2589.81 700.239 2589.19 703.702 2588.17 707.904H2590.89C2594.86 699.501 2599.52 693.539 2604.86 690.019C2610.31 686.385 2616.44 684.568 2623.25 684.568C2631.54 684.568 2638.87 686.782 2645.23 691.211C2651.59 695.526 2656.47 701.488 2659.88 709.096C2663.4 716.705 2665.16 725.108 2665.16 734.306C2665.16 744.413 2663.17 753.327 2659.2 761.049C2655.33 768.657 2650.05 774.562 2643.35 778.764C2636.77 782.852 2629.61 784.896 2621.89 784.896C2617.12 784.896 2612.81 784.101 2608.95 782.511C2605.09 780.921 2601.68 778.537 2598.73 775.357C2595.89 772.177 2593.45 768.203 2591.4 763.433H2588.68C2589.7 771.723 2590.32 779.331 2590.55 786.258C2590.89 793.299 2591 801.929 2590.89 812.149C2590.89 814.648 2590.89 817.089 2590.89 819.474H2570.79V687.293ZM2617.63 765.818C2622.74 765.818 2627.29 764.512 2631.26 761.9C2635.35 759.175 2638.53 755.428 2640.8 750.658C2643.07 745.889 2644.21 740.608 2644.21 734.817C2644.21 728.798 2643.07 723.461 2640.8 718.805C2638.53 714.036 2635.35 710.345 2631.26 707.734C2627.29 705.008 2622.74 703.646 2617.63 703.646C2612.52 703.646 2607.87 705.008 2603.67 707.734C2599.58 710.345 2596.34 714.036 2593.96 718.805C2591.69 723.461 2590.55 728.798 2590.55 734.817C2590.55 740.836 2591.69 746.173 2593.96 750.829C2596.34 755.484 2599.58 759.175 2603.67 761.9C2607.87 764.512 2612.52 765.818 2617.63 765.818ZM2717.28 784.896C2710.46 784.896 2704.5 783.533 2699.39 780.808C2694.4 777.969 2690.42 773.71 2687.47 768.032C2684.63 762.355 2683.21 755.257 2683.21 746.74V687.293H2703.48V739.586C2703.48 748.217 2705.18 754.746 2708.59 759.175C2712.11 763.604 2716.94 765.818 2723.07 765.818C2727.61 765.818 2731.59 764.569 2734.99 762.071C2738.4 759.572 2741.01 756.279 2742.83 752.191C2744.65 748.103 2745.55 743.674 2745.55 738.905V687.293H2765.82V752.362C2765.82 759.629 2766.05 765.307 2766.51 769.395C2767.07 773.483 2767.87 777.685 2768.89 782H2748.79C2748.68 781.659 2748.56 781.319 2748.45 780.978C2747.65 778.025 2747.26 775.3 2747.26 772.802C2747.26 770.19 2747.88 767.01 2749.13 763.263H2746.41C2743.68 770.871 2739.93 776.379 2735.16 779.786C2730.39 783.192 2724.43 784.896 2717.28 784.896ZM2828.83 784.896C2819.97 784.896 2813.39 783.079 2809.07 779.445C2804.87 775.698 2802.26 771.61 2801.24 767.181C2800.22 762.752 2799.7 757.812 2799.7 752.362C2799.7 742.028 2799.82 733.284 2800.05 726.13C2800.39 718.862 2801.18 711.254 2802.43 703.305C2798.34 704.327 2794.77 704.951 2791.7 705.179C2788.75 705.406 2785.17 705.519 2780.97 705.519V687.293C2785.17 687.293 2788.75 687.407 2791.7 687.634C2794.77 687.861 2798.34 688.486 2802.43 689.508C2801.29 684.852 2800.56 680.48 2800.22 676.392C2799.88 672.19 2799.7 667.534 2799.7 662.424C2799.7 661.629 2799.7 660.834 2799.7 660.04H2819.8C2819.8 661.289 2819.8 662.538 2819.8 663.787C2819.8 668.443 2819.63 672.815 2819.29 676.903C2818.95 680.877 2818.21 685.079 2817.08 689.508C2822.19 688.486 2826.85 687.861 2831.05 687.634C2835.36 687.407 2840.47 687.293 2846.38 687.293V705.519C2840.47 705.519 2835.36 705.406 2831.05 705.179C2826.85 704.951 2822.19 704.327 2817.08 703.305C2817.87 707.506 2818.44 711.765 2818.78 716.08C2819.24 720.282 2819.52 724.483 2819.63 728.685C2819.75 731.524 2819.8 734.363 2819.8 737.202C2819.8 739.927 2819.8 742.652 2819.8 745.378V745.718C2819.8 749.92 2820.03 753.44 2820.49 756.279C2820.94 759.005 2822.13 761.389 2824.06 763.433C2825.99 765.477 2828.95 766.499 2832.92 766.499C2836.89 766.499 2841.15 765.364 2845.7 763.093L2846.38 762.752V780.978C2844.11 782.341 2841.44 783.306 2838.37 783.874C2835.42 784.555 2832.24 784.896 2828.83 784.896ZM2904.8 784.896C2895.49 784.896 2887.14 782.852 2879.76 778.764C2872.49 774.562 2866.76 768.714 2862.55 761.219C2858.35 753.611 2856.25 744.867 2856.25 734.987C2856.25 725.335 2858.24 716.705 2862.21 709.096C2866.3 701.374 2871.92 695.356 2879.08 691.041C2886.23 686.725 2894.35 684.568 2903.43 684.568C2911.27 684.568 2918.59 686.328 2925.41 689.848C2932.22 693.255 2937.73 698.706 2941.93 706.201C2946.25 713.582 2948.4 722.893 2948.4 734.136V739.927H2876.86C2877.43 745.605 2878.96 750.431 2881.46 754.406C2883.96 758.38 2887.25 761.389 2891.34 763.433C2895.43 765.477 2899.91 766.499 2904.8 766.499C2910.47 766.499 2915.53 764.966 2919.96 761.9C2924.39 758.721 2927.74 754.406 2930.01 748.955L2949.08 756.45C2945.79 764.966 2940.17 771.837 2932.22 777.06C2924.39 782.284 2915.24 784.896 2904.8 784.896ZM2927.62 724.597C2927.17 719.487 2925.75 715.285 2923.36 711.992C2921.09 708.699 2918.2 706.314 2914.68 704.838C2911.27 703.248 2907.47 702.453 2903.26 702.453C2898.72 702.453 2894.69 703.418 2891.17 705.349C2887.65 707.166 2884.75 709.778 2882.48 713.184C2880.33 716.477 2878.79 720.282 2877.88 724.597H2927.62ZM2968.02 687.293H2987.78C2987.78 688.202 2987.78 689.167 2987.78 690.189C2987.89 693.141 2987.84 695.98 2987.61 698.706C2987.38 701.431 2986.76 704.781 2985.73 708.756H2988.46C2990.84 700.92 2994.42 694.958 2999.19 690.87C3004.07 686.669 3009.81 684.568 3016.39 684.568C3019.8 684.568 3022.98 685.136 3025.93 686.271V708.756C3024.23 708.188 3022.3 707.734 3020.14 707.393C3018.1 707.052 3016.17 706.882 3014.35 706.882C3007.76 706.882 3002.48 708.642 2998.51 712.162C2994.65 715.569 2991.98 719.827 2990.5 724.937C2989.03 729.934 2988.23 735.555 2988.12 741.801V742.652V782H2968.02V687.293ZM3084.43 782C3084.43 778.82 3084.43 775.641 3084.43 772.461C3084.43 759.175 3084.6 747.081 3084.94 736.18C3085.28 725.278 3086.02 714.32 3087.15 703.305C3083.75 704.327 3080.85 704.951 3078.47 705.179C3076.2 705.406 3073.47 705.519 3070.29 705.519V687.293C3073.81 687.293 3076.82 687.407 3079.32 687.634C3081.82 687.861 3084.43 688.486 3087.15 689.508C3085.79 687.009 3085 684.795 3084.77 682.865C3084.54 680.934 3084.43 678.493 3084.43 675.54C3084.43 675.313 3084.43 675.086 3084.43 674.859C3084.43 667.478 3085.62 661.516 3088.01 656.973C3090.5 652.318 3093.97 648.797 3098.4 646.413C3102.94 644.028 3108.33 642.836 3114.58 642.836C3120.94 642.836 3126.39 643.914 3130.93 646.072V663.276C3128.55 662.14 3126.39 661.345 3124.46 660.891C3122.64 660.437 3120.77 660.21 3118.84 660.21C3114.52 660.21 3111.34 660.834 3109.3 662.084C3107.25 663.219 3105.95 664.809 3105.38 666.853C3104.81 668.897 3104.53 671.736 3104.53 675.37C3104.53 675.71 3104.53 676.051 3104.53 676.392C3104.53 676.505 3104.53 676.619 3104.53 676.732C3104.53 676.732 3104.53 676.789 3104.53 676.903C3104.53 679.515 3104.36 681.729 3104.02 683.546C3103.79 685.249 3103.05 687.236 3101.8 689.508C3106.01 688.486 3109.98 687.861 3113.73 687.634C3117.59 687.407 3122.41 687.293 3128.21 687.293V705.519C3122.98 705.519 3118.44 705.406 3114.58 705.179C3110.83 704.951 3106.57 704.327 3101.8 703.305C3103.05 715.569 3103.79 727.493 3104.02 739.075C3104.36 750.658 3104.53 764.966 3104.53 782H3084.43ZM3182.26 784.896C3172.83 784.896 3164.43 782.795 3157.05 778.593C3149.67 774.278 3143.93 768.373 3139.84 760.878C3135.76 753.27 3133.71 744.583 3133.71 734.817C3133.71 725.051 3135.76 716.364 3139.84 708.756C3143.93 701.147 3149.67 695.242 3157.05 691.041C3164.43 686.725 3172.83 684.568 3182.26 684.568C3191.68 684.568 3200.03 686.725 3207.3 691.041C3214.68 695.242 3220.41 701.147 3224.5 708.756C3228.59 716.364 3230.63 725.051 3230.63 734.817C3230.63 744.583 3228.59 753.27 3224.5 760.878C3220.41 768.373 3214.68 774.278 3207.3 778.593C3200.03 782.795 3191.68 784.896 3182.26 784.896ZM3182.26 765.818C3187.6 765.818 3192.31 764.512 3196.4 761.9C3200.6 759.175 3203.83 755.484 3206.1 750.829C3208.49 746.173 3209.68 740.836 3209.68 734.817C3209.68 728.798 3208.49 723.461 3206.1 718.805C3203.83 714.036 3200.6 710.345 3196.4 707.734C3192.31 705.008 3187.6 703.646 3182.26 703.646C3176.92 703.646 3172.15 705.008 3167.95 707.734C3163.86 710.345 3160.63 714.036 3158.24 718.805C3155.97 723.461 3154.83 728.798 3154.83 734.817C3154.83 740.836 3155.97 746.173 3158.24 750.829C3160.63 755.484 3163.86 759.175 3167.95 761.9C3172.15 764.512 3176.92 765.818 3182.26 765.818ZM3249.81 687.293H3269.56C3269.56 688.202 3269.56 689.167 3269.56 690.189C3269.68 693.141 3269.62 695.98 3269.39 698.706C3269.17 701.431 3268.54 704.781 3267.52 708.756H3270.25C3272.63 700.92 3276.21 694.958 3280.98 690.87C3285.86 686.669 3291.59 684.568 3298.18 684.568C3301.59 684.568 3304.77 685.136 3307.72 686.271V708.756C3306.02 708.188 3304.09 707.734 3301.93 707.393C3299.88 707.052 3297.95 706.882 3296.14 706.882C3289.55 706.882 3284.27 708.642 3280.3 712.162C3276.43 715.569 3273.77 719.827 3272.29 724.937C3270.81 729.934 3270.02 735.555 3269.91 741.801V742.652V782H3249.81V687.293ZM2194.23 1001.9C2185.94 1001.9 2178.28 1000.48 2171.24 997.637C2164.31 994.685 2158.29 990.256 2153.18 984.351C2148.19 978.446 2144.61 971.235 2142.45 962.718L2162.38 955.735C2164.88 964.933 2168.97 971.689 2174.64 976.005C2180.32 980.206 2186.79 982.307 2194.06 982.307C2198.38 982.307 2202.41 981.626 2206.16 980.263C2210.02 978.787 2213.08 976.629 2215.35 973.79C2217.74 970.838 2218.93 967.318 2218.93 963.229C2218.93 959.369 2217.97 956.246 2216.04 953.861C2214.11 951.363 2211.66 949.432 2208.71 948.07C2205.76 946.593 2201.95 945.174 2197.3 943.811C2196.5 943.471 2195.65 943.187 2194.74 942.96L2182.82 939.212C2176.69 937.395 2171.07 935.124 2165.96 932.399C2160.96 929.673 2156.53 925.756 2152.67 920.646C2148.81 915.535 2146.88 909.176 2146.88 901.568C2146.88 893.732 2148.92 886.976 2153.01 881.298C2157.1 875.507 2162.55 871.078 2169.36 868.012C2176.18 864.946 2183.73 863.413 2192.02 863.413C2199.74 863.413 2206.72 864.775 2212.97 867.501C2219.33 870.226 2224.61 873.973 2228.81 878.743C2233.01 883.399 2235.91 888.679 2237.5 894.584L2217.91 902.59C2215.75 896.458 2212.4 891.632 2207.86 888.111C2203.32 884.591 2197.81 882.831 2191.34 882.831C2187.14 882.831 2183.33 883.569 2179.92 885.045C2176.63 886.408 2174.02 888.395 2172.09 891.007C2170.27 893.505 2169.36 896.458 2169.36 899.865C2169.36 905.315 2171.63 909.574 2176.18 912.64C2180.72 915.706 2186.51 918.374 2193.55 920.646C2193.67 920.646 2193.72 920.702 2193.72 920.816C2193.72 920.816 2193.78 920.816 2193.89 920.816L2207.69 925.245C2208.48 925.472 2209.45 925.812 2210.59 926.267C2216.38 928.084 2221.43 930.184 2225.74 932.569C2230.17 934.954 2233.98 938.474 2237.16 943.13C2240.34 947.672 2241.93 953.464 2241.93 960.504C2241.93 968.453 2239.88 975.607 2235.79 981.966C2231.71 988.212 2226.09 993.095 2218.93 996.615C2211.78 1000.14 2203.54 1001.9 2194.23 1001.9ZM2296.37 1001.9C2287.51 1001.9 2280.92 1000.08 2276.61 996.445C2272.41 992.698 2269.79 988.61 2268.77 984.181C2267.75 979.752 2267.24 974.812 2267.24 969.362C2267.24 959.028 2267.35 950.284 2267.58 943.13C2267.92 935.862 2268.72 928.254 2269.96 920.305C2265.88 921.327 2262.3 921.951 2259.23 922.179C2256.28 922.406 2252.7 922.519 2248.5 922.519V904.293C2252.7 904.293 2256.28 904.407 2259.23 904.634C2262.3 904.861 2265.88 905.486 2269.96 906.508C2268.83 901.852 2268.09 897.48 2267.75 893.392C2267.41 889.19 2267.24 884.534 2267.24 879.424C2267.24 878.629 2267.24 877.834 2267.24 877.04H2287.34C2287.34 878.289 2287.34 879.538 2287.34 880.787C2287.34 885.443 2287.17 889.815 2286.83 893.903C2286.49 897.877 2285.75 902.079 2284.61 906.508C2289.72 905.486 2294.38 904.861 2298.58 904.634C2302.9 904.407 2308.01 904.293 2313.91 904.293V922.519C2308.01 922.519 2302.9 922.406 2298.58 922.179C2294.38 921.951 2289.72 921.327 2284.61 920.305C2285.41 924.506 2285.98 928.765 2286.32 933.08C2286.77 937.282 2287.05 941.483 2287.17 945.685C2287.28 948.524 2287.34 951.363 2287.34 954.202C2287.34 956.927 2287.34 959.652 2287.34 962.378V962.718C2287.34 966.92 2287.57 970.44 2288.02 973.279C2288.47 976.005 2289.67 978.389 2291.6 980.433C2293.53 982.477 2296.48 983.499 2300.45 983.499C2304.43 983.499 2308.69 982.364 2313.23 980.093L2313.91 979.752V997.978C2311.64 999.341 2308.97 1000.31 2305.91 1000.87C2302.95 1001.56 2299.77 1001.9 2296.37 1001.9ZM2331.42 904.293H2351.18C2351.18 905.202 2351.18 906.167 2351.18 907.189C2351.29 910.141 2351.24 912.98 2351.01 915.706C2350.78 918.431 2350.16 921.781 2349.14 925.756H2351.86C2354.25 917.92 2357.82 911.958 2362.59 907.87C2367.48 903.669 2373.21 901.568 2379.8 901.568C2383.2 901.568 2386.38 902.136 2389.34 903.271V925.756C2387.63 925.188 2385.7 924.734 2383.55 924.393C2381.5 924.052 2379.57 923.882 2377.75 923.882C2371.17 923.882 2365.89 925.642 2361.91 929.162C2358.05 932.569 2355.38 936.827 2353.91 941.937C2352.43 946.934 2351.64 952.555 2351.52 958.801V959.652V999H2331.42V904.293ZM2437.16 1001.9C2430.34 1001.9 2424.38 1000.53 2419.27 997.808C2414.27 994.969 2410.3 990.71 2407.35 985.032C2404.51 979.355 2403.09 972.257 2403.09 963.74V904.293H2423.36V956.586C2423.36 965.217 2425.06 971.746 2428.47 976.175C2431.99 980.604 2436.82 982.818 2442.95 982.818C2447.49 982.818 2451.46 981.569 2454.87 979.071C2458.28 976.572 2460.89 973.279 2462.71 969.191C2464.52 965.103 2465.43 960.674 2465.43 955.905V904.293H2485.7V969.362C2485.7 976.629 2485.93 982.307 2486.38 986.395C2486.95 990.483 2487.75 994.685 2488.77 999H2468.67C2468.55 998.659 2468.44 998.319 2468.33 997.978C2467.53 995.025 2467.13 992.3 2467.13 989.802C2467.13 987.19 2467.76 984.01 2469.01 980.263H2466.28C2463.56 987.871 2459.81 993.379 2455.04 996.786C2450.27 1000.19 2444.31 1001.9 2437.16 1001.9ZM2553.65 1001.9C2544.45 1001.9 2536.1 999.852 2528.61 995.764C2521.23 991.562 2515.44 985.714 2511.24 978.219C2507.03 970.611 2504.93 961.81 2504.93 951.817C2504.93 941.824 2507.03 933.023 2511.24 925.415C2515.44 917.807 2521.17 911.958 2528.44 907.87C2535.71 903.669 2543.94 901.568 2553.14 901.568C2563.13 901.568 2571.99 904.066 2579.71 909.063C2587.43 913.946 2593 921.043 2596.4 930.355L2577.33 938.02C2575.4 932.342 2572.27 928.027 2567.96 925.074C2563.64 922.122 2558.65 920.646 2552.97 920.646C2547.63 920.646 2542.92 922.008 2538.83 924.734C2534.74 927.459 2531.56 931.206 2529.29 935.976C2527.13 940.632 2526.06 945.855 2526.06 951.647C2526.06 957.892 2527.25 963.4 2529.63 968.169C2532.02 972.825 2535.31 976.459 2539.51 979.071C2543.83 981.569 2548.6 982.818 2553.82 982.818C2559.95 982.818 2565.29 981.172 2569.83 977.878C2574.49 974.472 2578.01 969.702 2580.39 963.57L2599.13 970.895C2595.72 980.661 2589.93 988.269 2581.75 993.72C2573.69 999.17 2564.32 1001.9 2553.65 1001.9ZM2652.18 1001.9C2643.32 1001.9 2636.73 1000.08 2632.42 996.445C2628.21 992.698 2625.6 988.61 2624.58 984.181C2623.56 979.752 2623.05 974.812 2623.05 969.362C2623.05 959.028 2623.16 950.284 2623.39 943.13C2623.73 935.862 2624.52 928.254 2625.77 920.305C2621.69 921.327 2618.11 921.951 2615.04 922.179C2612.09 922.406 2608.51 922.519 2604.31 922.519V904.293C2608.51 904.293 2612.09 904.407 2615.04 904.634C2618.11 904.861 2621.69 905.486 2625.77 906.508C2624.64 901.852 2623.9 897.48 2623.56 893.392C2623.22 889.19 2623.05 884.534 2623.05 879.424C2623.05 878.629 2623.05 877.834 2623.05 877.04H2643.15C2643.15 878.289 2643.15 879.538 2643.15 880.787C2643.15 885.443 2642.98 889.815 2642.64 893.903C2642.3 897.877 2641.56 902.079 2640.42 906.508C2645.53 905.486 2650.19 904.861 2654.39 904.634C2658.7 904.407 2663.82 904.293 2669.72 904.293V922.519C2663.82 922.519 2658.7 922.406 2654.39 922.179C2650.19 921.951 2645.53 921.327 2640.42 920.305C2641.22 924.506 2641.78 928.765 2642.13 933.08C2642.58 937.282 2642.86 941.483 2642.98 945.685C2643.09 948.524 2643.15 951.363 2643.15 954.202C2643.15 956.927 2643.15 959.652 2643.15 962.378V962.718C2643.15 966.92 2643.37 970.44 2643.83 973.279C2644.28 976.005 2645.48 978.389 2647.41 980.433C2649.34 982.477 2652.29 983.499 2656.26 983.499C2660.24 983.499 2664.5 982.364 2669.04 980.093L2669.72 979.752V997.978C2667.45 999.341 2664.78 1000.31 2661.71 1000.87C2658.76 1001.56 2655.58 1001.9 2652.18 1001.9ZM2720.11 1001.9C2713.29 1001.9 2707.33 1000.53 2702.22 997.808C2697.22 994.969 2693.25 990.71 2690.3 985.032C2687.46 979.355 2686.04 972.257 2686.04 963.74V904.293H2706.31V956.586C2706.31 965.217 2708.01 971.746 2711.42 976.175C2714.94 980.604 2719.77 982.818 2725.9 982.818C2730.44 982.818 2734.41 981.569 2737.82 979.071C2741.23 976.572 2743.84 973.279 2745.66 969.191C2747.47 965.103 2748.38 960.674 2748.38 955.905V904.293H2768.65V969.362C2768.65 976.629 2768.88 982.307 2769.33 986.395C2769.9 990.483 2770.7 994.685 2771.72 999H2751.62C2751.5 998.659 2751.39 998.319 2751.28 997.978C2750.48 995.025 2750.09 992.3 2750.09 989.802C2750.09 987.19 2750.71 984.01 2751.96 980.263H2749.23C2746.51 987.871 2742.76 993.379 2737.99 996.786C2733.22 1000.19 2727.26 1001.9 2720.11 1001.9ZM2794.36 904.293H2814.12C2814.12 905.202 2814.12 906.167 2814.12 907.189C2814.23 910.141 2814.17 912.98 2813.95 915.706C2813.72 918.431 2813.09 921.781 2812.07 925.756H2814.8C2817.18 917.92 2820.76 911.958 2825.53 907.87C2830.41 903.669 2836.15 901.568 2842.73 901.568C2846.14 901.568 2849.32 902.136 2852.27 903.271V925.756C2850.57 925.188 2848.64 924.734 2846.48 924.393C2844.44 924.052 2842.5 923.882 2840.69 923.882C2834.1 923.882 2828.82 925.642 2824.85 929.162C2820.99 932.569 2818.32 936.827 2816.84 941.937C2815.36 946.934 2814.57 952.555 2814.46 958.801V959.652V999H2794.36V904.293ZM2906.29 1001.9C2896.98 1001.9 2888.64 999.852 2881.25 995.764C2873.99 991.562 2868.25 985.714 2864.05 978.219C2859.85 970.611 2857.75 961.867 2857.75 951.987C2857.75 942.335 2859.74 933.705 2863.71 926.096C2867.8 918.374 2873.42 912.356 2880.57 908.041C2887.73 903.725 2895.85 901.568 2904.93 901.568C2912.77 901.568 2920.09 903.328 2926.9 906.848C2933.72 910.255 2939.23 915.706 2943.43 923.201C2947.74 930.582 2949.9 939.893 2949.9 951.136V956.927H2878.36C2878.93 962.605 2880.46 967.431 2882.96 971.406C2885.46 975.38 2888.75 978.389 2892.84 980.433C2896.93 982.477 2901.41 983.499 2906.29 983.499C2911.97 983.499 2917.03 981.966 2921.45 978.9C2925.88 975.721 2929.23 971.406 2931.5 965.955L2950.58 973.45C2947.29 981.966 2941.67 988.837 2933.72 994.06C2925.88 999.284 2916.74 1001.9 2906.29 1001.9ZM2929.12 941.597C2928.66 936.487 2927.25 932.285 2924.86 928.992C2922.59 925.699 2919.69 923.314 2916.17 921.838C2912.77 920.248 2908.96 919.453 2904.76 919.453C2900.22 919.453 2896.19 920.418 2892.67 922.349C2889.15 924.166 2886.25 926.778 2883.98 930.184C2881.82 933.477 2880.29 937.282 2879.38 941.597H2929.12ZM3006.65 1001.9C2998.13 1001.9 2990.58 999.738 2984 995.423C2977.41 991.108 2972.3 985.146 2968.66 977.538C2965.14 969.929 2963.38 961.299 2963.38 951.647C2963.38 941.54 2965.26 932.739 2969.01 925.245C2972.87 917.636 2978.09 911.788 2984.68 907.7C2991.26 903.612 2998.53 901.568 3006.48 901.568C3013.75 901.568 3019.94 903.442 3025.05 907.189C3030.27 910.936 3034.3 916.671 3037.14 924.393H3039.87C3038.73 913.605 3037.99 903.669 3037.65 894.584C3037.42 885.386 3037.37 874.995 3037.48 863.413V862.731H3057.75V969.362C3057.75 976.629 3057.98 982.307 3058.43 986.395C3059 990.483 3059.79 994.685 3060.82 999H3040.72C3040.72 998.886 3040.66 998.773 3040.55 998.659C3040.55 998.432 3040.55 998.262 3040.55 998.148C3039.87 995.196 3039.47 992.527 3039.35 990.143C3039.24 987.644 3039.52 984.635 3040.21 981.115H3037.48C3034.53 988.382 3030.38 993.663 3025.05 996.956C3019.71 1000.25 3013.58 1001.9 3006.65 1001.9ZM3010.91 982.648C3016.02 982.648 3020.62 981.342 3024.71 978.73C3028.79 976.005 3032.03 972.314 3034.41 967.658C3036.8 962.889 3037.99 957.495 3037.99 951.476C3037.99 945.458 3036.8 940.121 3034.41 935.465C3032.03 930.809 3028.74 927.175 3024.53 924.563C3020.45 921.951 3015.9 920.646 3010.91 920.646C3005.8 920.646 3001.2 922.008 2997.11 924.734C2993.14 927.345 2990.01 930.979 2987.74 935.635C2985.47 940.291 2984.34 945.628 2984.34 951.647C2984.34 957.552 2985.47 962.832 2987.74 967.488C2990.01 972.144 2993.14 975.834 2997.11 978.56C3001.2 981.285 3005.8 982.648 3010.91 982.648ZM3127.77 866.138H3177.84C3192.04 866.138 3203.85 869.034 3213.27 874.825C3222.7 880.617 3229.63 888.452 3234.05 898.332C3238.6 908.097 3240.87 919.226 3240.87 931.717C3240.87 944.89 3238.43 956.586 3233.54 966.807C3228.66 976.913 3221.56 984.805 3212.25 990.483C3202.94 996.161 3191.98 999 3179.38 999H3127.77V866.138ZM3148.89 982.648C3149.45 982.534 3149.97 982.421 3150.42 982.307C3154.73 980.944 3158.88 980.093 3162.85 979.752C3166.83 979.411 3171.71 979.241 3177.5 979.241C3185.34 979.241 3192.27 977.651 3198.28 974.472C3204.42 971.292 3209.3 966.239 3212.93 959.312C3216.57 952.385 3218.38 943.584 3218.38 932.91C3218.38 921.213 3216.17 911.845 3211.74 904.804C3207.43 897.764 3201.97 892.881 3195.39 890.155C3188.92 887.316 3181.31 885.897 3172.56 885.897C3167.57 885.897 3163.37 885.727 3159.96 885.386C3156.55 884.932 3152.86 883.967 3148.89 882.49L3146.16 884.194C3150.93 916.557 3150.99 948.524 3146.33 980.093L3148.89 982.648ZM3285.15 1001.9C3279.59 1001.9 3274.42 1000.93 3269.65 999C3264.88 996.956 3261.02 993.947 3258.07 989.972C3255.23 985.884 3253.81 980.944 3253.81 975.153C3253.81 969.475 3255.18 964.762 3257.9 961.015C3260.74 957.154 3264.49 954.145 3269.14 951.987C3273.8 949.716 3279.25 947.899 3285.49 946.537C3287.88 945.969 3290.49 945.458 3293.33 945.004C3298.89 943.868 3303.04 942.903 3305.76 942.108C3308.6 941.199 3310.7 940.064 3312.07 938.701C3313.43 937.225 3314.11 935.238 3314.11 932.739C3314.11 930.128 3313.37 927.686 3311.9 925.415C3310.53 923.144 3308.49 921.384 3305.76 920.134C3303.04 918.772 3299.92 918.09 3296.4 918.09C3291.51 918.09 3287.25 919.51 3283.62 922.349C3279.99 925.188 3277.38 929.276 3275.79 934.613L3256.88 928.14C3259.6 919.056 3264.6 912.356 3271.87 908.041C3279.25 903.725 3287.77 901.568 3297.42 901.568C3304.69 901.568 3311.1 902.817 3316.67 905.315C3322.34 907.7 3326.77 911.391 3329.95 916.387C3333.13 921.27 3334.72 927.345 3334.72 934.613V969.362C3334.72 970.156 3334.72 971.008 3334.72 971.917C3334.84 978.276 3335.12 983.386 3335.57 987.247C3336.03 991.108 3336.77 995.025 3337.79 999H3317.52C3316.72 996.275 3316.27 993.606 3316.16 990.994C3316.16 988.269 3316.78 984.805 3318.03 980.604H3315.3C3312.69 987.644 3308.77 992.981 3303.55 996.615C3298.33 1000.14 3292.19 1001.9 3285.15 1001.9ZM3290.43 986.225C3295.09 986.225 3299.24 985.032 3302.87 982.648C3306.5 980.263 3309.29 977.254 3311.22 973.62C3313.26 969.986 3314.28 966.352 3314.28 962.718V952.839C3311.9 954.202 3309.97 955.224 3308.49 955.905C3307.13 956.473 3305.08 957.097 3302.36 957.779C3300.77 958.233 3298.21 958.858 3294.69 959.652C3291.06 960.447 3287.94 961.413 3285.32 962.548C3282.71 963.57 3280.5 965.103 3278.68 967.147C3276.86 969.191 3275.96 971.633 3275.96 974.472C3275.96 978.219 3277.26 981.115 3279.87 983.159C3282.6 985.203 3286.12 986.225 3290.43 986.225ZM3395.56 1001.9C3386.71 1001.9 3380.12 1000.08 3375.81 996.445C3371.6 992.698 3368.99 988.61 3367.97 984.181C3366.95 979.752 3366.44 974.812 3366.44 969.362C3366.44 959.028 3366.55 950.284 3366.78 943.13C3367.12 935.862 3367.91 928.254 3369.16 920.305C3365.07 921.327 3361.5 921.951 3358.43 922.179C3355.48 922.406 3351.9 922.519 3347.7 922.519V904.293C3351.9 904.293 3355.48 904.407 3358.43 904.634C3361.5 904.861 3365.07 905.486 3369.16 906.508C3368.03 901.852 3367.29 897.48 3366.95 893.392C3366.61 889.19 3366.44 884.534 3366.44 879.424C3366.44 878.629 3366.44 877.834 3366.44 877.04H3386.54C3386.54 878.289 3386.54 879.538 3386.54 880.787C3386.54 885.443 3386.37 889.815 3386.03 893.903C3385.69 897.877 3384.95 902.079 3383.81 906.508C3388.92 905.486 3393.58 904.861 3397.78 904.634C3402.09 904.407 3407.2 904.293 3413.11 904.293V922.519C3407.2 922.519 3402.09 922.406 3397.78 922.179C3393.58 921.951 3388.92 921.327 3383.81 920.305C3384.61 924.506 3385.17 928.765 3385.52 933.08C3385.97 937.282 3386.25 941.483 3386.37 945.685C3386.48 948.524 3386.54 951.363 3386.54 954.202C3386.54 956.927 3386.54 959.652 3386.54 962.378V962.718C3386.54 966.92 3386.76 970.44 3387.22 973.279C3387.67 976.005 3388.87 978.389 3390.8 980.433C3392.73 982.477 3395.68 983.499 3399.65 983.499C3403.63 983.499 3407.89 982.364 3412.43 980.093L3413.11 979.752V997.978C3410.84 999.341 3408.17 1000.31 3405.1 1000.87C3402.15 1001.56 3398.97 1001.9 3395.56 1001.9ZM3455.49 1001.9C3449.93 1001.9 3444.76 1000.93 3439.99 999C3435.22 996.956 3431.36 993.947 3428.41 989.972C3425.57 985.884 3424.15 980.944 3424.15 975.153C3424.15 969.475 3425.51 964.762 3428.24 961.015C3431.08 957.154 3434.82 954.145 3439.48 951.987C3444.13 949.716 3449.58 947.899 3455.83 946.537C3458.22 945.969 3460.83 945.458 3463.67 945.004C3469.23 943.868 3473.38 942.903 3476.1 942.108C3478.94 941.199 3481.04 940.064 3482.4 938.701C3483.77 937.225 3484.45 935.238 3484.45 932.739C3484.45 930.128 3483.71 927.686 3482.23 925.415C3480.87 923.144 3478.83 921.384 3476.1 920.134C3473.38 918.772 3470.25 918.09 3466.73 918.09C3461.85 918.09 3457.59 919.51 3453.96 922.349C3450.32 925.188 3447.71 929.276 3446.12 934.613L3427.21 928.14C3429.94 919.056 3434.94 912.356 3442.2 908.041C3449.58 903.725 3458.1 901.568 3467.75 901.568C3475.02 901.568 3481.44 902.817 3487 905.315C3492.68 907.7 3497.11 911.391 3500.29 916.387C3503.47 921.27 3505.06 927.345 3505.06 934.613V969.362C3505.06 970.156 3505.06 971.008 3505.06 971.917C3505.17 978.276 3505.46 983.386 3505.91 987.247C3506.36 991.108 3507.1 995.025 3508.12 999H3487.85C3487.06 996.275 3486.6 993.606 3486.49 990.994C3486.49 988.269 3487.12 984.805 3488.36 980.604H3485.64C3483.03 987.644 3479.11 992.981 3473.89 996.615C3468.66 1000.14 3462.53 1001.9 3455.49 1001.9ZM3460.77 986.225C3465.43 986.225 3469.57 985.032 3473.2 982.648C3476.84 980.263 3479.62 977.254 3481.55 973.62C3483.6 969.986 3484.62 966.352 3484.62 962.718V952.839C3482.23 954.202 3480.3 955.224 3478.83 955.905C3477.46 956.473 3475.42 957.097 3472.69 957.779C3471.1 958.233 3468.55 958.858 3465.03 959.652C3461.39 960.447 3458.27 961.413 3455.66 962.548C3453.05 963.57 3450.83 965.103 3449.02 967.147C3447.2 969.191 3446.29 971.633 3446.29 974.472C3446.29 978.219 3447.6 981.115 3450.21 983.159C3452.93 985.203 3456.46 986.225 3460.77 986.225Z" fill="#D6F6EB"/>
</g>
<defs>
<clipPath id="clip0_467_24961">
<rect width="4116" height="1365" fill="white"/>
</clipPath>
</defs>
</svg>
