<svg width="1694" height="780" viewBox="0 0 1694 780" fill="none" xmlns="http://www.w3.org/2000/svg">
<path d="M40 42C40 40.8954 40.8954 40 42 40H1652C1653.1 40 1654 40.8954 1654 42V738C1654 739.105 1653.1 740 1652 740H42C40.8955 740 40 739.105 40 738V42Z" fill="#010E0C"/>
<path d="M42 41H1652V39H42V41ZM1653 42V738H1655V42H1653ZM1652 739H42V741H1652V739ZM41 738V42H39V738H41ZM42 739C41.4477 739 41 738.552 41 738H39C39 739.657 40.3432 741 42 741V739ZM1653 738C1653 738.552 1652.55 739 1652 739V741C1653.66 741 1655 739.657 1655 738H1653ZM1652 41C1652.55 41 1653 41.4477 1653 42H1655C1655 40.3431 1653.66 39 1652 39V41ZM42 39C40.3431 39 39 40.3432 39 42H41C41 41.4477 41.4477 41 42 41V39Z" fill="white" fill-opacity="0.1"/>
<path d="M1234.09 654.569C1234.09 655.418 1233.43 656.292 1232.08 657.136C1230.75 657.972 1228.8 658.734 1226.36 659.377C1221.5 660.663 1214.77 661.461 1207.32 661.461C1199.88 661.461 1193.15 660.663 1188.29 659.377C1185.85 658.734 1183.9 657.972 1182.56 657.136C1181.21 656.292 1180.56 655.418 1180.56 654.569C1180.56 653.72 1181.21 652.846 1182.56 652.002C1183.9 651.166 1185.85 650.404 1188.29 649.761C1193.15 648.475 1199.88 647.676 1207.32 647.676C1214.77 647.676 1221.5 648.475 1226.36 649.761C1228.8 650.404 1230.75 651.166 1232.08 652.002C1233.43 652.846 1234.09 653.72 1234.09 654.569Z" fill="#052C26" stroke="#0F4531" stroke-width="0.504992"/>
<path d="M1238.79 648.522C1238.79 649.521 1238.02 650.548 1236.44 651.541C1234.87 652.523 1232.57 653.419 1229.71 654.176C1223.99 655.688 1216.08 656.627 1207.32 656.627C1198.57 656.627 1190.65 655.688 1184.94 654.176C1182.08 653.419 1179.78 652.523 1178.21 651.541C1176.62 650.548 1175.85 649.521 1175.85 648.522C1175.85 647.524 1176.62 646.496 1178.21 645.504C1179.78 644.521 1182.08 643.625 1184.94 642.869C1190.65 641.357 1198.57 640.418 1207.32 640.418C1216.08 640.418 1223.99 641.357 1229.71 642.869C1232.57 643.625 1234.87 644.521 1236.44 645.504C1238.02 646.496 1238.79 647.524 1238.79 648.522Z" fill="#052C26" stroke="#0F4531" stroke-width="0.593782"/>
<path d="M1242.95 640.122C1242.95 641.272 1242.06 642.444 1240.27 643.568C1238.49 644.682 1235.89 645.696 1232.65 646.552C1226.18 648.263 1217.23 649.325 1207.32 649.325C1197.42 649.325 1188.47 648.263 1182 646.552C1178.76 645.696 1176.16 644.682 1174.38 643.568C1172.58 642.444 1171.7 641.272 1171.7 640.122C1171.7 638.971 1172.58 637.799 1174.38 636.675C1176.16 635.561 1178.76 634.547 1182 633.691C1188.47 631.98 1197.42 630.918 1207.32 630.918C1217.23 630.918 1226.18 631.98 1232.65 633.691C1235.89 634.547 1238.49 635.561 1240.27 636.675C1242.06 637.799 1242.95 638.971 1242.95 640.122Z" fill="#052C26" stroke="#0F4531" stroke-width="0.593782"/>
<path d="M770.345 675.352C770.345 676.201 769.69 677.075 768.341 677.919C767.004 678.755 765.053 679.517 762.62 680.16C757.757 681.446 751.026 682.245 743.581 682.245C736.135 682.245 729.404 681.446 724.541 680.16C722.108 679.517 720.157 678.755 718.82 677.919C717.471 677.075 716.816 676.201 716.816 675.352C716.816 674.503 717.471 673.629 718.82 672.785C720.157 671.949 722.108 671.187 724.541 670.544C729.404 669.258 736.135 668.46 743.581 668.46C751.026 668.46 757.757 669.258 762.62 670.544C765.053 671.187 767.004 671.949 768.341 672.785C769.69 673.629 770.345 674.503 770.345 675.352Z" fill="#052C26" stroke="#0F4531" stroke-width="0.504992"/>
<path d="M775.05 669.306C775.05 670.304 774.28 671.332 772.693 672.324C771.122 673.307 768.828 674.203 765.967 674.959C760.249 676.471 752.334 677.41 743.58 677.41C734.826 677.41 726.91 676.471 721.193 674.959C718.332 674.203 716.038 673.307 714.466 672.324C712.879 671.332 712.109 670.304 712.109 669.306C712.109 668.307 712.879 667.279 714.466 666.287C716.038 665.304 718.332 664.409 721.193 663.652C726.91 662.14 734.826 661.201 743.58 661.201C752.334 661.201 760.249 662.14 765.967 663.652C768.828 664.409 771.122 665.304 772.693 666.287C774.28 667.279 775.05 668.307 775.05 669.306Z" fill="#052C26" stroke="#0F4531" stroke-width="0.593782"/>
<path d="M779.207 660.905C779.207 662.055 778.321 663.227 776.523 664.351C774.741 665.465 772.143 666.48 768.906 667.336C762.436 669.047 753.482 670.108 743.58 670.108C733.678 670.108 724.724 669.047 718.254 667.336C715.017 666.48 712.419 665.465 710.637 664.351C708.839 663.227 707.953 662.055 707.953 660.905C707.953 659.755 708.839 658.582 710.637 657.459C712.419 656.344 715.017 655.33 718.254 654.474C724.724 652.763 733.678 651.701 743.58 651.701C753.482 651.701 762.436 652.763 768.906 654.474C772.143 655.33 774.741 656.344 776.523 657.459C778.321 658.582 779.207 659.755 779.207 660.905Z" fill="#052C26" stroke="#0F4531" stroke-width="0.593782"/>
<path d="M522.737 654.569C522.737 655.418 522.082 656.292 520.732 657.136C519.396 657.972 517.445 658.734 515.012 659.377C510.149 660.663 503.417 661.461 495.972 661.461C488.527 661.461 481.795 660.663 476.933 659.377C474.5 658.734 472.549 657.972 471.212 657.136C469.862 656.292 469.208 655.418 469.208 654.569C469.208 653.72 469.862 652.846 471.212 652.002C472.549 651.166 474.5 650.404 476.933 649.761C481.795 648.475 488.527 647.676 495.972 647.676C503.417 647.676 510.149 648.475 515.012 649.761C517.445 650.404 519.396 651.166 520.732 652.002C522.082 652.846 522.737 653.72 522.737 654.569Z" fill="#052C26" stroke="#0F4531" stroke-width="0.504992"/>
<path d="M527.443 648.522C527.443 649.521 526.673 650.548 525.086 651.541C523.514 652.523 521.22 653.419 518.359 654.176C512.642 655.688 504.727 656.627 495.972 656.627C487.218 656.627 479.303 655.688 473.585 654.176C470.724 653.419 468.431 652.523 466.859 651.541C465.272 650.548 464.502 649.521 464.502 648.522C464.502 647.524 465.272 646.496 466.859 645.504C468.431 644.521 470.724 643.625 473.585 642.869C479.303 641.357 487.218 640.418 495.972 640.418C504.727 640.418 512.642 641.357 518.359 642.869C521.22 643.625 523.514 644.521 525.086 645.504C526.673 646.496 527.443 647.524 527.443 648.522Z" fill="#052C26" stroke="#0F4531" stroke-width="0.593782"/>
<path d="M531.6 640.122C531.6 641.272 530.713 642.444 528.916 643.568C527.134 644.682 524.536 645.696 521.299 646.552C514.829 648.263 505.875 649.325 495.973 649.325C486.071 649.325 477.116 648.263 470.647 646.552C467.41 645.696 464.811 644.682 463.029 643.568C461.232 642.444 460.346 641.272 460.346 640.122C460.346 638.971 461.232 637.799 463.029 636.675C464.811 635.561 467.41 634.547 470.647 633.691C477.116 631.98 486.071 630.918 495.973 630.918C505.875 630.918 514.829 631.98 521.299 633.691C524.536 634.547 527.134 635.561 528.916 636.675C530.713 637.799 531.6 638.971 531.6 640.122Z" fill="#052C26" stroke="#0F4531" stroke-width="0.593782"/>
<path d="M418.188 628.543V212.302L461.83 202.569L583.11 175.52L704.39 148.471L1276.5 184.691V635.372L786.332 655.721L704.39 659.123L561.289 643.833L418.188 628.543Z" fill="#12413A"/>
<path d="M704.39 659.123L786.332 655.721L1276.5 635.372V184.691L704.39 148.471M704.39 659.123L561.289 643.833M704.39 659.123V258.023M704.39 148.471L583.11 175.52M704.39 148.471V258.023M561.289 643.833L418.188 628.543V212.302L461.83 202.569M561.289 643.833V488.708H502.801V415.969H461.83V202.569M461.83 202.569L583.11 175.52M583.11 175.52V278.212L704.39 258.023" stroke="#052C26" stroke-width="2.96891"/>
<ellipse cx="1223.65" cy="233.382" rx="8.90673" ry="11.8756" fill="#052C26"/>
<ellipse cx="1157.74" cy="229.819" rx="8.90673" ry="11.8756" fill="#052C26"/>
<ellipse cx="1091.83" cy="226.85" rx="8.90673" ry="11.8756" fill="#052C26"/>
<ellipse cx="1025.92" cy="223.288" rx="8.90673" ry="11.8756" fill="#4BBF94"/>
<ellipse cx="960.014" cy="220.319" rx="8.90673" ry="11.8756" fill="#4BBF94"/>
<ellipse cx="894.104" cy="217.35" rx="8.90673" ry="11.8756" fill="#4BBF94"/>
<ellipse cx="828.194" cy="214.382" rx="8.90673" ry="11.8756" fill="#4BBF94"/>
<ellipse cx="762.285" cy="211.413" rx="8.90673" ry="11.8756" fill="#4BBF94"/>
<path d="M992.968 249.494V621.285M992.968 249.494L1058.8 252.78M992.968 249.494L927.133 246.208M992.968 621.285L1058.8 618.95M992.968 621.285L927.133 623.619M861.297 242.923V625.954M861.297 242.923L927.133 246.208M861.297 242.923L795.462 239.637M861.297 625.954L927.133 623.619M861.297 625.954L795.462 628.288M1124.64 256.065V616.616M1124.64 256.065L1190.48 259.351M1124.64 256.065L1058.8 252.78M1124.64 616.616L1190.48 614.281M1124.64 616.616L1058.8 618.95M1190.48 614.281L1254.02 612.028C1255.3 611.983 1256.31 610.933 1256.31 609.654V264.896C1256.31 263.63 1255.32 262.587 1254.05 262.524L1190.48 259.351M1190.48 614.281V259.351M1058.8 252.78V618.95M927.133 623.619V246.208M795.462 239.637L732.119 236.476C730.763 236.408 729.626 237.49 729.626 238.848V622.322V628.162C729.626 629.507 730.741 630.583 732.085 630.536L795.462 628.288M795.462 239.637V628.288" stroke="#052C26" stroke-width="2.96891"/>
<path d="M732.297 240.263C732.297 239.587 732.861 239.048 733.537 239.078L792.025 241.646C792.66 241.673 793.161 242.196 793.161 242.832V625.313C793.161 625.955 792.65 626.481 792.008 626.5L733.224 628.212C732.555 628.231 732.001 627.694 732.002 627.024L732.297 240.263Z" fill="#2C443A"/>
<path d="M798.207 243.528C798.208 242.853 798.771 242.313 799.446 242.343L857.934 244.873C858.57 244.901 859.071 245.424 859.071 246.06V622.963C859.071 623.605 858.56 624.131 857.917 624.15L799.134 625.837C798.464 625.856 797.912 625.319 797.912 624.649L798.207 243.528Z" fill="#2C443A"/>
<path d="M864.117 247.09C864.118 246.414 864.681 245.876 865.355 245.904L923.844 248.396C924.479 248.423 924.981 248.946 924.981 249.582V620.614C924.981 621.257 924.469 621.783 923.827 621.801L865.043 623.462C864.374 623.481 863.822 622.944 863.822 622.274L864.117 247.09Z" fill="#2C443A"/>
<path d="M930.026 250.058C930.027 249.383 930.589 248.844 931.264 248.872L989.752 251.328C990.388 251.355 990.89 251.878 990.89 252.515V618.263C990.89 618.906 990.378 619.432 989.736 619.45L930.952 621.088C930.283 621.106 929.731 620.569 929.731 619.9L930.026 250.058Z" fill="#2C443A"/>
<path d="M995.937 253.619C995.937 252.945 996.499 252.406 997.173 252.434L1055.66 254.851C1056.3 254.877 1056.8 255.401 1056.8 256.037V615.914C1056.8 616.557 1056.29 617.084 1055.65 617.101L996.862 618.713C996.193 618.731 995.641 618.194 995.642 617.525L995.937 253.619Z" fill="#2C443A"/>
<path d="M1061.85 256.587C1061.85 255.913 1062.41 255.374 1063.08 255.402L1121.57 257.784C1122.21 257.809 1122.71 258.333 1122.71 258.97V613.563C1122.71 614.206 1122.2 614.733 1121.55 614.75L1062.77 616.338C1062.1 616.356 1061.55 615.819 1061.55 615.15L1061.85 256.587Z" fill="#2C443A"/>
<path d="M1127.76 260.149C1127.76 259.475 1128.32 258.937 1128.99 258.963L1187.48 261.306C1188.12 261.332 1188.62 261.855 1188.62 262.493V611.214C1188.62 611.858 1188.11 612.384 1187.46 612.401L1128.68 613.963C1128.01 613.981 1127.46 613.444 1127.46 612.775L1127.76 260.149Z" fill="#2C443A"/>
<path d="M1193.67 263.713C1193.67 263.039 1194.23 262.501 1194.9 262.527L1253.39 264.83C1254.03 264.856 1254.53 265.379 1254.53 266.017V608.867C1254.53 609.511 1254.02 610.038 1253.37 610.055L1194.59 611.59C1193.92 611.608 1193.37 611.071 1193.37 610.402L1193.67 263.713Z" fill="#2C443A"/>
<path d="M704.391 137.783L417 204.287V176.379L704.391 98L1277.09 137.783V176.379L704.391 137.783Z" fill="#40E796"/>
<path d="M704.39 137.783L417 204.287V176.379L704.39 98M704.39 137.783L1277.09 176.379V137.783L704.39 98M704.39 137.783V98" stroke="#0F4531" stroke-width="2.96891"/>
<path d="M761.029 304.135H760.152L762.689 297.225H763.553L766.09 304.135H765.213L763.148 298.318H763.094L761.029 304.135ZM761.353 301.436H764.889V302.178H761.353V301.436Z" fill="white"/>
<path d="M826.656 306.512V299.602H829.072C829.553 299.602 829.95 299.685 830.263 299.852C830.575 300.016 830.808 300.238 830.961 300.517C831.114 300.793 831.19 301.1 831.19 301.438C831.19 301.734 831.138 301.98 831.032 302.173C830.928 302.366 830.791 302.519 830.62 302.632C830.452 302.744 830.268 302.828 830.07 302.882V302.949C830.282 302.963 830.494 303.037 830.708 303.172C830.922 303.307 831.1 303.5 831.244 303.752C831.388 304.004 831.46 304.312 831.46 304.676C831.46 305.023 831.382 305.334 831.224 305.611C831.067 305.888 830.818 306.107 830.479 306.269C830.139 306.431 829.697 306.512 829.153 306.512H826.656ZM827.493 305.769H829.153C829.699 305.769 830.087 305.664 830.317 305.452C830.548 305.239 830.664 304.98 830.664 304.676C830.664 304.442 830.604 304.227 830.485 304.029C830.366 303.828 830.196 303.669 829.976 303.55C829.755 303.428 829.494 303.367 829.193 303.367H827.493V305.769ZM827.493 302.639H829.045C829.297 302.639 829.524 302.589 829.726 302.49C829.931 302.391 830.093 302.252 830.212 302.072C830.333 301.892 830.394 301.68 830.394 301.438C830.394 301.134 830.288 300.876 830.077 300.665C829.866 300.451 829.53 300.344 829.072 300.344H827.493V302.639Z" fill="white"/>
<path d="M895.75 304.73H894.913C894.864 304.49 894.777 304.278 894.654 304.096C894.532 303.914 894.384 303.761 894.208 303.637C894.035 303.511 893.843 303.417 893.631 303.354C893.42 303.291 893.2 303.259 892.97 303.259C892.552 303.259 892.173 303.365 891.833 303.576C891.496 303.788 891.227 304.099 891.027 304.511C890.829 304.923 890.73 305.427 890.73 306.026C890.73 306.624 890.829 307.129 891.027 307.541C891.227 307.952 891.496 308.264 891.833 308.475C892.173 308.687 892.552 308.792 892.97 308.792C893.2 308.792 893.42 308.761 893.631 308.698C893.843 308.635 894.035 308.541 894.208 308.418C894.384 308.292 894.532 308.138 894.654 307.956C894.777 307.771 894.864 307.56 894.913 307.321H895.75C895.687 307.674 895.572 307.99 895.406 308.269C895.24 308.548 895.033 308.785 894.785 308.981C894.538 309.175 894.26 309.322 893.952 309.423C893.646 309.524 893.319 309.575 892.97 309.575C892.381 309.575 891.857 309.431 891.398 309.143C890.939 308.855 890.578 308.446 890.315 307.915C890.052 307.384 889.92 306.754 889.92 306.026C889.92 305.297 890.052 304.667 890.315 304.136C890.578 303.606 890.939 303.196 891.398 302.908C891.857 302.62 892.381 302.477 892.97 302.477C893.319 302.477 893.646 302.527 893.952 302.628C894.26 302.73 894.538 302.878 894.785 303.074C895.033 303.267 895.24 303.503 895.406 303.782C895.572 304.059 895.687 304.375 895.75 304.73Z" fill="white"/>
<path d="M960.608 313.043H958.475V306.134H960.702C961.372 306.134 961.946 306.272 962.423 306.548C962.899 306.823 963.265 307.218 963.519 307.733C963.773 308.245 963.9 308.86 963.9 309.575C963.9 310.294 963.772 310.914 963.516 311.434C963.259 311.951 962.886 312.349 962.396 312.628C961.905 312.905 961.309 313.043 960.608 313.043ZM959.312 312.301H960.554C961.125 312.301 961.598 312.191 961.974 311.97C962.35 311.75 962.63 311.436 962.814 311.029C962.998 310.622 963.091 310.137 963.091 309.575C963.091 309.017 963 308.537 962.817 308.134C962.635 307.729 962.363 307.419 962.001 307.203C961.639 306.985 961.188 306.876 960.648 306.876H959.312V312.301Z" fill="white"/>
<path d="M1024.39 316.605V309.696H1028.56V310.438H1025.22V312.773H1028.34V313.515H1025.22V315.863H1028.61V316.605H1024.39Z" fill="white"/>
<path d="M1090.29 319.574V312.665H1094.44V313.407H1091.13V315.742H1094.13V316.484H1091.13V319.574H1090.29Z" fill="white"/>
<path d="M1160.33 318.386C1160.26 318.159 1160.16 317.956 1160.04 317.776C1159.92 317.594 1159.78 317.438 1159.61 317.31C1159.45 317.182 1159.26 317.084 1159.05 317.017C1158.84 316.949 1158.61 316.916 1158.36 316.916C1157.95 316.916 1157.58 317.021 1157.25 317.233C1156.91 317.444 1156.65 317.756 1156.45 318.167C1156.25 318.579 1156.15 319.084 1156.15 319.682C1156.15 320.28 1156.25 320.785 1156.45 321.197C1156.65 321.608 1156.92 321.92 1157.26 322.131C1157.61 322.343 1157.99 322.448 1158.42 322.448C1158.81 322.448 1159.16 322.364 1159.46 322.195C1159.77 322.025 1160 321.784 1160.17 321.473C1160.34 321.161 1160.43 320.793 1160.43 320.37L1160.69 320.424H1158.61V319.682H1161.24V320.424C1161.24 320.993 1161.12 321.488 1160.87 321.909C1160.63 322.329 1160.3 322.655 1159.88 322.887C1159.45 323.116 1158.97 323.231 1158.42 323.231C1157.81 323.231 1157.27 323.087 1156.81 322.799C1156.34 322.511 1155.98 322.102 1155.73 321.571C1155.47 321.04 1155.34 320.411 1155.34 319.682C1155.34 319.135 1155.41 318.644 1155.56 318.208C1155.71 317.769 1155.92 317.396 1156.19 317.088C1156.46 316.779 1156.78 316.543 1157.15 316.379C1157.52 316.215 1157.92 316.133 1158.36 316.133C1158.73 316.133 1159.07 316.188 1159.38 316.298C1159.7 316.406 1159.98 316.56 1160.23 316.76C1160.48 316.958 1160.69 317.196 1160.85 317.472C1161.02 317.747 1161.14 318.051 1161.2 318.386H1160.33Z" fill="white"/>
<path d="M1222.11 326.105V319.196H1222.95V322.273H1226.63V319.196H1227.47V326.105H1226.63V323.015H1222.95V326.105H1222.11Z" fill="white"/>
</svg>
