<svg width="4116" height="1365" viewBox="0 0 4116 1365" fill="none" xmlns="http://www.w3.org/2000/svg">
<rect width="4116" height="1365" fill="#A8F1DF"/>
<path d="M1782.21 1198.64C1782.21 1200.3 1780.93 1202.01 1778.29 1203.66C1775.67 1205.29 1771.86 1206.78 1767.1 1208.04C1757.59 1210.56 1744.42 1212.12 1729.86 1212.12C1715.29 1212.12 1702.13 1210.56 1692.62 1208.04C1687.86 1206.78 1684.04 1205.29 1681.43 1203.66C1678.79 1202.01 1677.51 1200.3 1677.51 1198.64C1677.51 1196.97 1678.79 1195.27 1681.43 1193.61C1684.04 1191.98 1687.86 1190.49 1692.62 1189.23C1702.13 1186.72 1715.29 1185.15 1729.86 1185.15C1744.42 1185.15 1757.59 1186.72 1767.1 1189.23C1771.86 1190.49 1775.67 1191.98 1778.29 1193.61C1780.93 1195.27 1782.21 1196.97 1782.21 1198.64Z" fill="#052C26" stroke="#0F4531" stroke-width="0.987752"/>
<path d="M1791.41 1186.81C1791.41 1188.76 1789.91 1190.77 1786.8 1192.71C1783.73 1194.64 1779.24 1196.39 1773.65 1197.87C1762.46 1200.83 1746.98 1202.66 1729.86 1202.66C1712.73 1202.66 1697.25 1200.83 1686.07 1197.87C1680.47 1196.39 1675.99 1194.64 1672.91 1192.71C1669.81 1190.77 1668.3 1188.76 1668.3 1186.81C1668.3 1184.86 1669.81 1182.85 1672.91 1180.91C1675.99 1178.98 1680.47 1177.23 1686.07 1175.75C1697.25 1172.79 1712.73 1170.96 1729.86 1170.96C1746.98 1170.96 1762.46 1172.79 1773.65 1175.75C1779.24 1177.23 1783.73 1178.98 1786.8 1180.91C1789.91 1182.85 1791.41 1184.86 1791.41 1186.81Z" fill="#052C26" stroke="#0F4531" stroke-width="1.16142"/>
<path d="M1799.54 1170.38C1799.54 1172.63 1797.81 1174.92 1794.29 1177.12C1790.81 1179.3 1785.72 1181.28 1779.39 1182.96C1766.74 1186.3 1749.22 1188.38 1729.86 1188.38C1710.49 1188.38 1692.97 1186.3 1680.32 1182.96C1673.99 1181.28 1668.91 1179.3 1665.42 1177.12C1661.9 1174.92 1660.17 1172.63 1660.17 1170.38C1660.17 1168.13 1661.9 1165.84 1665.42 1163.64C1668.91 1161.46 1673.99 1159.47 1680.32 1157.8C1692.97 1154.45 1710.49 1152.38 1729.86 1152.38C1749.22 1152.38 1766.74 1154.45 1779.39 1157.8C1785.72 1159.47 1790.81 1161.46 1794.29 1163.64C1797.81 1165.84 1799.54 1168.13 1799.54 1170.38Z" fill="#052C26" stroke="#0F4531" stroke-width="1.16142"/>
<path d="M875.135 1239.29C875.135 1240.95 873.854 1242.66 871.214 1244.31C868.6 1245.94 864.784 1247.43 860.025 1248.69C850.514 1251.21 837.347 1252.77 822.784 1252.77C808.221 1252.77 795.055 1251.21 785.544 1248.69C780.784 1247.43 776.968 1245.94 774.354 1244.31C771.714 1242.66 770.433 1240.95 770.433 1239.29C770.433 1237.63 771.714 1235.92 774.354 1234.26C776.968 1232.63 780.784 1231.14 785.544 1229.88C795.055 1227.37 808.221 1225.8 822.784 1225.8C837.347 1225.8 850.514 1227.37 860.025 1229.88C864.784 1231.14 868.6 1232.63 871.214 1234.26C873.854 1235.92 875.135 1237.63 875.135 1239.29Z" fill="#052C26" stroke="#0F4531" stroke-width="0.987752"/>
<path d="M884.34 1227.46C884.34 1229.41 882.834 1231.42 879.73 1233.36C876.656 1235.29 872.169 1237.04 866.573 1238.52C855.39 1241.48 839.908 1243.31 822.785 1243.31C805.661 1243.31 790.18 1241.48 778.996 1238.52C773.4 1237.04 768.913 1235.29 765.839 1233.36C762.735 1231.42 761.229 1229.41 761.229 1227.46C761.229 1225.51 762.735 1223.5 765.839 1221.56C768.913 1219.63 773.4 1217.88 778.996 1216.4C790.18 1213.44 805.661 1211.61 822.785 1211.61C839.908 1211.61 855.39 1213.44 866.573 1216.4C872.169 1217.88 876.656 1219.63 879.73 1221.56C882.834 1223.5 884.34 1225.51 884.34 1227.46Z" fill="#052C26" stroke="#0F4531" stroke-width="1.16142"/>
<path d="M892.469 1211.03C892.469 1213.28 890.736 1215.57 887.22 1217.77C883.734 1219.95 878.652 1221.93 872.321 1223.61C859.666 1226.95 842.152 1229.03 822.784 1229.03C803.415 1229.03 785.901 1226.95 773.247 1223.61C766.915 1221.93 761.833 1219.95 758.347 1217.77C754.832 1215.57 753.098 1213.28 753.098 1211.03C753.098 1208.78 754.832 1206.49 758.347 1204.29C761.833 1202.11 766.915 1200.12 773.247 1198.45C785.901 1195.1 803.415 1193.03 822.784 1193.03C842.152 1193.03 859.666 1195.1 872.321 1198.45C878.652 1200.12 883.734 1202.11 887.22 1204.29C890.736 1206.49 892.469 1208.78 892.469 1211.03Z" fill="#052C26" stroke="#0F4531" stroke-width="1.16142"/>
<path d="M390.821 1198.64C390.821 1200.3 389.54 1202.01 386.9 1203.66C384.285 1205.29 380.47 1206.78 375.71 1208.04C366.199 1210.56 353.032 1212.12 338.47 1212.12C323.907 1212.12 310.74 1210.56 301.229 1208.04C296.47 1206.78 292.654 1205.29 290.04 1203.66C287.4 1202.01 286.119 1200.3 286.119 1198.64C286.119 1196.97 287.4 1195.27 290.04 1193.61C292.654 1191.98 296.47 1190.49 301.229 1189.23C310.74 1186.72 323.907 1185.15 338.47 1185.15C353.032 1185.15 366.199 1186.72 375.71 1189.23C380.47 1190.49 384.285 1191.98 386.9 1193.61C389.54 1195.27 390.821 1196.97 390.821 1198.64Z" fill="#052C26" stroke="#0F4531" stroke-width="0.987752"/>
<path d="M400.025 1186.81C400.025 1188.76 398.52 1190.77 395.415 1192.71C392.341 1194.64 387.854 1196.39 382.258 1197.87C371.075 1200.83 355.593 1202.66 338.47 1202.66C321.347 1202.66 305.865 1200.83 294.682 1197.87C289.086 1196.39 284.599 1194.64 281.525 1192.71C278.421 1190.77 276.915 1188.76 276.915 1186.81C276.915 1184.86 278.421 1182.85 281.525 1180.91C284.599 1178.98 289.086 1177.23 294.682 1175.75C305.865 1172.79 321.347 1170.96 338.47 1170.96C355.593 1170.96 371.075 1172.79 382.258 1175.75C387.854 1177.23 392.341 1178.98 395.415 1180.91C398.52 1182.85 400.025 1184.86 400.025 1186.81Z" fill="#052C26" stroke="#0F4531" stroke-width="1.16142"/>
<path d="M408.155 1170.38C408.155 1172.63 406.421 1174.92 402.906 1177.12C399.42 1179.3 394.338 1181.28 388.006 1182.96C375.352 1186.3 357.837 1188.38 338.469 1188.38C319.101 1188.38 301.587 1186.3 288.932 1182.96C282.6 1181.28 277.518 1179.3 274.033 1177.12C270.517 1174.92 268.784 1172.63 268.784 1170.38C268.784 1168.13 270.517 1165.84 274.033 1163.64C277.518 1161.46 282.6 1159.47 288.932 1157.8C301.587 1154.45 319.101 1152.38 338.469 1152.38C357.837 1152.38 375.352 1154.45 388.006 1157.8C394.338 1159.47 399.42 1161.46 402.906 1163.64C406.421 1165.84 408.155 1168.13 408.155 1170.38Z" fill="#052C26" stroke="#0F4531" stroke-width="1.16142"/>
<path d="M186.324 1147.73V333.574L271.689 314.535L508.909 261.628L746.13 208.721L1865.16 279.567V1161.09L906.406 1200.89L746.13 1207.54L466.227 1177.64L186.324 1147.73Z" fill="#12413A"/>
<path d="M746.13 1207.54L906.406 1200.89L1865.16 1161.09V279.567L746.13 208.721M746.13 1207.54L466.227 1177.64M746.13 1207.54V423.003M746.13 208.721L508.909 261.628M746.13 208.721V423.003M466.227 1177.64L186.324 1147.73V333.574L271.689 314.535M466.227 1177.64V874.216H351.827V731.941H271.689V314.535M271.689 314.535L508.909 261.628M508.909 261.628V462.491L746.13 423.003" stroke="#052C26" stroke-width="5.80711"/>
<ellipse cx="1761.79" cy="374.803" rx="17.4213" ry="23.2284" fill="#052C26"/>
<ellipse cx="1632.87" cy="367.834" rx="17.4213" ry="23.2284" fill="#052C26"/>
<ellipse cx="1503.96" cy="362.029" rx="17.4213" ry="23.2284" fill="#052C26"/>
<ellipse cx="1375.04" cy="355.059" rx="17.4213" ry="23.2284" fill="#4BBF94"/>
<ellipse cx="1246.12" cy="349.254" rx="17.4213" ry="23.2284" fill="#4BBF94"/>
<ellipse cx="1117.2" cy="343.445" rx="17.4213" ry="23.2284" fill="#4BBF94"/>
<ellipse cx="988.285" cy="337.639" rx="17.4213" ry="23.2284" fill="#4BBF94"/>
<ellipse cx="859.367" cy="331.832" rx="17.4213" ry="23.2284" fill="#4BBF94"/>
<path d="M1310.58 406.317V1133.53M1310.58 406.317L1439.35 412.744M1310.58 406.317L1181.81 399.891M1310.58 1133.53L1439.35 1128.96M1310.58 1133.53L1181.81 1138.1M1053.03 393.464V1142.66M1053.03 393.464L1181.81 399.891M1053.03 393.464L924.261 387.038M1053.03 1142.66L1181.81 1138.1M1053.03 1142.66L924.261 1147.23M1568.12 419.171V1124.4M1568.12 419.171L1696.9 425.597M1568.12 419.171L1439.35 412.744M1568.12 1124.4L1696.9 1119.83M1568.12 1124.4L1439.35 1128.96M1696.9 1119.83L1821.19 1115.42C1823.69 1115.34 1825.67 1113.28 1825.67 1110.78V436.443C1825.67 433.968 1823.73 431.927 1821.26 431.803L1696.9 425.597M1696.9 1119.83V425.597M1439.35 412.744V1128.96M1181.81 1138.1V399.891M924.261 387.038L800.366 380.855C797.712 380.722 795.488 382.838 795.488 385.495V1135.56V1146.98C795.488 1149.61 797.67 1151.72 800.299 1151.63L924.261 1147.23M924.261 387.038V1147.23" stroke="#052C26" stroke-width="5.80711"/>
<path d="M800.712 388.263C800.713 386.941 801.816 385.886 803.136 385.944L917.538 390.967C918.78 391.021 919.759 392.044 919.759 393.287V1141.41C919.759 1142.67 918.76 1143.7 917.504 1143.73L802.525 1147.08C801.216 1147.12 800.134 1146.07 800.135 1144.76L800.712 388.263Z" fill="#2C443A"/>
<path d="M929.63 394.648C929.631 393.327 930.733 392.272 932.053 392.329L1046.45 397.279C1047.7 397.333 1048.68 398.356 1048.68 399.6V1136.81C1048.68 1138.07 1047.68 1139.1 1046.42 1139.13L931.442 1142.43C930.133 1142.47 929.052 1141.42 929.053 1140.11L929.63 394.648Z" fill="#2C443A"/>
<path d="M1058.55 401.615C1058.55 400.294 1059.65 399.24 1060.97 399.296L1175.37 404.17C1176.62 404.223 1177.6 405.246 1177.6 406.49V1132.22C1177.6 1133.48 1176.6 1134.51 1175.34 1134.54L1060.36 1137.79C1059.05 1137.83 1057.97 1136.78 1057.97 1135.47L1058.55 401.615Z" fill="#2C443A"/>
<path d="M1187.47 407.421C1187.47 406.1 1188.57 405.046 1189.89 405.102L1304.29 409.906C1305.53 409.958 1306.51 410.982 1306.51 412.227V1127.62C1306.51 1128.88 1305.51 1129.91 1304.26 1129.94L1189.28 1133.15C1187.97 1133.18 1186.89 1132.13 1186.89 1130.82L1187.47 407.421Z" fill="#2C443A"/>
<path d="M1316.39 414.388C1316.39 413.068 1317.49 412.014 1318.8 412.069L1433.21 416.796C1434.45 416.848 1435.43 417.871 1435.43 419.117V1123.03C1435.43 1124.28 1434.43 1125.31 1433.17 1125.35L1318.2 1128.5C1316.89 1128.54 1315.81 1127.49 1315.81 1126.18L1316.39 414.388Z" fill="#2C443A"/>
<path d="M1445.3 420.195C1445.3 418.876 1446.4 417.822 1447.72 417.876L1562.12 422.534C1563.37 422.585 1564.35 423.609 1564.35 424.855V1118.43C1564.35 1119.69 1563.35 1120.72 1562.09 1120.75L1447.11 1123.86C1445.8 1123.89 1444.73 1122.84 1444.73 1121.53L1445.3 420.195Z" fill="#2C443A"/>
<path d="M1574.22 427.16C1574.22 425.841 1575.32 424.788 1576.64 424.841L1691.04 429.423C1692.28 429.473 1693.27 430.497 1693.27 431.744V1113.83C1693.27 1115.09 1692.26 1116.12 1691.01 1116.16L1576.03 1119.21C1574.72 1119.25 1573.64 1118.2 1573.64 1116.89L1574.22 427.16Z" fill="#2C443A"/>
<path d="M1703.14 434.129C1703.14 432.811 1704.24 431.758 1705.55 431.81L1819.96 436.315C1821.2 436.364 1822.19 437.389 1822.19 438.636V1109.24C1822.19 1110.5 1821.18 1111.53 1819.92 1111.56L1704.95 1114.57C1703.64 1114.6 1702.56 1113.55 1702.56 1112.24L1703.14 434.129Z" fill="#2C443A"/>
<path d="M746.128 187.815L184 317.895V263.308L746.128 110L1866.32 187.815V263.308L746.128 187.815Z" fill="#40E796"/>
<path d="M746.128 187.815L184 317.895V263.308L746.128 110M746.128 187.815L1866.32 263.308V187.815L746.128 110M746.128 187.815V110" stroke="#0F4531" stroke-width="5.80711"/>
<path d="M856.914 513.59H855.198L860.16 500.075H861.85L866.812 513.59H865.096L861.058 502.213H860.952L856.914 513.59ZM857.547 508.311H864.463V509.762H857.547V508.311Z" fill="white"/>
<path d="M985.277 518.24V504.726H990.002C990.944 504.726 991.72 504.888 992.331 505.214C992.943 505.535 993.398 505.968 993.697 506.514C993.997 507.055 994.146 507.655 994.146 508.315C994.146 508.896 994.043 509.376 993.836 509.754C993.634 510.132 993.365 510.431 993.031 510.651C992.701 510.871 992.342 511.034 991.955 511.14V511.272C992.369 511.298 992.785 511.443 993.203 511.707C993.62 511.971 993.97 512.35 994.252 512.842C994.533 513.335 994.674 513.938 994.674 514.65C994.674 515.328 994.52 515.937 994.212 516.478C993.904 517.019 993.418 517.448 992.754 517.765C992.09 518.082 991.225 518.24 990.16 518.24H985.277ZM986.914 516.788H990.16C991.229 516.788 991.988 516.582 992.437 516.168C992.89 515.75 993.117 515.244 993.117 514.65C993.117 514.193 993 513.771 992.767 513.383C992.534 512.992 992.202 512.679 991.771 512.446C991.339 512.209 990.829 512.09 990.24 512.09H986.914V516.788ZM986.914 510.665H989.949C990.442 510.665 990.886 510.568 991.282 510.374C991.683 510.181 991.999 509.908 992.233 509.556C992.47 509.204 992.589 508.79 992.589 508.315C992.589 507.721 992.382 507.218 991.969 506.804C991.555 506.386 990.9 506.177 990.002 506.177H986.914V510.665Z" fill="white"/>
<path d="M1120.42 514.754H1118.79C1118.69 514.283 1118.52 513.869 1118.28 513.513C1118.04 513.157 1117.75 512.857 1117.41 512.615C1117.07 512.369 1116.69 512.184 1116.28 512.061C1115.86 511.938 1115.43 511.876 1114.98 511.876C1114.17 511.876 1113.42 512.083 1112.76 512.497C1112.1 512.91 1111.57 513.52 1111.18 514.325C1110.8 515.13 1110.6 516.117 1110.6 517.288C1110.6 518.458 1110.8 519.445 1111.18 520.251C1111.57 521.056 1112.1 521.665 1112.76 522.078C1113.42 522.492 1114.17 522.699 1114.98 522.699C1115.43 522.699 1115.86 522.637 1116.28 522.514C1116.69 522.391 1117.07 522.208 1117.41 521.966C1117.75 521.72 1118.04 521.419 1118.28 521.062C1118.52 520.701 1118.69 520.288 1118.79 519.822H1120.42C1120.3 520.512 1120.07 521.13 1119.75 521.676C1119.42 522.221 1119.02 522.686 1118.53 523.068C1118.05 523.447 1117.51 523.735 1116.9 523.933C1116.31 524.131 1115.67 524.23 1114.98 524.23C1113.83 524.23 1112.81 523.948 1111.91 523.385C1111.01 522.822 1110.31 522.021 1109.79 520.983C1109.28 519.945 1109.02 518.713 1109.02 517.288C1109.02 515.862 1109.28 514.63 1109.79 513.592C1110.31 512.554 1111.01 511.753 1111.91 511.19C1112.81 510.627 1113.83 510.345 1114.98 510.345C1115.67 510.345 1116.31 510.444 1116.9 510.642C1117.51 510.84 1118.05 511.131 1118.53 511.513C1119.02 511.892 1119.42 512.354 1119.75 512.899C1120.07 513.44 1120.3 514.058 1120.42 514.754Z" fill="white"/>
<path d="M1247.28 531.014H1243.11V517.499H1247.47C1248.78 517.499 1249.9 517.769 1250.83 518.311C1251.77 518.847 1252.48 519.619 1252.98 520.627C1253.48 521.63 1253.72 522.831 1253.72 524.23C1253.72 525.638 1253.47 526.85 1252.97 527.866C1252.47 528.878 1251.74 529.656 1250.78 530.202C1249.82 530.743 1248.66 531.014 1247.28 531.014ZM1244.75 529.562H1247.18C1248.3 529.562 1249.22 529.346 1249.96 528.915C1250.69 528.484 1251.24 527.87 1251.6 527.074C1251.96 526.278 1252.14 525.33 1252.14 524.23C1252.14 523.139 1251.96 522.2 1251.61 521.412C1251.25 520.62 1250.72 520.013 1250.01 519.591C1249.3 519.164 1248.42 518.951 1247.36 518.951H1244.75V529.562Z" fill="white"/>
<path d="M1372.03 537.982V524.468H1380.19V525.919H1373.67V530.486H1379.77V531.938H1373.67V536.531H1380.29V537.982H1372.03Z" fill="white"/>
<path d="M1500.95 543.789V530.274H1509.05V531.726H1502.58V536.293H1508.44V537.744H1502.58V543.789H1500.95Z" fill="white"/>
<path d="M1637.94 541.466C1637.8 541.022 1637.61 540.624 1637.37 540.272C1637.14 539.916 1636.86 539.612 1636.53 539.361C1636.21 539.111 1635.85 538.919 1635.44 538.787C1635.03 538.655 1634.58 538.589 1634.09 538.589C1633.29 538.589 1632.56 538.796 1631.91 539.21C1631.25 539.623 1630.73 540.232 1630.34 541.038C1629.95 541.843 1629.76 542.83 1629.76 544C1629.76 545.171 1629.96 546.158 1630.35 546.963C1630.74 547.768 1631.27 548.378 1631.94 548.791C1632.61 549.205 1633.36 549.412 1634.2 549.412C1634.97 549.412 1635.65 549.247 1636.24 548.917C1636.83 548.582 1637.3 548.112 1637.63 547.505C1637.96 546.893 1638.13 546.174 1638.13 545.347L1638.63 545.452H1634.56V544H1639.71V545.452C1639.71 546.565 1639.47 547.533 1639 548.356C1638.53 549.178 1637.88 549.816 1637.05 550.269C1636.22 550.718 1635.27 550.943 1634.2 550.943C1633 550.943 1631.95 550.661 1631.04 550.098C1630.14 549.535 1629.44 548.734 1628.93 547.696C1628.43 546.658 1628.18 545.426 1628.18 544C1628.18 542.931 1628.32 541.97 1628.61 541.117C1628.9 540.259 1629.31 539.529 1629.83 538.926C1630.36 538.323 1630.99 537.861 1631.71 537.54C1632.43 537.219 1633.22 537.058 1634.09 537.058C1634.8 537.058 1635.47 537.166 1636.08 537.382C1636.7 537.593 1637.26 537.894 1637.74 538.286C1638.23 538.673 1638.63 539.137 1638.96 539.678C1639.29 540.215 1639.51 540.811 1639.63 541.466H1637.94Z" fill="white"/>
<path d="M1758.78 556.564V543.05H1760.42V549.068H1767.62V543.05H1769.26V556.564H1767.62V550.52H1760.42V556.564H1758.78Z" fill="white"/>
<path d="M2182.78 597.829C2182.78 583.747 2183 569.723 2183.46 555.756C2183.91 541.674 2184.59 527.48 2185.5 513.172C2178.12 514.421 2171.19 515.216 2164.72 515.556C2158.36 515.783 2150.58 515.897 2141.38 515.897V496.138H2245.8V515.897C2236.49 515.897 2228.6 515.783 2222.12 515.556C2215.76 515.216 2208.89 514.421 2201.51 513.172C2202.42 527.593 2203.1 541.845 2203.56 555.926C2204.01 569.893 2204.24 583.861 2204.24 597.829V629H2182.78V597.829ZM2260.4 492.731H2280.5C2280.5 494.321 2280.5 495.968 2280.5 497.671C2280.5 507.778 2280.27 517.26 2279.82 526.117C2279.36 534.861 2278.57 543.832 2277.43 553.03H2280.16C2283.68 545.422 2288.11 539.971 2293.44 536.678C2298.78 533.271 2304.68 531.568 2311.16 531.568C2317.18 531.568 2322.68 532.931 2327.68 535.656C2332.79 538.268 2336.88 542.413 2339.94 548.09C2343.12 553.768 2344.71 560.866 2344.71 569.382V629H2324.44V578.24C2324.44 572.448 2323.76 567.566 2322.4 563.591C2321.04 559.617 2318.82 556.494 2315.76 554.223C2312.8 551.838 2308.94 550.646 2304.17 550.646C2299.63 550.646 2295.54 551.781 2291.91 554.052C2288.39 556.323 2285.61 559.617 2283.56 563.932C2281.52 568.133 2280.5 573.13 2280.5 578.921V629H2260.4V492.731ZM2411.09 631.896C2401.78 631.896 2393.43 629.852 2386.05 625.764C2378.79 621.562 2373.05 615.714 2368.85 608.219C2364.65 600.611 2362.55 591.867 2362.55 581.987C2362.55 572.335 2364.53 563.705 2368.51 556.096C2372.6 548.374 2378.22 542.356 2385.37 538.041C2392.53 533.725 2400.65 531.568 2409.73 531.568C2417.57 531.568 2424.89 533.328 2431.7 536.848C2438.52 540.255 2444.02 545.706 2448.23 553.201C2452.54 560.582 2454.7 569.893 2454.7 581.136V586.927H2383.16C2383.73 592.605 2385.26 597.431 2387.76 601.406C2390.26 605.38 2393.55 608.389 2397.64 610.433C2401.72 612.477 2406.21 613.499 2411.09 613.499C2416.77 613.499 2421.82 611.966 2426.25 608.9C2430.68 605.721 2434.03 601.406 2436.3 595.955L2455.38 603.45C2452.09 611.966 2446.47 618.837 2438.52 624.06C2430.68 629.284 2421.54 631.896 2411.09 631.896ZM2433.92 571.597C2433.46 566.487 2432.04 562.285 2429.66 558.992C2427.39 555.699 2424.49 553.314 2420.97 551.838C2417.57 550.248 2413.76 549.453 2409.56 549.453C2405.02 549.453 2400.99 550.418 2397.47 552.349C2393.95 554.166 2391.05 556.778 2388.78 560.184C2386.62 563.477 2385.09 567.282 2384.18 571.597H2433.92ZM2518.62 496.138H2542.47C2551.55 513.285 2559.84 530.489 2567.33 547.75C2574.94 564.897 2581.81 582.669 2587.95 601.065H2591.69C2598.17 582.555 2605.15 564.727 2612.64 547.579C2620.25 530.319 2628.49 513.172 2637.34 496.138H2661.19V629H2639.39C2639.39 625.139 2639.39 621.278 2639.39 617.417C2639.39 599.362 2639.61 584.031 2640.07 571.426C2640.52 558.708 2641.83 545.081 2643.99 530.546H2641.26C2636.38 542.129 2631.49 553.314 2626.61 564.102C2621.73 574.89 2616.45 586.473 2610.77 598.851C2608.05 604.869 2605.72 609.979 2603.79 614.181C2601.86 618.382 2599.59 623.322 2596.97 629H2582.67C2580.05 623.095 2577.73 618.042 2575.68 613.84C2573.75 609.638 2571.42 604.528 2568.7 598.51C2563.13 586.132 2557.91 574.606 2553.03 563.932C2548.26 553.257 2543.43 542.129 2538.55 530.546H2535.82C2537.98 544.627 2539.29 557.97 2539.74 570.575C2540.19 583.18 2540.42 598.737 2540.42 617.247C2540.42 621.108 2540.42 625.025 2540.42 629H2518.62V496.138ZM2731.14 631.896C2721.71 631.896 2713.31 629.795 2705.93 625.593C2698.55 621.278 2692.81 615.373 2688.72 607.878C2684.64 600.27 2682.59 591.583 2682.59 581.817C2682.59 572.051 2684.64 563.364 2688.72 555.756C2692.81 548.147 2698.55 542.242 2705.93 538.041C2713.31 533.725 2721.71 531.568 2731.14 531.568C2740.56 531.568 2748.91 533.725 2756.18 538.041C2763.56 542.242 2769.29 548.147 2773.38 555.756C2777.47 563.364 2779.51 572.051 2779.51 581.817C2779.51 591.583 2777.47 600.27 2773.38 607.878C2769.29 615.373 2763.56 621.278 2756.18 625.593C2748.91 629.795 2740.56 631.896 2731.14 631.896ZM2731.14 612.818C2736.48 612.818 2741.19 611.512 2745.28 608.9C2749.48 606.175 2752.71 602.484 2754.98 597.829C2757.37 593.173 2758.56 587.836 2758.56 581.817C2758.56 575.798 2757.37 570.461 2754.98 565.805C2752.71 561.036 2749.48 557.345 2745.28 554.734C2741.19 552.008 2736.48 550.646 2731.14 550.646C2725.8 550.646 2721.03 552.008 2716.83 554.734C2712.74 557.345 2709.51 561.036 2707.12 565.805C2704.85 570.461 2703.71 575.798 2703.71 581.817C2703.71 587.836 2704.85 593.173 2707.12 597.829C2709.51 602.484 2712.74 606.175 2716.83 608.9C2721.03 611.512 2725.8 612.818 2731.14 612.818ZM2835.82 631.896C2827.3 631.896 2819.75 629.738 2813.16 625.423C2806.58 621.108 2801.47 615.146 2797.83 607.538C2794.31 599.929 2792.55 591.299 2792.55 581.647C2792.55 571.54 2794.43 562.739 2798.17 555.245C2802.04 547.636 2807.26 541.788 2813.85 537.7C2820.43 533.612 2827.7 531.568 2835.65 531.568C2842.92 531.568 2849.1 533.442 2854.21 537.189C2859.44 540.936 2863.47 546.671 2866.31 554.393H2869.03C2867.9 543.605 2867.16 533.669 2866.82 524.584C2866.59 515.386 2866.54 504.995 2866.65 493.413V492.731H2886.92V599.362C2886.92 606.629 2887.15 612.307 2887.6 616.395C2888.17 620.483 2888.96 624.685 2889.99 629H2869.89C2869.89 628.886 2869.83 628.773 2869.72 628.659C2869.72 628.432 2869.72 628.262 2869.72 628.148C2869.03 625.196 2868.64 622.527 2868.52 620.143C2868.41 617.644 2868.69 614.635 2869.37 611.115H2866.65C2863.7 618.382 2859.55 623.663 2854.21 626.956C2848.88 630.249 2842.75 631.896 2835.82 631.896ZM2840.08 612.648C2845.19 612.648 2849.79 611.342 2853.87 608.73C2857.96 606.005 2861.2 602.314 2863.58 597.658C2865.97 592.889 2867.16 587.495 2867.16 581.476C2867.16 575.458 2865.97 570.121 2863.58 565.465C2861.2 560.809 2857.91 557.175 2853.7 554.563C2849.62 551.951 2845.07 550.646 2840.08 550.646C2834.97 550.646 2830.37 552.008 2826.28 554.734C2822.31 557.345 2819.18 560.979 2816.91 565.635C2814.64 570.291 2813.5 575.628 2813.5 581.647C2813.5 587.552 2814.64 592.832 2816.91 597.488C2819.18 602.144 2822.31 605.834 2826.28 608.56C2830.37 611.285 2834.97 612.648 2840.08 612.648ZM2945.51 631.896C2938.69 631.896 2932.73 630.533 2927.62 627.808C2922.62 624.969 2918.65 620.71 2915.7 615.032C2912.86 609.355 2911.44 602.257 2911.44 593.74V534.293H2931.71V586.586C2931.71 595.217 2933.41 601.746 2936.82 606.175C2940.34 610.604 2945.16 612.818 2951.3 612.818C2955.84 612.818 2959.81 611.569 2963.22 609.071C2966.63 606.572 2969.24 603.279 2971.06 599.191C2972.87 595.103 2973.78 590.674 2973.78 585.905V534.293H2994.05V599.362C2994.05 606.629 2994.28 612.307 2994.73 616.395C2995.3 620.483 2996.1 624.685 2997.12 629H2977.02C2976.9 628.659 2976.79 628.319 2976.68 627.978C2975.88 625.025 2975.48 622.3 2975.48 619.802C2975.48 617.19 2976.11 614.01 2977.36 610.263H2974.63C2971.91 617.871 2968.16 623.379 2963.39 626.786C2958.62 630.192 2952.66 631.896 2945.51 631.896ZM3019.76 492.731H3039.86V629H3019.76V492.731ZM3090.2 631.896C3084.64 631.896 3079.47 630.93 3074.7 629C3069.93 626.956 3066.07 623.947 3063.12 619.972C3060.28 615.884 3058.86 610.944 3058.86 605.153C3058.86 599.475 3060.22 594.762 3062.95 591.015C3065.79 587.154 3069.54 584.145 3074.19 581.987C3078.85 579.716 3084.3 577.899 3090.54 576.537C3092.93 575.969 3095.54 575.458 3098.38 575.004C3103.94 573.868 3108.09 572.903 3110.81 572.108C3113.65 571.199 3115.75 570.064 3117.12 568.701C3118.48 567.225 3119.16 565.238 3119.16 562.739C3119.16 560.128 3118.42 557.686 3116.95 555.415C3115.58 553.144 3113.54 551.384 3110.81 550.134C3108.09 548.772 3104.97 548.09 3101.45 548.09C3096.56 548.09 3092.3 549.51 3088.67 552.349C3085.04 555.188 3082.42 559.276 3080.83 564.613L3061.93 558.14C3064.65 549.056 3069.65 542.356 3076.92 538.041C3084.3 533.725 3092.82 531.568 3102.47 531.568C3109.74 531.568 3116.15 532.817 3121.72 535.315C3127.39 537.7 3131.82 541.391 3135 546.387C3138.18 551.27 3139.77 557.345 3139.77 564.613V599.362C3139.77 600.156 3139.77 601.008 3139.77 601.917C3139.88 608.276 3140.17 613.386 3140.62 617.247C3141.08 621.108 3141.82 625.025 3142.84 629H3122.57C3121.77 626.275 3121.32 623.606 3121.2 620.994C3121.2 618.269 3121.83 614.805 3123.08 610.604H3120.35C3117.74 617.644 3113.82 622.981 3108.6 626.615C3103.38 630.136 3097.24 631.896 3090.2 631.896ZM3095.48 616.225C3100.14 616.225 3104.28 615.032 3107.92 612.648C3111.55 610.263 3114.33 607.254 3116.26 603.62C3118.31 599.986 3119.33 596.352 3119.33 592.718V582.839C3116.95 584.202 3115.02 585.224 3113.54 585.905C3112.18 586.473 3110.13 587.097 3107.41 587.779C3105.82 588.233 3103.26 588.858 3099.74 589.652C3096.11 590.447 3092.99 591.413 3090.37 592.548C3087.76 593.57 3085.55 595.103 3083.73 597.147C3081.91 599.191 3081.01 601.633 3081.01 604.472C3081.01 608.219 3082.31 611.115 3084.92 613.159C3087.65 615.203 3091.17 616.225 3095.48 616.225ZM3164.31 534.293H3184.07C3184.07 535.202 3184.07 536.167 3184.07 537.189C3184.18 540.141 3184.12 542.98 3183.9 545.706C3183.67 548.431 3183.05 551.781 3182.02 555.756H3184.75C3187.13 547.92 3190.71 541.958 3195.48 537.87C3200.36 533.669 3206.1 531.568 3212.68 531.568C3216.09 531.568 3219.27 532.136 3222.22 533.271V555.756C3220.52 555.188 3218.59 554.734 3216.43 554.393C3214.39 554.052 3212.46 553.882 3210.64 553.882C3204.05 553.882 3198.77 555.642 3194.8 559.162C3190.94 562.569 3188.27 566.827 3186.79 571.937C3185.32 576.934 3184.52 582.555 3184.41 588.801V589.652V629H3164.31V534.293ZM2140.87 714.138H2165.06C2165.52 715.387 2165.91 716.636 2166.25 717.885C2172.16 738.099 2177.1 756.154 2181.07 772.052C2185.16 787.837 2188.97 804.757 2192.49 822.812H2195.21C2199.41 804.189 2204.75 783.465 2211.22 760.64C2213.38 752.804 2215.59 745.026 2217.87 737.304C2220.25 729.468 2222.58 721.746 2224.85 714.138H2249.21C2251.48 721.519 2253.3 727.424 2254.66 731.853C2259.2 747.183 2263.52 762.457 2267.6 777.673C2271.81 792.776 2275.61 808.163 2279.02 823.834H2281.74C2282.76 819.292 2283.5 815.885 2283.96 813.614C2284.41 811.343 2285.09 807.936 2286 803.394C2289.29 788.177 2292.81 773.358 2296.56 758.936C2300.42 744.515 2304.57 729.582 2309 714.138H2333.35L2294.01 847H2267.43C2261.19 827.468 2255.79 809.696 2251.25 793.685C2246.82 777.56 2242.73 760.299 2238.99 741.903H2235.24C2234.56 745.537 2233.65 749.681 2232.51 754.337C2228.88 770.917 2225.02 786.474 2220.93 801.009C2216.84 815.545 2212.19 830.875 2206.96 847H2180.22L2140.87 714.138ZM2382.48 849.896C2373.06 849.896 2364.65 847.795 2357.27 843.593C2349.89 839.278 2344.16 833.373 2340.07 825.878C2335.98 818.27 2333.94 809.583 2333.94 799.817C2333.94 790.051 2335.98 781.364 2340.07 773.756C2344.16 766.147 2349.89 760.242 2357.27 756.041C2364.65 751.725 2373.06 749.568 2382.48 749.568C2391.91 749.568 2400.25 751.725 2407.52 756.041C2414.9 760.242 2420.64 766.147 2424.73 773.756C2428.81 781.364 2430.86 790.051 2430.86 799.817C2430.86 809.583 2428.81 818.27 2424.73 825.878C2420.64 833.373 2414.9 839.278 2407.52 843.593C2400.25 847.795 2391.91 849.896 2382.48 849.896ZM2382.48 830.818C2387.82 830.818 2392.53 829.512 2396.62 826.9C2400.82 824.175 2404.06 820.484 2406.33 815.829C2408.71 811.173 2409.91 805.836 2409.91 799.817C2409.91 793.798 2408.71 788.461 2406.33 783.805C2404.06 779.036 2400.82 775.345 2396.62 772.734C2392.53 770.008 2387.82 768.646 2382.48 768.646C2377.14 768.646 2372.38 770.008 2368.17 772.734C2364.09 775.345 2360.85 779.036 2358.46 783.805C2356.19 788.461 2355.06 793.798 2355.06 799.817C2355.06 805.836 2356.19 811.173 2358.46 815.829C2360.85 820.484 2364.09 824.175 2368.17 826.9C2372.38 829.512 2377.14 830.818 2382.48 830.818ZM2450.03 752.293H2469.79C2469.79 753.202 2469.79 754.167 2469.79 755.189C2469.9 758.141 2469.84 760.98 2469.62 763.706C2469.39 766.431 2468.77 769.781 2467.74 773.756H2470.47C2472.85 765.92 2476.43 759.958 2481.2 755.87C2486.08 751.669 2491.82 749.568 2498.4 749.568C2501.81 749.568 2504.99 750.136 2507.94 751.271V773.756C2506.24 773.188 2504.31 772.734 2502.15 772.393C2500.11 772.052 2498.18 771.882 2496.36 771.882C2489.77 771.882 2484.49 773.642 2480.52 777.162C2476.66 780.569 2473.99 784.827 2472.51 789.937C2471.04 794.934 2470.24 800.555 2470.13 806.801V807.652V847H2450.03V752.293ZM2522.89 710.731H2542.99V847H2522.89V710.731ZM2605.6 849.896C2597.08 849.896 2589.53 847.738 2582.94 843.423C2576.36 839.108 2571.25 833.146 2567.61 825.538C2564.09 817.929 2562.33 809.299 2562.33 799.647C2562.33 789.54 2564.21 780.739 2567.95 773.245C2571.82 765.636 2577.04 759.788 2583.63 755.7C2590.21 751.612 2597.48 749.568 2605.43 749.568C2612.7 749.568 2618.89 751.442 2624 755.189C2629.22 758.936 2633.25 764.671 2636.09 772.393H2638.81C2637.68 761.605 2636.94 751.669 2636.6 742.584C2636.37 733.386 2636.32 722.995 2636.43 711.413V710.731H2656.7V817.362C2656.7 824.629 2656.93 830.307 2657.38 834.395C2657.95 838.483 2658.74 842.685 2659.77 847H2639.67C2639.67 846.886 2639.61 846.773 2639.5 846.659C2639.5 846.432 2639.5 846.262 2639.5 846.148C2638.81 843.196 2638.42 840.527 2638.3 838.143C2638.19 835.644 2638.47 832.635 2639.16 829.115H2636.43C2633.48 836.382 2629.33 841.663 2624 844.956C2618.66 848.249 2612.53 849.896 2605.6 849.896ZM2609.86 830.648C2614.97 830.648 2619.57 829.342 2623.65 826.73C2627.74 824.005 2630.98 820.314 2633.36 815.658C2635.75 810.889 2636.94 805.495 2636.94 799.476C2636.94 793.458 2635.75 788.121 2633.36 783.465C2630.98 778.809 2627.69 775.175 2623.48 772.563C2619.4 769.951 2614.85 768.646 2609.86 768.646C2604.75 768.646 2600.15 770.008 2596.06 772.734C2592.09 775.345 2588.96 778.979 2586.69 783.635C2584.42 788.291 2583.29 793.628 2583.29 799.647C2583.29 805.552 2584.42 810.832 2586.69 815.488C2588.96 820.144 2592.09 823.834 2596.06 826.56C2600.15 829.285 2604.75 830.648 2609.86 830.648ZM2787.35 849.896C2774.18 849.896 2762.37 847 2751.92 841.209C2741.59 835.417 2733.53 827.241 2727.74 816.68C2721.95 806.119 2719.05 794.026 2719.05 780.399C2719.05 766.318 2722.12 754.053 2728.25 743.606C2734.38 733.159 2742.56 725.21 2752.78 719.759C2763.11 714.195 2774.3 711.413 2786.33 711.413C2795.42 711.413 2803.99 713.059 2812.05 716.352C2820.12 719.532 2827.1 724.188 2833 730.32C2839.02 736.452 2843.51 743.776 2846.46 752.293L2826.7 760.299C2823.07 751.442 2817.73 744.458 2810.69 739.348C2803.76 734.238 2795.53 731.683 2785.99 731.683C2777.7 731.683 2770.15 733.727 2763.34 737.815C2756.64 741.789 2751.3 747.524 2747.33 755.019C2743.46 762.513 2741.53 771.314 2741.53 781.421C2741.53 792.209 2743.75 801.236 2748.18 808.504C2752.72 815.772 2758.51 821.109 2765.55 824.516C2772.59 827.922 2780.03 829.626 2787.87 829.626C2794.91 829.626 2801.32 828.263 2807.11 825.538C2812.9 822.812 2817.84 818.838 2821.93 813.614C2826.13 808.391 2829.31 802.258 2831.47 795.218L2851.23 802.031C2846.23 817.589 2838.17 829.455 2827.04 837.632C2816.03 845.808 2802.8 849.896 2787.35 849.896ZM2908.46 849.896C2899.04 849.896 2890.63 847.795 2883.25 843.593C2875.87 839.278 2870.13 833.373 2866.05 825.878C2861.96 818.27 2859.91 809.583 2859.91 799.817C2859.91 790.051 2861.96 781.364 2866.05 773.756C2870.13 766.147 2875.87 760.242 2883.25 756.041C2890.63 751.725 2899.04 749.568 2908.46 749.568C2917.89 749.568 2926.23 751.725 2933.5 756.041C2940.88 760.242 2946.62 766.147 2950.7 773.756C2954.79 781.364 2956.84 790.051 2956.84 799.817C2956.84 809.583 2954.79 818.27 2950.7 825.878C2946.62 833.373 2940.88 839.278 2933.5 843.593C2926.23 847.795 2917.89 849.896 2908.46 849.896ZM2908.46 830.818C2913.8 830.818 2918.51 829.512 2922.6 826.9C2926.8 824.175 2930.04 820.484 2932.31 815.829C2934.69 811.173 2935.88 805.836 2935.88 799.817C2935.88 793.798 2934.69 788.461 2932.31 783.805C2930.04 779.036 2926.8 775.345 2922.6 772.734C2918.51 770.008 2913.8 768.646 2908.46 768.646C2903.12 768.646 2898.35 770.008 2894.15 772.734C2890.06 775.345 2886.83 779.036 2884.44 783.805C2882.17 788.461 2881.04 793.798 2881.04 799.817C2881.04 805.836 2882.17 811.173 2884.44 815.829C2886.83 820.484 2890.06 824.175 2894.15 826.9C2898.35 829.512 2903.12 830.818 2908.46 830.818ZM2976.01 752.293H2995.77C2995.77 752.634 2995.77 752.975 2995.77 753.315C2995.77 756.381 2995.6 759.22 2995.26 761.832C2995.03 764.444 2994.29 767.51 2993.04 771.03H2995.77C2999.17 763.649 3003.55 758.255 3008.88 754.848C3014.22 751.328 3020.01 749.568 3026.26 749.568C3032.96 749.568 3038.8 751.442 3043.8 755.189C3048.8 758.936 3052.15 765.012 3053.85 773.415H3056.58C3060.21 764.671 3064.7 758.539 3070.03 755.019C3075.37 751.385 3081.16 749.568 3087.41 749.568C3093.31 749.568 3098.76 750.987 3103.76 753.826C3108.87 756.552 3113.01 760.753 3116.19 766.431C3119.37 772.109 3120.96 779.093 3120.96 787.382V847H3100.69V796.24V795.218C3100.69 789.54 3099.96 784.827 3098.48 781.08C3097.12 777.219 3095.02 774.21 3092.18 772.052C3089.45 769.781 3085.93 768.646 3081.62 768.646C3077.19 768.646 3073.27 769.781 3069.86 772.052C3066.46 774.323 3063.73 777.617 3061.69 781.932C3059.64 786.247 3058.62 791.243 3058.62 796.921V847H3038.35V796.24C3038.35 790.221 3037.67 785.282 3036.31 781.421C3035.06 777.446 3032.96 774.323 3030 772.052C3027.17 769.781 3023.53 768.646 3019.1 768.646C3014.79 768.646 3010.87 769.781 3007.35 772.052C3003.94 774.323 3001.22 777.617 2999.17 781.932C2997.13 786.247 2996.11 791.243 2996.11 796.921V847H2976.01V752.293ZM3145.35 752.293H3165.1C3165.1 752.861 3165.1 753.429 3165.1 753.997C3165.1 756.949 3164.93 759.788 3164.59 762.513C3164.37 765.239 3163.74 768.702 3162.72 772.904H3165.45C3169.42 764.501 3174.08 758.539 3179.41 755.019C3184.86 751.385 3191 749.568 3197.81 749.568C3206.1 749.568 3213.42 751.782 3219.78 756.211C3226.14 760.526 3231.02 766.488 3234.43 774.096C3237.95 781.705 3239.71 790.108 3239.71 799.306C3239.71 809.413 3237.72 818.327 3233.75 826.049C3229.89 833.657 3224.61 839.562 3217.91 843.764C3211.32 847.852 3204.17 849.896 3196.45 849.896C3191.68 849.896 3187.36 849.101 3183.5 847.511C3179.64 845.921 3176.23 843.537 3173.28 840.357C3170.44 837.177 3168 833.203 3165.96 828.433H3163.23C3164.25 836.723 3164.88 844.331 3165.1 851.258C3165.45 858.299 3165.56 866.929 3165.45 877.149C3165.45 879.648 3165.45 882.089 3165.45 884.474H3145.35V752.293ZM3192.19 830.818C3197.3 830.818 3201.84 829.512 3205.81 826.9C3209.9 824.175 3213.08 820.428 3215.35 815.658C3217.62 810.889 3218.76 805.608 3218.76 799.817C3218.76 793.798 3217.62 788.461 3215.35 783.805C3213.08 779.036 3209.9 775.345 3205.81 772.734C3201.84 770.008 3197.3 768.646 3192.19 768.646C3187.08 768.646 3182.42 770.008 3178.22 772.734C3174.13 775.345 3170.9 779.036 3168.51 783.805C3166.24 788.461 3165.1 793.798 3165.1 799.817C3165.1 805.836 3166.24 811.173 3168.51 815.829C3170.9 820.484 3174.13 824.175 3178.22 826.9C3182.42 829.512 3187.08 830.818 3192.19 830.818ZM3291.83 849.896C3285.02 849.896 3279.06 848.533 3273.95 845.808C3268.95 842.969 3264.98 838.71 3262.02 833.032C3259.19 827.355 3257.77 820.257 3257.77 811.74V752.293H3278.04V804.586C3278.04 813.217 3279.74 819.746 3283.15 824.175C3286.67 828.604 3291.49 830.818 3297.62 830.818C3302.17 830.818 3306.14 829.569 3309.55 827.071C3312.95 824.572 3315.57 821.279 3317.38 817.191C3319.2 813.103 3320.11 808.674 3320.11 803.905V752.293H3340.38V817.362C3340.38 824.629 3340.61 830.307 3341.06 834.395C3341.63 838.483 3342.42 842.685 3343.44 847H3323.35C3323.23 846.659 3323.12 846.319 3323 845.978C3322.21 843.025 3321.81 840.3 3321.81 837.802C3321.81 835.19 3322.44 832.01 3323.69 828.263H3320.96C3318.24 835.871 3314.49 841.379 3309.72 844.786C3304.95 848.192 3298.99 849.896 3291.83 849.896ZM3403.39 849.896C3394.53 849.896 3387.94 848.079 3383.63 844.445C3379.43 840.698 3376.81 836.61 3375.79 832.181C3374.77 827.752 3374.26 822.812 3374.26 817.362C3374.26 807.028 3374.37 798.284 3374.6 791.13C3374.94 783.862 3375.74 776.254 3376.98 768.305C3372.9 769.327 3369.32 769.951 3366.25 770.179C3363.3 770.406 3359.72 770.519 3355.52 770.519V752.293C3359.72 752.293 3363.3 752.407 3366.25 752.634C3369.32 752.861 3372.9 753.486 3376.98 754.508C3375.85 749.852 3375.11 745.48 3374.77 741.392C3374.43 737.19 3374.26 732.534 3374.26 727.424C3374.26 726.629 3374.26 725.834 3374.26 725.04H3394.36C3394.36 726.289 3394.36 727.538 3394.36 728.787C3394.36 733.443 3394.19 737.815 3393.85 741.903C3393.51 745.877 3392.77 750.079 3391.63 754.508C3396.74 753.486 3401.4 752.861 3405.6 752.634C3409.92 752.407 3415.03 752.293 3420.93 752.293V770.519C3415.03 770.519 3409.92 770.406 3405.6 770.179C3401.4 769.951 3396.74 769.327 3391.63 768.305C3392.43 772.506 3393 776.765 3393.34 781.08C3393.79 785.282 3394.08 789.483 3394.19 793.685C3394.3 796.524 3394.36 799.363 3394.36 802.202C3394.36 804.927 3394.36 807.652 3394.36 810.378V810.718C3394.36 814.92 3394.59 818.44 3395.04 821.279C3395.49 824.005 3396.69 826.389 3398.62 828.433C3400.55 830.477 3403.5 831.499 3407.48 831.499C3411.45 831.499 3415.71 830.364 3420.25 828.093L3420.93 827.752V845.978C3418.66 847.341 3415.99 848.306 3412.93 848.874C3409.97 849.555 3406.79 849.896 3403.39 849.896ZM3479.35 849.896C3470.04 849.896 3461.69 847.852 3454.31 843.764C3447.04 839.562 3441.31 833.714 3437.11 826.219C3432.91 818.611 3430.81 809.867 3430.81 799.987C3430.81 790.335 3432.79 781.705 3436.77 774.096C3440.86 766.374 3446.48 760.356 3453.63 756.041C3460.78 751.725 3468.9 749.568 3477.99 749.568C3485.82 749.568 3493.15 751.328 3499.96 754.848C3506.78 758.255 3512.28 763.706 3516.48 771.201C3520.8 778.582 3522.96 787.893 3522.96 799.136V804.927H3451.42C3451.98 810.605 3453.52 815.431 3456.02 819.406C3458.51 823.38 3461.81 826.389 3465.89 828.433C3469.98 830.477 3474.47 831.499 3479.35 831.499C3485.03 831.499 3490.08 829.966 3494.51 826.9C3498.94 823.721 3502.29 819.406 3504.56 813.955L3523.64 821.45C3520.35 829.966 3514.72 836.837 3506.78 842.06C3498.94 847.284 3489.8 849.896 3479.35 849.896ZM3502.18 789.597C3501.72 784.487 3500.3 780.285 3497.92 776.992C3495.65 773.699 3492.75 771.314 3489.23 769.838C3485.82 768.248 3482.02 767.453 3477.82 767.453C3473.28 767.453 3469.24 768.418 3465.72 770.349C3462.2 772.166 3459.31 774.778 3457.04 778.184C3454.88 781.477 3453.35 785.282 3452.44 789.597H3502.18ZM3542.57 752.293H3562.33C3562.33 753.202 3562.33 754.167 3562.33 755.189C3562.45 758.141 3562.39 760.98 3562.16 763.706C3561.94 766.431 3561.31 769.781 3560.29 773.756H3563.01C3565.4 765.92 3568.98 759.958 3573.75 755.87C3578.63 751.669 3584.36 749.568 3590.95 749.568C3594.36 749.568 3597.54 750.136 3600.49 751.271V773.756C3598.78 773.188 3596.85 772.734 3594.7 772.393C3592.65 772.052 3590.72 771.882 3588.91 771.882C3582.32 771.882 3577.04 773.642 3573.06 777.162C3569.2 780.569 3566.53 784.827 3565.06 789.937C3563.58 794.934 3562.79 800.555 3562.67 806.801V807.652V847H3542.57V752.293ZM2154.16 931.138H2204.07C2210.88 931.138 2217.58 932.274 2224.17 934.545C2230.75 936.816 2236.6 941.074 2241.71 947.32C2246.82 953.452 2249.38 961.855 2249.38 972.53C2249.38 983.09 2246.82 991.55 2241.71 997.91C2236.6 1004.16 2230.75 1008.47 2224.17 1010.86C2217.58 1013.24 2211.28 1014.43 2205.26 1014.43C2198.11 1014.43 2192.26 1014.15 2187.72 1013.58C2183.17 1013.01 2178.23 1011.59 2172.9 1009.32C2173.92 1017.27 2174.6 1024.88 2174.94 1032.15C2175.28 1039.41 2175.51 1047.02 2175.62 1054.97V1064H2154.16V931.138ZM2175.28 999.272C2179.37 997.228 2183.29 995.979 2187.03 995.525C2190.78 994.957 2195.27 994.673 2200.49 994.673C2205.37 994.673 2209.69 993.992 2213.44 992.629C2217.3 991.267 2220.48 988.995 2222.98 985.816C2225.59 982.523 2226.89 978.151 2226.89 972.7C2226.89 967.363 2225.59 963.104 2222.98 959.925C2220.48 956.632 2217.3 954.304 2213.44 952.941C2209.58 951.578 2205.2 950.897 2200.32 950.897C2194.87 950.897 2190.33 950.727 2186.69 950.386C2183.06 949.932 2179.26 948.967 2175.28 947.49L2172.56 949.194C2173.58 954.758 2174.26 960.095 2174.6 965.205C2174.94 970.202 2175 975.198 2174.77 980.195C2174.43 985.759 2173.81 991.607 2172.9 997.739L2175.28 999.272ZM2305.8 1066.9C2296.37 1066.9 2287.97 1064.79 2280.59 1060.59C2273.21 1056.28 2267.47 1050.37 2263.38 1042.88C2259.3 1035.27 2257.25 1026.58 2257.25 1016.82C2257.25 1007.05 2259.3 998.364 2263.38 990.756C2267.47 983.147 2273.21 977.242 2280.59 973.041C2287.97 968.725 2296.37 966.568 2305.8 966.568C2315.22 966.568 2323.57 968.725 2330.84 973.041C2338.22 977.242 2343.95 983.147 2348.04 990.756C2352.13 998.364 2354.17 1007.05 2354.17 1016.82C2354.17 1026.58 2352.13 1035.27 2348.04 1042.88C2343.95 1050.37 2338.22 1056.28 2330.84 1060.59C2323.57 1064.79 2315.22 1066.9 2305.8 1066.9ZM2305.8 1047.82C2311.13 1047.82 2315.85 1046.51 2319.94 1043.9C2324.14 1041.17 2327.37 1037.48 2329.64 1032.83C2332.03 1028.17 2333.22 1022.84 2333.22 1016.82C2333.22 1010.8 2332.03 1005.46 2329.64 1000.81C2327.37 996.036 2324.14 992.345 2319.94 989.734C2315.85 987.008 2311.13 985.646 2305.8 985.646C2300.46 985.646 2295.69 987.008 2291.49 989.734C2287.4 992.345 2284.16 996.036 2281.78 1000.81C2279.51 1005.46 2278.37 1010.8 2278.37 1016.82C2278.37 1022.84 2279.51 1028.17 2281.78 1032.83C2284.16 1037.48 2287.4 1041.17 2291.49 1043.9C2295.69 1046.51 2300.46 1047.82 2305.8 1047.82ZM2361.1 969.293H2384.1C2384.78 971.224 2385.41 973.211 2385.97 975.255C2390.18 988.314 2393.64 999.954 2396.36 1010.17C2399.2 1020.28 2401.7 1030.95 2403.86 1042.2H2407.61C2410.33 1030.5 2413.23 1019.77 2416.29 1010C2419.36 1000.24 2423.5 987.462 2428.73 971.678L2429.58 969.293H2447.81C2448.26 970.542 2448.6 971.678 2448.83 972.7C2453.37 985.986 2457.29 997.966 2460.58 1008.64C2463.87 1019.32 2466.94 1030.5 2469.78 1042.2H2473.36C2475.63 1030.84 2478.13 1020.22 2480.85 1010.34C2483.58 1000.46 2487.27 988.201 2491.92 973.552C2492.38 972.075 2492.83 970.656 2493.29 969.293H2516.11L2483.92 1064H2459.9C2459.1 1061.27 2458.31 1058.89 2457.51 1056.85C2453.77 1045.6 2450.47 1035.21 2447.64 1025.67C2444.91 1016.02 2442.47 1006.37 2440.31 996.717H2437.24C2436.11 1001.37 2434.86 1006.09 2433.5 1010.86C2432.25 1015.62 2430.94 1020.34 2429.58 1024.99C2427.54 1031.35 2425.38 1037.83 2423.11 1044.41C2420.95 1051 2418.79 1057.53 2416.63 1064H2393.3L2361.1 969.293ZM2571.45 1066.9C2562.14 1066.9 2553.79 1064.85 2546.41 1060.76C2539.14 1056.56 2533.41 1050.71 2529.2 1043.22C2525 1035.61 2522.9 1026.87 2522.9 1016.99C2522.9 1007.33 2524.89 998.705 2528.86 991.096C2532.95 983.374 2538.57 977.356 2545.73 973.041C2552.88 968.725 2561 966.568 2570.09 966.568C2577.92 966.568 2585.25 968.328 2592.06 971.848C2598.87 975.255 2604.38 980.706 2608.58 988.201C2612.9 995.582 2615.05 1004.89 2615.05 1016.14V1021.93H2543.51C2544.08 1027.6 2545.61 1032.43 2548.11 1036.41C2550.61 1040.38 2553.9 1043.39 2557.99 1045.43C2562.08 1047.48 2566.57 1048.5 2571.45 1048.5C2577.13 1048.5 2582.18 1046.97 2586.61 1043.9C2591.04 1040.72 2594.39 1036.41 2596.66 1030.95L2615.74 1038.45C2612.44 1046.97 2606.82 1053.84 2598.87 1059.06C2591.04 1064.28 2581.9 1066.9 2571.45 1066.9ZM2594.27 1006.6C2593.82 1001.49 2592.4 997.285 2590.01 993.992C2587.74 990.699 2584.85 988.314 2581.33 986.838C2577.92 985.248 2574.12 984.453 2569.92 984.453C2565.37 984.453 2561.34 985.418 2557.82 987.349C2554.3 989.166 2551.41 991.778 2549.13 995.184C2546.98 998.477 2545.44 1002.28 2544.54 1006.6H2594.27ZM2634.67 969.293H2654.43C2654.43 970.202 2654.43 971.167 2654.43 972.189C2654.54 975.141 2654.49 977.98 2654.26 980.706C2654.03 983.431 2653.41 986.781 2652.39 990.756H2655.11C2657.5 982.92 2661.07 976.958 2665.84 972.87C2670.73 968.669 2676.46 966.568 2683.05 966.568C2686.45 966.568 2689.63 967.136 2692.58 968.271V990.756C2690.88 990.188 2688.95 989.734 2686.79 989.393C2684.75 989.052 2682.82 988.882 2681 988.882C2674.42 988.882 2669.14 990.642 2665.16 994.162C2661.3 997.569 2658.63 1001.83 2657.15 1006.94C2655.68 1011.93 2654.88 1017.56 2654.77 1023.8V1024.65V1064H2634.67V969.293ZM2707.53 969.293H2727.63V1064H2707.53V969.293ZM2717.75 952.089C2714 952.089 2710.82 950.783 2708.21 948.172C2705.71 945.56 2704.46 942.38 2704.46 938.633C2704.46 936.362 2705.03 934.204 2706.17 932.16C2707.3 930.116 2708.89 928.526 2710.94 927.391C2712.98 926.255 2715.25 925.687 2717.75 925.687C2721.38 925.687 2724.45 926.993 2726.95 929.605C2729.45 932.103 2730.69 935.113 2730.69 938.633C2730.69 941.131 2730.13 943.402 2728.99 945.446C2727.86 947.49 2726.27 949.137 2724.22 950.386C2722.29 951.522 2720.13 952.089 2717.75 952.089ZM2753.11 969.293H2772.87C2772.87 969.407 2772.87 969.464 2772.87 969.464C2772.87 969.464 2772.87 969.52 2772.87 969.634C2772.87 972.927 2772.7 975.936 2772.36 978.662C2772.01 981.274 2771.28 984.396 2770.14 988.03H2772.87C2776.39 980.422 2780.82 974.971 2786.15 971.678C2791.49 968.271 2797.39 966.568 2803.87 966.568C2810 966.568 2815.56 967.931 2820.56 970.656C2825.67 973.268 2829.76 977.413 2832.82 983.09C2835.89 988.768 2837.42 995.866 2837.42 1004.38V1064H2817.15V1013.24C2817.15 1007.45 2816.47 1002.57 2815.11 998.591C2813.75 994.617 2811.53 991.494 2808.47 989.223C2805.51 986.838 2801.65 985.646 2796.88 985.646C2792.34 985.646 2788.25 986.781 2784.62 989.052C2781.1 991.323 2778.32 994.617 2776.27 998.932C2774.23 1003.13 2773.21 1008.13 2773.21 1013.92V1064H2753.11V969.293ZM2903.63 1104.2C2893.41 1104.2 2884.33 1102.1 2876.38 1097.9C2868.54 1093.81 2862.81 1086.83 2859.17 1076.95L2877.57 1070.3C2879.84 1075.87 2883.02 1080.01 2887.11 1082.74C2891.31 1085.58 2896.59 1087 2902.95 1087C2908.29 1087 2912.89 1085.97 2916.75 1083.93C2920.72 1081.89 2923.79 1078.71 2925.95 1074.39C2928.22 1070.19 2929.41 1064.85 2929.52 1058.38C2929.52 1057.81 2929.52 1057.3 2929.52 1056.85V1054.8C2929.64 1052.3 2929.92 1050.09 2930.38 1048.16C2930.83 1046.11 2931.34 1044.41 2931.91 1043.05H2929.18C2926 1050.43 2921.8 1055.71 2916.58 1058.89C2911.35 1062.07 2905.51 1063.66 2899.03 1063.66C2890.06 1063.66 2882.28 1061.5 2875.7 1057.19C2869.11 1052.76 2864.06 1046.85 2860.54 1039.47C2857.13 1032.09 2855.43 1023.97 2855.43 1015.11C2855.43 1005.8 2857.3 997.455 2861.05 990.074C2864.8 982.693 2869.91 976.958 2876.38 972.87C2882.96 968.669 2890.29 966.568 2898.35 966.568C2905.62 966.568 2911.87 968.555 2917.09 972.53C2922.43 976.504 2926.29 982.125 2928.67 989.393H2931.4C2930.83 985.305 2930.43 981.785 2930.2 978.832C2929.98 975.766 2929.86 972.927 2929.86 970.315C2929.86 969.975 2929.86 969.634 2929.86 969.293H2949.79V1053.78C2949.79 1071.72 2945.53 1084.61 2937.02 1092.45C2928.5 1100.28 2917.37 1104.2 2903.63 1104.2ZM2902.95 1044.41C2908.06 1044.41 2912.66 1043.11 2916.75 1040.49C2920.84 1037.88 2924.07 1034.3 2926.46 1029.76C2928.84 1025.22 2930.03 1020.22 2930.03 1014.77C2930.03 1009.32 2928.84 1004.38 2926.46 999.954C2924.07 995.525 2920.78 992.061 2916.58 989.563C2912.49 986.951 2907.95 985.646 2902.95 985.646C2897.84 985.646 2893.24 986.951 2889.15 989.563C2885.18 992.061 2882.06 995.582 2879.79 1000.12C2877.51 1004.55 2876.38 1009.44 2876.38 1014.77C2876.38 1020.34 2877.51 1025.39 2879.79 1029.93C2882.06 1034.36 2885.24 1037.88 2889.32 1040.49C2893.41 1043.11 2897.95 1044.41 2902.95 1044.41ZM3047.72 1064C3047.72 1061.27 3047.72 1058.55 3047.72 1055.82C3047.72 1049.01 3047.77 1042.42 3047.89 1036.06C3048.11 1029.59 3048.51 1023.4 3049.08 1017.5C3045.1 1011.03 3041.24 1004.5 3037.5 997.91C3033.75 991.323 3030.06 984.794 3026.42 978.321C3022 970.372 3017.62 962.537 3013.31 954.815C3008.99 946.979 3004.68 939.087 3000.36 931.138H3023.36C3024.49 933.069 3025.57 935.056 3026.59 937.1C3033.07 949.25 3038.69 960.265 3043.46 970.145C3048.23 979.911 3052.77 990.245 3057.08 1001.15H3059.81C3063.78 990.812 3068.04 981.046 3072.59 971.848C3077.13 962.537 3082.58 951.976 3088.94 940.166C3090.53 937.1 3092.06 934.091 3093.54 931.138H3116.53C3114.49 934.772 3112.44 938.406 3110.4 942.04C3103.47 954.531 3096.26 967.42 3088.77 980.706C3081.39 993.878 3074.4 1006.09 3067.82 1017.33C3068.38 1024.25 3068.72 1031.47 3068.84 1038.96C3069.07 1046.34 3069.18 1054.69 3069.18 1064H3047.72ZM3155.31 1066.9C3145.89 1066.9 3137.49 1064.79 3130.1 1060.59C3122.72 1056.28 3116.99 1050.37 3112.9 1042.88C3108.81 1035.27 3106.77 1026.58 3106.77 1016.82C3106.77 1007.05 3108.81 998.364 3112.9 990.756C3116.99 983.147 3122.72 977.242 3130.1 973.041C3137.49 968.725 3145.89 966.568 3155.31 966.568C3164.74 966.568 3173.09 968.725 3180.35 973.041C3187.73 977.242 3193.47 983.147 3197.56 990.756C3201.65 998.364 3203.69 1007.05 3203.69 1016.82C3203.69 1026.58 3201.65 1035.27 3197.56 1042.88C3193.47 1050.37 3187.73 1056.28 3180.35 1060.59C3173.09 1064.79 3164.74 1066.9 3155.31 1066.9ZM3155.31 1047.82C3160.65 1047.82 3165.36 1046.51 3169.45 1043.9C3173.65 1041.17 3176.89 1037.48 3179.16 1032.83C3181.55 1028.17 3182.74 1022.84 3182.74 1016.82C3182.74 1010.8 3181.55 1005.46 3179.16 1000.81C3176.89 996.036 3173.65 992.345 3169.45 989.734C3165.36 987.008 3160.65 985.646 3155.31 985.646C3149.98 985.646 3145.21 987.008 3141.01 989.734C3136.92 992.345 3133.68 996.036 3131.3 1000.81C3129.03 1005.46 3127.89 1010.8 3127.89 1016.82C3127.89 1022.84 3129.03 1028.17 3131.3 1032.83C3133.68 1037.48 3136.92 1041.17 3141.01 1043.9C3145.21 1046.51 3149.98 1047.82 3155.31 1047.82ZM3255.74 1066.9C3248.92 1066.9 3242.96 1065.53 3237.85 1062.81C3232.85 1059.97 3228.88 1055.71 3225.93 1050.03C3223.09 1044.35 3221.67 1037.26 3221.67 1028.74V969.293H3241.94V1021.59C3241.94 1030.22 3243.64 1036.75 3247.05 1041.17C3250.57 1045.6 3255.4 1047.82 3261.53 1047.82C3266.07 1047.82 3270.04 1046.57 3273.45 1044.07C3276.86 1041.57 3279.47 1038.28 3281.29 1034.19C3283.1 1030.1 3284.01 1025.67 3284.01 1020.91V969.293H3304.28V1034.36C3304.28 1041.63 3304.51 1047.31 3304.96 1051.4C3305.53 1055.48 3306.33 1059.68 3307.35 1064H3287.25C3287.14 1063.66 3287.02 1063.32 3286.91 1062.98C3286.11 1060.03 3285.72 1057.3 3285.72 1054.8C3285.72 1052.19 3286.34 1049.01 3287.59 1045.26H3284.86C3282.14 1052.87 3278.39 1058.38 3273.62 1061.79C3268.85 1065.19 3262.89 1066.9 3255.74 1066.9ZM3329.99 969.293H3349.75C3349.75 970.202 3349.75 971.167 3349.75 972.189C3349.86 975.141 3349.8 977.98 3349.58 980.706C3349.35 983.431 3348.72 986.781 3347.7 990.756H3350.43C3352.81 982.92 3356.39 976.958 3361.16 972.87C3366.04 968.669 3371.78 966.568 3378.36 966.568C3381.77 966.568 3384.95 967.136 3387.9 968.271V990.756C3386.2 990.188 3384.27 989.734 3382.11 989.393C3380.07 989.052 3378.14 988.882 3376.32 988.882C3369.73 988.882 3364.45 990.642 3360.48 994.162C3356.62 997.569 3353.95 1001.83 3352.47 1006.94C3350.99 1011.93 3350.2 1017.56 3350.09 1023.8V1024.65V1064H3329.99V969.293ZM3442.99 931.138H3493.07C3507.26 931.138 3519.07 934.034 3528.5 939.825C3537.92 945.617 3544.85 953.452 3549.28 963.332C3553.82 973.097 3556.09 984.226 3556.09 996.717C3556.09 1009.89 3553.65 1021.59 3548.77 1031.81C3543.89 1041.91 3536.79 1049.81 3527.48 1055.48C3518.16 1061.16 3507.21 1064 3494.6 1064H3442.99V931.138ZM3464.11 1047.65C3464.68 1047.53 3465.19 1047.42 3465.64 1047.31C3469.96 1045.94 3474.1 1045.09 3478.08 1044.75C3482.05 1044.41 3486.94 1044.24 3492.73 1044.24C3500.56 1044.24 3507.49 1042.65 3513.51 1039.47C3519.64 1036.29 3524.52 1031.24 3528.16 1024.31C3531.79 1017.38 3533.61 1008.58 3533.61 997.91C3533.61 986.213 3531.39 976.845 3526.97 969.804C3522.65 962.764 3517.2 957.881 3510.61 955.155C3504.14 952.316 3496.53 950.897 3487.79 950.897C3482.79 950.897 3478.59 950.727 3475.18 950.386C3471.78 949.932 3468.09 948.967 3464.11 947.49L3461.39 949.194C3466.16 981.557 3466.21 1013.52 3461.56 1045.09L3464.11 1047.65ZM3600.38 1066.9C3594.81 1066.9 3589.65 1065.93 3584.88 1064C3580.11 1061.96 3576.25 1058.95 3573.3 1054.97C3570.46 1050.88 3569.04 1045.94 3569.04 1040.15C3569.04 1034.48 3570.4 1029.76 3573.13 1026.02C3575.96 1022.15 3579.71 1019.14 3584.37 1016.99C3589.02 1014.72 3594.47 1012.9 3600.72 1011.54C3603.1 1010.97 3605.72 1010.46 3608.56 1010C3614.12 1008.87 3618.26 1007.9 3620.99 1007.11C3623.83 1006.2 3625.93 1005.06 3627.29 1003.7C3628.65 1002.22 3629.34 1000.24 3629.34 997.739C3629.34 995.128 3628.6 992.686 3627.12 990.415C3625.76 988.144 3623.72 986.384 3620.99 985.134C3618.26 983.772 3615.14 983.09 3611.62 983.09C3606.74 983.09 3602.48 984.51 3598.85 987.349C3595.21 990.188 3592.6 994.276 3591.01 999.613L3572.1 993.14C3574.83 984.056 3579.83 977.356 3587.09 973.041C3594.47 968.725 3602.99 966.568 3612.64 966.568C3619.91 966.568 3626.33 967.817 3631.89 970.315C3637.57 972.7 3642 976.391 3645.18 981.387C3648.36 986.27 3649.95 992.345 3649.95 999.613V1034.36C3649.95 1035.16 3649.95 1036.01 3649.95 1036.92C3650.06 1043.28 3650.34 1048.39 3650.8 1052.25C3651.25 1056.11 3651.99 1060.03 3653.01 1064H3632.74C3631.95 1061.27 3631.49 1058.61 3631.38 1055.99C3631.38 1053.27 3632 1049.81 3633.25 1045.6H3630.53C3627.92 1052.64 3624 1057.98 3618.78 1061.62C3613.55 1065.14 3607.42 1066.9 3600.38 1066.9ZM3605.66 1051.22C3610.32 1051.22 3614.46 1050.03 3618.09 1047.65C3621.73 1045.26 3624.51 1042.25 3626.44 1038.62C3628.48 1034.99 3629.51 1031.35 3629.51 1027.72V1017.84C3627.12 1019.2 3625.19 1020.22 3623.72 1020.91C3622.35 1021.47 3620.31 1022.1 3617.58 1022.78C3615.99 1023.23 3613.44 1023.86 3609.92 1024.65C3606.28 1025.45 3603.16 1026.41 3600.55 1027.55C3597.94 1028.57 3595.72 1030.1 3593.91 1032.15C3592.09 1034.19 3591.18 1036.63 3591.18 1039.47C3591.18 1043.22 3592.49 1046.11 3595.1 1048.16C3597.82 1050.2 3601.34 1051.22 3605.66 1051.22ZM3710.79 1066.9C3701.93 1066.9 3695.35 1065.08 3691.03 1061.44C3686.83 1057.7 3684.22 1053.61 3683.2 1049.18C3682.17 1044.75 3681.66 1039.81 3681.66 1034.36C3681.66 1024.03 3681.78 1015.28 3682 1008.13C3682.34 1000.86 3683.14 993.254 3684.39 985.305C3680.3 986.327 3676.72 986.951 3673.66 987.179C3670.7 987.406 3667.13 987.519 3662.93 987.519V969.293C3667.13 969.293 3670.7 969.407 3673.66 969.634C3676.72 969.861 3680.3 970.486 3684.39 971.508C3683.25 966.852 3682.51 962.48 3682.17 958.392C3681.83 954.19 3681.66 949.534 3681.66 944.424C3681.66 943.629 3681.66 942.834 3681.66 942.04H3701.76C3701.76 943.289 3701.76 944.538 3701.76 945.787C3701.76 950.443 3701.59 954.815 3701.25 958.903C3700.91 962.877 3700.17 967.079 3699.04 971.508C3704.15 970.486 3708.8 969.861 3713 969.634C3717.32 969.407 3722.43 969.293 3728.33 969.293V987.519C3722.43 987.519 3717.32 987.406 3713 987.179C3708.8 986.951 3704.15 986.327 3699.04 985.305C3699.83 989.506 3700.4 993.765 3700.74 998.08C3701.19 1002.28 3701.48 1006.48 3701.59 1010.68C3701.71 1013.52 3701.76 1016.36 3701.76 1019.2C3701.76 1021.93 3701.76 1024.65 3701.76 1027.38V1027.72C3701.76 1031.92 3701.99 1035.44 3702.44 1038.28C3702.9 1041 3704.09 1043.39 3706.02 1045.43C3707.95 1047.48 3710.9 1048.5 3714.88 1048.5C3718.85 1048.5 3723.11 1047.36 3727.65 1045.09L3728.33 1044.75V1062.98C3726.06 1064.34 3723.39 1065.31 3720.33 1065.87C3717.38 1066.56 3714.2 1066.9 3710.79 1066.9ZM3770.71 1066.9C3765.15 1066.9 3759.98 1065.93 3755.21 1064C3750.44 1061.96 3746.58 1058.95 3743.63 1054.97C3740.79 1050.88 3739.37 1045.94 3739.37 1040.15C3739.37 1034.48 3740.74 1029.76 3743.46 1026.02C3746.3 1022.15 3750.05 1019.14 3754.7 1016.99C3759.36 1014.72 3764.81 1012.9 3771.06 1011.54C3773.44 1010.97 3776.05 1010.46 3778.89 1010C3784.46 1008.87 3788.6 1007.9 3791.33 1007.11C3794.16 1006.2 3796.27 1005.06 3797.63 1003.7C3798.99 1002.22 3799.67 1000.24 3799.67 997.739C3799.67 995.128 3798.93 992.686 3797.46 990.415C3796.09 988.144 3794.05 986.384 3791.33 985.134C3788.6 983.772 3785.48 983.09 3781.96 983.09C3777.07 983.09 3772.82 984.51 3769.18 987.349C3765.55 990.188 3762.94 994.276 3761.35 999.613L3742.44 993.14C3745.16 984.056 3750.16 977.356 3757.43 973.041C3764.81 968.725 3773.33 966.568 3782.98 966.568C3790.25 966.568 3796.66 967.817 3802.23 970.315C3807.9 972.7 3812.33 976.391 3815.51 981.387C3818.69 986.27 3820.28 992.345 3820.28 999.613V1034.36C3820.28 1035.16 3820.28 1036.01 3820.28 1036.92C3820.4 1043.28 3820.68 1048.39 3821.13 1052.25C3821.59 1056.11 3822.33 1060.03 3823.35 1064H3803.08C3802.28 1061.27 3801.83 1058.61 3801.72 1055.99C3801.72 1053.27 3802.34 1049.81 3803.59 1045.6H3800.86C3798.25 1052.64 3794.33 1057.98 3789.11 1061.62C3783.89 1065.14 3777.76 1066.9 3770.71 1066.9ZM3776 1051.22C3780.65 1051.22 3784.8 1050.03 3788.43 1047.65C3792.06 1045.26 3794.85 1042.25 3796.78 1038.62C3798.82 1034.99 3799.84 1031.35 3799.84 1027.72V1017.84C3797.46 1019.2 3795.53 1020.22 3794.05 1020.91C3792.69 1021.47 3790.64 1022.1 3787.92 1022.78C3786.33 1023.23 3783.77 1023.86 3780.25 1024.65C3776.62 1025.45 3773.5 1026.41 3770.89 1027.55C3768.27 1028.57 3766.06 1030.1 3764.24 1032.15C3762.43 1034.19 3761.52 1036.63 3761.52 1039.47C3761.52 1043.22 3762.82 1046.11 3765.43 1048.16C3768.16 1050.2 3771.68 1051.22 3776 1051.22Z" fill="#052C26"/>
</svg>
