<svg width="4116" height="1365" viewBox="0 0 4116 1365" fill="none" xmlns="http://www.w3.org/2000/svg">
<rect width="4116" height="1365" fill="#A8F1DF"/>
<path d="M1782.21 1198.64C1782.21 1200.3 1780.93 1202.01 1778.29 1203.66C1775.67 1205.29 1771.86 1206.78 1767.1 1208.04C1757.58 1210.56 1744.42 1212.12 1729.86 1212.12C1715.29 1212.12 1702.13 1210.56 1692.61 1208.04C1687.86 1206.78 1684.04 1205.29 1681.43 1203.66C1678.79 1202.01 1677.5 1200.3 1677.5 1198.64C1677.5 1196.98 1678.79 1195.27 1681.43 1193.61C1684.04 1191.98 1687.86 1190.49 1692.61 1189.23C1702.13 1186.72 1715.29 1185.15 1729.86 1185.15C1744.42 1185.15 1757.58 1186.72 1767.1 1189.23C1771.86 1190.49 1775.67 1191.98 1778.29 1193.61C1780.93 1195.27 1782.21 1196.98 1782.21 1198.64Z" fill="#052C26" stroke="#0F4531" stroke-width="0.987752"/>
<path d="M1791.41 1186.81C1791.41 1188.76 1789.91 1190.77 1786.8 1192.71C1783.73 1194.64 1779.24 1196.39 1773.64 1197.87C1762.46 1200.83 1746.98 1202.66 1729.86 1202.66C1712.73 1202.66 1697.25 1200.83 1686.07 1197.87C1680.47 1196.39 1675.98 1194.64 1672.91 1192.71C1669.81 1190.77 1668.3 1188.76 1668.3 1186.81C1668.3 1184.86 1669.81 1182.85 1672.91 1180.91C1675.98 1178.98 1680.47 1177.23 1686.07 1175.75C1697.25 1172.79 1712.73 1170.96 1729.86 1170.96C1746.98 1170.96 1762.46 1172.79 1773.64 1175.75C1779.24 1177.23 1783.73 1178.98 1786.8 1180.91C1789.91 1182.85 1791.41 1184.86 1791.41 1186.81Z" fill="#052C26" stroke="#0F4531" stroke-width="1.16142"/>
<path d="M1799.54 1170.38C1799.54 1172.63 1797.81 1174.92 1794.29 1177.12C1790.81 1179.3 1785.72 1181.28 1779.39 1182.96C1766.74 1186.3 1749.22 1188.38 1729.86 1188.38C1710.49 1188.38 1692.97 1186.3 1680.32 1182.96C1673.99 1181.28 1668.91 1179.3 1665.42 1177.12C1661.9 1174.92 1660.17 1172.63 1660.17 1170.38C1660.17 1168.13 1661.9 1165.84 1665.42 1163.64C1668.91 1161.46 1673.99 1159.47 1680.32 1157.8C1692.97 1154.45 1710.49 1152.38 1729.86 1152.38C1749.22 1152.38 1766.74 1154.45 1779.39 1157.8C1785.72 1159.47 1790.81 1161.46 1794.29 1163.64C1797.81 1165.84 1799.54 1168.13 1799.54 1170.38Z" fill="#052C26" stroke="#0F4531" stroke-width="1.16142"/>
<path d="M875.134 1239.29C875.134 1240.95 873.853 1242.66 871.213 1244.31C868.599 1245.94 864.783 1247.43 860.024 1248.69C850.513 1251.21 837.346 1252.77 822.783 1252.77C808.22 1252.77 795.054 1251.21 785.543 1248.69C780.783 1247.43 776.967 1245.94 774.353 1244.31C771.713 1242.66 770.432 1240.95 770.432 1239.29C770.432 1237.63 771.713 1235.92 774.353 1234.27C776.967 1232.63 780.783 1231.14 785.543 1229.88C795.054 1227.37 808.22 1225.8 822.783 1225.8C837.346 1225.8 850.513 1227.37 860.024 1229.88C864.783 1231.14 868.599 1232.63 871.213 1234.27C873.853 1235.92 875.134 1237.63 875.134 1239.29Z" fill="#052C26" stroke="#0F4531" stroke-width="0.987752"/>
<path d="M884.339 1227.46C884.339 1229.41 882.833 1231.42 879.729 1233.36C876.655 1235.29 872.168 1237.04 866.572 1238.52C855.389 1241.48 839.907 1243.31 822.784 1243.31C805.66 1243.31 790.179 1241.48 778.995 1238.52C773.399 1237.04 768.912 1235.29 765.838 1233.36C762.734 1231.42 761.228 1229.41 761.228 1227.46C761.228 1225.51 762.734 1223.5 765.838 1221.56C768.912 1219.63 773.399 1217.88 778.995 1216.4C790.179 1213.44 805.66 1211.61 822.784 1211.61C839.907 1211.61 855.389 1213.44 866.572 1216.4C872.168 1217.88 876.655 1219.63 879.729 1221.56C882.833 1223.5 884.339 1225.51 884.339 1227.46Z" fill="#052C26" stroke="#0F4531" stroke-width="1.16142"/>
<path d="M892.469 1211.03C892.469 1213.28 890.736 1215.57 887.22 1217.77C883.734 1219.95 878.652 1221.93 872.321 1223.61C859.666 1226.95 842.152 1229.03 822.784 1229.03C803.415 1229.03 785.901 1226.95 773.247 1223.61C766.915 1221.93 761.833 1219.95 758.347 1217.77C754.832 1215.57 753.098 1213.28 753.098 1211.03C753.098 1208.78 754.832 1206.49 758.347 1204.29C761.833 1202.11 766.915 1200.12 773.247 1198.45C785.901 1195.1 803.415 1193.03 822.784 1193.03C842.152 1193.03 859.666 1195.1 872.321 1198.45C878.652 1200.12 883.734 1202.11 887.22 1204.29C890.736 1206.49 892.469 1208.78 892.469 1211.03Z" fill="#052C26" stroke="#0F4531" stroke-width="1.16142"/>
<path d="M390.82 1198.64C390.82 1200.3 389.539 1202.01 386.899 1203.66C384.284 1205.29 380.469 1206.78 375.709 1208.04C366.198 1210.56 353.031 1212.12 338.469 1212.12C323.906 1212.12 310.739 1210.56 301.228 1208.04C296.469 1206.78 292.653 1205.29 290.039 1203.66C287.399 1202.01 286.118 1200.3 286.118 1198.64C286.118 1196.98 287.399 1195.27 290.039 1193.61C292.653 1191.98 296.469 1190.49 301.228 1189.23C310.739 1186.72 323.906 1185.15 338.469 1185.15C353.031 1185.15 366.198 1186.72 375.709 1189.23C380.469 1190.49 384.284 1191.98 386.899 1193.61C389.539 1195.27 390.82 1196.98 390.82 1198.64Z" fill="#052C26" stroke="#0F4531" stroke-width="0.987752"/>
<path d="M400.024 1186.81C400.024 1188.76 398.519 1190.77 395.414 1192.71C392.34 1194.64 387.853 1196.39 382.257 1197.87C371.074 1200.83 355.592 1202.66 338.469 1202.66C321.346 1202.66 305.864 1200.83 294.681 1197.87C289.085 1196.39 284.598 1194.64 281.524 1192.71C278.42 1190.77 276.914 1188.76 276.914 1186.81C276.914 1184.86 278.42 1182.85 281.524 1180.91C284.598 1178.98 289.085 1177.23 294.681 1175.75C305.864 1172.79 321.346 1170.96 338.469 1170.96C355.592 1170.96 371.074 1172.79 382.257 1175.75C387.853 1177.23 392.34 1178.98 395.414 1180.91C398.519 1182.85 400.024 1184.86 400.024 1186.81Z" fill="#052C26" stroke="#0F4531" stroke-width="1.16142"/>
<path d="M408.155 1170.38C408.155 1172.63 406.421 1174.92 402.906 1177.12C399.42 1179.3 394.338 1181.28 388.006 1182.96C375.352 1186.3 357.837 1188.38 338.469 1188.38C319.101 1188.38 301.587 1186.3 288.932 1182.96C282.6 1181.28 277.518 1179.3 274.033 1177.12C270.517 1174.92 268.784 1172.63 268.784 1170.38C268.784 1168.13 270.517 1165.84 274.033 1163.64C277.518 1161.46 282.6 1159.47 288.932 1157.8C301.587 1154.45 319.101 1152.38 338.469 1152.38C357.837 1152.38 375.352 1154.45 388.006 1157.8C394.338 1159.47 399.42 1161.46 402.906 1163.64C406.421 1165.84 408.155 1168.13 408.155 1170.38Z" fill="#052C26" stroke="#0F4531" stroke-width="1.16142"/>
<path d="M186.324 1147.73V333.574L271.689 314.535L508.909 261.628L746.13 208.721L1865.16 279.567V1161.09L906.406 1200.89L746.13 1207.54L466.227 1177.64L186.324 1147.73Z" fill="#12413A"/>
<path d="M746.13 1207.54L906.406 1200.89L1865.16 1161.09V279.567L746.13 208.721M746.13 1207.54L466.227 1177.64M746.13 1207.54V423.003M746.13 208.721L508.909 261.628M746.13 208.721V423.003M466.227 1177.64L186.324 1147.73V333.574L271.689 314.535M466.227 1177.64V874.216H351.827V731.941H271.689V314.535M271.689 314.535L508.909 261.628M508.909 261.628V462.491L746.13 423.003" stroke="#052C26" stroke-width="5.80711"/>
<ellipse cx="1761.79" cy="374.803" rx="17.4213" ry="23.2284" fill="#052C26"/>
<ellipse cx="1632.87" cy="367.834" rx="17.4213" ry="23.2284" fill="#052C26"/>
<ellipse cx="1503.96" cy="362.029" rx="17.4213" ry="23.2284" fill="#052C26"/>
<ellipse cx="1375.04" cy="355.059" rx="17.4213" ry="23.2284" fill="#4BBF94"/>
<ellipse cx="1246.12" cy="349.254" rx="17.4213" ry="23.2284" fill="#4BBF94"/>
<ellipse cx="1117.2" cy="343.445" rx="17.4213" ry="23.2284" fill="#4BBF94"/>
<ellipse cx="988.285" cy="337.639" rx="17.4213" ry="23.2284" fill="#4BBF94"/>
<ellipse cx="859.367" cy="331.832" rx="17.4213" ry="23.2284" fill="#4BBF94"/>
<path d="M1310.58 406.317V1133.53M1310.58 406.317L1439.35 412.744M1310.58 406.317L1181.81 399.891M1310.58 1133.53L1439.35 1128.96M1310.58 1133.53L1181.81 1138.1M1053.03 393.464V1142.66M1053.03 393.464L1181.81 399.891M1053.03 393.464L924.261 387.038M1053.03 1142.66L1181.81 1138.1M1053.03 1142.66L924.261 1147.23M1568.12 419.171V1124.4M1568.12 419.171L1696.9 425.597M1568.12 419.171L1439.35 412.744M1568.12 1124.4L1696.9 1119.83M1568.12 1124.4L1439.35 1128.96M1696.9 1119.83L1821.19 1115.42C1823.69 1115.34 1825.67 1113.28 1825.67 1110.78V436.443C1825.67 433.968 1823.73 431.927 1821.26 431.803L1696.9 425.597M1696.9 1119.83V425.597M1439.35 412.744V1128.96M1181.81 1138.1V399.891M924.261 387.038L800.366 380.855C797.712 380.722 795.488 382.838 795.488 385.495V1135.56V1146.98C795.488 1149.61 797.67 1151.72 800.299 1151.63L924.261 1147.23M924.261 387.038V1147.23" stroke="#052C26" stroke-width="5.80711"/>
<path d="M800.712 388.263C800.713 386.941 801.816 385.886 803.136 385.944L917.538 390.967C918.78 391.021 919.759 392.044 919.759 393.287V1141.41C919.759 1142.67 918.76 1143.7 917.504 1143.73L802.525 1147.08C801.216 1147.12 800.134 1146.07 800.135 1144.76L800.712 388.263Z" fill="#2C443A"/>
<path d="M929.63 394.648C929.631 393.327 930.733 392.272 932.053 392.329L1046.45 397.279C1047.7 397.333 1048.68 398.356 1048.68 399.6V1136.81C1048.68 1138.07 1047.68 1139.1 1046.42 1139.13L931.442 1142.43C930.133 1142.47 929.052 1141.42 929.053 1140.11L929.63 394.648Z" fill="#2C443A"/>
<path d="M1058.55 401.615C1058.55 400.294 1059.65 399.24 1060.97 399.296L1175.37 404.17C1176.62 404.223 1177.6 405.246 1177.6 406.49V1132.22C1177.6 1133.48 1176.6 1134.51 1175.34 1134.54L1060.36 1137.79C1059.05 1137.83 1057.97 1136.78 1057.97 1135.47L1058.55 401.615Z" fill="#2C443A"/>
<path d="M1187.47 407.421C1187.47 406.1 1188.57 405.046 1189.89 405.102L1304.29 409.906C1305.53 409.958 1306.51 410.982 1306.51 412.227V1127.62C1306.51 1128.88 1305.51 1129.91 1304.26 1129.94L1189.28 1133.15C1187.97 1133.18 1186.89 1132.13 1186.89 1130.82L1187.47 407.421Z" fill="#2C443A"/>
<path d="M1316.39 414.388C1316.39 413.068 1317.49 412.014 1318.8 412.069L1433.21 416.796C1434.45 416.848 1435.43 417.871 1435.43 419.117V1123.03C1435.43 1124.28 1434.43 1125.31 1433.17 1125.35L1318.2 1128.5C1316.89 1128.54 1315.81 1127.49 1315.81 1126.18L1316.39 414.388Z" fill="#2C443A"/>
<path d="M1445.3 420.195C1445.3 418.876 1446.4 417.822 1447.72 417.876L1562.12 422.534C1563.37 422.585 1564.35 423.609 1564.35 424.855V1118.43C1564.35 1119.69 1563.35 1120.72 1562.09 1120.75L1447.11 1123.86C1445.8 1123.89 1444.73 1122.84 1444.73 1121.53L1445.3 420.195Z" fill="#2C443A"/>
<path d="M1574.22 427.16C1574.22 425.841 1575.32 424.788 1576.64 424.841L1691.04 429.423C1692.28 429.473 1693.27 430.497 1693.27 431.744V1113.83C1693.27 1115.09 1692.26 1116.12 1691.01 1116.16L1576.03 1119.21C1574.72 1119.25 1573.64 1118.2 1573.64 1116.89L1574.22 427.16Z" fill="#2C443A"/>
<path d="M1703.14 434.129C1703.14 432.811 1704.24 431.758 1705.55 431.81L1819.96 436.315C1821.2 436.364 1822.19 437.389 1822.19 438.636V1109.24C1822.19 1110.5 1821.18 1111.53 1819.92 1111.56L1704.95 1114.57C1703.64 1114.6 1702.56 1113.55 1702.56 1112.24L1703.14 434.129Z" fill="#2C443A"/>
<path d="M746.128 187.815L184 317.895V263.308L746.128 110L1866.32 187.815V263.308L746.128 187.815Z" fill="#40E796"/>
<path d="M746.128 187.815L184 317.895V263.308L746.128 110M746.128 187.815L1866.32 263.308V187.815L746.128 110M746.128 187.815V110" stroke="#0F4531" stroke-width="5.80711"/>
<path d="M856.914 513.59H855.198L860.16 500.075H861.85L866.812 513.59H865.096L861.058 502.213H860.952L856.914 513.59ZM857.547 508.311H864.463V509.762H857.547V508.311Z" fill="white"/>
<path d="M985.277 518.24V504.726H990.002C990.944 504.726 991.72 504.888 992.331 505.214C992.943 505.535 993.398 505.968 993.697 506.514C993.997 507.055 994.146 507.655 994.146 508.315C994.146 508.896 994.043 509.376 993.836 509.754C993.634 510.132 993.365 510.431 993.031 510.651C992.701 510.871 992.342 511.034 991.955 511.14V511.272C992.369 511.298 992.785 511.443 993.203 511.707C993.62 511.971 993.97 512.35 994.252 512.842C994.533 513.335 994.674 513.938 994.674 514.65C994.674 515.328 994.52 515.937 994.212 516.478C993.904 517.019 993.418 517.448 992.754 517.765C992.09 518.082 991.225 518.24 990.16 518.24H985.277ZM986.914 516.788H990.16C991.229 516.788 991.988 516.582 992.437 516.168C992.89 515.75 993.117 515.244 993.117 514.65C993.117 514.193 993 513.771 992.767 513.383C992.534 512.992 992.202 512.679 991.771 512.446C991.339 512.209 990.829 512.09 990.24 512.09H986.914V516.788ZM986.914 510.665H989.949C990.442 510.665 990.886 510.568 991.282 510.374C991.683 510.181 991.999 509.908 992.233 509.556C992.47 509.204 992.589 508.79 992.589 508.315C992.589 507.721 992.382 507.218 991.969 506.804C991.555 506.386 990.9 506.177 990.002 506.177H986.914V510.665Z" fill="white"/>
<path d="M1120.42 514.754H1118.79C1118.69 514.283 1118.52 513.869 1118.28 513.513C1118.04 513.157 1117.75 512.857 1117.41 512.615C1117.07 512.369 1116.69 512.184 1116.28 512.061C1115.86 511.938 1115.43 511.876 1114.98 511.876C1114.17 511.876 1113.42 512.083 1112.76 512.497C1112.1 512.91 1111.57 513.52 1111.18 514.325C1110.8 515.13 1110.6 516.117 1110.6 517.288C1110.6 518.458 1110.8 519.445 1111.18 520.251C1111.57 521.056 1112.1 521.665 1112.76 522.078C1113.42 522.492 1114.17 522.699 1114.98 522.699C1115.43 522.699 1115.86 522.637 1116.28 522.514C1116.69 522.391 1117.07 522.208 1117.41 521.966C1117.75 521.72 1118.04 521.419 1118.28 521.062C1118.52 520.701 1118.69 520.288 1118.79 519.822H1120.42C1120.3 520.512 1120.07 521.13 1119.75 521.676C1119.42 522.221 1119.02 522.686 1118.53 523.068C1118.05 523.447 1117.51 523.735 1116.9 523.933C1116.31 524.131 1115.67 524.23 1114.98 524.23C1113.83 524.23 1112.81 523.948 1111.91 523.385C1111.01 522.822 1110.31 522.021 1109.79 520.983C1109.28 519.945 1109.02 518.713 1109.02 517.288C1109.02 515.862 1109.28 514.63 1109.79 513.592C1110.31 512.554 1111.01 511.753 1111.91 511.19C1112.81 510.627 1113.83 510.345 1114.98 510.345C1115.67 510.345 1116.31 510.444 1116.9 510.642C1117.51 510.84 1118.05 511.131 1118.53 511.513C1119.02 511.892 1119.42 512.354 1119.75 512.899C1120.07 513.44 1120.3 514.058 1120.42 514.754Z" fill="white"/>
<path d="M1247.28 531.014H1243.11V517.499H1247.47C1248.78 517.499 1249.9 517.769 1250.83 518.311C1251.77 518.847 1252.48 519.619 1252.98 520.627C1253.48 521.63 1253.72 522.831 1253.72 524.23C1253.72 525.638 1253.47 526.85 1252.97 527.866C1252.47 528.878 1251.74 529.656 1250.78 530.202C1249.82 530.743 1248.66 531.014 1247.28 531.014ZM1244.75 529.562H1247.18C1248.3 529.562 1249.22 529.346 1249.96 528.915C1250.69 528.484 1251.24 527.87 1251.6 527.074C1251.96 526.278 1252.14 525.33 1252.14 524.23C1252.14 523.139 1251.96 522.2 1251.61 521.412C1251.25 520.62 1250.72 520.013 1250.01 519.591C1249.3 519.164 1248.42 518.951 1247.36 518.951H1244.75V529.562Z" fill="white"/>
<path d="M1372.03 537.982V524.468H1380.19V525.919H1373.67V530.486H1379.77V531.938H1373.67V536.531H1380.29V537.982H1372.03Z" fill="white"/>
<path d="M1500.95 543.789V530.274H1509.05V531.726H1502.58V536.293H1508.44V537.744H1502.58V543.789H1500.95Z" fill="white"/>
<path d="M1637.94 541.466C1637.8 541.022 1637.61 540.624 1637.37 540.272C1637.14 539.916 1636.86 539.612 1636.53 539.361C1636.21 539.111 1635.85 538.919 1635.44 538.787C1635.03 538.655 1634.58 538.589 1634.09 538.589C1633.29 538.589 1632.56 538.796 1631.91 539.21C1631.25 539.623 1630.73 540.232 1630.34 541.038C1629.95 541.843 1629.76 542.83 1629.76 544C1629.76 545.171 1629.96 546.158 1630.35 546.963C1630.74 547.768 1631.27 548.378 1631.94 548.791C1632.61 549.205 1633.36 549.412 1634.2 549.412C1634.97 549.412 1635.65 549.247 1636.24 548.917C1636.83 548.582 1637.3 548.112 1637.63 547.505C1637.96 546.893 1638.13 546.174 1638.13 545.347L1638.63 545.452H1634.56V544H1639.71V545.452C1639.71 546.565 1639.47 547.533 1639 548.356C1638.53 549.178 1637.88 549.816 1637.05 550.269C1636.22 550.718 1635.27 550.943 1634.2 550.943C1633 550.943 1631.95 550.661 1631.04 550.098C1630.14 549.535 1629.44 548.734 1628.93 547.696C1628.43 546.658 1628.18 545.426 1628.18 544C1628.18 542.931 1628.32 541.97 1628.61 541.117C1628.9 540.259 1629.31 539.529 1629.83 538.926C1630.36 538.323 1630.99 537.861 1631.71 537.54C1632.43 537.219 1633.22 537.058 1634.09 537.058C1634.8 537.058 1635.47 537.166 1636.08 537.382C1636.7 537.593 1637.26 537.894 1637.74 538.286C1638.23 538.673 1638.63 539.137 1638.96 539.678C1639.29 540.215 1639.51 540.811 1639.63 541.466H1637.94Z" fill="white"/>
<path d="M1758.78 556.564V543.05H1760.42V549.068H1767.62V543.05H1769.26V556.564H1767.62V550.52H1760.42V556.564H1758.78Z" fill="white"/>
<path d="M2182.78 518.829C2182.78 504.747 2183 490.723 2183.46 476.756C2183.91 462.674 2184.59 448.48 2185.5 434.172C2178.12 435.421 2171.19 436.216 2164.72 436.556C2158.36 436.783 2150.58 436.897 2141.38 436.897V417.138H2245.8V436.897C2236.49 436.897 2228.6 436.783 2222.12 436.556C2215.76 436.216 2208.89 435.421 2201.51 434.172C2202.42 448.593 2203.1 462.845 2203.56 476.926C2204.01 490.893 2204.24 504.861 2204.24 518.829V550H2182.78V518.829ZM2260.4 413.731H2280.5C2280.5 415.321 2280.5 416.968 2280.5 418.671C2280.5 428.778 2280.27 438.26 2279.82 447.117C2279.36 455.861 2278.57 464.832 2277.43 474.03H2280.16C2283.68 466.422 2288.11 460.971 2293.44 457.678C2298.78 454.271 2304.68 452.568 2311.16 452.568C2317.18 452.568 2322.68 453.931 2327.68 456.656C2332.79 459.268 2336.88 463.413 2339.94 469.09C2343.12 474.768 2344.71 481.866 2344.71 490.382V550H2324.44V499.24C2324.44 493.448 2323.76 488.566 2322.4 484.591C2321.04 480.617 2318.82 477.494 2315.76 475.223C2312.8 472.838 2308.94 471.646 2304.17 471.646C2299.63 471.646 2295.54 472.781 2291.91 475.052C2288.39 477.323 2285.61 480.617 2283.56 484.932C2281.52 489.133 2280.5 494.13 2280.5 499.921V550H2260.4V413.731ZM2411.09 552.896C2401.78 552.896 2393.43 550.852 2386.05 546.764C2378.79 542.562 2373.05 536.714 2368.85 529.219C2364.65 521.611 2362.55 512.867 2362.55 502.987C2362.55 493.335 2364.53 484.705 2368.51 477.096C2372.6 469.374 2378.22 463.356 2385.37 459.041C2392.53 454.725 2400.65 452.568 2409.73 452.568C2417.57 452.568 2424.89 454.328 2431.7 457.848C2438.52 461.255 2444.02 466.706 2448.23 474.201C2452.54 481.582 2454.7 490.893 2454.7 502.136V507.927H2383.16C2383.73 513.605 2385.26 518.431 2387.76 522.406C2390.26 526.38 2393.55 529.389 2397.64 531.433C2401.72 533.477 2406.21 534.499 2411.09 534.499C2416.77 534.499 2421.82 532.966 2426.25 529.9C2430.68 526.721 2434.03 522.406 2436.3 516.955L2455.38 524.45C2452.09 532.966 2446.47 539.837 2438.52 545.06C2430.68 550.284 2421.54 552.896 2411.09 552.896ZM2433.92 492.597C2433.46 487.487 2432.04 483.285 2429.66 479.992C2427.39 476.699 2424.49 474.314 2420.97 472.838C2417.57 471.248 2413.76 470.453 2409.56 470.453C2405.02 470.453 2400.99 471.418 2397.47 473.349C2393.95 475.166 2391.05 477.778 2388.78 481.184C2386.62 484.477 2385.09 488.282 2384.18 492.597H2433.92ZM2501.67 417.138H2525.86C2526.31 418.387 2526.71 419.636 2527.05 420.885C2532.96 441.099 2537.9 459.154 2541.87 475.052C2545.96 490.837 2549.76 507.757 2553.28 525.812H2556.01C2560.21 507.189 2565.55 486.465 2572.02 463.64C2574.18 455.804 2576.39 448.026 2578.66 440.304C2581.05 432.468 2583.38 424.746 2585.65 417.138H2610.01C2612.28 424.519 2614.09 430.424 2615.46 434.853C2620 450.183 2624.31 465.457 2628.4 480.673C2632.6 495.776 2636.41 511.163 2639.82 526.834H2642.54C2643.56 522.292 2644.3 518.885 2644.76 516.614C2645.21 514.343 2645.89 510.936 2646.8 506.394C2650.09 491.177 2653.61 476.358 2657.36 461.936C2661.22 447.515 2665.37 432.582 2669.79 417.138H2694.15L2654.8 550H2628.23C2621.99 530.468 2616.59 512.696 2612.05 496.685C2607.62 480.56 2603.53 463.299 2599.79 444.903H2596.04C2595.36 448.537 2594.45 452.681 2593.31 457.337C2589.68 473.917 2585.82 489.474 2581.73 504.009C2577.64 518.545 2572.99 533.875 2567.76 550H2541.02L2501.67 417.138ZM2743.28 552.896C2733.86 552.896 2725.45 550.795 2718.07 546.593C2710.69 542.278 2704.96 536.373 2700.87 528.878C2696.78 521.27 2694.74 512.583 2694.74 502.817C2694.74 493.051 2696.78 484.364 2700.87 476.756C2704.96 469.147 2710.69 463.242 2718.07 459.041C2725.45 454.725 2733.86 452.568 2743.28 452.568C2752.71 452.568 2761.05 454.725 2768.32 459.041C2775.7 463.242 2781.44 469.147 2785.52 476.756C2789.61 484.364 2791.66 493.051 2791.66 502.817C2791.66 512.583 2789.61 521.27 2785.52 528.878C2781.44 536.373 2775.7 542.278 2768.32 546.593C2761.05 550.795 2752.71 552.896 2743.28 552.896ZM2743.28 533.818C2748.62 533.818 2753.33 532.512 2757.42 529.9C2761.62 527.175 2764.86 523.484 2767.13 518.829C2769.51 514.173 2770.71 508.836 2770.71 502.817C2770.71 496.798 2769.51 491.461 2767.13 486.805C2764.86 482.036 2761.62 478.345 2757.42 475.734C2753.33 473.008 2748.62 471.646 2743.28 471.646C2737.94 471.646 2733.17 473.008 2728.97 475.734C2724.88 478.345 2721.65 482.036 2719.26 486.805C2716.99 491.461 2715.86 496.798 2715.86 502.817C2715.86 508.836 2716.99 514.173 2719.26 518.829C2721.65 523.484 2724.88 527.175 2728.97 529.9C2733.17 532.512 2737.94 533.818 2743.28 533.818ZM2810.83 455.293H2830.59C2830.59 456.202 2830.59 457.167 2830.59 458.189C2830.7 461.141 2830.64 463.98 2830.42 466.706C2830.19 469.431 2829.57 472.781 2828.54 476.756H2831.27C2833.65 468.92 2837.23 462.958 2842 458.87C2846.88 454.669 2852.62 452.568 2859.2 452.568C2862.61 452.568 2865.79 453.136 2868.74 454.271V476.756C2867.04 476.188 2865.11 475.734 2862.95 475.393C2860.91 475.052 2858.98 474.882 2857.16 474.882C2850.57 474.882 2845.29 476.642 2841.32 480.162C2837.46 483.569 2834.79 487.827 2833.31 492.937C2831.84 497.934 2831.04 503.555 2830.93 509.801V510.652V550H2810.83V455.293ZM2883.69 413.731H2903.79V550H2883.69V413.731ZM2966.4 552.896C2957.88 552.896 2950.33 550.738 2943.74 546.423C2937.16 542.108 2932.05 536.146 2928.41 528.538C2924.89 520.929 2923.13 512.299 2923.13 502.647C2923.13 492.54 2925.01 483.739 2928.75 476.245C2932.62 468.636 2937.84 462.788 2944.43 458.7C2951.01 454.612 2958.28 452.568 2966.23 452.568C2973.5 452.568 2979.68 454.442 2984.79 458.189C2990.02 461.936 2994.05 467.671 2996.89 475.393H2999.61C2998.48 464.605 2997.74 454.669 2997.4 445.584C2997.17 436.386 2997.12 425.995 2997.23 414.413V413.731H3017.5V520.362C3017.5 527.629 3017.73 533.307 3018.18 537.395C3018.75 541.483 3019.54 545.685 3020.57 550H3000.47C3000.47 549.886 3000.41 549.773 3000.3 549.659C3000.3 549.432 3000.3 549.262 3000.3 549.148C2999.61 546.196 2999.22 543.527 2999.1 541.143C2998.99 538.644 2999.27 535.635 2999.95 532.115H2997.23C2994.28 539.382 2990.13 544.663 2984.79 547.956C2979.46 551.249 2973.33 552.896 2966.4 552.896ZM2970.66 533.648C2975.77 533.648 2980.37 532.342 2984.45 529.73C2988.54 527.005 2991.78 523.314 2994.16 518.658C2996.55 513.889 2997.74 508.495 2997.74 502.476C2997.74 496.458 2996.55 491.121 2994.16 486.465C2991.78 481.809 2988.49 478.175 2984.28 475.563C2980.2 472.951 2975.65 471.646 2970.66 471.646C2965.55 471.646 2960.95 473.008 2956.86 475.734C2952.89 478.345 2949.76 481.979 2947.49 486.635C2945.22 491.291 2944.08 496.628 2944.08 502.647C2944.08 508.552 2945.22 513.832 2947.49 518.488C2949.76 523.144 2952.89 526.834 2956.86 529.56C2960.95 532.285 2965.55 533.648 2970.66 533.648ZM2214.8 770.896C2201.63 770.896 2189.82 768 2179.37 762.209C2169.04 756.417 2160.97 748.241 2155.18 737.68C2149.39 727.119 2146.49 715.026 2146.49 701.399C2146.49 687.318 2149.56 675.053 2155.69 664.606C2161.83 654.159 2170 646.21 2180.22 640.759C2190.55 635.195 2201.74 632.413 2213.78 632.413C2222.86 632.413 2231.44 634.059 2239.5 637.352C2247.56 640.532 2254.54 645.188 2260.45 651.32C2266.47 657.452 2270.95 664.776 2273.91 673.293L2254.15 681.299C2250.51 672.442 2245.18 665.458 2238.14 660.348C2231.21 655.238 2222.98 652.683 2213.44 652.683C2205.15 652.683 2197.6 654.727 2190.78 658.815C2184.08 662.789 2178.75 668.524 2174.77 676.019C2170.91 683.513 2168.98 692.314 2168.98 702.421C2168.98 713.209 2171.19 722.236 2175.62 729.504C2180.16 736.772 2185.96 742.109 2193 745.516C2200.04 748.922 2207.48 750.626 2215.31 750.626C2222.35 750.626 2228.77 749.263 2234.56 746.538C2240.35 743.812 2245.29 739.838 2249.38 734.614C2253.58 729.391 2256.76 723.258 2258.92 716.218L2278.68 723.031C2273.68 738.589 2265.62 750.455 2254.49 758.632C2243.47 766.808 2230.24 770.896 2214.8 770.896ZM2335.91 770.896C2326.48 770.896 2318.08 768.795 2310.7 764.593C2303.31 760.278 2297.58 754.373 2293.49 746.878C2289.4 739.27 2287.36 730.583 2287.36 720.817C2287.36 711.051 2289.4 702.364 2293.49 694.756C2297.58 687.147 2303.31 681.242 2310.7 677.041C2318.08 672.725 2326.48 670.568 2335.91 670.568C2345.33 670.568 2353.68 672.725 2360.94 677.041C2368.33 681.242 2374.06 687.147 2378.15 694.756C2382.24 702.364 2384.28 711.051 2384.28 720.817C2384.28 730.583 2382.24 739.27 2378.15 746.878C2374.06 754.373 2368.33 760.278 2360.94 764.593C2353.68 768.795 2345.33 770.896 2335.91 770.896ZM2335.91 751.818C2341.24 751.818 2345.96 750.512 2350.04 747.9C2354.25 745.175 2357.48 741.484 2359.75 736.829C2362.14 732.173 2363.33 726.836 2363.33 720.817C2363.33 714.798 2362.14 709.461 2359.75 704.805C2357.48 700.036 2354.25 696.345 2350.04 693.734C2345.96 691.008 2341.24 689.646 2335.91 689.646C2330.57 689.646 2325.8 691.008 2321.6 693.734C2317.51 696.345 2314.27 700.036 2311.89 704.805C2309.62 709.461 2308.48 714.798 2308.48 720.817C2308.48 726.836 2309.62 732.173 2311.89 736.829C2314.27 741.484 2317.51 745.175 2321.6 747.9C2325.8 750.512 2330.57 751.818 2335.91 751.818ZM2403.45 673.293H2423.21C2423.21 673.634 2423.21 673.975 2423.21 674.315C2423.21 677.381 2423.04 680.22 2422.7 682.832C2422.47 685.444 2421.74 688.51 2420.49 692.03H2423.21C2426.62 684.649 2430.99 679.255 2436.33 675.848C2441.67 672.328 2447.46 670.568 2453.7 670.568C2460.4 670.568 2466.25 672.442 2471.25 676.189C2476.24 679.936 2479.59 686.012 2481.3 694.415H2484.02C2487.66 685.671 2492.14 679.539 2497.48 676.019C2502.82 672.385 2508.61 670.568 2514.85 670.568C2520.76 670.568 2526.21 671.987 2531.2 674.826C2536.32 677.552 2540.46 681.753 2543.64 687.431C2546.82 693.109 2548.41 700.093 2548.41 708.382V768H2528.14V717.24V716.218C2528.14 710.54 2527.4 705.827 2525.92 702.08C2524.56 698.219 2522.46 695.21 2519.62 693.052C2516.9 690.781 2513.38 689.646 2509.06 689.646C2504.63 689.646 2500.71 690.781 2497.31 693.052C2493.9 695.323 2491.18 698.617 2489.13 702.932C2487.09 707.247 2486.07 712.243 2486.07 717.921V768H2465.8V717.24C2465.8 711.221 2465.11 706.282 2463.75 702.421C2462.5 698.446 2460.4 695.323 2457.45 693.052C2454.61 690.781 2450.98 689.646 2446.55 689.646C2442.23 689.646 2438.32 690.781 2434.79 693.052C2431.39 695.323 2428.66 698.617 2426.62 702.932C2424.57 707.247 2423.55 712.243 2423.55 717.921V768H2403.45V673.293ZM2572.79 673.293H2592.55C2592.55 673.861 2592.55 674.429 2592.55 674.997C2592.55 677.949 2592.38 680.788 2592.04 683.513C2591.81 686.239 2591.19 689.702 2590.17 693.904H2592.89C2596.86 685.501 2601.52 679.539 2606.86 676.019C2612.31 672.385 2618.44 670.568 2625.25 670.568C2633.54 670.568 2640.87 672.782 2647.23 677.211C2653.59 681.526 2658.47 687.488 2661.88 695.096C2665.4 702.705 2667.16 711.108 2667.16 720.306C2667.16 730.413 2665.17 739.327 2661.2 747.049C2657.33 754.657 2652.05 760.562 2645.35 764.764C2638.77 768.852 2631.61 770.896 2623.89 770.896C2619.12 770.896 2614.81 770.101 2610.95 768.511C2607.09 766.921 2603.68 764.537 2600.73 761.357C2597.89 758.177 2595.45 754.203 2593.4 749.433H2590.68C2591.7 757.723 2592.32 765.331 2592.55 772.258C2592.89 779.299 2593 787.929 2592.89 798.149C2592.89 800.648 2592.89 803.089 2592.89 805.474H2572.79V673.293ZM2619.63 751.818C2624.74 751.818 2629.29 750.512 2633.26 747.9C2637.35 745.175 2640.53 741.428 2642.8 736.658C2645.07 731.889 2646.21 726.608 2646.21 720.817C2646.21 714.798 2645.07 709.461 2642.8 704.805C2640.53 700.036 2637.35 696.345 2633.26 693.734C2629.29 691.008 2624.74 689.646 2619.63 689.646C2614.52 689.646 2609.87 691.008 2605.67 693.734C2601.58 696.345 2598.34 700.036 2595.96 704.805C2593.69 709.461 2592.55 714.798 2592.55 720.817C2592.55 726.836 2593.69 732.173 2595.96 736.829C2598.34 741.484 2601.58 745.175 2605.67 747.9C2609.87 750.512 2614.52 751.818 2619.63 751.818ZM2719.28 770.896C2712.46 770.896 2706.5 769.533 2701.39 766.808C2696.4 763.969 2692.42 759.71 2689.47 754.032C2686.63 748.355 2685.21 741.257 2685.21 732.74V673.293H2705.48V725.586C2705.48 734.217 2707.18 740.746 2710.59 745.175C2714.11 749.604 2718.94 751.818 2725.07 751.818C2729.61 751.818 2733.59 750.569 2736.99 748.071C2740.4 745.572 2743.01 742.279 2744.83 738.191C2746.65 734.103 2747.55 729.674 2747.55 724.905V673.293H2767.82V738.362C2767.82 745.629 2768.05 751.307 2768.51 755.395C2769.07 759.483 2769.87 763.685 2770.89 768H2750.79C2750.68 767.659 2750.56 767.319 2750.45 766.978C2749.65 764.025 2749.26 761.3 2749.26 758.802C2749.26 756.19 2749.88 753.01 2751.13 749.263H2748.41C2745.68 756.871 2741.93 762.379 2737.16 765.786C2732.39 769.192 2726.43 770.896 2719.28 770.896ZM2830.83 770.896C2821.97 770.896 2815.39 769.079 2811.07 765.445C2806.87 761.698 2804.26 757.61 2803.24 753.181C2802.22 748.752 2801.7 743.812 2801.7 738.362C2801.7 728.028 2801.82 719.284 2802.05 712.13C2802.39 704.862 2803.18 697.254 2804.43 689.305C2800.34 690.327 2796.77 690.951 2793.7 691.179C2790.75 691.406 2787.17 691.519 2782.97 691.519V673.293C2787.17 673.293 2790.75 673.407 2793.7 673.634C2796.77 673.861 2800.34 674.486 2804.43 675.508C2803.29 670.852 2802.56 666.48 2802.22 662.392C2801.88 658.19 2801.7 653.534 2801.7 648.424C2801.7 647.629 2801.7 646.834 2801.7 646.04H2821.8C2821.8 647.289 2821.8 648.538 2821.8 649.787C2821.8 654.443 2821.63 658.815 2821.29 662.903C2820.95 666.877 2820.21 671.079 2819.08 675.508C2824.19 674.486 2828.85 673.861 2833.05 673.634C2837.36 673.407 2842.47 673.293 2848.38 673.293V691.519C2842.47 691.519 2837.36 691.406 2833.05 691.179C2828.85 690.951 2824.19 690.327 2819.08 689.305C2819.87 693.506 2820.44 697.765 2820.78 702.08C2821.24 706.282 2821.52 710.483 2821.63 714.685C2821.75 717.524 2821.8 720.363 2821.8 723.202C2821.8 725.927 2821.8 728.652 2821.8 731.378V731.718C2821.8 735.92 2822.03 739.44 2822.49 742.279C2822.94 745.005 2824.13 747.389 2826.06 749.433C2827.99 751.477 2830.95 752.499 2834.92 752.499C2838.89 752.499 2843.15 751.364 2847.7 749.093L2848.38 748.752V766.978C2846.11 768.341 2843.44 769.306 2840.37 769.874C2837.42 770.555 2834.24 770.896 2830.83 770.896ZM2906.8 770.896C2897.49 770.896 2889.14 768.852 2881.76 764.764C2874.49 760.562 2868.76 754.714 2864.55 747.219C2860.35 739.611 2858.25 730.867 2858.25 720.987C2858.25 711.335 2860.24 702.705 2864.21 695.096C2868.3 687.374 2873.92 681.356 2881.08 677.041C2888.23 672.725 2896.35 670.568 2905.43 670.568C2913.27 670.568 2920.59 672.328 2927.41 675.848C2934.22 679.255 2939.73 684.706 2943.93 692.201C2948.25 699.582 2950.4 708.893 2950.4 720.136V725.927H2878.86C2879.43 731.605 2880.96 736.431 2883.46 740.406C2885.96 744.38 2889.25 747.389 2893.34 749.433C2897.43 751.477 2901.91 752.499 2906.8 752.499C2912.47 752.499 2917.53 750.966 2921.96 747.9C2926.39 744.721 2929.74 740.406 2932.01 734.955L2951.08 742.45C2947.79 750.966 2942.17 757.837 2934.22 763.06C2926.39 768.284 2917.24 770.896 2906.8 770.896ZM2929.62 710.597C2929.17 705.487 2927.75 701.285 2925.36 697.992C2923.09 694.699 2920.2 692.314 2916.68 690.838C2913.27 689.248 2909.47 688.453 2905.26 688.453C2900.72 688.453 2896.69 689.418 2893.17 691.349C2889.65 693.166 2886.75 695.778 2884.48 699.184C2882.33 702.477 2880.79 706.282 2879.88 710.597H2929.62ZM2970.02 673.293H2989.78C2989.78 674.202 2989.78 675.167 2989.78 676.189C2989.89 679.141 2989.84 681.98 2989.61 684.706C2989.38 687.431 2988.76 690.781 2987.73 694.756H2990.46C2992.84 686.92 2996.42 680.958 3001.19 676.87C3006.07 672.669 3011.81 670.568 3018.39 670.568C3021.8 670.568 3024.98 671.136 3027.93 672.271V694.756C3026.23 694.188 3024.3 693.734 3022.14 693.393C3020.1 693.052 3018.17 692.882 3016.35 692.882C3009.76 692.882 3004.48 694.642 3000.51 698.162C2996.65 701.569 2993.98 705.827 2992.5 710.937C2991.03 715.934 2990.23 721.555 2990.12 727.801V728.652V768H2970.02V673.293ZM3086.43 768C3086.43 764.82 3086.43 761.641 3086.43 758.461C3086.43 745.175 3086.6 733.081 3086.94 722.18C3087.28 711.278 3088.02 700.32 3089.15 689.305C3085.75 690.327 3082.85 690.951 3080.47 691.179C3078.2 691.406 3075.47 691.519 3072.29 691.519V673.293C3075.81 673.293 3078.82 673.407 3081.32 673.634C3083.82 673.861 3086.43 674.486 3089.15 675.508C3087.79 673.009 3087 670.795 3086.77 668.865C3086.54 666.934 3086.43 664.493 3086.43 661.54C3086.43 661.313 3086.43 661.086 3086.43 660.859C3086.43 653.478 3087.62 647.516 3090.01 642.973C3092.5 638.318 3095.97 634.797 3100.4 632.413C3104.94 630.028 3110.33 628.836 3116.58 628.836C3122.94 628.836 3128.39 629.914 3132.93 632.072V649.276C3130.55 648.14 3128.39 647.345 3126.46 646.891C3124.64 646.437 3122.77 646.21 3120.84 646.21C3116.52 646.21 3113.34 646.834 3111.3 648.084C3109.25 649.219 3107.95 650.809 3107.38 652.853C3106.81 654.897 3106.53 657.736 3106.53 661.37C3106.53 661.71 3106.53 662.051 3106.53 662.392C3106.53 662.505 3106.53 662.619 3106.53 662.732C3106.53 662.732 3106.53 662.789 3106.53 662.903C3106.53 665.515 3106.36 667.729 3106.02 669.546C3105.79 671.249 3105.05 673.236 3103.8 675.508C3108.01 674.486 3111.98 673.861 3115.73 673.634C3119.59 673.407 3124.41 673.293 3130.21 673.293V691.519C3124.98 691.519 3120.44 691.406 3116.58 691.179C3112.83 690.951 3108.57 690.327 3103.8 689.305C3105.05 701.569 3105.79 713.493 3106.02 725.075C3106.36 736.658 3106.53 750.966 3106.53 768H3086.43ZM3184.26 770.896C3174.83 770.896 3166.43 768.795 3159.05 764.593C3151.67 760.278 3145.93 754.373 3141.84 746.878C3137.76 739.27 3135.71 730.583 3135.71 720.817C3135.71 711.051 3137.76 702.364 3141.84 694.756C3145.93 687.147 3151.67 681.242 3159.05 677.041C3166.43 672.725 3174.83 670.568 3184.26 670.568C3193.68 670.568 3202.03 672.725 3209.3 677.041C3216.68 681.242 3222.41 687.147 3226.5 694.756C3230.59 702.364 3232.63 711.051 3232.63 720.817C3232.63 730.583 3230.59 739.27 3226.5 746.878C3222.41 754.373 3216.68 760.278 3209.3 764.593C3202.03 768.795 3193.68 770.896 3184.26 770.896ZM3184.26 751.818C3189.6 751.818 3194.31 750.512 3198.4 747.9C3202.6 745.175 3205.83 741.484 3208.1 736.829C3210.49 732.173 3211.68 726.836 3211.68 720.817C3211.68 714.798 3210.49 709.461 3208.1 704.805C3205.83 700.036 3202.6 696.345 3198.4 693.734C3194.31 691.008 3189.6 689.646 3184.26 689.646C3178.92 689.646 3174.15 691.008 3169.95 693.734C3165.86 696.345 3162.63 700.036 3160.24 704.805C3157.97 709.461 3156.83 714.798 3156.83 720.817C3156.83 726.836 3157.97 732.173 3160.24 736.829C3162.63 741.484 3165.86 745.175 3169.95 747.9C3174.15 750.512 3178.92 751.818 3184.26 751.818ZM3251.81 673.293H3271.56C3271.56 674.202 3271.56 675.167 3271.56 676.189C3271.68 679.141 3271.62 681.98 3271.39 684.706C3271.17 687.431 3270.54 690.781 3269.52 694.756H3272.25C3274.63 686.92 3278.21 680.958 3282.98 676.87C3287.86 672.669 3293.59 670.568 3300.18 670.568C3303.59 670.568 3306.77 671.136 3309.72 672.271V694.756C3308.02 694.188 3306.09 693.734 3303.93 693.393C3301.88 693.052 3299.95 692.882 3298.14 692.882C3291.55 692.882 3286.27 694.642 3282.3 698.162C3278.43 701.569 3275.77 705.827 3274.29 710.937C3272.81 715.934 3272.02 721.555 3271.91 727.801V728.652V768H3251.81V673.293ZM2196.23 987.896C2187.94 987.896 2180.28 986.476 2173.24 983.637C2166.31 980.685 2160.29 976.256 2155.18 970.351C2150.19 964.446 2146.61 957.235 2144.45 948.718L2164.38 941.735C2166.88 950.933 2170.97 957.689 2176.64 962.005C2182.32 966.206 2188.79 968.307 2196.06 968.307C2200.38 968.307 2204.41 967.626 2208.16 966.263C2212.02 964.787 2215.08 962.629 2217.35 959.79C2219.74 956.838 2220.93 953.318 2220.93 949.229C2220.93 945.369 2219.97 942.246 2218.04 939.861C2216.11 937.363 2213.66 935.432 2210.71 934.07C2207.76 932.593 2203.95 931.174 2199.3 929.811C2198.5 929.471 2197.65 929.187 2196.74 928.96L2184.82 925.212C2178.69 923.395 2173.07 921.124 2167.96 918.399C2162.96 915.673 2158.53 911.756 2154.67 906.646C2150.81 901.535 2148.88 895.176 2148.88 887.568C2148.88 879.732 2150.92 872.976 2155.01 867.298C2159.1 861.507 2164.55 857.078 2171.36 854.012C2178.18 850.946 2185.73 849.413 2194.02 849.413C2201.74 849.413 2208.72 850.775 2214.97 853.501C2221.33 856.226 2226.61 859.973 2230.81 864.743C2235.01 869.399 2237.91 874.679 2239.5 880.584L2219.91 888.59C2217.75 882.458 2214.4 877.632 2209.86 874.111C2205.32 870.591 2199.81 868.831 2193.34 868.831C2189.14 868.831 2185.33 869.569 2181.92 871.045C2178.63 872.408 2176.02 874.395 2174.09 877.007C2172.27 879.505 2171.36 882.458 2171.36 885.865C2171.36 891.315 2173.63 895.574 2178.18 898.64C2182.72 901.706 2188.51 904.374 2195.55 906.646C2195.67 906.646 2195.72 906.702 2195.72 906.816C2195.72 906.816 2195.78 906.816 2195.89 906.816L2209.69 911.245C2210.48 911.472 2211.45 911.812 2212.59 912.267C2218.38 914.084 2223.43 916.184 2227.74 918.569C2232.17 920.954 2235.98 924.474 2239.16 929.13C2242.34 933.672 2243.93 939.464 2243.93 946.504C2243.93 954.453 2241.88 961.607 2237.79 967.966C2233.71 974.212 2228.09 979.095 2220.93 982.615C2213.78 986.136 2205.54 987.896 2196.23 987.896ZM2298.37 987.896C2289.51 987.896 2282.92 986.079 2278.61 982.445C2274.41 978.698 2271.79 974.61 2270.77 970.181C2269.75 965.752 2269.24 960.812 2269.24 955.362C2269.24 945.028 2269.35 936.284 2269.58 929.13C2269.92 921.862 2270.72 914.254 2271.96 906.305C2267.88 907.327 2264.3 907.951 2261.23 908.179C2258.28 908.406 2254.7 908.519 2250.5 908.519V890.293C2254.7 890.293 2258.28 890.407 2261.23 890.634C2264.3 890.861 2267.88 891.486 2271.96 892.508C2270.83 887.852 2270.09 883.48 2269.75 879.392C2269.41 875.19 2269.24 870.534 2269.24 865.424C2269.24 864.629 2269.24 863.834 2269.24 863.04H2289.34C2289.34 864.289 2289.34 865.538 2289.34 866.787C2289.34 871.443 2289.17 875.815 2288.83 879.903C2288.49 883.877 2287.75 888.079 2286.61 892.508C2291.72 891.486 2296.38 890.861 2300.58 890.634C2304.9 890.407 2310.01 890.293 2315.91 890.293V908.519C2310.01 908.519 2304.9 908.406 2300.58 908.179C2296.38 907.951 2291.72 907.327 2286.61 906.305C2287.41 910.506 2287.98 914.765 2288.32 919.08C2288.77 923.282 2289.05 927.483 2289.17 931.685C2289.28 934.524 2289.34 937.363 2289.34 940.202C2289.34 942.927 2289.34 945.652 2289.34 948.378V948.718C2289.34 952.92 2289.57 956.44 2290.02 959.279C2290.47 962.005 2291.67 964.389 2293.6 966.433C2295.53 968.477 2298.48 969.499 2302.45 969.499C2306.43 969.499 2310.69 968.364 2315.23 966.093L2315.91 965.752V983.978C2313.64 985.341 2310.97 986.306 2307.91 986.874C2304.95 987.555 2301.77 987.896 2298.37 987.896ZM2333.42 890.293H2353.18C2353.18 891.202 2353.18 892.167 2353.18 893.189C2353.29 896.141 2353.24 898.98 2353.01 901.706C2352.78 904.431 2352.16 907.781 2351.14 911.756H2353.86C2356.25 903.92 2359.82 897.958 2364.59 893.87C2369.48 889.669 2375.21 887.568 2381.8 887.568C2385.2 887.568 2388.38 888.136 2391.34 889.271V911.756C2389.63 911.188 2387.7 910.734 2385.55 910.393C2383.5 910.052 2381.57 909.882 2379.75 909.882C2373.17 909.882 2367.89 911.642 2363.91 915.162C2360.05 918.569 2357.38 922.827 2355.91 927.937C2354.43 932.934 2353.64 938.555 2353.52 944.801V945.652V985H2333.42V890.293ZM2439.16 987.896C2432.34 987.896 2426.38 986.533 2421.27 983.808C2416.27 980.969 2412.3 976.71 2409.35 971.032C2406.51 965.355 2405.09 958.257 2405.09 949.74V890.293H2425.36V942.586C2425.36 951.217 2427.06 957.746 2430.47 962.175C2433.99 966.604 2438.82 968.818 2444.95 968.818C2449.49 968.818 2453.46 967.569 2456.87 965.071C2460.28 962.572 2462.89 959.279 2464.71 955.191C2466.52 951.103 2467.43 946.674 2467.43 941.905V890.293H2487.7V955.362C2487.7 962.629 2487.93 968.307 2488.38 972.395C2488.95 976.483 2489.75 980.685 2490.77 985H2470.67C2470.55 984.659 2470.44 984.319 2470.33 983.978C2469.53 981.025 2469.13 978.3 2469.13 975.802C2469.13 973.19 2469.76 970.01 2471.01 966.263H2468.28C2465.56 973.871 2461.81 979.379 2457.04 982.786C2452.27 986.192 2446.31 987.896 2439.16 987.896ZM2555.65 987.896C2546.45 987.896 2538.1 985.852 2530.61 981.764C2523.23 977.562 2517.44 971.714 2513.24 964.219C2509.03 956.611 2506.93 947.81 2506.93 937.817C2506.93 927.824 2509.03 919.023 2513.24 911.415C2517.44 903.807 2523.17 897.958 2530.44 893.87C2537.71 889.669 2545.94 887.568 2555.14 887.568C2565.13 887.568 2573.99 890.066 2581.71 895.063C2589.43 899.946 2595 907.043 2598.4 916.355L2579.33 924.02C2577.4 918.342 2574.27 914.027 2569.96 911.074C2565.64 908.122 2560.65 906.646 2554.97 906.646C2549.63 906.646 2544.92 908.008 2540.83 910.734C2536.74 913.459 2533.56 917.206 2531.29 921.976C2529.13 926.632 2528.06 931.855 2528.06 937.647C2528.06 943.892 2529.25 949.4 2531.63 954.169C2534.02 958.825 2537.31 962.459 2541.51 965.071C2545.83 967.569 2550.6 968.818 2555.82 968.818C2561.95 968.818 2567.29 967.172 2571.83 963.878C2576.49 960.472 2580.01 955.702 2582.39 949.57L2601.13 956.895C2597.72 966.661 2591.93 974.269 2583.75 979.72C2575.69 985.17 2566.32 987.896 2555.65 987.896ZM2654.18 987.896C2645.32 987.896 2638.73 986.079 2634.42 982.445C2630.21 978.698 2627.6 974.61 2626.58 970.181C2625.56 965.752 2625.05 960.812 2625.05 955.362C2625.05 945.028 2625.16 936.284 2625.39 929.13C2625.73 921.862 2626.52 914.254 2627.77 906.305C2623.69 907.327 2620.11 907.951 2617.04 908.179C2614.09 908.406 2610.51 908.519 2606.31 908.519V890.293C2610.51 890.293 2614.09 890.407 2617.04 890.634C2620.11 890.861 2623.69 891.486 2627.77 892.508C2626.64 887.852 2625.9 883.48 2625.56 879.392C2625.22 875.19 2625.05 870.534 2625.05 865.424C2625.05 864.629 2625.05 863.834 2625.05 863.04H2645.15C2645.15 864.289 2645.15 865.538 2645.15 866.787C2645.15 871.443 2644.98 875.815 2644.64 879.903C2644.3 883.877 2643.56 888.079 2642.42 892.508C2647.53 891.486 2652.19 890.861 2656.39 890.634C2660.7 890.407 2665.82 890.293 2671.72 890.293V908.519C2665.82 908.519 2660.7 908.406 2656.39 908.179C2652.19 907.951 2647.53 907.327 2642.42 906.305C2643.22 910.506 2643.78 914.765 2644.13 919.08C2644.58 923.282 2644.86 927.483 2644.98 931.685C2645.09 934.524 2645.15 937.363 2645.15 940.202C2645.15 942.927 2645.15 945.652 2645.15 948.378V948.718C2645.15 952.92 2645.37 956.44 2645.83 959.279C2646.28 962.005 2647.48 964.389 2649.41 966.433C2651.34 968.477 2654.29 969.499 2658.26 969.499C2662.24 969.499 2666.5 968.364 2671.04 966.093L2671.72 965.752V983.978C2669.45 985.341 2666.78 986.306 2663.71 986.874C2660.76 987.555 2657.58 987.896 2654.18 987.896ZM2722.11 987.896C2715.29 987.896 2709.33 986.533 2704.22 983.808C2699.22 980.969 2695.25 976.71 2692.3 971.032C2689.46 965.355 2688.04 958.257 2688.04 949.74V890.293H2708.31V942.586C2708.31 951.217 2710.01 957.746 2713.42 962.175C2716.94 966.604 2721.77 968.818 2727.9 968.818C2732.44 968.818 2736.41 967.569 2739.82 965.071C2743.23 962.572 2745.84 959.279 2747.66 955.191C2749.47 951.103 2750.38 946.674 2750.38 941.905V890.293H2770.65V955.362C2770.65 962.629 2770.88 968.307 2771.33 972.395C2771.9 976.483 2772.7 980.685 2773.72 985H2753.62C2753.5 984.659 2753.39 984.319 2753.28 983.978C2752.48 981.025 2752.09 978.3 2752.09 975.802C2752.09 973.19 2752.71 970.01 2753.96 966.263H2751.23C2748.51 973.871 2744.76 979.379 2739.99 982.786C2735.22 986.192 2729.26 987.896 2722.11 987.896ZM2796.36 890.293H2816.12C2816.12 891.202 2816.12 892.167 2816.12 893.189C2816.23 896.141 2816.17 898.98 2815.95 901.706C2815.72 904.431 2815.09 907.781 2814.07 911.756H2816.8C2819.18 903.92 2822.76 897.958 2827.53 893.87C2832.41 889.669 2838.15 887.568 2844.73 887.568C2848.14 887.568 2851.32 888.136 2854.27 889.271V911.756C2852.57 911.188 2850.64 910.734 2848.48 910.393C2846.44 910.052 2844.5 909.882 2842.69 909.882C2836.1 909.882 2830.82 911.642 2826.85 915.162C2822.99 918.569 2820.32 922.827 2818.84 927.937C2817.36 932.934 2816.57 938.555 2816.46 944.801V945.652V985H2796.36V890.293ZM2908.29 987.896C2898.98 987.896 2890.64 985.852 2883.25 981.764C2875.99 977.562 2870.25 971.714 2866.05 964.219C2861.85 956.611 2859.75 947.867 2859.75 937.987C2859.75 928.335 2861.74 919.705 2865.71 912.096C2869.8 904.374 2875.42 898.356 2882.57 894.041C2889.73 889.725 2897.85 887.568 2906.93 887.568C2914.77 887.568 2922.09 889.328 2928.9 892.848C2935.72 896.255 2941.23 901.706 2945.43 909.201C2949.74 916.582 2951.9 925.893 2951.9 937.136V942.927H2880.36C2880.93 948.605 2882.46 953.431 2884.96 957.406C2887.46 961.38 2890.75 964.389 2894.84 966.433C2898.93 968.477 2903.41 969.499 2908.29 969.499C2913.97 969.499 2919.03 967.966 2923.45 964.9C2927.88 961.721 2931.23 957.406 2933.5 951.955L2952.58 959.45C2949.29 967.966 2943.67 974.837 2935.72 980.06C2927.88 985.284 2918.74 987.896 2908.29 987.896ZM2931.12 927.597C2930.66 922.487 2929.25 918.285 2926.86 914.992C2924.59 911.699 2921.69 909.314 2918.17 907.838C2914.77 906.248 2910.96 905.453 2906.76 905.453C2902.22 905.453 2898.19 906.418 2894.67 908.349C2891.15 910.166 2888.25 912.778 2885.98 916.184C2883.82 919.477 2882.29 923.282 2881.38 927.597H2931.12ZM3008.65 987.896C3000.13 987.896 2992.58 985.738 2986 981.423C2979.41 977.108 2974.3 971.146 2970.66 963.538C2967.14 955.929 2965.38 947.299 2965.38 937.647C2965.38 927.54 2967.26 918.739 2971.01 911.245C2974.87 903.636 2980.09 897.788 2986.68 893.7C2993.26 889.612 3000.53 887.568 3008.48 887.568C3015.75 887.568 3021.94 889.442 3027.05 893.189C3032.27 896.936 3036.3 902.671 3039.14 910.393H3041.87C3040.73 899.605 3039.99 889.669 3039.65 880.584C3039.42 871.386 3039.37 860.995 3039.48 849.413V848.731H3059.75V955.362C3059.75 962.629 3059.98 968.307 3060.43 972.395C3061 976.483 3061.79 980.685 3062.82 985H3042.72C3042.72 984.886 3042.66 984.773 3042.55 984.659C3042.55 984.432 3042.55 984.262 3042.55 984.148C3041.87 981.196 3041.47 978.527 3041.35 976.143C3041.24 973.644 3041.52 970.635 3042.21 967.115H3039.48C3036.53 974.382 3032.38 979.663 3027.05 982.956C3021.71 986.249 3015.58 987.896 3008.65 987.896ZM3012.91 968.648C3018.02 968.648 3022.62 967.342 3026.71 964.73C3030.79 962.005 3034.03 958.314 3036.41 953.658C3038.8 948.889 3039.99 943.495 3039.99 937.476C3039.99 931.458 3038.8 926.121 3036.41 921.465C3034.03 916.809 3030.74 913.175 3026.53 910.563C3022.45 907.951 3017.9 906.646 3012.91 906.646C3007.8 906.646 3003.2 908.008 2999.11 910.734C2995.14 913.345 2992.01 916.979 2989.74 921.635C2987.47 926.291 2986.34 931.628 2986.34 937.647C2986.34 943.552 2987.47 948.832 2989.74 953.488C2992.01 958.144 2995.14 961.834 2999.11 964.56C3003.2 967.285 3007.8 968.648 3012.91 968.648ZM3129.77 852.138H3179.84C3194.04 852.138 3205.85 855.034 3215.27 860.825C3224.7 866.617 3231.63 874.452 3236.05 884.332C3240.6 894.097 3242.87 905.226 3242.87 917.717C3242.87 930.89 3240.43 942.586 3235.54 952.807C3230.66 962.913 3223.56 970.805 3214.25 976.483C3204.94 982.161 3193.98 985 3181.38 985H3129.77V852.138ZM3150.89 968.648C3151.45 968.534 3151.97 968.421 3152.42 968.307C3156.73 966.944 3160.88 966.093 3164.85 965.752C3168.83 965.411 3173.71 965.241 3179.5 965.241C3187.34 965.241 3194.27 963.651 3200.28 960.472C3206.42 957.292 3211.3 952.239 3214.93 945.312C3218.57 938.385 3220.38 929.584 3220.38 918.91C3220.38 907.213 3218.17 897.845 3213.74 890.804C3209.43 883.764 3203.97 878.881 3197.39 876.155C3190.92 873.316 3183.31 871.897 3174.56 871.897C3169.57 871.897 3165.37 871.727 3161.96 871.386C3158.55 870.932 3154.86 869.967 3150.89 868.49L3148.16 870.194C3152.93 902.557 3152.99 934.524 3148.33 966.093L3150.89 968.648ZM3287.15 987.896C3281.59 987.896 3276.42 986.93 3271.65 985C3266.88 982.956 3263.02 979.947 3260.07 975.972C3257.23 971.884 3255.81 966.944 3255.81 961.153C3255.81 955.475 3257.18 950.762 3259.9 947.015C3262.74 943.154 3266.49 940.145 3271.14 937.987C3275.8 935.716 3281.25 933.899 3287.49 932.537C3289.88 931.969 3292.49 931.458 3295.33 931.004C3300.89 929.868 3305.04 928.903 3307.76 928.108C3310.6 927.199 3312.7 926.064 3314.07 924.701C3315.43 923.225 3316.11 921.238 3316.11 918.739C3316.11 916.128 3315.37 913.686 3313.9 911.415C3312.53 909.144 3310.49 907.384 3307.76 906.134C3305.04 904.772 3301.92 904.09 3298.4 904.09C3293.51 904.09 3289.25 905.51 3285.62 908.349C3281.99 911.188 3279.38 915.276 3277.79 920.613L3258.88 914.14C3261.6 905.056 3266.6 898.356 3273.87 894.041C3281.25 889.725 3289.77 887.568 3299.42 887.568C3306.69 887.568 3313.1 888.817 3318.67 891.315C3324.34 893.7 3328.77 897.391 3331.95 902.387C3335.13 907.27 3336.72 913.345 3336.72 920.613V955.362C3336.72 956.156 3336.72 957.008 3336.72 957.917C3336.84 964.276 3337.12 969.386 3337.57 973.247C3338.03 977.108 3338.77 981.025 3339.79 985H3319.52C3318.72 982.275 3318.27 979.606 3318.16 976.994C3318.16 974.269 3318.78 970.805 3320.03 966.604H3317.3C3314.69 973.644 3310.77 978.981 3305.55 982.615C3300.33 986.136 3294.19 987.896 3287.15 987.896ZM3292.43 972.225C3297.09 972.225 3301.24 971.032 3304.87 968.648C3308.5 966.263 3311.29 963.254 3313.22 959.62C3315.26 955.986 3316.28 952.352 3316.28 948.718V938.839C3313.9 940.202 3311.97 941.224 3310.49 941.905C3309.13 942.473 3307.08 943.097 3304.36 943.779C3302.77 944.233 3300.21 944.858 3296.69 945.652C3293.06 946.447 3289.94 947.413 3287.32 948.548C3284.71 949.57 3282.5 951.103 3280.68 953.147C3278.86 955.191 3277.96 957.633 3277.96 960.472C3277.96 964.219 3279.26 967.115 3281.87 969.159C3284.6 971.203 3288.12 972.225 3292.43 972.225ZM3397.56 987.896C3388.71 987.896 3382.12 986.079 3377.81 982.445C3373.6 978.698 3370.99 974.61 3369.97 970.181C3368.95 965.752 3368.44 960.812 3368.44 955.362C3368.44 945.028 3368.55 936.284 3368.78 929.13C3369.12 921.862 3369.91 914.254 3371.16 906.305C3367.07 907.327 3363.5 907.951 3360.43 908.179C3357.48 908.406 3353.9 908.519 3349.7 908.519V890.293C3353.9 890.293 3357.48 890.407 3360.43 890.634C3363.5 890.861 3367.07 891.486 3371.16 892.508C3370.03 887.852 3369.29 883.48 3368.95 879.392C3368.61 875.19 3368.44 870.534 3368.44 865.424C3368.44 864.629 3368.44 863.834 3368.44 863.04H3388.54C3388.54 864.289 3388.54 865.538 3388.54 866.787C3388.54 871.443 3388.37 875.815 3388.03 879.903C3387.69 883.877 3386.95 888.079 3385.81 892.508C3390.92 891.486 3395.58 890.861 3399.78 890.634C3404.09 890.407 3409.2 890.293 3415.11 890.293V908.519C3409.2 908.519 3404.09 908.406 3399.78 908.179C3395.58 907.951 3390.92 907.327 3385.81 906.305C3386.61 910.506 3387.17 914.765 3387.52 919.08C3387.97 923.282 3388.25 927.483 3388.37 931.685C3388.48 934.524 3388.54 937.363 3388.54 940.202C3388.54 942.927 3388.54 945.652 3388.54 948.378V948.718C3388.54 952.92 3388.76 956.44 3389.22 959.279C3389.67 962.005 3390.87 964.389 3392.8 966.433C3394.73 968.477 3397.68 969.499 3401.65 969.499C3405.63 969.499 3409.89 968.364 3414.43 966.093L3415.11 965.752V983.978C3412.84 985.341 3410.17 986.306 3407.1 986.874C3404.15 987.555 3400.97 987.896 3397.56 987.896ZM3457.49 987.896C3451.93 987.896 3446.76 986.93 3441.99 985C3437.22 982.956 3433.36 979.947 3430.41 975.972C3427.57 971.884 3426.15 966.944 3426.15 961.153C3426.15 955.475 3427.51 950.762 3430.24 947.015C3433.08 943.154 3436.82 940.145 3441.48 937.987C3446.13 935.716 3451.58 933.899 3457.83 932.537C3460.22 931.969 3462.83 931.458 3465.67 931.004C3471.23 929.868 3475.38 928.903 3478.1 928.108C3480.94 927.199 3483.04 926.064 3484.4 924.701C3485.77 923.225 3486.45 921.238 3486.45 918.739C3486.45 916.128 3485.71 913.686 3484.23 911.415C3482.87 909.144 3480.83 907.384 3478.1 906.134C3475.38 904.772 3472.25 904.09 3468.73 904.09C3463.85 904.09 3459.59 905.51 3455.96 908.349C3452.32 911.188 3449.71 915.276 3448.12 920.613L3429.21 914.14C3431.94 905.056 3436.94 898.356 3444.2 894.041C3451.58 889.725 3460.1 887.568 3469.75 887.568C3477.02 887.568 3483.44 888.817 3489 891.315C3494.68 893.7 3499.11 897.391 3502.29 902.387C3505.47 907.27 3507.06 913.345 3507.06 920.613V955.362C3507.06 956.156 3507.06 957.008 3507.06 957.917C3507.17 964.276 3507.46 969.386 3507.91 973.247C3508.36 977.108 3509.1 981.025 3510.12 985H3489.85C3489.06 982.275 3488.6 979.606 3488.49 976.994C3488.49 974.269 3489.12 970.805 3490.36 966.604H3487.64C3485.03 973.644 3481.11 978.981 3475.89 982.615C3470.66 986.136 3464.53 987.896 3457.49 987.896ZM3462.77 972.225C3467.43 972.225 3471.57 971.032 3475.2 968.648C3478.84 966.263 3481.62 963.254 3483.55 959.62C3485.6 955.986 3486.62 952.352 3486.62 948.718V938.839C3484.23 940.202 3482.3 941.224 3480.83 941.905C3479.46 942.473 3477.42 943.097 3474.69 943.779C3473.1 944.233 3470.55 944.858 3467.03 945.652C3463.39 946.447 3460.27 947.413 3457.66 948.548C3455.05 949.57 3452.83 951.103 3451.02 953.147C3449.2 955.191 3448.29 957.633 3448.29 960.472C3448.29 964.219 3449.6 967.115 3452.21 969.159C3454.93 971.203 3458.46 972.225 3462.77 972.225Z" fill="#052C26"/>
</svg>
