<svg width="4116" height="1365" viewBox="0 0 4116 1365" fill="none" xmlns="http://www.w3.org/2000/svg">
<rect width="4116" height="1365" fill="#A8F1DF"/>
<path d="M1782.21 1198.64C1782.21 1200.3 1780.93 1202.01 1778.29 1203.66C1775.67 1205.29 1771.86 1206.78 1767.1 1208.04C1757.58 1210.56 1744.42 1212.12 1729.86 1212.12C1715.29 1212.12 1702.13 1210.56 1692.61 1208.04C1687.86 1206.78 1684.04 1205.29 1681.43 1203.66C1678.79 1202.01 1677.5 1200.3 1677.5 1198.64C1677.5 1196.98 1678.79 1195.27 1681.43 1193.61C1684.04 1191.98 1687.86 1190.49 1692.61 1189.23C1702.13 1186.72 1715.29 1185.15 1729.86 1185.15C1744.42 1185.15 1757.58 1186.72 1767.1 1189.23C1771.86 1190.49 1775.67 1191.98 1778.29 1193.61C1780.93 1195.27 1782.21 1196.98 1782.21 1198.64Z" fill="#052C26" stroke="#0F4531" stroke-width="0.987752"/>
<path d="M1791.41 1186.81C1791.41 1188.76 1789.91 1190.77 1786.8 1192.71C1783.73 1194.64 1779.24 1196.39 1773.64 1197.87C1762.46 1200.83 1746.98 1202.66 1729.86 1202.66C1712.73 1202.66 1697.25 1200.83 1686.07 1197.87C1680.47 1196.39 1675.98 1194.64 1672.91 1192.71C1669.81 1190.77 1668.3 1188.76 1668.3 1186.81C1668.3 1184.86 1669.81 1182.85 1672.91 1180.91C1675.98 1178.98 1680.47 1177.23 1686.07 1175.75C1697.25 1172.79 1712.73 1170.96 1729.86 1170.96C1746.98 1170.96 1762.46 1172.79 1773.64 1175.75C1779.24 1177.23 1783.73 1178.98 1786.8 1180.91C1789.91 1182.85 1791.41 1184.86 1791.41 1186.81Z" fill="#052C26" stroke="#0F4531" stroke-width="1.16142"/>
<path d="M1799.54 1170.38C1799.54 1172.63 1797.81 1174.92 1794.29 1177.12C1790.81 1179.3 1785.72 1181.28 1779.39 1182.96C1766.74 1186.3 1749.22 1188.38 1729.86 1188.38C1710.49 1188.38 1692.97 1186.3 1680.32 1182.96C1673.99 1181.28 1668.91 1179.3 1665.42 1177.12C1661.9 1174.92 1660.17 1172.63 1660.17 1170.38C1660.17 1168.13 1661.9 1165.84 1665.42 1163.64C1668.91 1161.46 1673.99 1159.47 1680.32 1157.8C1692.97 1154.45 1710.49 1152.38 1729.86 1152.38C1749.22 1152.38 1766.74 1154.45 1779.39 1157.8C1785.72 1159.47 1790.81 1161.46 1794.29 1163.64C1797.81 1165.84 1799.54 1168.13 1799.54 1170.38Z" fill="#052C26" stroke="#0F4531" stroke-width="1.16142"/>
<path d="M875.134 1239.29C875.134 1240.95 873.853 1242.66 871.213 1244.31C868.599 1245.94 864.783 1247.43 860.024 1248.69C850.513 1251.21 837.346 1252.77 822.783 1252.77C808.22 1252.77 795.054 1251.21 785.543 1248.69C780.783 1247.43 776.967 1245.94 774.353 1244.31C771.713 1242.66 770.432 1240.95 770.432 1239.29C770.432 1237.63 771.713 1235.92 774.353 1234.27C776.967 1232.63 780.783 1231.14 785.543 1229.88C795.054 1227.37 808.22 1225.8 822.783 1225.8C837.346 1225.8 850.513 1227.37 860.024 1229.88C864.783 1231.14 868.599 1232.63 871.213 1234.27C873.853 1235.92 875.134 1237.63 875.134 1239.29Z" fill="#052C26" stroke="#0F4531" stroke-width="0.987752"/>
<path d="M884.339 1227.46C884.339 1229.41 882.833 1231.42 879.729 1233.36C876.655 1235.29 872.168 1237.04 866.572 1238.52C855.389 1241.48 839.907 1243.31 822.784 1243.31C805.66 1243.31 790.179 1241.48 778.995 1238.52C773.399 1237.04 768.912 1235.29 765.838 1233.36C762.734 1231.42 761.228 1229.41 761.228 1227.46C761.228 1225.51 762.734 1223.5 765.838 1221.56C768.912 1219.63 773.399 1217.88 778.995 1216.4C790.179 1213.44 805.66 1211.61 822.784 1211.61C839.907 1211.61 855.389 1213.44 866.572 1216.4C872.168 1217.88 876.655 1219.63 879.729 1221.56C882.833 1223.5 884.339 1225.51 884.339 1227.46Z" fill="#052C26" stroke="#0F4531" stroke-width="1.16142"/>
<path d="M892.469 1211.03C892.469 1213.28 890.736 1215.57 887.22 1217.77C883.734 1219.95 878.652 1221.93 872.321 1223.61C859.666 1226.95 842.152 1229.03 822.784 1229.03C803.415 1229.03 785.901 1226.95 773.247 1223.61C766.915 1221.93 761.833 1219.95 758.347 1217.77C754.832 1215.57 753.098 1213.28 753.098 1211.03C753.098 1208.78 754.832 1206.49 758.347 1204.29C761.833 1202.11 766.915 1200.12 773.247 1198.45C785.901 1195.1 803.415 1193.03 822.784 1193.03C842.152 1193.03 859.666 1195.1 872.321 1198.45C878.652 1200.12 883.734 1202.11 887.22 1204.29C890.736 1206.49 892.469 1208.78 892.469 1211.03Z" fill="#052C26" stroke="#0F4531" stroke-width="1.16142"/>
<path d="M390.82 1198.64C390.82 1200.3 389.539 1202.01 386.899 1203.66C384.284 1205.29 380.469 1206.78 375.709 1208.04C366.198 1210.56 353.031 1212.12 338.469 1212.12C323.906 1212.12 310.739 1210.56 301.228 1208.04C296.469 1206.78 292.653 1205.29 290.039 1203.66C287.399 1202.01 286.118 1200.3 286.118 1198.64C286.118 1196.98 287.399 1195.27 290.039 1193.61C292.653 1191.98 296.469 1190.49 301.228 1189.23C310.739 1186.72 323.906 1185.15 338.469 1185.15C353.031 1185.15 366.198 1186.72 375.709 1189.23C380.469 1190.49 384.284 1191.98 386.899 1193.61C389.539 1195.27 390.82 1196.98 390.82 1198.64Z" fill="#052C26" stroke="#0F4531" stroke-width="0.987752"/>
<path d="M400.024 1186.81C400.024 1188.76 398.519 1190.77 395.414 1192.71C392.34 1194.64 387.853 1196.39 382.257 1197.87C371.074 1200.83 355.592 1202.66 338.469 1202.66C321.346 1202.66 305.864 1200.83 294.681 1197.87C289.085 1196.39 284.598 1194.64 281.524 1192.71C278.42 1190.77 276.914 1188.76 276.914 1186.81C276.914 1184.86 278.42 1182.85 281.524 1180.91C284.598 1178.98 289.085 1177.23 294.681 1175.75C305.864 1172.79 321.346 1170.96 338.469 1170.96C355.592 1170.96 371.074 1172.79 382.257 1175.75C387.853 1177.23 392.34 1178.98 395.414 1180.91C398.519 1182.85 400.024 1184.86 400.024 1186.81Z" fill="#052C26" stroke="#0F4531" stroke-width="1.16142"/>
<path d="M408.155 1170.38C408.155 1172.63 406.421 1174.92 402.906 1177.12C399.42 1179.3 394.338 1181.28 388.006 1182.96C375.352 1186.3 357.837 1188.38 338.469 1188.38C319.101 1188.38 301.587 1186.3 288.932 1182.96C282.6 1181.28 277.518 1179.3 274.033 1177.12C270.517 1174.92 268.784 1172.63 268.784 1170.38C268.784 1168.13 270.517 1165.84 274.033 1163.64C277.518 1161.46 282.6 1159.47 288.932 1157.8C301.587 1154.45 319.101 1152.38 338.469 1152.38C357.837 1152.38 375.352 1154.45 388.006 1157.8C394.338 1159.47 399.42 1161.46 402.906 1163.64C406.421 1165.84 408.155 1168.13 408.155 1170.38Z" fill="#052C26" stroke="#0F4531" stroke-width="1.16142"/>
<path d="M186.324 1147.73V333.574L271.689 314.535L508.909 261.628L746.13 208.721L1865.16 279.567V1161.09L906.406 1200.89L746.13 1207.54L466.227 1177.64L186.324 1147.73Z" fill="#12413A"/>
<path d="M746.13 1207.54L906.406 1200.89L1865.16 1161.09V279.567L746.13 208.721M746.13 1207.54L466.227 1177.64M746.13 1207.54V423.003M746.13 208.721L508.909 261.628M746.13 208.721V423.003M466.227 1177.64L186.324 1147.73V333.574L271.689 314.535M466.227 1177.64V874.216H351.827V731.941H271.689V314.535M271.689 314.535L508.909 261.628M508.909 261.628V462.491L746.13 423.003" stroke="#052C26" stroke-width="5.80711"/>
<ellipse cx="1761.79" cy="374.803" rx="17.4213" ry="23.2284" fill="#052C26"/>
<ellipse cx="1632.87" cy="367.834" rx="17.4213" ry="23.2284" fill="#052C26"/>
<ellipse cx="1503.96" cy="362.029" rx="17.4213" ry="23.2284" fill="#052C26"/>
<ellipse cx="1375.04" cy="355.059" rx="17.4213" ry="23.2284" fill="#4BBF94"/>
<ellipse cx="1246.12" cy="349.254" rx="17.4213" ry="23.2284" fill="#4BBF94"/>
<ellipse cx="1117.2" cy="343.445" rx="17.4213" ry="23.2284" fill="#4BBF94"/>
<ellipse cx="988.285" cy="337.639" rx="17.4213" ry="23.2284" fill="#4BBF94"/>
<ellipse cx="859.367" cy="331.832" rx="17.4213" ry="23.2284" fill="#4BBF94"/>
<path d="M1310.58 406.317V1133.53M1310.58 406.317L1439.35 412.744M1310.58 406.317L1181.81 399.891M1310.58 1133.53L1439.35 1128.96M1310.58 1133.53L1181.81 1138.1M1053.03 393.464V1142.66M1053.03 393.464L1181.81 399.891M1053.03 393.464L924.261 387.038M1053.03 1142.66L1181.81 1138.1M1053.03 1142.66L924.261 1147.23M1568.12 419.171V1124.4M1568.12 419.171L1696.9 425.597M1568.12 419.171L1439.35 412.744M1568.12 1124.4L1696.9 1119.83M1568.12 1124.4L1439.35 1128.96M1696.9 1119.83L1821.19 1115.42C1823.69 1115.34 1825.67 1113.28 1825.67 1110.78V436.443C1825.67 433.968 1823.73 431.927 1821.26 431.803L1696.9 425.597M1696.9 1119.83V425.597M1439.35 412.744V1128.96M1181.81 1138.1V399.891M924.261 387.038L800.366 380.855C797.712 380.722 795.488 382.838 795.488 385.495V1135.56V1146.98C795.488 1149.61 797.67 1151.72 800.299 1151.63L924.261 1147.23M924.261 387.038V1147.23" stroke="#052C26" stroke-width="5.80711"/>
<path d="M800.712 388.263C800.713 386.941 801.816 385.886 803.136 385.944L917.538 390.967C918.78 391.021 919.759 392.044 919.759 393.287V1141.41C919.759 1142.67 918.76 1143.7 917.504 1143.73L802.525 1147.08C801.216 1147.12 800.134 1146.07 800.135 1144.76L800.712 388.263Z" fill="#2C443A"/>
<path d="M929.63 394.648C929.631 393.327 930.733 392.272 932.053 392.329L1046.45 397.279C1047.7 397.333 1048.68 398.356 1048.68 399.6V1136.81C1048.68 1138.07 1047.68 1139.1 1046.42 1139.13L931.442 1142.43C930.133 1142.47 929.052 1141.42 929.053 1140.11L929.63 394.648Z" fill="#2C443A"/>
<path d="M1058.55 401.615C1058.55 400.294 1059.65 399.24 1060.97 399.296L1175.37 404.17C1176.62 404.223 1177.6 405.246 1177.6 406.49V1132.22C1177.6 1133.48 1176.6 1134.51 1175.34 1134.54L1060.36 1137.79C1059.05 1137.83 1057.97 1136.78 1057.97 1135.47L1058.55 401.615Z" fill="#2C443A"/>
<path d="M1187.47 407.421C1187.47 406.1 1188.57 405.046 1189.89 405.102L1304.29 409.906C1305.53 409.958 1306.51 410.982 1306.51 412.227V1127.62C1306.51 1128.88 1305.51 1129.91 1304.26 1129.94L1189.28 1133.15C1187.97 1133.18 1186.89 1132.13 1186.89 1130.82L1187.47 407.421Z" fill="#2C443A"/>
<path d="M1316.39 414.388C1316.39 413.068 1317.49 412.014 1318.8 412.069L1433.21 416.796C1434.45 416.848 1435.43 417.871 1435.43 419.117V1123.03C1435.43 1124.28 1434.43 1125.31 1433.17 1125.35L1318.2 1128.5C1316.89 1128.54 1315.81 1127.49 1315.81 1126.18L1316.39 414.388Z" fill="#2C443A"/>
<path d="M1445.3 420.195C1445.3 418.876 1446.4 417.822 1447.72 417.876L1562.12 422.534C1563.37 422.585 1564.35 423.609 1564.35 424.855V1118.43C1564.35 1119.69 1563.35 1120.72 1562.09 1120.75L1447.11 1123.86C1445.8 1123.89 1444.73 1122.84 1444.73 1121.53L1445.3 420.195Z" fill="#2C443A"/>
<path d="M1574.22 427.16C1574.22 425.841 1575.32 424.788 1576.64 424.841L1691.04 429.423C1692.28 429.473 1693.27 430.497 1693.27 431.744V1113.83C1693.27 1115.09 1692.26 1116.12 1691.01 1116.16L1576.03 1119.21C1574.72 1119.25 1573.64 1118.2 1573.64 1116.89L1574.22 427.16Z" fill="#2C443A"/>
<path d="M1703.14 434.129C1703.14 432.811 1704.24 431.758 1705.55 431.81L1819.96 436.315C1821.2 436.364 1822.19 437.389 1822.19 438.636V1109.24C1822.19 1110.5 1821.18 1111.53 1819.92 1111.56L1704.95 1114.57C1703.64 1114.6 1702.56 1113.55 1702.56 1112.24L1703.14 434.129Z" fill="#2C443A"/>
<path d="M746.128 187.815L184 317.895V263.308L746.128 110L1866.32 187.815V263.308L746.128 187.815Z" fill="#40E796"/>
<path d="M746.128 187.815L184 317.895V263.308L746.128 110M746.128 187.815L1866.32 263.308V187.815L746.128 110M746.128 187.815V110" stroke="#0F4531" stroke-width="5.80711"/>
<path d="M856.914 513.59H855.198L860.16 500.075H861.85L866.812 513.59H865.096L861.058 502.213H860.952L856.914 513.59ZM857.547 508.311H864.463V509.762H857.547V508.311Z" fill="white"/>
<path d="M985.277 518.24V504.726H990.002C990.944 504.726 991.72 504.888 992.331 505.214C992.943 505.535 993.398 505.968 993.697 506.514C993.997 507.055 994.146 507.655 994.146 508.315C994.146 508.896 994.043 509.376 993.836 509.754C993.634 510.132 993.365 510.431 993.031 510.651C992.701 510.871 992.342 511.034 991.955 511.14V511.272C992.369 511.298 992.785 511.443 993.203 511.707C993.62 511.971 993.97 512.35 994.252 512.842C994.533 513.335 994.674 513.938 994.674 514.65C994.674 515.328 994.52 515.937 994.212 516.478C993.904 517.019 993.418 517.448 992.754 517.765C992.09 518.082 991.225 518.24 990.16 518.24H985.277ZM986.914 516.788H990.16C991.229 516.788 991.988 516.582 992.437 516.168C992.89 515.75 993.117 515.244 993.117 514.65C993.117 514.193 993 513.771 992.767 513.383C992.534 512.992 992.202 512.679 991.771 512.446C991.339 512.209 990.829 512.09 990.24 512.09H986.914V516.788ZM986.914 510.665H989.949C990.442 510.665 990.886 510.568 991.282 510.374C991.683 510.181 991.999 509.908 992.233 509.556C992.47 509.204 992.589 508.79 992.589 508.315C992.589 507.721 992.382 507.218 991.969 506.804C991.555 506.386 990.9 506.177 990.002 506.177H986.914V510.665Z" fill="white"/>
<path d="M1120.42 514.754H1118.79C1118.69 514.283 1118.52 513.869 1118.28 513.513C1118.04 513.157 1117.75 512.857 1117.41 512.615C1117.07 512.369 1116.69 512.184 1116.28 512.061C1115.86 511.938 1115.43 511.876 1114.98 511.876C1114.17 511.876 1113.42 512.083 1112.76 512.497C1112.1 512.91 1111.57 513.52 1111.18 514.325C1110.8 515.13 1110.6 516.117 1110.6 517.288C1110.6 518.458 1110.8 519.445 1111.18 520.251C1111.57 521.056 1112.1 521.665 1112.76 522.078C1113.42 522.492 1114.17 522.699 1114.98 522.699C1115.43 522.699 1115.86 522.637 1116.28 522.514C1116.69 522.391 1117.07 522.208 1117.41 521.966C1117.75 521.72 1118.04 521.419 1118.28 521.062C1118.52 520.701 1118.69 520.288 1118.79 519.822H1120.42C1120.3 520.512 1120.07 521.13 1119.75 521.676C1119.42 522.221 1119.02 522.686 1118.53 523.068C1118.05 523.447 1117.51 523.735 1116.9 523.933C1116.31 524.131 1115.67 524.23 1114.98 524.23C1113.83 524.23 1112.81 523.948 1111.91 523.385C1111.01 522.822 1110.31 522.021 1109.79 520.983C1109.28 519.945 1109.02 518.713 1109.02 517.288C1109.02 515.862 1109.28 514.63 1109.79 513.592C1110.31 512.554 1111.01 511.753 1111.91 511.19C1112.81 510.627 1113.83 510.345 1114.98 510.345C1115.67 510.345 1116.31 510.444 1116.9 510.642C1117.51 510.84 1118.05 511.131 1118.53 511.513C1119.02 511.892 1119.42 512.354 1119.75 512.899C1120.07 513.44 1120.3 514.058 1120.42 514.754Z" fill="white"/>
<path d="M1247.28 531.014H1243.11V517.499H1247.47C1248.78 517.499 1249.9 517.769 1250.83 518.311C1251.77 518.847 1252.48 519.619 1252.98 520.627C1253.48 521.63 1253.72 522.831 1253.72 524.23C1253.72 525.638 1253.47 526.85 1252.97 527.866C1252.47 528.878 1251.74 529.656 1250.78 530.202C1249.82 530.743 1248.66 531.014 1247.28 531.014ZM1244.75 529.562H1247.18C1248.3 529.562 1249.22 529.346 1249.96 528.915C1250.69 528.484 1251.24 527.87 1251.6 527.074C1251.96 526.278 1252.14 525.33 1252.14 524.23C1252.14 523.139 1251.96 522.2 1251.61 521.412C1251.25 520.62 1250.72 520.013 1250.01 519.591C1249.3 519.164 1248.42 518.951 1247.36 518.951H1244.75V529.562Z" fill="white"/>
<path d="M1372.03 537.982V524.468H1380.19V525.919H1373.67V530.486H1379.77V531.938H1373.67V536.531H1380.29V537.982H1372.03Z" fill="white"/>
<path d="M1500.95 543.789V530.274H1509.05V531.726H1502.58V536.293H1508.44V537.744H1502.58V543.789H1500.95Z" fill="white"/>
<path d="M1637.94 541.466C1637.8 541.022 1637.61 540.624 1637.37 540.272C1637.14 539.916 1636.86 539.612 1636.53 539.361C1636.21 539.111 1635.85 538.919 1635.44 538.787C1635.03 538.655 1634.58 538.589 1634.09 538.589C1633.29 538.589 1632.56 538.796 1631.91 539.21C1631.25 539.623 1630.73 540.232 1630.34 541.038C1629.95 541.843 1629.76 542.83 1629.76 544C1629.76 545.171 1629.96 546.158 1630.35 546.963C1630.74 547.768 1631.27 548.378 1631.94 548.791C1632.61 549.205 1633.36 549.412 1634.2 549.412C1634.97 549.412 1635.65 549.247 1636.24 548.917C1636.83 548.582 1637.3 548.112 1637.63 547.505C1637.96 546.893 1638.13 546.174 1638.13 545.347L1638.63 545.452H1634.56V544H1639.71V545.452C1639.71 546.565 1639.47 547.533 1639 548.356C1638.53 549.178 1637.88 549.816 1637.05 550.269C1636.22 550.718 1635.27 550.943 1634.2 550.943C1633 550.943 1631.95 550.661 1631.04 550.098C1630.14 549.535 1629.44 548.734 1628.93 547.696C1628.43 546.658 1628.18 545.426 1628.18 544C1628.18 542.931 1628.32 541.97 1628.61 541.117C1628.9 540.259 1629.31 539.529 1629.83 538.926C1630.36 538.323 1630.99 537.861 1631.71 537.54C1632.43 537.219 1633.22 537.058 1634.09 537.058C1634.8 537.058 1635.47 537.166 1636.08 537.382C1636.7 537.593 1637.26 537.894 1637.74 538.286C1638.23 538.673 1638.63 539.137 1638.96 539.678C1639.29 540.215 1639.51 540.811 1639.63 541.466H1637.94Z" fill="white"/>
<path d="M1758.78 556.564V543.05H1760.42V549.068H1767.62V543.05H1769.26V556.564H1767.62V550.52H1760.42V556.564H1758.78Z" fill="white"/>
<path d="M2202.54 638H2184.14C2184.14 599.334 2184.14 560.668 2186.69 519.446C2170 522.001 2155.69 522.001 2141.38 522.001V505.138H2245.29V522.001C2231.15 522.001 2216.84 522.001 2199.98 519.446C2202.54 560.668 2202.54 599.334 2202.54 638ZM2277.79 638H2260.41V501.731H2277.79C2277.79 521.49 2277.28 541.42 2274.89 562.882H2277.28C2284.94 546.53 2296.52 540.738 2309.13 540.738C2326.16 540.738 2343.03 551.299 2343.03 578.553V638H2325.65V586.218C2325.65 567.822 2317.82 557.09 2303.68 557.09C2288.01 557.09 2277.79 569.866 2277.79 587.24V638ZM2409.92 640.896C2382.5 640.896 2362.06 620.966 2362.06 591.158C2362.06 561.86 2381.65 540.738 2408.9 540.738C2429.51 540.738 2453.19 553.173 2453.19 589.454V595.246H2379.6C2380.8 614.494 2393.57 625.395 2409.92 625.395C2423.38 625.395 2433.26 617.219 2438.03 605.466L2454.04 611.768C2447.4 629.313 2430.88 640.896 2409.92 640.896ZM2380.46 580.937H2435.47C2434.45 562.712 2421.34 555.728 2408.73 555.728C2393.4 555.728 2383.01 566.629 2380.46 580.937ZM2538.03 638H2519.81V505.138H2536.67C2562.22 538.694 2585.56 571.739 2609.23 612.109H2611.79C2608.72 572.932 2609.06 539.035 2609.06 505.138H2627.29V638H2610.43C2585.22 605.125 2561.37 572.932 2537.86 533.414H2535.48C2538.37 571.739 2538.03 604.785 2538.03 638ZM2696.53 640.896C2669.11 640.896 2648.67 620.966 2648.67 591.158C2648.67 561.86 2668.26 540.738 2695.51 540.738C2716.12 540.738 2739.8 553.173 2739.8 589.454V595.246H2666.21C2667.41 614.494 2680.18 625.395 2696.53 625.395C2709.99 625.395 2719.87 617.219 2724.64 605.466L2740.65 611.768C2734.01 629.313 2717.49 640.896 2696.53 640.896ZM2667.07 580.937H2722.08C2721.06 562.712 2707.95 555.728 2695.34 555.728C2680.01 555.728 2669.62 566.629 2667.07 580.937ZM2765.62 638H2745.69C2756.42 622.159 2767.66 606.147 2779.08 591.328V588.943C2767.49 574.465 2756.59 558.964 2745.86 543.464H2765.79C2773.8 555.387 2781.63 566.97 2788.45 580.937H2791C2797.64 566.97 2805.65 555.387 2813.83 543.464H2833.24C2822.68 558.964 2811.95 574.465 2800.2 588.943V591.328C2811.95 606.147 2822.85 622.159 2833.41 638H2814C2805.99 626.076 2798.32 614.153 2791 600.185H2788.45C2781.63 614.153 2773.63 626.076 2765.62 638ZM2883.18 640.896C2855.93 640.896 2855.93 619.263 2855.93 608.873C2855.93 592.35 2855.93 575.657 2858.48 556.92C2849.63 559.134 2843.49 559.134 2837.19 559.134V543.464C2843.49 543.464 2849.63 543.464 2858.48 545.678C2855.93 534.436 2855.93 525.238 2855.93 516.04H2873.3C2873.3 525.238 2873.3 534.436 2870.75 545.678C2882.33 543.464 2891.53 543.464 2900.56 543.464V559.134C2891.53 559.134 2882.33 559.134 2870.75 556.92C2873.3 573.783 2873.3 588.432 2873.3 603.081C2873.3 612.961 2873.3 625.225 2886.42 625.225C2890.85 625.225 2895.79 623.862 2900.56 620.966V636.808C2895.79 639.533 2889.49 640.896 2883.18 640.896ZM3021.51 640.896C2983.19 640.896 2955.93 612.279 2955.93 571.91C2955.93 529.326 2986.25 502.413 3022.71 502.413C3049.79 502.413 3073.81 517.232 3082.49 542.612L3065.63 549.425C3058.14 531.199 3042.64 519.617 3022.88 519.617C2996.99 519.617 2975.18 539.205 2975.18 572.25C2975.18 608.873 3001.76 623.692 3024.75 623.692C3048.09 623.692 3065.29 608.702 3073.64 583.663L3071.59 581.448C3055.24 585.877 3039.74 586.559 3026.62 586.559V571.228H3085.9V638H3071.59C3071.25 629.654 3070.23 621.477 3072.96 610.065L3069.89 609.384C3060.69 630.505 3044.51 640.896 3021.51 640.896ZM3151.48 640.896C3124.06 640.896 3103.62 620.966 3103.62 591.158C3103.62 561.86 3123.21 540.738 3150.46 540.738C3171.07 540.738 3194.75 553.173 3194.75 589.454V595.246H3121.16C3122.36 614.494 3135.13 625.395 3151.48 625.395C3164.94 625.395 3174.82 617.219 3179.59 605.466L3195.6 611.768C3188.96 629.313 3172.44 640.896 3151.48 640.896ZM3122.02 580.937H3177.03C3176.01 562.712 3162.9 555.728 3150.29 555.728C3134.96 555.728 3124.57 566.629 3122.02 580.937ZM3233.1 638H3215.72V543.464H3232.76C3232.76 548.914 3232.76 554.365 3230.2 562.882H3232.59C3240.25 546.53 3251.84 540.738 3264.61 540.738C3281.64 540.738 3298.34 551.299 3298.34 578.553V638H3280.96V586.218C3280.96 567.822 3273.13 557.09 3258.99 557.09C3243.32 557.09 3233.1 569.866 3233.1 587.24V638ZM2205.6 856H2155.18V723.138H2204.07C2248.36 723.138 2267.09 752.776 2267.09 788.717C2267.09 828.235 2244.27 856 2205.6 856ZM2170.85 839.818L2173.24 842.203C2184.48 839.137 2194.7 839.137 2204.58 839.137C2229.11 839.137 2247.84 823.466 2247.84 789.91C2247.84 753.117 2225.36 740.001 2199.64 740.001C2191.29 740.001 2182.95 740.001 2173.24 737.106L2170.68 738.639C2174.6 772.706 2174.77 806.092 2170.85 839.818ZM2312.05 858.896C2296.04 858.896 2281.22 850.379 2281.22 832.834C2281.22 815.119 2296.38 807.795 2313.75 804.218C2333 800.3 2342.88 799.619 2342.88 789.739C2342.88 780.882 2335.04 773.046 2322.95 773.046C2312.39 773.046 2304.04 779.349 2300.81 790.591L2284.45 785.14C2290.07 766.233 2306.94 758.738 2323.8 758.738C2343.9 758.738 2360.42 768.958 2360.42 791.272V826.532C2360.42 842.032 2361.62 848.676 2363.49 856H2346.29C2344.58 850.549 2343.73 845.78 2346.29 836.411H2343.73C2338.28 850.89 2327.04 858.896 2312.05 858.896ZM2316.31 845.269C2332.83 845.269 2342.88 830.45 2342.88 819.207V807.965C2337.77 811.883 2331.64 813.757 2322.27 815.63C2313.07 817.504 2300.12 821.251 2300.12 832.323C2300.12 840.67 2306.94 845.269 2316.31 845.269ZM2419.92 858.896C2392.66 858.896 2392.66 837.263 2392.66 826.873C2392.66 810.35 2392.66 793.657 2395.22 774.92C2386.36 777.134 2380.23 777.134 2373.93 777.134V761.464C2380.23 761.464 2386.36 761.464 2395.22 763.678C2392.66 752.436 2392.66 743.238 2392.66 734.04H2410.04C2410.04 743.238 2410.04 752.436 2407.48 763.678C2419.06 761.464 2428.26 761.464 2437.29 761.464V777.134C2428.26 777.134 2419.06 777.134 2407.48 774.92C2410.04 791.783 2410.04 806.432 2410.04 821.081C2410.04 830.961 2410.04 843.225 2423.15 843.225C2427.58 843.225 2432.52 841.862 2437.29 838.966V854.808C2432.52 857.533 2426.22 858.896 2419.92 858.896ZM2479.39 858.896C2463.38 858.896 2448.56 850.379 2448.56 832.834C2448.56 815.119 2463.72 807.795 2481.09 804.218C2500.34 800.3 2510.22 799.619 2510.22 789.739C2510.22 780.882 2502.38 773.046 2490.29 773.046C2479.73 773.046 2471.38 779.349 2468.15 790.591L2451.8 785.14C2457.42 766.233 2474.28 758.738 2491.14 758.738C2511.24 758.738 2527.76 768.958 2527.76 791.272V826.532C2527.76 842.032 2528.96 848.676 2530.83 856H2513.63C2511.92 850.549 2511.07 845.78 2513.63 836.411H2511.07C2505.62 850.89 2494.38 858.896 2479.39 858.896ZM2483.65 845.269C2500.17 845.269 2510.22 830.45 2510.22 819.207V807.965C2505.11 811.883 2498.98 813.757 2489.61 815.63C2480.41 817.504 2467.47 821.251 2467.47 832.323C2467.47 840.67 2474.28 845.269 2483.65 845.269ZM2644.89 856H2622.07L2581.53 723.138H2602.14C2613.38 760.101 2623.26 793.827 2632.46 835.56H2635.01C2644.72 794.849 2655.62 759.079 2666.52 723.138H2687.3C2698.38 759.079 2709.28 794.849 2719.16 836.241H2721.71C2730.91 794.168 2740.96 758.398 2751.86 723.138H2772.3L2731.76 856H2709.28C2697.35 819.037 2687.3 786.162 2678.62 746.474H2675.38C2666.01 788.377 2656.13 821.251 2644.89 856ZM2804.42 858.896C2788.41 858.896 2773.59 850.379 2773.59 832.834C2773.59 815.119 2788.75 807.795 2806.13 804.218C2825.38 800.3 2835.26 799.619 2835.26 789.739C2835.26 780.882 2827.42 773.046 2815.33 773.046C2804.77 773.046 2796.42 779.349 2793.18 790.591L2776.83 785.14C2782.45 766.233 2799.31 758.738 2816.18 758.738C2836.28 758.738 2852.8 768.958 2852.8 791.272V826.532C2852.8 842.032 2853.99 848.676 2855.87 856H2838.66C2836.96 850.549 2836.11 845.78 2838.66 836.411H2836.11C2830.66 850.89 2819.41 858.896 2804.42 858.896ZM2808.68 845.269C2825.21 845.269 2835.26 830.45 2835.26 819.207V807.965C2830.15 811.883 2824.01 813.757 2814.65 815.63C2805.45 817.504 2792.5 821.251 2792.5 832.323C2792.5 840.67 2799.31 845.269 2808.68 845.269ZM2896.25 856H2878.88V761.464H2895.91C2895.91 767.255 2896.59 773.046 2894.04 783.778H2896.59C2901.36 767.425 2911.92 758.738 2925.21 758.738C2928.45 758.738 2931.85 759.249 2935.26 760.612V779.69C2931.68 778.327 2926.57 777.646 2923.68 777.646C2902.73 777.646 2896.25 797.915 2896.25 814.438V856ZM2988.63 858.896C2961.21 858.896 2940.77 838.966 2940.77 809.158C2940.77 779.86 2960.36 758.738 2987.61 758.738C3008.22 758.738 3031.9 771.173 3031.9 807.454V813.246H2958.31C2959.51 832.494 2972.28 843.395 2988.63 843.395C3002.09 843.395 3011.97 835.219 3016.74 823.466L3032.75 829.768C3026.11 847.313 3009.59 858.896 2988.63 858.896ZM2959.17 798.937H3014.18C3013.16 780.712 3000.05 773.728 2987.44 773.728C2972.11 773.728 2961.72 784.629 2959.17 798.937ZM3070.25 856H3052.87V719.731H3070.25C3070.25 739.49 3069.74 759.42 3067.35 780.882H3069.74C3077.4 764.53 3088.99 758.738 3101.59 758.738C3118.62 758.738 3135.49 769.299 3135.49 796.553V856H3118.11V804.218C3118.11 785.822 3110.28 775.09 3096.14 775.09C3080.47 775.09 3070.25 787.866 3070.25 805.24V856ZM3202.73 858.896C3174.28 858.896 3154.52 838.455 3154.52 808.987C3154.52 779.519 3174.28 758.738 3202.73 758.738C3230.83 758.738 3250.59 779.519 3250.59 808.987C3250.59 838.455 3230.83 858.896 3202.73 858.896ZM3202.73 842.714C3220.27 842.714 3232.36 828.746 3232.36 808.987C3232.36 789.058 3220.27 775.09 3202.73 775.09C3184.84 775.09 3172.75 789.058 3172.75 808.987C3172.75 828.746 3184.84 842.714 3202.73 842.714ZM3303.66 858.896C3284.92 858.896 3269.59 847.824 3269.59 820.74V761.464H3286.97V814.608C3286.97 834.197 3296.51 842.714 3308.43 842.714C3324.27 842.714 3333.13 828.235 3333.13 813.586V761.464H3350.5V826.532C3350.5 842.203 3351.69 848.676 3353.57 856H3336.19C3334.66 849.868 3333.64 845.269 3336.19 836.241H3333.81C3327.68 852.934 3317.46 858.896 3303.66 858.896ZM3408.92 858.896C3388.82 858.896 3373.66 848.335 3368.89 832.323L3384.9 827.213C3389.5 838.455 3399.38 844.587 3408.75 844.587C3415.56 844.587 3425.95 841.351 3425.95 831.131C3425.95 822.274 3417.44 819.548 3409.09 817.163L3399.55 814.438C3389.33 811.372 3373.32 805.07 3373.32 786.673C3373.32 768.618 3389.16 758.738 3406.53 758.738C3424.08 758.738 3437.19 768.958 3441.28 782.245L3425.1 787.695C3422.38 780.03 3416.07 773.046 3405.68 773.046C3397 773.046 3390.69 777.816 3390.69 785.481C3390.69 795.02 3401.76 798.597 3410.11 800.982L3418.12 803.366C3427.83 806.092 3444.18 810.861 3444.18 829.257C3444.18 846.632 3430.04 858.896 3408.92 858.896ZM3504.8 858.896C3477.37 858.896 3456.93 838.966 3456.93 809.158C3456.93 779.86 3476.52 758.738 3503.78 758.738C3524.39 758.738 3548.06 771.173 3548.06 807.454V813.246H3474.48C3475.67 832.494 3488.45 843.395 3504.8 843.395C3518.25 843.395 3528.13 835.219 3532.9 823.466L3548.92 829.768C3542.27 847.313 3525.75 858.896 3504.8 858.896ZM3475.33 798.937H3530.35C3529.33 780.712 3516.21 773.728 3503.61 773.728C3488.28 773.728 3477.88 784.629 3475.33 798.937Z" fill="#052C26"/>
</svg>
